<?xml version="1.0" encoding="UTF-8" standalone="no"?>
<!DOCTYPE svg PUBLIC "-//W3C//DTD SVG 1.1//EN" "http://www.w3.org/Graphics/SVG/1.1/DTD/svg11.dtd">
<!-- Generated by Microsoft Visio, SVG Export rd_pa_lna.svg Page-1 -->
<svg xmlns="http://www.w3.org/2000/svg" xmlns:xlink="http://www.w3.org/1999/xlink" xmlns:ev="http://www.w3.org/2001/xml-events"
		width="6.12264in" height="2.57266in" viewBox="0 0 440.83 185.232" xml:space="preserve" color-interpolation-filters="sRGB"
		class="st6">
	<style type="text/css">
	<![CDATA[
		.st1 {fill:#00a9ce;stroke:none;stroke-width:1}
		.st2 {fill:#ffffff;font-family:Arial;font-size:1.16666em}
		.st3 {stroke:#333f48;stroke-linecap:butt;stroke-width:1}
		.st4 {fill:none;stroke:none;stroke-width:1}
		.st5 {fill:#333f48;font-family:Arial;font-size:1.00001em}
		.st6 {fill:none;fill-rule:evenodd;font-size:12px;overflow:visible;stroke-linecap:square;stroke-miterlimit:3}
	]]>
	</style>

	<g>
		<title>Page-1</title>
		<g id="shape164-1" transform="translate(1,-1)">
			<title>Nordic Blue</title>
			<desc>nRF52</desc>
			<rect x="0" y="2" width="112.565" height="183.232" class="st1"/>
			<text x="35.27" y="97.82" class="st2">nRF52</text>		</g>
		<g id="shape165-4" transform="translate(403.743,-131.88)">
			<title>Dynamic connector</title>
			<path d="M0.48 185.23 L13.69 164.29" class="st3"/>
		</g>
		<g id="shape166-7" transform="translate(113.565,-151.1)">
			<title>Dynamic connector.11</title>
			<path d="M0 178.28 L145.33 178.01" class="st3"/>
		</g>
		<g id="shape167-10" transform="translate(258.894,-1)">
			<title>Nordic Blue.3</title>
			<desc>nRF21540</desc>
			<rect x="0" y="2" width="112.565" height="183.232" class="st1"/>
			<text x="23.59" y="97.82" class="st2">nRF21540</text>		</g>
		<g id="shape168-13" transform="translate(113.565,-124.662)">
			<title>Dynamic connector.12</title>
			<path d="M0 178.28 L145.33 178.01" class="st3"/>
		</g>
		<g id="shape169-16" transform="translate(113.565,-98.4864)">
			<title>Dynamic connector.13</title>
			<path d="M0 178.28 L145.33 178.01" class="st3"/>
		</g>
		<g id="shape170-19" transform="translate(113.565,-72.3104)">
			<title>Dynamic connector.14</title>
			<path d="M0 178.28 L145.33 178.01" class="st3"/>
		</g>
		<g id="shape171-22" transform="translate(113.565,-46.1345)">
			<title>Dynamic connector.15</title>
			<path d="M0 178.28 L145.33 178.01" class="st3"/>
		</g>
		<g id="shape172-25" transform="translate(113.565,-19.9585)">
			<title>Dynamic connector.16</title>
			<path d="M0 178.28 L145.33 178.01" class="st3"/>
		</g>
		<g id="shape173-28" transform="translate(390.294,-152.821)">
			<title>Dynamic connector.20</title>
			<path d="M0.72 185.23 L13.45 206.17" class="st3"/>
		</g>
		<g id="shape174-31" transform="translate(404.224,-131.88)">
			<title>Dynamic connector.23</title>
			<path d="M0 185.23 L0 224.5 L-32.77 224.5" class="st3"/>
		</g>
		<g id="shape176-34" transform="translate(150.917,-158.686)">
			<title>Sheet.176</title>
			<desc>RF</desc>
			<rect x="0" y="169.451" width="72.1481" height="15.7808" class="st4"/>
			<text x="28.08" y="180.94" class="st5">RF</text>		</g>
		<g id="shape178-37" transform="translate(150.917,-132.458)">
			<title>Sheet.178</title>
			<desc>PDN</desc>
			<rect x="0" y="169.451" width="72.1481" height="15.7808" class="st4"/>
			<text x="23.41" y="180.94" class="st5">PDN</text>		</g>
		<g id="shape179-40" transform="translate(150.917,-106.23)">
			<title>Sheet.179</title>
			<desc>RX EN</desc>
			<rect x="0" y="169.451" width="72.1481" height="15.7808" class="st4"/>
			<text x="17.74" y="180.94" class="st5">RX EN</text>		</g>
		<g id="shape181-43" transform="translate(150.917,-80.0015)">
			<title>Sheet.181</title>
			<desc>TX EN</desc>
			<rect x="0" y="169.451" width="72.1481" height="15.7808" class="st4"/>
			<text x="18.4" y="180.94" class="st5">TX EN</text>		</g>
		<g id="shape183-46" transform="translate(150.917,-53.7732)">
			<title>Sheet.183</title>
			<desc>MODE</desc>
			<rect x="0" y="169.451" width="72.1481" height="15.7808" class="st4"/>
			<text x="18.07" y="180.94" class="st5">MODE</text>		</g>
		<g id="shape185-49" transform="translate(150.917,-27.5449)">
			<title>Sheet.185</title>
			<desc>ANT SEL</desc>
			<rect x="0" y="169.451" width="72.1481" height="15.7808" class="st4"/>
			<text x="11.07" y="180.94" class="st5">ANT SEL</text>		</g>
	</g>
</svg>
