<?xml version="1.0" encoding="UTF-8" standalone="no" ?>
<!DOCTYPE svg PUBLIC "-//W3C//DTD SVG 1.1//EN" "http://www.w3.org/Graphics/SVG/1.1/DTD/svg11.dtd">
<svg xmlns="http://www.w3.org/2000/svg" xmlns:xlink="http://www.w3.org/1999/xlink" version="1.1" width="2000" height="800" viewBox="0 0 2000 800" xml:space="preserve">
<desc>Created with Fabric.js 5.2.4</desc>
<defs>
</defs>
<rect x="0" y="0" width="100%" height="100%" fill="transparent"></rect>
<g transform="matrix(Infinity NaN NaN Infinity 0 0)" id="0a3a3d43-28c8-4c8e-b2a9-1122836577ab"  >
</g>
<g transform="matrix(1 0 0 1 1000 400)" id="8bcb32d8-0794-4b16-b5f1-d2a4175d4d66"  >
<rect style="stroke: none; stroke-width: 1; stroke-dasharray: none; stroke-linecap: butt; stroke-dashoffset: 0; stroke-linejoin: miter; stroke-miterlimit: 4; fill: rgb(255,255,255); fill-rule: nonzero; opacity: 1;" vector-effect="non-scaling-stroke"  x="-1000" y="-400" rx="0" ry="0" width="2000" height="800" />
</g>
<g transform="matrix(1.35 0 0 1.35 1000 400)"  >
<g style="" vector-effect="non-scaling-stroke"   >
		<g transform="matrix(1.33 0 0 -1.33 -581.48 -6.09)"  >
<path style="stroke: rgb(0,0,0); stroke-opacity: 0; stroke-width: 1; stroke-dasharray: none; stroke-linecap: round; stroke-dashoffset: 0; stroke-linejoin: miter; stroke-miterlimit: 4; fill: none; fill-rule: nonzero; opacity: 1;" vector-effect="non-scaling-stroke"  transform=" translate(-31.67, -43.14)" d="M 0 0 L 63.345600128 0 L 63.345600128 0 L 63.345600128 86.284805298 L 63.345600128 86.284805298 L 0 86.284805298 L 0 86.284805298 L 0 0 Z" stroke-linecap="round" />
</g>
		<g transform="matrix(1.33 0 0 -1.33 -581.48 -6.09)"  >
<path style="stroke: rgb(0,0,0); stroke-width: 1; stroke-dasharray: none; stroke-linecap: round; stroke-dashoffset: 0; stroke-linejoin: miter; stroke-miterlimit: 4; fill: rgb(255,255,255); fill-rule: evenodd; opacity: 1;" vector-effect="non-scaling-stroke"  transform=" translate(-31.67, -43.14)" d="M 0 0 L 63.345600128 0 L 63.345600128 0 L 63.345600128 86.284805298 L 63.345600128 86.284805298 L 0 86.284805298 L 0 86.284805298 L 0 0 Z" stroke-linecap="round" />
</g>
		<g transform="matrix(1.33 0 0 1.33 -581.47 -7.54)" style=""  >
		<text xml:space="preserve" font-family="Calibri" font-size="24" font-style="normal" font-weight="normal" style="stroke: none; stroke-width: 1; stroke-dasharray: none; stroke-linecap: butt; stroke-dashoffset: 0; stroke-linejoin: miter; stroke-miterlimit: 4; fill: rgb(0,0,0); fill-rule: nonzero; opacity: 1; white-space: pre;" ><tspan x="-12.48" y="7.54" >C0</tspan></text>
</g>
		<g transform="matrix(1.33 0 0 -1.33 -247.92 -86.86)"  >
<path style="stroke: rgb(0,0,0); stroke-width: 1.5; stroke-dasharray: none; stroke-linecap: round; stroke-dashoffset: 0; stroke-linejoin: miter; stroke-miterlimit: 4; fill: rgb(255,255,255); fill-rule: evenodd; opacity: 1;" vector-effect="non-scaling-stroke"  transform=" translate(-282.59, 0)" d="M 0.164966404 0.082483202 L 0.164966404 -0.082483202 L 0.164966404 -0.082483202 L 0 0 L 0 0 L 0.164966404 0.082483202 Z M 565.018371582 0.082483202 L 565.018371582 -0.082483202 L 565.018371582 -0.082483202 L 565.183349609 0 L 565.183349609 0 L 565.018371582 0.082483202 M 0.164966404 0 L 565.018371582 0" stroke-linecap="round" />
</g>
		<g transform="matrix(1.33 0 0 -1.33 -622.57 -86.86)"  >
<path style="stroke: rgb(0,0,0); stroke-width: 1.5; stroke-dasharray: none; stroke-linecap: butt; stroke-dashoffset: 0; stroke-linejoin: miter; stroke-miterlimit: 4; fill: none; fill-rule: nonzero; opacity: 1;" vector-effect="non-scaling-stroke"  transform=" translate(-1.6, 0)" d="M 3.044966459 -2.880000114 L 0.164966404 0 L 3.044966459 2.880000114" stroke-linecap="round" />
</g>
		<g transform="matrix(1.33 0 0 -1.33 126.73 -86.86)"  >
<path style="stroke: rgb(0,0,0); stroke-width: 1.5; stroke-dasharray: none; stroke-linecap: butt; stroke-dashoffset: 0; stroke-linejoin: miter; stroke-miterlimit: 4; fill: none; fill-rule: nonzero; opacity: 1;" vector-effect="non-scaling-stroke"  transform=" translate(-563.58, 0)" d="M 562.138366699 -2.880000114 L 565.018371582 0 L 562.138366699 2.880000114" stroke-linecap="round" />
</g>
		<g transform="matrix(1.33 0 0 -1.33 171.69 -6.06)"  >
<path style="stroke: rgb(0,0,0); stroke-width: 1; stroke-dasharray: none; stroke-linecap: round; stroke-dashoffset: 0; stroke-linejoin: miter; stroke-miterlimit: 4; fill: rgb(255,255,255); fill-rule: evenodd; opacity: 1;" vector-effect="non-scaling-stroke"  transform=" translate(-31.67, -43.14)" d="M 0 0 L 63.345600128 0 L 63.345600128 0 L 63.345600128 86.284805298 L 63.345600128 86.284805298 L 0 86.284805298 L 0 86.284805298 L 0 0 Z" stroke-linecap="round" />
</g>
		<g transform="matrix(1.33 0 0 1.33 171.69 -7.51)" style=""  >
		<text xml:space="preserve" font-family="Calibri" font-size="24" font-style="normal" font-weight="normal" style="stroke: none; stroke-width: 1; stroke-dasharray: none; stroke-linecap: butt; stroke-dashoffset: 0; stroke-linejoin: miter; stroke-miterlimit: 4; fill: rgb(0,0,0); fill-rule: nonzero; opacity: 1; white-space: pre;" ><tspan x="-12.48" y="7.54" >C0</tspan></text>
</g>
		<g transform="matrix(1.33 0 0 1.33 -256.85 -108.72)" style=""  >
		<text xml:space="preserve" font-family="Calibri" font-size="20" font-style="normal" font-weight="normal" style="stroke: none; stroke-width: 1; stroke-dasharray: none; stroke-linecap: butt; stroke-dashoffset: 0; stroke-linejoin: miter; stroke-miterlimit: 4; fill: rgb(0,0,0); fill-rule: nonzero; opacity: 1; white-space: pre;" ><tspan x="-43.24" y="6.28" >AclInterval</tspan></text>
</g>
		<g transform="matrix(1.33 0 0 -1.33 -441.83 -6.09)"  >
<path style="stroke: rgb(0,0,0); stroke-width: 0.75; stroke-dasharray: none; stroke-linecap: round; stroke-dashoffset: 0; stroke-linejoin: miter; stroke-miterlimit: 4; fill: rgb(255,255,255); fill-rule: evenodd; opacity: 1;" vector-effect="non-scaling-stroke"  transform=" translate(-54, -43.14)" d="M 0 0 L 108 0 L 108 0 L 108 86.284805298 L 108 86.284805298 L 0 86.284805298 L 0 86.284805298 L 0 0 Z" stroke-linecap="round" />
</g>
		<g transform="matrix(1.33 0 0 1.33 -442.5 -26.74)" style=""  >
		<text xml:space="preserve" font-family="Calibri" font-size="24" font-style="normal" font-weight="normal" style="stroke: none; stroke-width: 1; stroke-dasharray: none; stroke-linecap: butt; stroke-dashoffset: 0; stroke-linejoin: miter; stroke-miterlimit: 4; fill: rgb(0,0,0); fill-rule: nonzero; opacity: 1; white-space: pre;" ><tspan x="-41.69" y="7.54" >CS Event</tspan></text>
</g>
		<g transform="matrix(1.33 0 0 1.33 -441.82 11.66)" style=""  >
		<text xml:space="preserve" font-family="Calibri" font-size="24" font-style="normal" font-weight="normal" style="stroke: none; stroke-width: 1; stroke-dasharray: none; stroke-linecap: butt; stroke-dashoffset: 0; stroke-linejoin: miter; stroke-miterlimit: 4; fill: rgb(0,0,0); fill-rule: nonzero; opacity: 1; white-space: pre;" ><tspan x="-34.13" y="7.54" >Conn 0</tspan></text>
</g>
		<g transform="matrix(1.33 0 0 1.33 688.19 80.5)" style=""  >
		<text xml:space="preserve" font-family="Calibri" font-size="20" font-style="normal" font-weight="normal" style="stroke: none; stroke-width: 1; stroke-dasharray: none; stroke-linecap: butt; stroke-dashoffset: 0; stroke-linejoin: miter; stroke-miterlimit: 4; fill: rgb(0,0,0); fill-rule: nonzero; opacity: 1; white-space: pre;" ><tspan x="-18.54" y="6.28" >time</tspan></text>
</g>
		<g transform="matrix(1.33 0 0 -1.33 -34.23 51.82)"  >
<path style="stroke: rgb(0,0,0); stroke-width: 1.5; stroke-dasharray: none; stroke-linecap: round; stroke-dashoffset: 0; stroke-linejoin: miter; stroke-miterlimit: 4; fill: rgb(255,255,255); fill-rule: evenodd; opacity: 1;" vector-effect="non-scaling-stroke"  transform=" translate(-508.81, 0)" d="M 1017.627380371 0 L 1017.627380371 0 L 1017.627380371 0 L 1017.627380371 0 L 1017.627380371 0 L 1017.627380371 0 Z M 0 0 L 1009.563354492 0" stroke-linecap="round" />
</g>
		<g transform="matrix(1.33 0 0 -1.33 637.66 51.82)"  >
<path style="stroke: rgb(0,0,0); stroke-width: 1.5; stroke-dasharray: none; stroke-linecap: butt; stroke-dashoffset: 0; stroke-linejoin: miter; stroke-miterlimit: 4; fill: rgb(0,0,0); fill-rule: evenodd; opacity: 1;" vector-effect="non-scaling-stroke"  transform=" translate(-1012.73, 0)" d="M 1009.563354492 -2.880000114 L 1015.899353027 0 L 1009.563354492 2.880000114 Z" stroke-linecap="round" />
</g>
		<g transform="matrix(1.33 0 0 -1.33 -102.72 -6.08)"  >
<path style="stroke: rgb(0,0,0); stroke-width: 1; stroke-dasharray: none; stroke-linecap: round; stroke-dashoffset: 0; stroke-linejoin: miter; stroke-miterlimit: 4; fill: rgb(255,255,255); fill-rule: evenodd; opacity: 1;" vector-effect="non-scaling-stroke"  transform=" translate(-31.67, -43.14)" d="M 0 0 L 63.345600128 0 L 63.345600128 0 L 63.345600128 86.284805298 L 63.345600128 86.284805298 L 0 86.284805298 L 0 86.284805298 L 0 0 Z" stroke-linecap="round" />
</g>
		<g transform="matrix(1.33 0 0 1.33 -102.72 -7.53)" style=""  >
		<text xml:space="preserve" font-family="Calibri" font-size="24" font-style="normal" font-weight="normal" style="stroke: none; stroke-width: 1; stroke-dasharray: none; stroke-linecap: butt; stroke-dashoffset: 0; stroke-linejoin: miter; stroke-miterlimit: 4; fill: rgb(0,0,0); fill-rule: nonzero; opacity: 1; white-space: pre;" ><tspan x="-12.48" y="7.54" >C1</tspan></text>
</g>
		<g transform="matrix(1.33 0 0 -1.33 -384.55 81.16)"  >
<path style="stroke: rgb(0,0,0); stroke-width: 1.5; stroke-dasharray: none; stroke-linecap: round; stroke-dashoffset: 0; stroke-linejoin: miter; stroke-miterlimit: 4; fill: rgb(255,255,255); fill-rule: evenodd; opacity: 1;" vector-effect="non-scaling-stroke"  transform=" translate(-179.66, 0)" d="M 0.164966404 0.082483202 L 0.164966404 -0.082483202 L 0.164966404 -0.082483202 L 0 0 L 0 0 L 0.164966404 0.082483202 Z M 359.163391113 0.082483202 L 359.163391113 -0.082483202 L 359.163391113 -0.082483202 L 359.328369141 0 L 359.328369141 0 L 359.163391113 0.082483202 M 0.164966404 0 L 359.163391113 0" stroke-linecap="round" />
</g>
		<g transform="matrix(1.33 0 0 -1.33 -621.97 81.16)"  >
<path style="stroke: rgb(0,0,0); stroke-width: 1.5; stroke-dasharray: none; stroke-linecap: butt; stroke-dashoffset: 0; stroke-linejoin: miter; stroke-miterlimit: 4; fill: none; fill-rule: nonzero; opacity: 1;" vector-effect="non-scaling-stroke"  transform=" translate(-1.6, 0)" d="M 3.044966459 -2.880000114 L 0.164966404 0 L 3.044966459 2.880000114" stroke-linecap="round" />
</g>
		<g transform="matrix(1.33 0 0 -1.33 -147.14 81.16)"  >
<path style="stroke: rgb(0,0,0); stroke-width: 1.5; stroke-dasharray: none; stroke-linecap: butt; stroke-dashoffset: 0; stroke-linejoin: miter; stroke-miterlimit: 4; fill: none; fill-rule: nonzero; opacity: 1;" vector-effect="non-scaling-stroke"  transform=" translate(-357.72, 0)" d="M 356.28338623 -2.880000114 L 359.163391113 0 L 356.28338623 2.880000114" stroke-linecap="round" />
</g>
		<g transform="matrix(1.33 0 0 1.33 -378.18 103.28)" style=""  >
		<text xml:space="preserve" font-family="Calibri" font-size="20" font-style="normal" font-weight="normal" style="stroke: none; stroke-width: 1; stroke-dasharray: none; stroke-linecap: butt; stroke-dashoffset: 0; stroke-linejoin: miter; stroke-miterlimit: 4; fill: rgb(0,0,0); fill-rule: nonzero; opacity: 1; white-space: pre;" ><tspan x="-65.99" y="6.28" >AclEventSpacing</tspan></text>
</g>
		<g transform="matrix(1.33 0 0 -1.33 -569.64 128.26)"  >
<path style="stroke: rgb(0,0,0); stroke-width: 1.5; stroke-dasharray: none; stroke-linecap: round; stroke-dashoffset: 0; stroke-linejoin: miter; stroke-miterlimit: 4; fill: rgb(255,255,255); fill-rule: evenodd; opacity: 1;" vector-effect="non-scaling-stroke"  transform=" translate(-41.68, 0)" d="M 0.164966404 0.082483202 L 0.164966404 -0.082483202 L 0.164966404 -0.082483202 L 0 0 L 0 0 L 0.164966404 0.082483202 Z M 83.201858521 0.082483202 L 83.201858521 -0.082483202 L 83.201858521 -0.082483202 L 83.366821289 0 L 83.366821289 0 L 83.201858521 0.082483202 M 0.164966404 0 L 83.201858521 0" stroke-linecap="round" />
</g>
		<g transform="matrix(1.33 0 0 -1.33 -623.08 128.26)"  >
<path style="stroke: rgb(0,0,0); stroke-width: 1.5; stroke-dasharray: none; stroke-linecap: butt; stroke-dashoffset: 0; stroke-linejoin: miter; stroke-miterlimit: 4; fill: none; fill-rule: nonzero; opacity: 1;" vector-effect="non-scaling-stroke"  transform=" translate(-1.6, 0)" d="M 3.044966459 -2.880000114 L 0.164966404 0 L 3.044966459 2.880000114" stroke-linecap="round" />
</g>
		<g transform="matrix(1.33 0 0 -1.33 -516.2 128.26)"  >
<path style="stroke: rgb(0,0,0); stroke-width: 1.5; stroke-dasharray: none; stroke-linecap: butt; stroke-dashoffset: 0; stroke-linejoin: miter; stroke-miterlimit: 4; fill: none; fill-rule: nonzero; opacity: 1;" vector-effect="non-scaling-stroke"  transform=" translate(-81.76, 0)" d="M 80.321861267 -2.880000114 L 83.201858521 0 L 80.321861267 2.880000114" stroke-linecap="round" />
</g>
		<g transform="matrix(1.33 0 0 1.33 -567.75 149.65)" style=""  >
		<text xml:space="preserve" font-family="Calibri" font-size="20" font-style="normal" font-weight="normal" style="stroke: none; stroke-width: 1; stroke-dasharray: none; stroke-linecap: butt; stroke-dashoffset: 0; stroke-linejoin: miter; stroke-miterlimit: 4; fill: rgb(0,0,0); fill-rule: nonzero; opacity: 1; white-space: pre;" ><tspan x="-62.46" y="6.28" >AclEventLength</tspan></text>
</g>
		<g transform="matrix(1.33 0 0 -1.33 311.33 -6.05)"  >
<path style="stroke: rgb(0,0,0); stroke-width: 0.75; stroke-dasharray: none; stroke-linecap: round; stroke-dashoffset: 0; stroke-linejoin: miter; stroke-miterlimit: 4; fill: rgb(255,255,255); fill-rule: evenodd; opacity: 1;" vector-effect="non-scaling-stroke"  transform=" translate(-54, -43.14)" d="M 0 0 L 108 0 L 108 0 L 108 86.284805298 L 108 86.284805298 L 0 86.284805298 L 0 86.284805298 L 0 0 Z" stroke-linecap="round" />
</g>
		<g transform="matrix(1.33 0 0 1.33 310.65 -25.69)" style=""  >
		<text xml:space="preserve" font-family="Calibri" font-size="24" font-style="normal" font-weight="normal" style="stroke: none; stroke-width: 1; stroke-dasharray: none; stroke-linecap: butt; stroke-dashoffset: 0; stroke-linejoin: miter; stroke-miterlimit: 4; fill: rgb(0,0,0); fill-rule: nonzero; opacity: 1; white-space: pre;" ><tspan x="-41.69" y="7.54" >CS Event</tspan></text>
</g>
		<g transform="matrix(1.33 0 0 1.33 311.33 12.71)" style=""  >
		<text xml:space="preserve" font-family="Calibri" font-size="24" font-style="normal" font-weight="normal" style="stroke: none; stroke-width: 1; stroke-dasharray: none; stroke-linecap: butt; stroke-dashoffset: 0; stroke-linejoin: miter; stroke-miterlimit: 4; fill: rgb(0,0,0); fill-rule: nonzero; opacity: 1; white-space: pre;" ><tspan x="-34.13" y="7.54" >Conn 0</tspan></text>
</g>
		<g transform="matrix(1.33 0 0 -1.33 36.92 -6.05)"  >
<path style="stroke: rgb(0,0,0); stroke-width: 0.75; stroke-dasharray: none; stroke-linecap: round; stroke-dashoffset: 0; stroke-linejoin: miter; stroke-miterlimit: 4; fill: rgb(255,255,255); fill-rule: evenodd; opacity: 1;" vector-effect="non-scaling-stroke"  transform=" translate(-54, -43.14)" d="M 0 0 L 108 0 L 108 0 L 108 86.284805298 L 108 86.284805298 L 0 86.284805298 L 0 86.284805298 L 0 0 Z" stroke-linecap="round" />
</g>
		<g transform="matrix(1.33 0 0 1.33 36.23 -25.7)" style=""  >
		<text xml:space="preserve" font-family="Calibri" font-size="24" font-style="normal" font-weight="normal" style="stroke: none; stroke-width: 1; stroke-dasharray: none; stroke-linecap: butt; stroke-dashoffset: 0; stroke-linejoin: miter; stroke-miterlimit: 4; fill: rgb(0,0,0); fill-rule: nonzero; opacity: 1; white-space: pre;" ><tspan x="-41.69" y="7.54" >CS Event</tspan></text>
</g>
		<g transform="matrix(1.33 0 0 1.33 36.91 12.7)" style=""  >
		<text xml:space="preserve" font-family="Calibri" font-size="24" font-style="normal" font-weight="normal" style="stroke: none; stroke-width: 1; stroke-dasharray: none; stroke-linecap: butt; stroke-dashoffset: 0; stroke-linejoin: miter; stroke-miterlimit: 4; fill: rgb(0,0,0); fill-rule: nonzero; opacity: 1; white-space: pre;" ><tspan x="-34.13" y="7.54" >Conn 1</tspan></text>
</g>
		<g transform="matrix(1.33 0 0 -1.33 -260.18 -6.05)"  >
<path style="stroke: rgb(0,0,0); stroke-width: 0.75; stroke-dasharray: none; stroke-linecap: round; stroke-dashoffset: 0; stroke-linejoin: miter; stroke-miterlimit: 4; fill: rgb(255,255,255); fill-rule: evenodd; opacity: 1;" vector-effect="non-scaling-stroke"  transform=" translate(-63.84, -43.14)" d="M 0 0 L 127.677604675 0 L 127.677604675 0 L 127.677604675 86.284805298 L 127.677604675 86.284805298 L 0 86.284805298 L 0 86.284805298 L 0 0 Z" stroke-linecap="round" />
</g>
		<g transform="matrix(1.33 0 0 -1.33 492.96 -6.05)"  >
<path style="stroke: rgb(0,0,0); stroke-width: 0.75; stroke-dasharray: none; stroke-linecap: round; stroke-dashoffset: 0; stroke-linejoin: miter; stroke-miterlimit: 4; fill: rgb(255,255,255); fill-rule: evenodd; opacity: 1;" vector-effect="non-scaling-stroke"  transform=" translate(-63.84, -43.14)" d="M 0 0 L 127.677604675 0 L 127.677604675 0 L 127.677604675 86.284805298 L 127.677604675 86.284805298 L 0 86.284805298 L 0 86.284805298 L 0 0 Z" stroke-linecap="round" />
</g>
		<g transform="matrix(1.33 0 0 1.33 -256.51 -26.75)" style=""  >
		<text xml:space="preserve" font-family="Calibri" font-size="24" font-style="normal" font-weight="normal" style="stroke: none; stroke-width: 1; stroke-dasharray: none; stroke-linecap: butt; stroke-dashoffset: 0; stroke-linejoin: miter; stroke-miterlimit: 4; fill: rgb(0,0,0); fill-rule: nonzero; opacity: 1; white-space: pre;" ><tspan x="-41.36" y="7.54" >CIG with</tspan></text>
</g>
		<g transform="matrix(1.33 0 0 1.33 -256.51 11.65)" style=""  >
		<text xml:space="preserve" font-family="Calibri" font-size="24" font-style="normal" font-weight="normal" style="stroke: none; stroke-width: 1; stroke-dasharray: none; stroke-linecap: butt; stroke-dashoffset: 0; stroke-linejoin: miter; stroke-miterlimit: 4; fill: rgb(0,0,0); fill-rule: nonzero; opacity: 1; white-space: pre;" ><tspan x="-47.74" y="7.54" >CIS1, CIS2</tspan></text>
</g>
		<g transform="matrix(1.33 0 0 1.33 492.97 -26.75)" style=""  >
		<text xml:space="preserve" font-family="Calibri" font-size="24" font-style="normal" font-weight="normal" style="stroke: none; stroke-width: 1; stroke-dasharray: none; stroke-linecap: butt; stroke-dashoffset: 0; stroke-linejoin: miter; stroke-miterlimit: 4; fill: rgb(0,0,0); fill-rule: nonzero; opacity: 1; white-space: pre;" ><tspan x="-41.36" y="7.54" >CIG with</tspan></text>
</g>
		<g transform="matrix(1.33 0 0 1.33 492.97 11.65)" style=""  >
		<text xml:space="preserve" font-family="Calibri" font-size="24" font-style="normal" font-weight="normal" style="stroke: none; stroke-width: 1; stroke-dasharray: none; stroke-linecap: butt; stroke-dashoffset: 0; stroke-linejoin: miter; stroke-miterlimit: 4; fill: rgb(0,0,0); fill-rule: nonzero; opacity: 1; white-space: pre;" ><tspan x="-47.74" y="7.54" >CIS1, CIS2</tspan></text>
</g>
		<g transform="matrix(1.33 0 0 -1.33 31.05 -130.38)"  >
<path style="stroke: rgb(0,0,0); stroke-width: 1.5; stroke-dasharray: none; stroke-linecap: round; stroke-dashoffset: 0; stroke-linejoin: miter; stroke-miterlimit: 4; fill: rgb(255,255,255); fill-rule: evenodd; opacity: 1;" vector-effect="non-scaling-stroke"  transform=" translate(-282.59, 0)" d="M 0.164966404 0.082483202 L 0.164966404 -0.082483202 L 0.164966404 -0.082483202 L 0 0 L 0 0 L 0.164966404 0.082483202 Z M 565.018371582 0.082483202 L 565.018371582 -0.082483202 L 565.018371582 -0.082483202 L 565.183349609 0 L 565.183349609 0 L 565.018371582 0.082483202 M 0.164966404 0 L 565.018371582 0" stroke-linecap="round" />
</g>
		<g transform="matrix(1.33 0 0 -1.33 -343.6 -130.38)"  >
<path style="stroke: rgb(0,0,0); stroke-width: 1.5; stroke-dasharray: none; stroke-linecap: butt; stroke-dashoffset: 0; stroke-linejoin: miter; stroke-miterlimit: 4; fill: none; fill-rule: nonzero; opacity: 1;" vector-effect="non-scaling-stroke"  transform=" translate(-1.6, 0)" d="M 3.044966459 -2.880000114 L 0.164966404 0 L 3.044966459 2.880000114" stroke-linecap="round" />
</g>
		<g transform="matrix(1.33 0 0 -1.33 405.7 -130.38)"  >
<path style="stroke: rgb(0,0,0); stroke-width: 1.5; stroke-dasharray: none; stroke-linecap: butt; stroke-dashoffset: 0; stroke-linejoin: miter; stroke-miterlimit: 4; fill: none; fill-rule: nonzero; opacity: 1;" vector-effect="non-scaling-stroke"  transform=" translate(-563.58, 0)" d="M 562.138366699 -2.880000114 L 565.018371582 0 L 562.138366699 2.880000114" stroke-linecap="round" />
</g>
		<g transform="matrix(1.33 0 0 1.33 44.62 -149.65)" style=""  >
		<text xml:space="preserve" font-family="Calibri" font-size="20" font-style="normal" font-weight="normal" style="stroke: none; stroke-width: 1; stroke-dasharray: none; stroke-linecap: butt; stroke-dashoffset: 0; stroke-linejoin: miter; stroke-miterlimit: 4; fill: rgb(0,0,0); fill-rule: nonzero; opacity: 1; white-space: pre;" ><tspan x="-42.64" y="6.28" >IsoInterval</tspan></text>
</g>
		<g transform="matrix(1.33 0 0 -1.33 -485.28 -130.38)"  >
<path style="stroke: rgb(0,0,0); stroke-width: 1.5; stroke-dasharray: none; stroke-linecap: round; stroke-dashoffset: 0; stroke-linejoin: miter; stroke-miterlimit: 4; fill: rgb(255,255,255); fill-rule: evenodd; opacity: 1;" vector-effect="non-scaling-stroke"  transform=" translate(-104.08, 0)" d="M 0.164966404 0.082483202 L 0.164966404 -0.082483202 L 0.164966404 -0.082483202 L 0 0 L 0 0 L 0.164966404 0.082483202 Z M 207.998672485 0.082483202 L 207.998672485 -0.082483202 L 207.998672485 -0.082483202 L 208.163635254 0 L 208.163635254 0 L 207.998672485 0.082483202 M 0.164966404 0 L 207.998672485 0" stroke-linecap="round" />
</g>
		<g transform="matrix(1.33 0 0 -1.33 -621.91 -130.38)"  >
<path style="stroke: rgb(0,0,0); stroke-width: 1.5; stroke-dasharray: none; stroke-linecap: butt; stroke-dashoffset: 0; stroke-linejoin: miter; stroke-miterlimit: 4; fill: none; fill-rule: nonzero; opacity: 1;" vector-effect="non-scaling-stroke"  transform=" translate(-1.6, 0)" d="M 3.044966459 -2.880000114 L 0.164966404 0 L 3.044966459 2.880000114" stroke-linecap="round" />
</g>
		<g transform="matrix(1.33 0 0 -1.33 -348.64 -130.38)"  >
<path style="stroke: rgb(0,0,0); stroke-width: 1.5; stroke-dasharray: none; stroke-linecap: butt; stroke-dashoffset: 0; stroke-linejoin: miter; stroke-miterlimit: 4; fill: none; fill-rule: nonzero; opacity: 1;" vector-effect="non-scaling-stroke"  transform=" translate(-206.56, 0)" d="M 205.118682861 -2.880000114 L 207.998672485 0 L 205.118682861 2.880000114" stroke-linecap="round" />
</g>
		<g transform="matrix(1.33 0 0 1.33 -471.95 -149.65)" style=""  >
		<text xml:space="preserve" font-family="Calibri" font-size="20" font-style="normal" font-weight="normal" style="stroke: none; stroke-width: 1; stroke-dasharray: none; stroke-linecap: butt; stroke-dashoffset: 0; stroke-linejoin: miter; stroke-miterlimit: 4; fill: rgb(0,0,0); fill-rule: nonzero; opacity: 1; white-space: pre;" ><tspan x="-71.64" y="6.28" >CIGReservedTime</tspan></text>
</g>
</g>
</g>
</svg>