<?xml version="1.0" encoding="UTF-8" standalone="no" ?>
<!DOCTYPE svg PUBLIC "-//W3C//DTD SVG 1.1//EN" "http://www.w3.org/Graphics/SVG/1.1/DTD/svg11.dtd">
<svg xmlns="http://www.w3.org/2000/svg" xmlns:xlink="http://www.w3.org/1999/xlink" version="1.1" width="2000" height="800" viewBox="0 0 2000 800" xml:space="preserve">
<desc>Created with Fabric.js 5.2.4</desc>
<defs>
</defs>
<rect x="0" y="0" width="100%" height="100%" fill="transparent"></rect>
<g transform="matrix(Infinity NaN NaN Infinity 0 0)" id="0a3a3d43-28c8-4c8e-b2a9-1122836577ab"  >
</g>
<g transform="matrix(1 0 0 1 1000 400)" id="8bcb32d8-0794-4b16-b5f1-d2a4175d4d66"  >
<rect style="stroke: none; stroke-width: 1; stroke-dasharray: none; stroke-linecap: butt; stroke-dashoffset: 0; stroke-linejoin: miter; stroke-miterlimit: 4; fill: rgb(255,255,255); fill-rule: nonzero; opacity: 1;" vector-effect="non-scaling-stroke"  x="-1000" y="-400" rx="0" ry="0" width="2000" height="800" />
</g>
<g transform="matrix(1.62 0 0 1.62 1000 400)"  >
<g style="" vector-effect="non-scaling-stroke"   >
		<g transform="matrix(1.33 0 0 -1.33 -461.21 -26.11)"  >
<path style="stroke: rgb(0,0,0); stroke-opacity: 0; stroke-width: 1; stroke-dasharray: none; stroke-linecap: round; stroke-dashoffset: 0; stroke-linejoin: miter; stroke-miterlimit: 4; fill: none; fill-rule: nonzero; opacity: 1;" vector-effect="non-scaling-stroke"  transform=" translate(-31.67, -43.14)" d="M 0 0 L 63.345600128 0 L 63.345600128 0 L 63.345600128 86.284805298 L 63.345600128 86.284805298 L 0 86.284805298 L 0 86.284805298 L 0 0 Z" stroke-linecap="round" />
</g>
		<g transform="matrix(1.33 0 0 -1.33 -461.21 -26.11)"  >
<path style="stroke: rgb(0,0,0); stroke-width: 1; stroke-dasharray: none; stroke-linecap: round; stroke-dashoffset: 0; stroke-linejoin: miter; stroke-miterlimit: 4; fill: rgb(255,255,255); fill-rule: evenodd; opacity: 1;" vector-effect="non-scaling-stroke"  transform=" translate(-31.67, -43.14)" d="M 0 0 L 63.345600128 0 L 63.345600128 0 L 63.345600128 86.284805298 L 63.345600128 86.284805298 L 0 86.284805298 L 0 86.284805298 L 0 0 Z" stroke-linecap="round" />
</g>
		<g transform="matrix(1.33 0 0 1.33 -461.2 -27.56)" style=""  >
		<text xml:space="preserve" font-family="Calibri" font-size="24" font-style="normal" font-weight="normal" style="stroke: none; stroke-width: 1; stroke-dasharray: none; stroke-linecap: butt; stroke-dashoffset: 0; stroke-linejoin: miter; stroke-miterlimit: 4; fill: rgb(0,0,0); fill-rule: nonzero; opacity: 1; white-space: pre;" ><tspan x="-12.48" y="7.54" >C0</tspan></text>
</g>
		<g transform="matrix(1.33 0 0 -1.33 -227.18 -106.87)"  >
<path style="stroke: rgb(0,0,0); stroke-width: 1.5; stroke-dasharray: none; stroke-linecap: round; stroke-dashoffset: 0; stroke-linejoin: miter; stroke-miterlimit: 4; fill: rgb(255,255,255); fill-rule: evenodd; opacity: 1;" vector-effect="non-scaling-stroke"  transform=" translate(-207.94, 0)" d="M 0.164966404 0.082483202 L 0.164966404 -0.082483202 L 0.164966404 -0.082483202 L 0 0 L 0 0 L 0.164966404 0.082483202 Z M 415.723876953 0.082483202 L 415.723876953 -0.082483202 L 415.723876953 -0.082483202 L 415.88885498 0 L 415.88885498 0 L 415.723876953 0.082483202 M 0.164966404 0 L 415.723876953 0" stroke-linecap="round" />
</g>
		<g transform="matrix(1.33 0 0 -1.33 -502.3 -106.87)"  >
<path style="stroke: rgb(0,0,0); stroke-width: 1.5; stroke-dasharray: none; stroke-linecap: butt; stroke-dashoffset: 0; stroke-linejoin: miter; stroke-miterlimit: 4; fill: none; fill-rule: nonzero; opacity: 1;" vector-effect="non-scaling-stroke"  transform=" translate(-1.6, 0)" d="M 3.044966459 -2.880000114 L 0.164966404 0 L 3.044966459 2.880000114" stroke-linecap="round" />
</g>
		<g transform="matrix(1.33 0 0 -1.33 47.94 -106.87)"  >
<path style="stroke: rgb(0,0,0); stroke-width: 1.5; stroke-dasharray: none; stroke-linecap: butt; stroke-dashoffset: 0; stroke-linejoin: miter; stroke-miterlimit: 4; fill: none; fill-rule: nonzero; opacity: 1;" vector-effect="non-scaling-stroke"  transform=" translate(-414.28, 0)" d="M 412.843902588 -2.880000114 L 415.723876953 0 L 412.843902588 2.880000114" stroke-linecap="round" />
</g>
		<g transform="matrix(1.33 0 0 -1.33 93.75 -26.09)"  >
<path style="stroke: rgb(0,0,0); stroke-width: 1; stroke-dasharray: none; stroke-linecap: round; stroke-dashoffset: 0; stroke-linejoin: miter; stroke-miterlimit: 4; fill: rgb(255,255,255); fill-rule: evenodd; opacity: 1;" vector-effect="non-scaling-stroke"  transform=" translate(-31.67, -43.14)" d="M 0 0 L 63.345600128 0 L 63.345600128 0 L 63.345600128 86.284805298 L 63.345600128 86.284805298 L 0 86.284805298 L 0 86.284805298 L 0 0 Z" stroke-linecap="round" />
</g>
		<g transform="matrix(1.33 0 0 1.33 93.75 -27.54)" style=""  >
		<text xml:space="preserve" font-family="Calibri" font-size="24" font-style="normal" font-weight="normal" style="stroke: none; stroke-width: 1; stroke-dasharray: none; stroke-linecap: butt; stroke-dashoffset: 0; stroke-linejoin: miter; stroke-miterlimit: 4; fill: rgb(0,0,0); fill-rule: nonzero; opacity: 1; white-space: pre;" ><tspan x="-12.48" y="7.54" >C0</tspan></text>
</g>
		<g transform="matrix(1.33 0 0 1.33 -250.35 -129.63)" style=""  >
		<text xml:space="preserve" font-family="Calibri" font-size="20" font-style="normal" font-weight="normal" style="stroke: none; stroke-width: 1; stroke-dasharray: none; stroke-linecap: butt; stroke-dashoffset: 0; stroke-linejoin: miter; stroke-miterlimit: 4; fill: rgb(0,0,0); fill-rule: nonzero; opacity: 1; white-space: pre;" ><tspan x="-43.24" y="6.28" >AclInterval</tspan></text>
</g>
		<g transform="matrix(1.33 0 0 -1.33 -321.56 -26.11)"  >
<path style="stroke: rgb(0,0,0); stroke-width: 0.75; stroke-dasharray: none; stroke-linecap: round; stroke-dashoffset: 0; stroke-linejoin: miter; stroke-miterlimit: 4; fill: rgb(255,255,255); fill-rule: evenodd; opacity: 1;" vector-effect="non-scaling-stroke"  transform=" translate(-54, -43.14)" d="M 0 0 L 108 0 L 108 0 L 108 86.284805298 L 108 86.284805298 L 0 86.284805298 L 0 86.284805298 L 0 0 Z" stroke-linecap="round" />
</g>
		<g transform="matrix(1.33 0 0 1.33 -322.23 -46.76)" style=""  >
		<text xml:space="preserve" font-family="Calibri" font-size="24" font-style="normal" font-weight="normal" style="stroke: none; stroke-width: 1; stroke-dasharray: none; stroke-linecap: butt; stroke-dashoffset: 0; stroke-linejoin: miter; stroke-miterlimit: 4; fill: rgb(0,0,0); fill-rule: nonzero; opacity: 1; white-space: pre;" ><tspan x="-41.69" y="7.54" >CS Event</tspan></text>
</g>
		<g transform="matrix(1.33 0 0 1.33 -321.56 -8.36)" style=""  >
		<text xml:space="preserve" font-family="Calibri" font-size="24" font-style="normal" font-weight="normal" style="stroke: none; stroke-width: 1; stroke-dasharray: none; stroke-linecap: butt; stroke-dashoffset: 0; stroke-linejoin: miter; stroke-miterlimit: 4; fill: rgb(0,0,0); fill-rule: nonzero; opacity: 1; white-space: pre;" ><tspan x="-34.13" y="7.54" >Conn 0</tspan></text>
</g>
		<g transform="matrix(1.33 0 0 1.33 567.92 58.67)" style=""  >
		<text xml:space="preserve" font-family="Calibri" font-size="20" font-style="normal" font-weight="normal" style="stroke: none; stroke-width: 1; stroke-dasharray: none; stroke-linecap: butt; stroke-dashoffset: 0; stroke-linejoin: miter; stroke-miterlimit: 4; fill: rgb(0,0,0); fill-rule: nonzero; opacity: 1; white-space: pre;" ><tspan x="-18.54" y="6.28" >time</tspan></text>
</g>
		<g transform="matrix(1.33 0 0 -1.33 -25.76 31.8)"  >
<path style="stroke: rgb(0,0,0); stroke-width: 1.5; stroke-dasharray: none; stroke-linecap: round; stroke-dashoffset: 0; stroke-linejoin: miter; stroke-miterlimit: 4; fill: rgb(255,255,255); fill-rule: evenodd; opacity: 1;" vector-effect="non-scaling-stroke"  transform=" translate(-424.97, 0)" d="M 849.931640625 0 L 849.931640625 0 L 849.931640625 0 L 849.931640625 0 L 849.931640625 0 L 849.931640625 0 Z M 0 0 L 841.867614746 0" stroke-linecap="round" />
</g>
		<g transform="matrix(1.33 0 0 -1.33 534.33 31.8)"  >
<path style="stroke: rgb(0,0,0); stroke-width: 1.5; stroke-dasharray: none; stroke-linecap: butt; stroke-dashoffset: 0; stroke-linejoin: miter; stroke-miterlimit: 4; fill: rgb(0,0,0); fill-rule: evenodd; opacity: 1;" vector-effect="non-scaling-stroke"  transform=" translate(-845.04, 0)" d="M 841.867614746 -2.880000114 L 848.203674316 0 L 841.867614746 2.880000114 Z" stroke-linecap="round" />
</g>
		<g transform="matrix(1.33 0 0 -1.33 -180.66 -26.11)"  >
<path style="stroke: rgb(0,0,0); stroke-width: 1; stroke-dasharray: none; stroke-linecap: round; stroke-dashoffset: 0; stroke-linejoin: miter; stroke-miterlimit: 4; fill: rgb(255,255,255); fill-rule: evenodd; opacity: 1;" vector-effect="non-scaling-stroke"  transform=" translate(-31.67, -43.14)" d="M 0 0 L 63.345600128 0 L 63.345600128 0 L 63.345600128 86.284805298 L 63.345600128 86.284805298 L 0 86.284805298 L 0 86.284805298 L 0 0 Z" stroke-linecap="round" />
</g>
		<g transform="matrix(1.33 0 0 -1.33 374.04 -26.09)"  >
<path style="stroke: rgb(0,0,0); stroke-width: 1; stroke-dasharray: none; stroke-linecap: round; stroke-dashoffset: 0; stroke-linejoin: miter; stroke-miterlimit: 4; fill: rgb(255,255,255); fill-rule: evenodd; opacity: 1;" vector-effect="non-scaling-stroke"  transform=" translate(-31.67, -43.14)" d="M 0 0 L 63.345600128 0 L 63.345600128 0 L 63.345600128 86.284805298 L 63.345600128 86.284805298 L 0 86.284805298 L 0 86.284805298 L 0 0 Z" stroke-linecap="round" />
</g>
		<g transform="matrix(1.33 0 0 1.33 -180.66 -27.56)" style=""  >
		<text xml:space="preserve" font-family="Calibri" font-size="24" font-style="normal" font-weight="normal" style="stroke: none; stroke-width: 1; stroke-dasharray: none; stroke-linecap: butt; stroke-dashoffset: 0; stroke-linejoin: miter; stroke-miterlimit: 4; fill: rgb(0,0,0); fill-rule: nonzero; opacity: 1; white-space: pre;" ><tspan x="-12.48" y="7.54" >C1</tspan></text>
</g>
		<g transform="matrix(1.33 0 0 1.33 374.04 -27.54)" style=""  >
		<text xml:space="preserve" font-family="Calibri" font-size="24" font-style="normal" font-weight="normal" style="stroke: none; stroke-width: 1; stroke-dasharray: none; stroke-linecap: butt; stroke-dashoffset: 0; stroke-linejoin: miter; stroke-miterlimit: 4; fill: rgb(0,0,0); fill-rule: nonzero; opacity: 1; white-space: pre;" ><tspan x="-12.48" y="7.54" >C1</tspan></text>
</g>
		<g transform="matrix(1.33 0 0 -1.33 -364.03 61.14)"  >
<path style="stroke: rgb(0,0,0); stroke-width: 1.5; stroke-dasharray: none; stroke-linecap: round; stroke-dashoffset: 0; stroke-linejoin: miter; stroke-miterlimit: 4; fill: rgb(255,255,255); fill-rule: evenodd; opacity: 1;" vector-effect="non-scaling-stroke"  transform=" translate(-104.86, 0)" d="M 0.164966404 0.082483202 L 0.164966404 -0.082483202 L 0.164966404 -0.082483202 L 0 0 L 0 0 L 0.164966404 0.082483202 Z M 209.5519104 0.082483202 L 209.5519104 -0.082483202 L 209.5519104 -0.082483202 L 209.716888428 0 L 209.716888428 0 L 209.5519104 0.082483202 M 0.164966404 0 L 209.5519104 0" stroke-linecap="round" />
</g>
		<g transform="matrix(1.33 0 0 -1.33 -501.7 61.14)"  >
<path style="stroke: rgb(0,0,0); stroke-width: 1.5; stroke-dasharray: none; stroke-linecap: butt; stroke-dashoffset: 0; stroke-linejoin: miter; stroke-miterlimit: 4; fill: none; fill-rule: nonzero; opacity: 1;" vector-effect="non-scaling-stroke"  transform=" translate(-1.6, 0)" d="M 3.044966459 -2.880000114 L 0.164966404 0 L 3.044966459 2.880000114" stroke-linecap="round" />
</g>
		<g transform="matrix(1.33 0 0 -1.33 -226.36 61.14)"  >
<path style="stroke: rgb(0,0,0); stroke-width: 1.5; stroke-dasharray: none; stroke-linecap: butt; stroke-dashoffset: 0; stroke-linejoin: miter; stroke-miterlimit: 4; fill: none; fill-rule: nonzero; opacity: 1;" vector-effect="non-scaling-stroke"  transform=" translate(-208.11, 0)" d="M 206.671920776 -2.880000114 L 209.5519104 0 L 206.671920776 2.880000114" stroke-linecap="round" />
</g>
		<g transform="matrix(1.33 0 0 1.33 -357.01 83.26)" style=""  >
		<text xml:space="preserve" font-family="Calibri" font-size="20" font-style="normal" font-weight="normal" style="stroke: none; stroke-width: 1; stroke-dasharray: none; stroke-linecap: butt; stroke-dashoffset: 0; stroke-linejoin: miter; stroke-miterlimit: 4; fill: rgb(0,0,0); fill-rule: nonzero; opacity: 1; white-space: pre;" ><tspan x="-65.99" y="6.28" >AclEventSpacing</tspan></text>
</g>
		<g transform="matrix(1.33 0 0 -1.33 -449.37 108.24)"  >
<path style="stroke: rgb(0,0,0); stroke-width: 1.5; stroke-dasharray: none; stroke-linecap: round; stroke-dashoffset: 0; stroke-linejoin: miter; stroke-miterlimit: 4; fill: rgb(255,255,255); fill-rule: evenodd; opacity: 1;" vector-effect="non-scaling-stroke"  transform=" translate(-41.68, 0)" d="M 0.164966404 0.082483202 L 0.164966404 -0.082483202 L 0.164966404 -0.082483202 L 0 0 L 0 0 L 0.164966404 0.082483202 Z M 83.201858521 0.082483202 L 83.201858521 -0.082483202 L 83.201858521 -0.082483202 L 83.366821289 0 L 83.366821289 0 L 83.201858521 0.082483202 M 0.164966404 0 L 83.201858521 0" stroke-linecap="round" />
</g>
		<g transform="matrix(1.33 0 0 -1.33 -502.81 108.24)"  >
<path style="stroke: rgb(0,0,0); stroke-width: 1.5; stroke-dasharray: none; stroke-linecap: butt; stroke-dashoffset: 0; stroke-linejoin: miter; stroke-miterlimit: 4; fill: none; fill-rule: nonzero; opacity: 1;" vector-effect="non-scaling-stroke"  transform=" translate(-1.6, 0)" d="M 3.044966459 -2.880000114 L 0.164966404 0 L 3.044966459 2.880000114" stroke-linecap="round" />
</g>
		<g transform="matrix(1.33 0 0 -1.33 -395.93 108.24)"  >
<path style="stroke: rgb(0,0,0); stroke-width: 1.5; stroke-dasharray: none; stroke-linecap: butt; stroke-dashoffset: 0; stroke-linejoin: miter; stroke-miterlimit: 4; fill: none; fill-rule: nonzero; opacity: 1;" vector-effect="non-scaling-stroke"  transform=" translate(-81.76, 0)" d="M 80.321861267 -2.880000114 L 83.201858521 0 L 80.321861267 2.880000114" stroke-linecap="round" />
</g>
		<g transform="matrix(1.33 0 0 1.33 -447.49 129.63)" style=""  >
		<text xml:space="preserve" font-family="Calibri" font-size="20" font-style="normal" font-weight="normal" style="stroke: none; stroke-width: 1; stroke-dasharray: none; stroke-linecap: butt; stroke-dashoffset: 0; stroke-linejoin: miter; stroke-miterlimit: 4; fill: rgb(0,0,0); fill-rule: nonzero; opacity: 1; white-space: pre;" ><tspan x="-62.46" y="6.28" >AclEventLength</tspan></text>
</g>
		<g transform="matrix(1.33 0 0 -1.33 233.11 51.74)"  >
<path style="stroke: rgb(0,0,0); stroke-width: 1.5; stroke-dasharray: none; stroke-linecap: round; stroke-dashoffset: 0; stroke-linejoin: miter; stroke-miterlimit: 4; fill: rgb(255,255,255); fill-rule: evenodd; opacity: 1;" vector-effect="non-scaling-stroke"  transform=" translate(-53.51, 0)" d="M 0.164966404 0.082483202 L 0.164966404 -0.082483202 L 0.164966404 -0.082483202 L 0 0 L 0 0 L 0.164966404 0.082483202 Z M 106.846008301 0.082483202 L 106.846008301 -0.082483202 L 106.846008301 -0.082483202 L 107.010971069 0 L 107.010971069 0 L 106.846008301 0.082483202 M 0.164966404 0 L 106.846008301 0" stroke-linecap="round" />
</g>
		<g transform="matrix(1.33 0 0 -1.33 163.91 51.74)"  >
<path style="stroke: rgb(0,0,0); stroke-width: 1.5; stroke-dasharray: none; stroke-linecap: butt; stroke-dashoffset: 0; stroke-linejoin: miter; stroke-miterlimit: 4; fill: none; fill-rule: nonzero; opacity: 1;" vector-effect="non-scaling-stroke"  transform=" translate(-1.6, 0)" d="M 3.044966459 -2.880000114 L 0.164966404 0 L 3.044966459 2.880000114" stroke-linecap="round" />
</g>
		<g transform="matrix(1.33 0 0 -1.33 302.31 51.74)"  >
<path style="stroke: rgb(0,0,0); stroke-width: 1.5; stroke-dasharray: none; stroke-linecap: butt; stroke-dashoffset: 0; stroke-linejoin: miter; stroke-miterlimit: 4; fill: none; fill-rule: nonzero; opacity: 1;" vector-effect="non-scaling-stroke"  transform=" translate(-105.41, 0)" d="M 103.966011047 -2.880000114 L 106.846008301 0 L 103.966011047 2.880000114" stroke-linecap="round" />
</g>
		<g transform="matrix(1.33 0 0 1.33 255.39 79.5)" style=""  >
		<text xml:space="preserve" font-family="Calibri" font-size="20" font-style="normal" font-weight="normal" style="stroke: none; stroke-width: 1; stroke-dasharray: none; stroke-linecap: butt; stroke-dashoffset: 0; stroke-linejoin: miter; stroke-miterlimit: 4; fill: rgb(0,0,0); fill-rule: nonzero; opacity: 1; white-space: pre;" ><tspan x="-143.23" y="6.28" >CsEventLength &lt; (AclEventSpacing -</tspan></text>
</g>
		<g transform="matrix(1.33 0 0 1.33 255.95 111.5)" style=""  >
		<text xml:space="preserve" font-family="Calibri" font-size="20" font-style="normal" font-weight="normal" style="stroke: none; stroke-width: 1; stroke-dasharray: none; stroke-linecap: butt; stroke-dashoffset: 0; stroke-linejoin: miter; stroke-miterlimit: 4; fill: rgb(0,0,0); fill-rule: nonzero; opacity: 1; white-space: pre;" ><tspan x="-65.49" y="6.28" >AclEventLength)</tspan></text>
</g>
		<g transform="matrix(1.33 0 0 -1.33 233.39 -26.08)"  >
<path style="stroke: rgb(0,0,0); stroke-width: 0.75; stroke-dasharray: none; stroke-linecap: round; stroke-dashoffset: 0; stroke-linejoin: miter; stroke-miterlimit: 4; fill: rgb(255,255,255); fill-rule: evenodd; opacity: 1;" vector-effect="non-scaling-stroke"  transform=" translate(-54, -43.14)" d="M 0 0 L 108 0 L 108 0 L 108 86.284805298 L 108 86.284805298 L 0 86.284805298 L 0 86.284805298 L 0 0 Z" stroke-linecap="round" />
</g>
		<g transform="matrix(1.33 0 0 1.33 232.71 -45.71)" style=""  >
		<text xml:space="preserve" font-family="Calibri" font-size="24" font-style="normal" font-weight="normal" style="stroke: none; stroke-width: 1; stroke-dasharray: none; stroke-linecap: butt; stroke-dashoffset: 0; stroke-linejoin: miter; stroke-miterlimit: 4; fill: rgb(0,0,0); fill-rule: nonzero; opacity: 1; white-space: pre;" ><tspan x="-41.69" y="7.54" >CS Event</tspan></text>
</g>
		<g transform="matrix(1.33 0 0 1.33 233.39 -7.31)" style=""  >
		<text xml:space="preserve" font-family="Calibri" font-size="24" font-style="normal" font-weight="normal" style="stroke: none; stroke-width: 1; stroke-dasharray: none; stroke-linecap: butt; stroke-dashoffset: 0; stroke-linejoin: miter; stroke-miterlimit: 4; fill: rgb(0,0,0); fill-rule: nonzero; opacity: 1; white-space: pre;" ><tspan x="-34.13" y="7.54" >Conn 0</tspan></text>
</g>
		<g transform="matrix(1.33 0 0 -1.33 -41.01 -26.08)"  >
<path style="stroke: rgb(0,0,0); stroke-width: 0.75; stroke-dasharray: none; stroke-linecap: round; stroke-dashoffset: 0; stroke-linejoin: miter; stroke-miterlimit: 4; fill: rgb(255,255,255); fill-rule: evenodd; opacity: 1;" vector-effect="non-scaling-stroke"  transform=" translate(-54, -43.14)" d="M 0 0 L 108 0 L 108 0 L 108 86.284805298 L 108 86.284805298 L 0 86.284805298 L 0 86.284805298 L 0 0 Z" stroke-linecap="round" />
</g>
		<g transform="matrix(1.33 0 0 1.33 -41.7 -45.73)" style=""  >
		<text xml:space="preserve" font-family="Calibri" font-size="24" font-style="normal" font-weight="normal" style="stroke: none; stroke-width: 1; stroke-dasharray: none; stroke-linecap: butt; stroke-dashoffset: 0; stroke-linejoin: miter; stroke-miterlimit: 4; fill: rgb(0,0,0); fill-rule: nonzero; opacity: 1; white-space: pre;" ><tspan x="-41.69" y="7.54" >CS Event</tspan></text>
</g>
		<g transform="matrix(1.33 0 0 1.33 -41.02 -7.33)" style=""  >
		<text xml:space="preserve" font-family="Calibri" font-size="24" font-style="normal" font-weight="normal" style="stroke: none; stroke-width: 1; stroke-dasharray: none; stroke-linecap: butt; stroke-dashoffset: 0; stroke-linejoin: miter; stroke-miterlimit: 4; fill: rgb(0,0,0); fill-rule: nonzero; opacity: 1; white-space: pre;" ><tspan x="-34.13" y="7.54" >Conn 1</tspan></text>
</g>
</g>
</g>
</svg>