<?xml version="1.0" encoding="UTF-8" standalone="no"?>
<!DOCTYPE svg PUBLIC "-//W3C//DTD SVG 1.1//EN" "http://www.w3.org/Graphics/SVG/1.1/DTD/svg11.dtd">
<!-- Generated by Microsoft Visio, SVG Export connected_iso_timing.svg Page-1 -->
<svg xmlns="http://www.w3.org/2000/svg" xmlns:xlink="http://www.w3.org/1999/xlink" xmlns:ev="http://www.w3.org/2001/xml-events"
		width="7.04494in" height="2.03597in" viewBox="0 0 507.236 146.59" xml:space="preserve" color-interpolation-filters="sRGB"
		class="st12">
	<style type="text/css">
	<![CDATA[
		.st1 {fill:#ffffff;stroke:none;stroke-linecap:round;stroke-linejoin:round;stroke-width:0.72}
		.st2 {marker-end:url(#mrkr13-8);stroke:#000000;stroke-linecap:round;stroke-linejoin:round;stroke-width:0.72}
		.st3 {fill:#000000;fill-opacity:1;stroke:#000000;stroke-opacity:1;stroke-width:0.22222222222222}
		.st4 {fill:none;stroke:#000000;stroke-linecap:round;stroke-linejoin:round;stroke-width:0.72}
		.st5 {fill:#000000;font-family:Arial;font-size:0.833336em}
		.st6 {fill:none}
		.st7 {marker-end:url(#mrkr12-20);marker-start:url(#mrkr12-18);stroke:#000000;stroke-linecap:round;stroke-linejoin:round;stroke-width:0.24}
		.st8 {stroke:#000000;stroke-linecap:round;stroke-linejoin:round;stroke-width:0.24}
		.st9 {fill:#000000;fill-opacity:1;stroke:#000000;stroke-opacity:1;stroke-width:0.08695652173913}
		.st10 {fill:none;stroke:none;stroke-linecap:round;stroke-linejoin:round;stroke-width:0.72}
		.st11 {font-size:1em}
		.st12 {fill:none;fill-rule:evenodd;font-size:12px;overflow:visible;stroke-linecap:square;stroke-miterlimit:3}
	]]>
	</style>

	<defs id="Markers">
		<g id="lend13">
			<path d="M 3 1 L 0 0 L 3 -1 L 3 1 " style="stroke:none"/>
		</g>
		<marker id="mrkr13-8" class="st3" refX="-13.5" orient="auto" markerUnits="strokeWidth" overflow="visible">
			<use xlink:href="#lend13" transform="scale(-4.5,-4.5) "/>
		</marker>
		<g id="lend12">
			<path d="M 3 1 L 0 0 L 3 -1 " style="stroke-linecap:round;stroke-linejoin:round;fill:none"/>
		</g>
		<marker id="mrkr12-18" class="st9" orient="auto" markerUnits="strokeWidth" overflow="visible">
			<use xlink:href="#lend12" transform="scale(11.5) "/>
		</marker>
		<marker id="mrkr12-20" class="st9" orient="auto" markerUnits="strokeWidth" overflow="visible">
			<use xlink:href="#lend12" transform="scale(-11.5,-11.5) "/>
		</marker>
	</defs>
	<g>
		<title>VBackground-1</title>
		<g id="shape1000-1">
			<title>Solid.1000</title>
			<rect x="0" y="0" width="507.236" height="146.59" class="st1"/>
		</g>
	</g>
	<g>
		<title>Page-1</title>
		<g id="shape25-3" transform="translate(28.2458,-78.6443)">
			<title>Sheet.25</title>
			<path d="M0 146.59 L401.3 146.59" class="st2"/>
		</g>
		<g id="shape26-9" transform="translate(34.3276,-78.6443)">
			<title>Sheet.26</title>
			<desc>ACL1</desc>
			<rect x="0" y="97.0616" width="36.4379" height="49.5282" class="st4"/>
			<text x="5.71" y="124.83" class="st5">ACL1</text>		</g>
		<g id="shape27-12" transform="translate(84.9387,-70.4868)">
			<title>Duration (horizontal) .60</title>
			<desc>IsoInterval</desc>
			<path d="M0 151.65 L0 142.65 L0 151.65 ZM124.59 151.65 L124.59 142.65 L124.59 151.65 Z" class="st6"/>
			<path d="M0 147.15 L124.59 147.15" class="st7"/>
			<path d="M0 151.65 L0 142.65" class="st8"/>
			<path d="" class="st8"/>
			<path d="M124.59 151.65 L124.59 142.65" class="st8"/>
			<path d="" class="st8"/>
			<text x="39.4" y="157.71" class="st5">IsoInterval</text>		</g>
		<g id="shape28-26" transform="translate(414.497,-60.2671)">
			<title>Sheet.28</title>
			<desc>time</desc>
			<rect x="0" y="131.831" width="74.3785" height="14.7585" class="st10"/>
			<text x="27.74" y="142.21" class="st5">time</text>		</g>
		<g id="shape29-29" transform="translate(34.0157,-49.8864)">
			<title>Duration (horizontal) .12</title>
			<desc>AclInterval</desc>
			<path d="M0 151.65 L0 142.65 L0 151.65 ZM246.38 151.65 L246.38 142.65 L246.38 151.65 Z" class="st6"/>
			<path d="M0 147.15 L246.38 147.15" class="st7"/>
			<path d="M0 151.65 L0 142.65" class="st8"/>
			<path d="" class="st8"/>
			<path d="M246.38 151.65 L246.38 142.65" class="st8"/>
			<path d="" class="st8"/>
			<text x="99.54" y="156.96" class="st5">AclInterval</text>		</g>
		<g id="shape32-41" transform="translate(84.9387,-78.7016)">
			<title>Sheet.32</title>
			<desc>CIG with CIS1, CIS2</desc>
			<rect x="0" y="97.0616" width="66.6142" height="49.5282" class="st4"/>
			<text x="14.14" y="118.83" class="st5">CIG with <tspan x="8.3" dy="1.2em" class="st11">CIS1, CIS2</tspan></text>		</g>
		<g id="shape43-45" transform="translate(159.052,-78.5793)">
			<title>Sheet.43</title>
			<desc>ACL2</desc>
			<rect x="0" y="97.0616" width="36.4379" height="49.5282" class="st4"/>
			<text x="5.71" y="124.83" class="st5">ACL2</text>		</g>
		<g id="shape44-48" transform="translate(209.663,-78.6366)">
			<title>Sheet.44</title>
			<desc>CIG with CIS1, CIS2</desc>
			<rect x="0" y="97.0616" width="66.6142" height="49.5282" class="st4"/>
			<text x="14.14" y="118.83" class="st5">CIG with <tspan x="8.3" dy="1.2em" class="st11">CIS1, CIS2</tspan></text>		</g>
		<g id="shape45-52" transform="translate(281.444,-78.5793)">
			<title>Sheet.45</title>
			<desc>ACL1</desc>
			<rect x="0" y="97.0616" width="36.4379" height="49.5282" class="st4"/>
			<text x="5.71" y="124.83" class="st5">ACL1</text>		</g>
		<g id="shape46-55" transform="translate(332.055,-78.6366)">
			<title>Sheet.46</title>
			<desc>CIG with CIS1, CIS2</desc>
			<rect x="0" y="97.0616" width="66.6142" height="49.5282" class="st4"/>
			<text x="14.14" y="118.83" class="st5">CIG with <tspan x="8.3" dy="1.2em" class="st11">CIS1, CIS2</tspan></text>		</g>
		<g id="shape47-59" transform="translate(34.0157,-28.6266)">
			<title>Duration (horizontal) .47</title>
			<desc>AclEventSpacing</desc>
			<path d="M0 151.65 L0 142.65 L0 151.65 ZM124.72 151.65 L124.72 142.65 L124.72 151.65 Z" class="st6"/>
			<path d="M0 147.15 L124.72 147.15" class="st7"/>
			<path d="M0 151.65 L0 142.65" class="st8"/>
			<path d="" class="st8"/>
			<path d="M124.72 151.65 L124.72 142.65" class="st8"/>
			<path d="" class="st8"/>
			<text x="24.56" y="158.37" class="st5">AclEventSpacing</text>		</g>
		<g id="shape48-71" transform="translate(282.047,-28.6235)">
			<title>Duration (horizontal) .48</title>
			<desc>AclEventLength</desc>
			<path d="M0 142.65 L0 151.65 L0 142.65 ZM36.85 151.65 L36.85 142.65 L36.85 151.65 Z" class="st6"/>
			<path d="M0 147.15 L36.85 147.15" class="st7"/>
			<path d="M0 142.65 L0 151.65" class="st8"/>
			<path d="" class="st8"/>
			<path d="M36.85 151.65 L36.85 142.65" class="st8"/>
			<path d="" class="st8"/>
			<text x="-16.6" y="161.21" class="st5">AclEventLength</text>		</g>
	</g>
</svg>
