<?xml version="1.0" encoding="UTF-8" standalone="no"?>
<!DOCTYPE svg PUBLIC "-//W3C//DTD SVG 1.1//EN" "http://www.w3.org/Graphics/SVG/1.1/DTD/svg11.dtd">
<!-- Generated by Microsoft Visio, SVG Export radio_modes_and_latencies.svg Page-1 -->
<svg xmlns="http://www.w3.org/2000/svg" xmlns:xlink="http://www.w3.org/1999/xlink" xmlns:ev="http://www.w3.org/2001/xml-events"
		width="8.48737in" height="4.67046in" viewBox="0 0 611.091 336.273" xml:space="preserve" color-interpolation-filters="sRGB"
		class="st27">
	<style type="text/css">
	<![CDATA[
		.st1 {fill:none;stroke:#b1001c;stroke-dasharray:4.5,4.5;stroke-linecap:round;stroke-linejoin:round;stroke-width:1.5}
		.st2 {fill:none;stroke:#b34400;stroke-dasharray:4.5,4.5;stroke-linecap:round;stroke-linejoin:round;stroke-width:1.5}
		.st3 {fill:none;stroke:#0037a0;stroke-dasharray:4.5,4.5;stroke-linecap:round;stroke-linejoin:round;stroke-width:1.5}
		.st4 {fill:none;stroke:#b9c0c1;stroke-linecap:round;stroke-linejoin:round;stroke-width:1.5}
		.st5 {fill:none;stroke:none;stroke-linecap:butt;stroke-width:0.75}
		.st6 {fill:#515556;font-family:Arial;font-size:0.666664em;font-weight:bold}
		.st7 {fill:none}
		.st8 {stroke:#000000;stroke-linecap:round;stroke-linejoin:round;stroke-width:0.75}
		.st9 {fill:#000000;stroke:#000000;stroke-linecap:butt;stroke-width:0.75}
		.st10 {fill:#0037a0;font-family:Arial;font-size:0.666664em}
		.st11 {fill:#b1001c;font-family:Arial;font-size:0.666664em}
		.st12 {fill:#b34400;font-family:Arial;font-size:0.666664em}
		.st13 {fill:#ffffff;stroke:none;stroke-linecap:butt;stroke-width:0.75}
		.st14 {fill:#000000;font-family:Arial;font-size:0.833336em}
		.st15 {fill:#515556;font-family:Arial;font-size:0.833336em;font-weight:bold}
		.st16 {fill:#3f4243;stroke:none;stroke-linecap:butt;stroke-width:0.75}
		.st17 {fill:none;stroke:none;stroke-width:1}
		.st18 {fill:#000000;font-family:Arial;font-size:0.833336em;font-style:italic}
		.st19 {baseline-shift:-32.4947%;font-size:0.649894em}
		.st20 {font-size:1em}
		.st21 {baseline-shift:-33.3489%;font-family:Calibri;font-size:0.666978em;font-style:normal}
		.st22 {fill:#000000;font-family:Arial;font-size:0.75em;font-style:italic}
		.st23 {baseline-shift:-32.4951%;font-size:0.649902em}
		.st24 {marker-end:url(#mrkr5-330);stroke:#000000;stroke-linecap:butt;stroke-width:1}
		.st25 {fill:#000000;fill-opacity:1;stroke:#000000;stroke-opacity:1;stroke-width:0.28409090909091}
		.st26 {font-size:1em;font-style:normal}
		.st27 {fill:none;fill-rule:evenodd;font-size:12px;overflow:visible;stroke-linecap:square;stroke-miterlimit:3}
	]]>
	</style>

	<defs id="Markers">
		<g id="lend5">
			<path d="M 2 1 L 0 0 L 1.98117 -0.993387 C 1.67173 -0.364515 1.67301 0.372641 1.98465 1.00043 " style="stroke:none"/>
		</g>
		<marker id="mrkr5-330" class="st25" refX="-5.8" orient="auto" markerUnits="strokeWidth" overflow="visible">
			<use xlink:href="#lend5" transform="scale(-3.52,-3.52) "/>
		</marker>
	</defs>
	<g>
		<title>Page-1</title>
		<g id="group269-1" transform="translate(0,-9.02778)">
			<title>Canvas 2</title>
			<g id="group271-2" transform="translate(11.9792,-10.9476)">
				<title>Layer 1</title>
				<g id="shape272-3" transform="translate(240.565,-125.405)">
					<title>Sheet.272</title>
					<path d="M47.92 160.93 L271.56 160.93 C298.01 160.93 319.48 200.21 319.48 248.6 C319.48 297 298.01 336.27 271.56
								 336.27 L47.92 336.27 C21.47 336.27 0 297 0 248.6 C0 200.21 21.47 160.93 47.92 160.93 Z"
							class="st1"/>
				</g>
				<g id="shape273-5" transform="translate(339.011,-134.12)">
					<title>Sheet.273</title>
					<path d="M30.89 180.84 L175.07 180.84 C192.12 180.84 205.97 215.65 205.97 258.55 C205.97 301.46 192.12 336.27
								 175.07 336.27 L30.89 336.27 C13.84 336.27 0 301.46 0 258.55 C0 215.65 13.84 180.84 30.89 180.84
								 Z" class="st2"/>
				</g>
				<g id="shape274-7" transform="translate(-2.94165E-12,-125.405)">
					<title>Sheet.274</title>
					<path d="M47.53 160.93 L269.34 160.93 C295.58 160.93 316.87 200.21 316.87 248.6 C316.87 297 295.58 336.27 269.34
								 336.27 L47.53 336.27 C21.29 336.27 0 297 0 248.6 C0 200.21 21.29 160.93 47.53 160.93 Z"
							class="st3"/>
				</g>
				<g id="group275-9" transform="translate(253.771,-205.049)">
					<title>Class with Attributes</title>
					<g id="group276-10">
						<title>Attributes</title>
						<g id="shape277-11">
							<title>Sheet.277</title>
							<rect x="0" y="327.515" width="61.1273" height="8.75807" class="st4"/>
						</g>
					</g>
					<g id="group278-13" transform="translate(0,-8.75807)">
						<title>Class Name</title>
						<g id="shape279-14">
							<title>Sheet.279</title>
							<rect x="0" y="326.785" width="61.1273" height="9.4879" class="st4"/>
						</g>
						<g id="shape280-16" transform="translate(16.4707,-1.86109)">
							<title>Sheet.280</title>
							<desc>STANDBY</desc>
							<rect x="0" y="330.58" width="42.7891" height="5.69274" class="st5"/>
							<text x="2.06" y="335.83" class="st6">STANDBY</text>						</g>
					</g>
				</g>
				<g id="group281-19" transform="translate(38.945,-234.469)">
					<title>Sheet.281</title>
					<g id="group282-20">
						<title>Attributes</title>
						<g id="shape283-21">
							<title>Sheet.283</title>
							<rect x="0" y="327.515" width="61.1273" height="8.75807" class="st4"/>
						</g>
					</g>
					<g id="group284-23" transform="translate(0,-8.75807)">
						<title>Class Name</title>
						<g id="shape285-24">
							<title>Sheet.285</title>
							<rect x="0" y="326.785" width="61.1273" height="9.4879" class="st4"/>
						</g>
						<g id="shape286-26" transform="translate(26.5445,-1.86109)">
							<title>Sheet.286</title>
							<desc>RX</desc>
							<rect x="0" y="330.58" width="12.2255" height="5.69274" class="st5"/>
							<text x="0" y="335.83" class="st6">RX</text>						</g>
					</g>
				</g>
				<g id="group287-29" transform="translate(39.5665,-169.969)">
					<title>Sheet.287</title>
					<g id="group288-30">
						<title>Attributes</title>
						<g id="shape289-31">
							<title>Sheet.289</title>
							<rect x="0" y="327.515" width="60.5058" height="8.75807" class="st4"/>
						</g>
					</g>
					<g id="group290-33" transform="translate(0,-8.75808)">
						<title>Class Name</title>
						<g id="shape291-34">
							<title>Sheet.291</title>
							<rect x="0" y="326.785" width="60.5058" height="9.4879" class="st4"/>
						</g>
						<g id="shape292-36" transform="translate(26.444,-1.86109)">
							<title>Sheet.292</title>
							<desc>TX</desc>
							<rect x="0" y="330.58" width="12.1012" height="5.69274" class="st5"/>
							<text x="0" y="335.83" class="st6">TX</text>						</g>
					</g>
				</g>
				<g id="group293-39" transform="translate(359.994,-205.049)">
					<title>Sheet.293</title>
					<g id="group294-40">
						<title>Attributes</title>
						<g id="shape295-41">
							<title>Sheet.295</title>
							<rect x="0" y="327.515" width="50.2355" height="8.75807" class="st4"/>
						</g>
					</g>
					<g id="group296-43" transform="translate(0,-8.75807)">
						<title>Class Name</title>
						<g id="shape297-44">
							<title>Sheet.297</title>
							<rect x="0" y="326.785" width="50.2355" height="9.4879" class="st4"/>
						</g>
						<g id="shape298-46" transform="translate(19.6747,-1.86109)">
							<title>Sheet.298</title>
							<desc>IDLE</desc>
							<rect x="0" y="330.58" width="20.0942" height="5.69274" class="st5"/>
							<text x="-0" y="335.83" class="st6">IDLE</text>						</g>
					</g>
				</g>
				<g id="group299-49" transform="translate(455.388,-236.927)">
					<title>Sheet.299</title>
					<g id="group300-50">
						<title>Attributes</title>
						<g id="shape301-51">
							<title>Sheet.301</title>
							<rect x="0" y="327.515" width="60.7169" height="8.75807" class="st4"/>
						</g>
					</g>
					<g id="group302-53" transform="translate(0,-8.75807)">
						<title>Class Name</title>
						<g id="shape303-54">
							<title>Sheet.303</title>
							<rect x="0" y="326.785" width="60.7169" height="9.4879" class="st4"/>
						</g>
						<g id="shape304-56" transform="translate(26.3663,-1.86109)">
							<title>Sheet.304</title>
							<desc>RX</desc>
							<rect x="0" y="330.58" width="12.1434" height="5.69274" class="st5"/>
							<text x="0" y="335.83" class="st6">RX</text>						</g>
					</g>
				</g>
				<g id="group305-59" transform="translate(455.827,-173.44)">
					<title>Sheet.305</title>
					<g id="group306-60">
						<title>Attributes</title>
						<g id="shape307-61">
							<title>Sheet.307</title>
							<rect x="0" y="327.515" width="60.7169" height="8.75807" class="st4"/>
						</g>
					</g>
					<g id="group308-63" transform="translate(0,-8.75808)">
						<title>Class Name</title>
						<g id="shape309-64">
							<title>Sheet.309</title>
							<rect x="0" y="326.785" width="60.7169" height="9.4879" class="st4"/>
						</g>
						<g id="shape310-66" transform="translate(26.5363,-1.86109)">
							<title>Sheet.310</title>
							<desc>TX</desc>
							<rect x="0" y="330.58" width="12.1434" height="5.69274" class="st5"/>
							<text x="-0" y="335.83" class="st6">TX</text>						</g>
					</g>
				</g>
				<g id="group311-69" transform="translate(107.843,-224.099)">
					<title>Sheet.311</title>
					<g id="shape312-70">
						<title>Sheet.312</title>
						<path d="M156.99 336.27 C124.06 319.71 20.42 312.97 0 311.79 L156.99 336.27 Z" class="st7"/>
						<path d="M156.99 336.27 C124.06 319.71 20.42 312.97 0 311.79" class="st8"/>
					</g>
					<g id="group313-73" transform="translate(-18.7428,645.287) rotate(-176.783)">
						<title>FilledArrow_Marker</title>
						<g id="shape314-74">
							<title>Sheet.314</title>
							<path d="M6 334.02 L0 331.77 L0 336.27 L6 334.02 Z" class="st9"/>
						</g>
					</g>
				</g>
				<g id="group315-76" transform="translate(106.772,-183.756)">
					<title>Sheet.315</title>
					<g id="shape316-77">
						<title>Sheet.316</title>
						<path d="M145.95 310.47 C105.51 308.42 28.4 323.81 0 336.27 L145.95 310.47 Z" class="st7"/>
						<path d="M145.95 310.47 C105.51 308.42 28.4 323.81 0 336.27" class="st8"/>
					</g>
					<g id="group317-80" transform="translate(111.092,651.281) rotate(160.574)">
						<title>FilledArrow_Marker</title>
						<g id="shape318-81">
							<title>Sheet.318</title>
							<path d="M6 334.02 L0 331.77 L0 336.27 L6 334.02 Z" class="st9"/>
						</g>
					</g>
				</g>
				<g id="group319-83" transform="translate(101.512,-172.683)">
					<title>Sheet.319</title>
					<g id="shape320-84">
						<title>Sheet.320</title>
						<path d="M0 336.27 C49.18 333.52 134.77 312.41 156.11 306.9 L0 336.27 Z" class="st7"/>
						<path d="M0 336.27 C49.18 333.52 134.77 312.41 156.11 306.9" class="st8"/>
					</g>
					<g id="group321-87" transform="translate(83.2862,-19.0881) rotate(-12.5924)">
						<title>FilledArrow_Marker</title>
						<g id="shape322-88">
							<title>Sheet.322</title>
							<path d="M6 334.02 L0 331.77 L0 336.27 L6 334.02 Z" class="st9"/>
						</g>
					</g>
				</g>
				<g id="group323-90" transform="translate(295.621,-224.191)">
					<title>Sheet.323</title>
					<g id="shape324-91">
						<title>Sheet.324</title>
						<path d="M0 336.27 C30.66 310.78 64.12 326.65 74.73 333.55 L0 336.27 Z" class="st7"/>
						<path d="M0 336.27 C30.66 310.78 64.12 326.65 74.73 333.55" class="st8"/>
					</g>
					<g id="group325-94" transform="translate(182,17.2252) rotate(18.7327)">
						<title>FilledArrow_Marker</title>
						<g id="shape326-95">
							<title>Sheet.326</title>
							<path d="M6 334.02 L0 331.77 L0 336.27 L6 334.02 Z" class="st9"/>
						</g>
					</g>
				</g>
				<g id="group327-97" transform="translate(303.171,-178.827)">
					<title>Sheet.327</title>
					<g id="shape328-98">
						<title>Sheet.328</title>
						<path d="M72.85 310.78 C44.55 336.27 10.77 319.58 0 313.05 L72.85 310.78 Z" class="st7"/>
						<path d="M72.85 310.78 C44.55 336.27 10.77 319.58 0 313.05" class="st8"/>
					</g>
					<g id="group329-101" transform="translate(-82.4241,636.747) rotate(-165.714)">
						<title>FilledArrow_Marker</title>
						<g id="shape330-102">
							<title>Sheet.330</title>
							<path d="M6 334.02 L0 331.77 L0 336.27 L6 334.02 Z" class="st9"/>
						</g>
					</g>
				</g>
				<g id="group331-104" transform="translate(401.529,-224.623)">
					<title>Sheet.331</title>
					<g id="shape332-105">
						<title>Sheet.332</title>
						<path d="M0 336.27 C17.48 325.42 39.62 318.27 47.74 315.46 L0 336.27 Z" class="st7"/>
						<path d="M0 336.27 C17.48 325.42 39.62 318.27 47.74 315.46" class="st8"/>
					</g>
					<g id="group333-108" transform="translate(-67.7111,2.02878) rotate(-20.2208)">
						<title>FilledArrow_Marker</title>
						<g id="shape334-109">
							<title>Sheet.334</title>
							<path d="M6 334.02 L0 331.77 L0 336.27 L6 334.02 Z" class="st9"/>
						</g>
					</g>
				</g>
				<g id="group335-111" transform="translate(417.12,-217.419)">
					<title>Sheet.335</title>
					<g id="shape336-112">
						<title>Sheet.336</title>
						<path d="M37.27 313.93 C21.33 327.57 6.45 334.19 0 336.27 L37.27 313.93 Z" class="st7"/>
						<path d="M37.27 313.93 C21.33 327.57 6.45 334.19 0 336.27" class="st8"/>
					</g>
					<g id="group337-115" transform="translate(86.6982,658.848) rotate(164.956)">
						<title>FilledArrow_Marker</title>
						<g id="shape338-116">
							<title>Sheet.338</title>
							<path d="M6 334.02 L0 331.77 L0 336.27 L6 334.02 Z" class="st9"/>
						</g>
					</g>
				</g>
				<g id="group339-118" transform="translate(411.325,-189.125)">
					<title>Sheet.339</title>
					<g id="shape340-119">
						<title>Sheet.340</title>
						<path d="M0 315.97 C16.56 323.22 31.89 332.19 37.94 336.27 L0 315.97 Z" class="st7"/>
						<path d="M0 315.97 C16.56 323.22 31.89 332.19 37.94 336.27" class="st8"/>
					</g>
					<g id="group341-122" transform="translate(217.451,54.5842) rotate(32.5075)">
						<title>FilledArrow_Marker</title>
						<g id="shape342-123">
							<title>Sheet.342</title>
							<path d="M6 334.02 L0 331.77 L0 336.27 L6 334.02 Z" class="st9"/>
						</g>
					</g>
				</g>
				<g id="group343-125" transform="translate(401.415,-175.169)">
					<title>Sheet.343</title>
					<g id="shape344-126">
						<title>Sheet.344</title>
						<path d="M53.31 336.27 C24.56 329.25 6.66 316.72 0 311.57 L53.31 336.27 Z" class="st7"/>
						<path d="M53.31 336.27 C24.56 329.25 6.66 316.72 0 311.57" class="st8"/>
					</g>
					<g id="group345-129" transform="translate(-212.632,569.169) rotate(-140.463)">
						<title>FilledArrow_Marker</title>
						<g id="shape346-130">
							<title>Sheet.346</title>
							<path d="M6 334.02 L0 331.77 L0 336.27 L6 334.02 Z" class="st9"/>
						</g>
					</g>
				</g>
				<g id="group347-132" transform="translate(465.987,-198.649)">
					<title>Sheet.347</title>
					<g id="shape348-133">
						<title>Sheet.348</title>
						<path d="M2.4 298.73 C0 314.96 1.22 329.79 1.96 336.27 L2.4 298.73 Z" class="st7"/>
						<path d="M2.4 298.73 C0 314.96 1.22 329.79 1.96 336.27" class="st8"/>
					</g>
					<g id="group349-136" transform="translate(334.195,301.728) rotate(84.0638)">
						<title>FilledArrow_Marker</title>
						<g id="shape350-137">
							<title>Sheet.350</title>
							<path d="M6 334.02 L0 331.77 L0 336.27 L6 334.02 Z" class="st9"/>
						</g>
					</g>
				</g>
				<g id="group351-139" transform="translate(492.749,-192.645)">
					<title>Sheet.351</title>
					<g id="shape352-140">
						<title>Sheet.352</title>
						<path d="M0 336.27 C2.32 320.61 1.45 305.36 0.67 298.73 L0 336.27 Z" class="st7"/>
						<path d="M0 336.27 C2.32 320.61 1.45 305.36 0.67 298.73" class="st8"/>
					</g>
					<g id="group353-143" transform="translate(-331.454,334.341) rotate(-96.1197)">
						<title>FilledArrow_Marker</title>
						<g id="shape354-144">
							<title>Sheet.354</title>
							<path d="M6 334.02 L0 331.77 L0 336.27 L6 334.02 Z" class="st9"/>
						</g>
					</g>
				</g>
				<g id="shape355-146" transform="translate(7.69207,-304.728)">
					<title>Sheet.355</title>
					<desc>NRF_MODEM_DECT_PHY_RADIO_MODE_NON_LBT_WITH_STANDBY</desc>
					<rect x="0" y="330.142" width="277.438" height="6.13065" class="st5"/>
					<text x="0" y="335.61" class="st10">NRF_MODEM_DECT_PHY_RADIO_MODE_NON_LBT_WITH_STANDBY</text>				</g>
				<g id="shape356-149" transform="translate(283.384,-304.728)">
					<title>Sheet.356</title>
					<desc>NRF_MODEM_DECT_PHY_RADIO_MODE_LOW_LATENCY_WITH_STANDBY</desc>
					<rect x="0" y="330.142" width="292.983" height="6.13065" class="st5"/>
					<text x="0" y="335.61" class="st11">NRF_MODEM_DECT_PHY_RADIO_MODE_LOW_LATENCY_WITH_STANDBY</text>				</g>
				<g id="shape357-152" transform="translate(300.899,-290.555)">
					<title>Sheet.357</title>
					<desc>NRF_MODEM_DECT_PHY_RADIO_MODE_LOW_LATENCY </desc>
					<rect x="0" y="330.142" width="251.372" height="6.13065" class="st5"/>
					<text x="0" y="335.61" class="st12">NRF_MODEM_DECT_PHY_RADIO_MODE_LOW_LATENCY</text>				</g>
				<g id="group358-155" transform="translate(77.1382,-218.424)">
					<title>Sheet.358</title>
					<g id="shape359-156" transform="translate(23.8606,0)">
						<title>Sheet.359</title>
						<path d="M0 315.85 C35.2 330.88 125.57 336 145.39 336.27 L0 315.85 Z" class="st7"/>
						<path d="M0 315.85 C35.2 330.88 125.57 336 145.39 336.27" class="st8"/>
					</g>
					<g id="group360-159" transform="translate(173.788,2.28085) rotate(0.778664)">
						<title>FilledArrow_Marker</title>
						<g id="shape361-160">
							<title>Sheet.361</title>
							<path d="M6 334.02 L0 331.77 L0 336.27 L6 334.02 Z" class="st9"/>
						</g>
					</g>
				</g>
				<g id="group362-162" transform="translate(23.9673,-248.728)">
					<title>Sheet.362</title>
					<g id="shape363-163">
						<title>Sheet.363</title>
						<path d="M21.38 332.3 C16.77 319.69 7.45 312.86 3.03 322.59 C0 329.24 5.16 333.94 8.82 336.27 L21.38 332.3
									 Z" class="st7"/>
						<path d="M21.38 332.3 C16.77 319.69 7.45 312.86 3.03 322.59 C0 329.24 5.16 333.94 8.82 336.27" class="st8"/>
					</g>
					<g id="group364-166" transform="translate(159.976,38.4073) rotate(26.9058)">
						<title>FilledArrow_Marker</title>
						<g id="shape365-167">
							<title>Sheet.365</title>
							<path d="M5.85 334.02 L0 331.77 L0 336.27 L5.85 334.02 Z" class="st9"/>
						</g>
					</g>
				</g>
				<g id="group366-169" transform="translate(13.1426,-149.762)">
					<title>Sheet.366</title>
					<g id="shape367-170">
						<title>Sheet.367</title>
						<path d="M43.68 316.62 C35.86 328.56 12.74 336.27 5.22 327.06 C0 320.66 11.15 315.77 18.6 313.35 L43.68 316.62
									 Z" class="st7"/>
						<path d="M43.68 316.62 C35.86 328.56 12.74 336.27 5.22 327.06 C0 320.66 11.15 315.77 18.6 313.35"
								class="st8"/>
					</g>
					<g id="group368-173" transform="translate(-121.805,10.27) rotate(-24.8554)">
						<title>FilledArrow_Marker</title>
						<g id="shape369-174">
							<title>Sheet.369</title>
							<path d="M6 334.02 L0 331.77 L0 336.27 L6 334.02 Z" class="st9"/>
						</g>
					</g>
				</g>
				<g id="group370-176" transform="translate(500.742,-253.239)">
					<title>Sheet.370</title>
					<g id="shape371-177">
						<title>Sheet.371</title>
						<path d="M15.69 336.27 C31.52 330.97 36.1 324.87 23.68 319.79 C14.69 316.11 4.89 323.39 0 327.95 L15.69 336.27
									 Z" class="st7"/>
						<path d="M15.69 336.27 C31.52 330.97 36.1 324.87 23.68 319.79 C14.69 316.11 4.89 323.39 0 327.95"
								class="st8"/>
					</g>
					<g id="group372-180" transform="translate(265.019,531.26) rotate(127.494)">
						<title>FilledArrow_Marker</title>
						<g id="shape373-181">
							<title>Sheet.373</title>
							<path d="M6 334.02 L0 331.77 L0 336.27 L6 334.02 Z" class="st9"/>
						</g>
					</g>
				</g>
				<g id="group374-183" transform="translate(507.828,-154.983)">
					<title>Sheet.374</title>
					<g id="shape375-184">
						<title>Sheet.375</title>
						<path d="M8.95 314.12 C26.78 315.53 29.52 326.79 19.85 332.28 C12.82 336.27 4.21 327.75 0 322.68 L8.95 314.12
									 Z" class="st7"/>
						<path d="M8.95 314.12 C26.78 315.53 29.52 326.79 19.85 332.28 C12.82 336.27 4.21 327.75 0 322.68"
								class="st8"/>
					</g>
					<g id="group376-187" transform="translate(-257.944,534.897) rotate(-129.445)">
						<title>FilledArrow_Marker</title>
						<g id="shape377-188">
							<title>Sheet.377</title>
							<path d="M6 334.02 L0 331.77 L0 336.27 L6 334.02 Z" class="st9"/>
						</g>
					</g>
				</g>
				<g id="group442-190" transform="translate(244.984,-76.653)">
					<title>Sheet.442</title>
					<g id="group443-191">
						<title>Attributes</title>
						<g id="shape444-192">
							<title>Sheet.444</title>
							<rect x="0" y="327.515" width="75.641" height="8.75807" class="st4"/>
						</g>
					</g>
					<g id="group445-194" transform="translate(0,-8.75807)">
						<title>Class Name</title>
						<g id="shape446-195">
							<title>Sheet.446</title>
							<rect x="0" y="326.785" width="75.641" height="9.4879" class="st4"/>
						</g>
						<g id="shape447-197" transform="translate(16.2477,-1.86109)">
							<title>Sheet.447</title>
							<desc>INITIALIZED</desc>
							<rect x="0" y="330.58" width="83.2051" height="5.69274" class="st5"/>
							<text x="0" y="335.83" class="st6">INITIALIZED</text>						</g>
					</g>
				</g>
				<g id="group448-200" transform="translate(244.984,-18.0406)">
					<title>Sheet.448</title>
					<g id="group449-201">
						<title>Attributes</title>
						<g id="shape450-202">
							<title>Sheet.450</title>
							<rect x="0" y="327.515" width="75.641" height="8.75807" class="st4"/>
						</g>
					</g>
					<g id="group451-204" transform="translate(0,-8.75807)">
						<title>Class Name</title>
						<g id="shape452-205">
							<title>Sheet.452</title>
							<rect x="0" y="326.785" width="75.641" height="9.4879" class="st4"/>
						</g>
						<g id="shape453-207" transform="translate(25.3549,-1.86109)">
							<title>Sheet.453</title>
							<desc>DEINIT</desc>
							<rect x="0" y="330.58" width="45.3846" height="5.69274" class="st5"/>
							<text x="0" y="335.83" class="st6">DEINIT</text>						</g>
					</g>
				</g>
				<g id="group454-210" transform="translate(262.237,-38.0859)">
					<title>Sheet.454</title>
					<g id="shape455-211">
						<title>Sheet.455</title>
						<path d="M4.09 336.27 C0 323.26 1.94 310.87 3.28 304.68 L4.09 336.27 Z" class="st7"/>
						<path d="M4.09 336.27 C0 323.26 1.94 310.87 3.28 304.68" class="st8"/>
					</g>
					<g id="group456-214" transform="translate(-321.89,228.268) rotate(-76.7766)">
						<title>FilledArrow_Marker</title>
						<g id="shape457-215">
							<title>Sheet.457</title>
							<path d="M6 334.02 L0 331.77 L0 336.27 L6 334.02 Z" class="st9"/>
						</g>
					</g>
				</g>
				<g id="group458-217" transform="translate(291.447,-43.726)">
					<title>Sheet.458</title>
					<g id="shape459-218">
						<title>Sheet.459</title>
						<path d="M0 304.47 C3.74 319.02 2.2 330.49 0.95 336.27 L0 304.47 Z" class="st7"/>
						<path d="M0 304.47 C3.74 319.02 2.2 330.49 0.95 336.27" class="st8"/>
					</g>
					<g id="group460-221" transform="translate(325.96,413.34) rotate(103.34)">
						<title>FilledArrow_Marker</title>
						<g id="shape461-222">
							<title>Sheet.461</title>
							<path d="M6 334.02 L0 331.77 L0 336.27 L6 334.02 Z" class="st9"/>
						</g>
					</g>
				</g>
				<g id="group462-224" transform="translate(291.447,-102.163)">
					<title>Sheet.462</title>
					<g id="shape463-225">
						<title>Sheet.463</title>
						<path d="M0 234.18 C6.05 300.48 3.17 327.55 1.24 336.27 L0 234.18 Z" class="st7"/>
						<path d="M0 234.18 C6.05 300.48 3.17 327.55 1.24 336.27" class="st8"/>
					</g>
					<g id="group464-228" transform="translate(328.111,404.998) rotate(101.873)">
						<title>FilledArrow_Marker</title>
						<g id="shape465-229">
							<title>Sheet.465</title>
							<path d="M6 334.02 L0 331.77 L0 336.27 L6 334.02 Z" class="st9"/>
						</g>
					</g>
				</g>
				<g id="group466-231" transform="translate(265.109,-95.659)">
					<title>Sheet.466</title>
					<g id="shape467-232">
						<title>Sheet.467</title>
						<path d="M6.82 336.27 C0 285.13 4.41 246.1 6.18 233.93 L6.82 336.27 Z" class="st7"/>
						<path d="M6.82 336.27 C0 285.13 4.41 246.1 6.18 233.93" class="st8"/>
					</g>
					<g id="group468-235" transform="translate(-324.677,188.059) rotate(-82.1067)">
						<title>FilledArrow_Marker</title>
						<g id="shape469-236">
							<title>Sheet.469</title>
							<path d="M6 334.02 L0 331.77 L0 336.27 L6 334.02 Z" class="st9"/>
						</g>
					</g>
				</g>
				<g id="group470-238" transform="translate(194.6,-42.0031)">
					<title>Graphic_218</title>
					<g id="shape471-239">
						<title>Sheet.471</title>
						<rect x="0" y="326.267" width="34.5967" height="10.0061" class="st13"/>
					</g>
					<g id="shape472-241" transform="translate(1.61727,-1.43048)">
						<title>Sheet.472</title>
						<desc>dect_phy_init()</desc>
						<rect x="0" y="329.704" width="72.7773" height="6.56855" class="st5"/>
						<text x="0" y="335.99" class="st14">dect_phy_init()</text>					</g>
				</g>
				<g id="group473-244" transform="translate(294.944,-43.4204)">
					<title>Graphic_219</title>
					<g id="shape474-245">
						<title>Sheet.474</title>
						<rect x="0" y="326.267" width="47.8822" height="10.0061" class="st13"/>
					</g>
					<g id="shape475-247" transform="translate(1.93213,-1.43048)">
						<title>Sheet.475</title>
						<desc>dect_phy_deinit()</desc>
						<rect x="0" y="329.704" width="98.5389" height="6.56855" class="st5"/>
						<text x="0" y="335.99" class="st14">dect_phy_deinit()</text>					</g>
				</g>
				<g id="group476-250" transform="translate(180.427,-101.531)">
					<title>Graphic_220</title>
					<g id="shape477-251">
						<title>Sheet.477</title>
						<rect x="0" y="326.267" width="47.5142" height="10.0061" class="st13"/>
					</g>
					<g id="shape478-253" transform="translate(1.70015,-1.43048)">
						<title>Sheet.478</title>
						<desc>dect_phy_activate()</desc>
						<rect x="0" y="329.704" width="96.9088" height="6.56855" class="st5"/>
						<text x="0" y="335.99" class="st14">dect_phy_activate()</text>					</g>
				</g>
				<g id="group487-256" transform="translate(275.593,17.588)">
					<title>Start</title>
					<g id="shape488-257" transform="translate(11.8007,-0.766337)">
						<title>Sheet.488</title>
						<desc>start</desc>
						<rect x="0" y="330.58" width="25.1178" height="5.69274" class="st5"/>
						<text x="0" y="336.43" class="st15">start</text>					</g>
					<g id="group489-260">
						<title>Circle</title>
						<g id="shape490-261">
							<title>Sheet.490</title>
							<ellipse cx="3.86428" cy="332.624" rx="3.86428" ry="3.6492" class="st16"/>
						</g>
					</g>
				</g>
				<g id="group491-263" transform="translate(265.817,10.5802)">
					<title>Sheet.491</title>
					<g id="shape492-264">
						<title>Sheet.492</title>
						<path d="M13.22 336.27 C2.6 326.36 0.25 318.8 0 314.64 L13.22 336.27 Z" class="st7"/>
						<path d="M13.22 336.27 C2.6 326.36 0.25 318.8 0 314.64" class="st8"/>
					</g>
					<g id="group493-267" transform="translate(-333.504,333.259) rotate(-93.1948)">
						<title>FilledArrow_Marker</title>
						<g id="shape494-268">
							<title>Sheet.494</title>
							<path d="M6 334.02 L0 331.77 L0 336.27 L6 334.02 Z" class="st9"/>
						</g>
					</g>
				</g>
				<g id="group503-270" transform="translate(295.581,-113.264)">
					<title>Graphic_221</title>
					<g id="shape504-271">
						<title>Sheet.504</title>
						<rect x="0" y="326.267" width="56.5631" height="10.0061" class="st13"/>
					</g>
					<g id="shape505-273" transform="translate(1.80499,-1.43048)">
						<title>Sheet.505</title>
						<desc>dect_phy_deactivate()</desc>
						<rect x="0" y="329.704" width="113.715" height="6.56855" class="st5"/>
						<text x="0" y="335.99" class="st14">dect_phy_deactivate()</text>					</g>
				</g>
				<g id="group510-276" transform="translate(341.495,-72.5179)">
					<title>Graphic_244</title>
					<g id="shape511-277">
						<title>Sheet.511</title>
						<rect x="0" y="326.267" width="57.8636" height="10.0061" class="st13"/>
					</g>
					<g id="shape512-279" transform="translate(1.93213,-1.43048)">
						<title>Sheet.512</title>
						<desc>dect_phy_configure()</desc>
						<rect x="0" y="329.704" width="115.928" height="6.56855" class="st5"/>
						<text x="0" y="335.99" class="st14">dect_phy_configure()</text>					</g>
				</g>
				<g id="group517-282" transform="translate(60.1942,-195.651)">
					<title>Sheet.517</title>
					<g id="shape518-283" transform="translate(-6.27146,0)">
						<title>Sheet.518</title>
						<path d="M2.43 297.46 C0 307.92 1.33 327.81 2.06 336.27 L2.43 297.46 Z" class="st7"/>
						<path d="M2.43 297.46 C0 307.92 1.33 327.81 2.06 336.27" class="st8"/>
					</g>
					<g id="group519-286" transform="translate(328.717,309.235) rotate(85.3571)">
						<title>FilledArrow_Marker</title>
						<g id="shape520-287">
							<title>Sheet.520</title>
							<path d="M6 334.02 L0 331.77 L0 336.27 L6 334.02 Z" class="st9"/>
						</g>
					</g>
				</g>
				<g id="group521-289" transform="translate(82.2218,-189.569)">
					<title>Sheet.521</title>
					<g id="shape522-290">
						<title>Sheet.522</title>
						<path d="M0 336.27 C3.31 322.31 1.63 305.06 0.6 297.43 L0 336.27 Z" class="st7"/>
						<path d="M0 336.27 C3.31 322.31 1.63 305.06 0.6 297.43" class="st8"/>
					</g>
					<g id="group523-293" transform="translate(-330.754,339.582) rotate(-97.2496)">
						<title>FilledArrow_Marker</title>
						<g id="shape524-294">
							<title>Sheet.524</title>
							<path d="M6 334.02 L0 331.77 L0 336.27 L6 334.02 Z" class="st9"/>
						</g>
					</g>
				</g>
			</g>
		</g>
		<g id="shape535-296" transform="translate(35.4666,-279.395)">
			<title>Sheet.535</title>
			<desc>tminimum_scheduled_operation_transition_delay (tM)</desc>
			<rect x="0" y="324.565" width="189.155" height="11.7075" class="st17"/>
			<text x="4" y="323.6" class="st18">t<tspan dy="-0.287em" class="st19">minimum_scheduled_operation_transition_delay </tspan><tspan
						dy="0.186em" class="st20">(t</tspan><tspan dy="-0.289em" class="st21">M</tspan><tspan dy="0.193em"
						class="st20">)</tspan></text>		</g>
		<g id="shape543-303" transform="translate(96.0773,-217.152)">
			<title>Sheet.543</title>
			<desc>tM</desc>
			<rect x="0" y="324.565" width="26.5202" height="11.7075" class="st17"/>
			<text x="4" y="323.33" class="st18">t<tspan dy="-0.287em" class="st19">M</tspan></text>		</g>
		<g id="shape545-307" transform="translate(63.3158,-161.469)">
			<title>Sheet.545</title>
			<desc>tM</desc>
			<rect x="0" y="324.565" width="26.5202" height="11.7075" class="st17"/>
			<text x="4" y="323.33" class="st18">t<tspan dy="-0.287em" class="st19">M</tspan></text>		</g>
		<g id="shape553-311" transform="translate(205.592,-148.065)">
			<title>Sheet.553</title>
			<rect x="0" y="324.565" width="26.5202" height="11.7075" class="st17"/>
		</g>
		<g id="shape556-313" transform="translate(112.433,-268.557)">
			<title>Sheet.556</title>
			<desc>tscheduled_operation_advance + idle_to_active</desc>
			<rect x="0" y="322.367" width="176.515" height="13.9061" class="st17"/>
			<text x="4" y="332" class="st22">t<tspan dy="-0.287em" class="st23">scheduled_operation_advance + idle_to_active</tspan></text>		</g>
		<g id="shape559-317" transform="translate(122.957,-236.876)">
			<title>Sheet.559</title>
			<desc>tactive_to_idle</desc>
			<rect x="0" y="324.565" width="53.5158" height="11.7075" class="st17"/>
			<text x="4" y="333.4" class="st18">t<tspan dy="-0.287em" class="st19">active_to_idle</tspan></text>		</g>
		<g id="shape576-321" transform="translate(66.2462,-172.776) rotate(-15)">
			<title>Sheet.576</title>
			<desc>tactive_to_idle</desc>
			<rect x="0" y="324.565" width="54.8032" height="11.7075" class="st17"/>
			<text x="6.14" y="333.43" class="st18">t<tspan dy="-0.287em" class="st19">active_to_idle</tspan></text>		</g>
		<g id="shape587-325" transform="translate(326.917,-99.611)">
			<title>Dynamic connector</title>
			<path d="M7.09 332.62 C41.32 340.01 38.75 320.85 13.13 324.54 L12.77 324.61" class="st24"/>
		</g>
		<g id="shape588-331" transform="translate(354.972,-99.6647)">
			<title>Sheet.588</title>
			<desc>tconfiguration</desc>
			<rect x="0" y="330.604" width="54.8032" height="5.66929" class="st17"/>
			<text x="4" y="326.34" class="st18">t<tspan dy="-0.287em" class="st19">configuration</tspan></text>		</g>
		<g id="shape591-335" transform="translate(232.769,-72.6508)">
			<title>Sheet.591</title>
			<desc>tinitialization</desc>
			<rect x="0" y="333.438" width="54.8032" height="2.83465" class="st17"/>
			<text x="4" y="327.76" class="st18">t<tspan dy="-0.287em" class="st19">initialization</tspan></text>		</g>
		<g id="shape597-339" transform="translate(303.606,-112.336)">
			<title>Sheet.597</title>
			<desc>tdeactivation</desc>
			<rect x="0" y="329.186" width="53.3147" height="7.08661" class="st17"/>
			<text x="4" y="325.63" class="st18">t<tspan dy="-0.287em" class="st19">deactivation</tspan></text>		</g>
		<g id="shape600-343" transform="translate(243.43,-125.8)">
			<title>Sheet.600</title>
			<desc>tactivation</desc>
			<rect x="0" y="329.186" width="46.8726" height="7.08661" class="st17"/>
			<text x="4" y="325.63" class="st18">t<tspan dy="-0.287em" class="st19">activation</tspan></text>		</g>
		<g id="shape606-347" transform="translate(49.6463,-224.474)">
			<title>Sheet.606</title>
			<desc>tM</desc>
			<rect x="0" y="324.565" width="26.5202" height="11.7075" class="st17"/>
			<text x="4" y="323.33" class="st18">t<tspan dy="-0.287em" class="st19">M</tspan></text>		</g>
		<g id="shape609-351" transform="translate(24.8654,-193.703) rotate(-15)">
			<title>Sheet.609</title>
			<desc>tscheduled_operation_advance + idle_to_active</desc>
			<rect x="0" y="324.237" width="135.861" height="12.0358" class="st17"/>
			<text x="4" y="332.94" class="st22">t<tspan dy="-0.287em" class="st23">scheduled_operation_advance + idle_to_active</tspan></text>		</g>
		<g id="shape618-355" transform="translate(330.839,-229.878) rotate(-15)">
			<title>Sheet.618</title>
			<desc>tidle_to_active</desc>
			<rect x="0" y="320.551" width="65.6072" height="15.7216" class="st17"/>
			<text x="4" y="321.39" class="st18">t<tspan dy="-0.287em" class="st19">idle_to_active</tspan></text>		</g>
		<g id="shape621-359" transform="translate(261.037,-177.835) rotate(-30)">
			<title>Sheet.621</title>
			<desc>tactive_to_idle</desc>
			<rect x="0" y="324.565" width="73.5599" height="11.7075" class="st17"/>
			<text x="15.52" y="333.43" class="st18">t<tspan dy="-0.287em" class="st19">active_to_idle</tspan></text>		</g>
		<g id="shape622-363" transform="translate(590.149,-180.623) rotate(30)">
			<title>Sheet.622</title>
			<desc>tidle_to_active</desc>
			<rect x="0" y="329.942" width="66.4546" height="6.33105" class="st17"/>
			<text x="4" y="326.09" class="st18">t<tspan dy="-0.287em" class="st19">idle_to_active</tspan></text>		</g>
		<g id="shape623-367" transform="translate(576.07,-164.861) rotate(30)">
			<title>Sheet.623</title>
			<desc>tactive_to_idle</desc>
			<rect x="0" y="324.565" width="54.8032" height="11.7075" class="st17"/>
			<text x="6.14" y="333.43" class="st18">t<tspan dy="-0.287em" class="st19">active_to_idle</tspan></text>		</g>
		<g id="shape624-371" transform="translate(371.973,-290.734)">
			<title>Sheet.624</title>
			<desc>t minimum_scheduled_operation_transition_delay (tG)</desc>
			<rect x="0" y="324.565" width="176.515" height="11.7075" class="st17"/>
			<text x="4" y="333.4" class="st18">t<tspan class="st26"> </tspan><tspan dy="-0.287em" class="st19">minimum_scheduled_operation_transition_delay </tspan><tspan
						dy="0.186em" class="st20">(t</tspan><tspan dy="-0.289em" class="st21">G</tspan><tspan dy="0.193em"
						class="st20">)</tspan></text>		</g>
		<g id="shape627-379" transform="translate(505.634,-225.722)">
			<title>Sheet.627</title>
			<desc>tG</desc>
			<rect x="0" y="332.021" width="21.2245" height="4.25197" class="st17"/>
			<text x="4" y="327.13" class="st18">t<tspan dy="-0.287em" class="st19">G</tspan></text>		</g>
		<g id="shape630-383" transform="translate(463.15,-224.304)">
			<title>Sheet.630</title>
			<desc>tG</desc>
			<rect x="0" y="332.021" width="21.2245" height="4.25197" class="st17"/>
			<text x="4" y="327.13" class="st18">t<tspan dy="-0.287em" class="st19">G</tspan></text>		</g>
		<g id="shape631-387" transform="translate(527.816,-183.623)">
			<title>Sheet.631</title>
			<desc>tG</desc>
			<rect x="0" y="317.273" width="21.2245" height="19" class="st17"/>
			<text x="4" y="319.75" class="st18">t<tspan dy="-0.287em" class="st19">G</tspan></text>		</g>
		<g id="shape633-391" transform="translate(297.371,-256.903)">
			<title>Sheet.633</title>
			<desc>tscheduled_operation_advance</desc>
			<rect x="0" y="317.273" width="107.238" height="19" class="st17"/>
			<text x="7.96" y="329.78" class="st18">t<tspan dy="-0.287em" class="st19">scheduled_operation_advance</tspan></text>		</g>
		<g id="shape636-395" transform="translate(304.504,-198.703)">
			<title>Sheet.636</title>
			<desc>tscheduled_operation_advance</desc>
			<rect x="0" y="317.273" width="107.238" height="19" class="st17"/>
			<text x="7.96" y="329.78" class="st18">t<tspan dy="-0.287em" class="st19">scheduled_operation_advance</tspan></text>		</g>
		<g id="shape640-399" transform="translate(303.426,-85.4067)">
			<title>Sheet.640</title>
			<desc>tdeinitialization</desc>
			<rect x="0" y="334.855" width="61.5042" height="1.41732" class="st17"/>
			<text x="4" y="338.47" class="st18">t<tspan dy="-0.287em" class="st19">deinitialization</tspan></text>		</g>
	</g>
</svg>
