<?xml version="1.0" encoding="UTF-8" standalone="no"?>
<!DOCTYPE svg PUBLIC "-//W3C//DTD SVG 1.1//EN" "http://www.w3.org/Graphics/SVG/1.1/DTD/svg11.dtd">
<!-- Generated by Microsoft Visio, SVG Export SP_concept.svg Infocenter diagram -->
<svg xmlns="http://www.w3.org/2000/svg" xmlns:xlink="http://www.w3.org/1999/xlink" xmlns:ev="http://www.w3.org/2001/xml-events"
		xmlns:v="http://schemas.microsoft.com/visio/2003/SVGExtensions/" width="5.81102in" height="5.01575in"
		viewBox="0 0 418.393 361.134" xml:space="preserve" color-interpolation-filters="sRGB" class="st21">
	<v:documentProperties v:langID="1033">
		<v:userDefs>
			<v:ud v:nameU="msvNoAutoConnect" v:val="VT0(1):26"/>
		</v:userDefs>
	</v:documentProperties>

	<style type="text/css">
	<![CDATA[
		.st1 {fill:none;stroke:none;stroke-width:1}
		.st2 {fill:none}
		.st3 {stroke:#c8ced3;stroke-dasharray:3.99999,2;stroke-linecap:butt;stroke-width:0.499999}
		.st4 {fill:#ffffff;stroke:none;stroke-linecap:butt;stroke-width:7.2}
		.st5 {fill:#c8ced3;font-family:Arial;font-size:0.916672em}
		.st6 {fill:#eaf6f9;stroke:#eaf6f9;stroke-width:0.999999}
		.st7 {fill:#00a9ce;stroke:none;stroke-width:0.999999}
		.st8 {fill:#ffffff;font-family:Arial;font-size:0.916672em}
		.st9 {fill:#f2c100;stroke:none;stroke-width:0.999999}
		.st10 {fill:#d9e1e2;stroke:none;stroke-width:0.999999}
		.st11 {fill:#333f48;font-family:Arial;font-size:0.916672em}
		.st12 {fill:#0033a0;stroke:none;stroke-width:0.999999}
		.st13 {fill:#0077c8;stroke:none;stroke-width:0.999999}
		.st14 {fill:none;stroke:#008bab;stroke-linecap:butt;stroke-width:0.999999}
		.st15 {stroke:#008bab;stroke-linecap:butt;stroke-width:0.999999}
		.st16 {fill:none;stroke:none;stroke-width:0.999999}
		.st17 {fill:#00a9ce;font-family:Arial;font-size:0.916672em}
		.st18 {font-size:1em}
		.st19 {fill:#3a4349;font-family:Arial;font-size:0.75em}
		.st20 {fill:#ffffff;font-family:Arial;font-size:0.75em}
		.st21 {fill:none;fill-rule:evenodd;font-size:12px;overflow:visible;stroke-linecap:square;stroke-miterlimit:3}
	]]>
	</style>

	<g v:mID="0" v:index="1" v:groupContext="foregroundPage">
		<v:userDefs>
			<v:ud v:nameU="msvThemeOrder" v:val="VT0(0):26"/>
		</v:userDefs>
		<title>Infocenter diagram</title>
		<v:pageProperties v:drawingScale="0.0393701" v:pageScale="0.0393701" v:drawingUnits="24" v:shadowOffsetX="8.50393"
				v:shadowOffsetY="-8.50393"/>
		<v:layer v:name="Connector" v:index="0"/>
		<v:layer v:name="Guides" v:index="1" v:print="false" v:snap="false" v:glue="false" v:lock="true"/>
		<v:layer v:name="Diagram" v:index="2"/>
		<g id="group1-1" transform="translate(344.187,-20.5509) rotate(90)" v:mID="1" v:groupContext="group">
			<v:userDefs/>
			<title>Sheet.1</title>
			<desc>Max 750 px</desc>
			<g id="shape2-2" v:mID="2" v:groupContext="shape" v:layerMember="1" transform="translate(0,-6.6122)">
				<title>Sheet.2</title>
				<path d="M0 361.13 L566.93 361.13 L0 361.13 Z" class="st1"/>
			</g>
			<g id="group3-4" transform="translate(0,-6.6122)" v:mID="3" v:groupContext="group">
				<title>Sheet.3</title>
				<g id="shape4-5" v:mID="4" v:groupContext="shape" v:layerMember="1">
					<title>Sheet.4</title>
					<path d="M0 361.13 L566.93 361.13 L0 361.13 Z" class="st1"/>
				</g>
				<g id="shape5-7" v:mID="5" v:groupContext="shape" v:layerMember="1">
					<title>Sheet.5</title>
					<path d="M0 361.13 L566.93 361.13 L0 361.13 Z" class="st2"/>
					<path d="M0 361.13 L566.93 361.13" class="st3"/>
				</g>
			</g>
			<g id="shape6-10" v:mID="6" v:groupContext="shape" v:layerMember="1" transform="translate(255.033,5.68434E-14)">
				<title>Sheet.6</title>
				<rect x="0" y="347.934" width="56.8641" height="13.2001" class="st4"/>
			</g>
			<g id="shape1-12" v:mID="1" v:groupContext="groupContent">
				<v:textBlock v:margins="rect(3.99999,3.99999,3.99999,3.99999)" v:tabSpace="42.5196"/>
				<v:textRect cx="283.465" cy="354.534" width="566.93" height="0"/>
				<text x="255.03" y="357.83" class="st5" v:langID="1033"><v:paragraph v:horizAlign="1"/><v:tabList/>Max 750 px</text>			</g>
		</g>
		<g id="group7-14" transform="translate(-10.3461,-375.085)" v:mID="7" v:groupContext="group">
			<v:userDefs/>
			<title>Sheet.7</title>
			<desc>Max 700 px</desc>
			<g id="shape8-15" v:mID="8" v:groupContext="shape" v:layerMember="1" transform="translate(-6.39488E-14,-6.6122)">
				<title>Sheet.8</title>
				<path d="M0 361.13 L524.41 361.13 L0 361.13 Z" class="st1"/>
			</g>
			<g id="group9-17" transform="translate(-6.39488E-14,-6.6122)" v:mID="9" v:groupContext="group">
				<title>Sheet.9</title>
				<g id="shape10-18" v:mID="10" v:groupContext="shape" v:layerMember="1">
					<title>Sheet.10</title>
					<path d="M0 361.13 L524.41 361.13 L0 361.13 Z" class="st1"/>
				</g>
				<g id="shape11-20" v:mID="11" v:groupContext="shape" v:layerMember="1">
					<title>Sheet.11</title>
					<path d="M0 361.13 L524.41 361.13 L0 361.13 Z" class="st2"/>
					<path d="M0 361.13 L524.41 361.13" class="st3"/>
				</g>
			</g>
			<g id="shape12-23" v:mID="12" v:groupContext="shape" v:layerMember="1" transform="translate(233.773,5.68434E-14)">
				<title>Sheet.12</title>
				<rect x="0" y="347.934" width="56.8641" height="13.2001" class="st4"/>
			</g>
			<g id="shape7-25" v:mID="7" v:groupContext="groupContent">
				<v:textBlock v:margins="rect(3.99999,3.99999,3.99999,3.99999)" v:tabSpace="42.5196"/>
				<v:textRect cx="262.205" cy="354.534" width="524.42" height="0"/>
				<text x="233.77" y="357.83" class="st5" v:langID="1033"><v:paragraph v:horizAlign="1"/><v:tabList/>Max 700 px</text>			</g>
		</g>
		<g id="group13-27" transform="translate(875.208,-20.5509) rotate(90)" v:mID="13" v:groupContext="group">
			<title>Sheet.13</title>
			<g id="shape14-28" v:mID="14" v:groupContext="shape" v:layerMember="1">
				<title>Sheet.14</title>
				<path d="M0 361.13 L566.93 361.13 L0 361.13 Z" class="st1"/>
			</g>
			<g id="group15-30" v:mID="15" v:groupContext="group">
				<title>Sheet.15</title>
				<g id="shape16-31" v:mID="16" v:groupContext="shape" v:layerMember="1">
					<title>Sheet.16</title>
					<path d="M0 361.13 L566.93 361.13 L0 361.13 Z" class="st1"/>
				</g>
				<g id="shape17-33" v:mID="17" v:groupContext="shape" v:layerMember="1">
					<title>Sheet.17</title>
					<path d="M0 361.13 L566.93 361.13 L0 361.13 Z" class="st2"/>
					<path d="M0 361.13 L566.93 361.13" class="st3"/>
				</g>
			</g>
		</g>
		<g id="group18-36" transform="translate(-10.3461,185.232)" v:mID="18" v:groupContext="group">
			<title>Sheet.18</title>
			<g id="shape19-37" v:mID="19" v:groupContext="shape" v:layerMember="1">
				<title>Sheet.19</title>
				<path d="M0 361.13 L524.41 361.13 L0 361.13 Z" class="st1"/>
			</g>
			<g id="group20-39" v:mID="20" v:groupContext="group">
				<title>Sheet.20</title>
				<g id="shape21-40" v:mID="21" v:groupContext="shape" v:layerMember="1">
					<title>Sheet.21</title>
					<path d="M0 361.13 L524.41 361.13 L0 361.13 Z" class="st1"/>
				</g>
				<g id="shape22-42" v:mID="22" v:groupContext="shape" v:layerMember="1">
					<title>Sheet.22</title>
					<path d="M0 361.13 L524.41 361.13 L0 361.13 Z" class="st2"/>
					<path d="M0 361.13 L524.41 361.13" class="st3"/>
				</g>
			</g>
		</g>
		<g id="shape23-45" v:mID="23" v:groupContext="shape" transform="translate(-107.15,-290.563)">
			<title>Block Double Arrow.1006</title>
			<v:userDefs>
				<v:ud v:nameU="visVersion" v:val="VT0(17):26"/>
			</v:userDefs>
			<path d="M0.84 338.46 L0.84 332.79 L0 346.96 L0.84 361.13 L0.84 355.46 L0.84 361.13 L1.67 346.96 L0.84 332.79 L0.84 338.46
						 Z" class="st6"/>
		</g>
		<g id="shape24-47" v:mID="24" v:groupContext="shape" transform="translate(120.928,-297.334)">
			<title>Nordic Blue.1007</title>
			<desc>Application</desc>
			<v:userDefs/>
			<v:textBlock v:margins="rect(3.99999,3.99999,3.99999,3.99999)"/>
			<v:textRect cx="86.3751" cy="336.699" width="172.76" height="48.8696"/>
			<rect x="0" y="312.264" width="172.751" height="48.8696" class="st7"/>
			<text x="59.47" y="340" class="st8" v:langID="1033"><v:paragraph v:horizAlign="1" v:bulletSize="0.166667"/><v:tabList/>Application</text>		</g>
		<g id="shape25-50" v:mID="25" v:groupContext="shape" transform="translate(15.6922,-109.539)">
			<title>Nordic Sun.1009</title>
			<desc>HW peripheral (IP)</desc>
			<v:userDefs/>
			<v:textBlock v:margins="rect(3.99999,3.99999,3.99999,3.99999)"/>
			<v:textRect cx="89.243" cy="333.814" width="178.5" height="54.6401"/>
			<rect x="0" y="306.494" width="178.487" height="54.6401" class="st9"/>
			<text x="43.7" y="337.11" class="st8" v:langID="1033"><v:paragraph v:horizAlign="1" v:bulletSize="0.166667"/><v:tabList/>HW peripheral (IP)</text>		</g>
		<g id="shape26-53" v:mID="26" v:groupContext="shape" transform="translate(120.472,-216.85)">
			<title>Nordic Light Grey.1010</title>
			<desc>User interface</desc>
			<v:userDefs/>
			<v:textBlock v:margins="rect(3.99999,3.99999,3.99999,3.99999)"/>
			<v:textRect cx="86.9244" cy="333.814" width="173.85" height="54.6401"/>
			<rect x="0" y="306.494" width="173.85" height="54.6401" class="st10"/>
			<text x="52.69" y="337.11" class="st11" v:langID="1033"><v:paragraph v:horizAlign="1" v:bulletSize="0.166667"/><v:tabList/>User interface</text>		</g>
		<g id="shape27-56" v:mID="27" v:groupContext="shape" transform="translate(228.912,-109.539)">
			<title>Nordic Blueslate.1011</title>
			<desc>Soft peripheral</desc>
			<v:userDefs/>
			<v:textBlock v:margins="rect(3.99999,3.99999,3.99999,3.99999)"/>
			<v:textRect cx="85.1059" cy="333.814" width="170.24" height="54.6401"/>
			<rect x="0" y="306.494" width="170.213" height="54.6401" class="st12"/>
			<text x="49.33" y="337.11" class="st8" v:langID="1033"><v:paragraph v:horizAlign="1" v:bulletSize="0.166667"/><v:tabList/>Soft peripheral</text>		</g>
		<g id="group28-59" transform="translate(565.247,62.5058) rotate(89.7928)" v:mID="28" v:groupContext="group">
			<v:userDefs>
				<v:ud v:nameU="Scale" v:val="VT0(1):26"/>
				<v:ud v:nameU="AntiScale" v:val="VT0(1):26"/>
				<v:ud v:nameU="visVersion" v:val="VT0(17):26"/>
			</v:userDefs>
			<title>Line Arrow.1012</title>
			<g id="shape29-60" v:mID="29" v:groupContext="shape" transform="translate(19.45,5.68434E-14)">
				<title>Sheet.29</title>
				<path d="M0 354.74 L0 361.13 L6.39 357.93 L0 354.74 Z" class="st13"/>
			</g>
			<g id="shape30-62" v:mID="30" v:groupContext="shape" transform="translate(19.45,5.68434E-14)">
				<title>Sheet.30</title>
				<path d="M0 354.74 L0 361.13 L6.39 357.93 L0 354.74 Z" class="st14"/>
			</g>
			<g id="group31-64" transform="translate(6.39488E-14,-3.2)" v:mID="31" v:groupContext="group">
				<title>Sheet.31</title>
				<g id="shape32-65" v:mID="32" v:groupContext="shape">
					<title>Sheet.32</title>
					<path d="M0 361.13 L19.45 361.13 L0 361.13 Z" class="st1"/>
				</g>
				<g id="group33-67" v:mID="33" v:groupContext="group">
					<title>Sheet.33</title>
					<g id="shape34-68" v:mID="34" v:groupContext="shape">
						<title>Sheet.34</title>
						<path d="M0 361.13 L19.45 361.13 L0 361.13 Z" class="st1"/>
					</g>
					<g id="shape35-70" v:mID="35" v:groupContext="shape">
						<title>Sheet.35</title>
						<path d="M0 361.13 L19.45 361.13 L0 361.13 Z" class="st2"/>
						<path d="M0 361.13 L19.45 361.13" class="st15"/>
					</g>
				</g>
			</g>
		</g>
		<g id="group36-73" transform="translate(342.155,-16.4579) rotate(41.5079)" v:mID="36" v:groupContext="group">
			<v:userDefs>
				<v:ud v:nameU="Scale" v:val="VT0(1):26"/>
				<v:ud v:nameU="AntiScale" v:val="VT0(1):26"/>
				<v:ud v:nameU="visVersion" v:val="VT0(17):26"/>
			</v:userDefs>
			<title>Line Arrow.1015</title>
			<g id="shape37-74" v:mID="37" v:groupContext="shape" transform="translate(54.0999,5.68434E-14)">
				<title>Sheet.37</title>
				<path d="M0 354.74 L0 361.13 L6.39 357.93 L0 354.74 Z" class="st13"/>
			</g>
			<g id="shape38-76" v:mID="38" v:groupContext="shape" transform="translate(54.0999,5.68434E-14)">
				<title>Sheet.38</title>
				<path d="M0 354.74 L0 361.13 L6.39 357.93 L0 354.74 Z" class="st14"/>
			</g>
			<g id="group39-78" transform="translate(-7.19425E-14,-3.2)" v:mID="39" v:groupContext="group">
				<title>Sheet.39</title>
				<g id="shape40-79" v:mID="40" v:groupContext="shape">
					<title>Sheet.40</title>
					<path d="M0 361.13 L54.1 361.13 L0 361.13 Z" class="st1"/>
				</g>
				<g id="group41-81" v:mID="41" v:groupContext="group">
					<title>Sheet.41</title>
					<g id="shape42-82" v:mID="42" v:groupContext="shape">
						<title>Sheet.42</title>
						<path d="M0 361.13 L54.1 361.13 L0 361.13 Z" class="st1"/>
					</g>
					<g id="shape43-84" v:mID="43" v:groupContext="shape">
						<title>Sheet.43</title>
						<path d="M0 361.13 L54.1 361.13 L0 361.13 Z" class="st2"/>
						<path d="M0 361.13 L54.1 361.13" class="st15"/>
					</g>
				</g>
			</g>
		</g>
		<g id="shape44-87" v:mID="44" v:groupContext="shape" transform="translate(49.1004,-35.6362)">
			<title>Sheet.44</title>
			<desc>Real-Time interaction with physical world</desc>
			<v:userDefs/>
			<v:textBlock v:margins="rect(3.99999,3.99999,3.99999,3.99999)" v:tabSpace="42.5196"/>
			<v:textRect cx="168.922" cy="349.086" width="337.85" height="24.0945"/>
			<rect x="0" y="337.039" width="337.843" height="24.0945" class="st16"/>
			<text x="116.65" y="345.79" class="st17" v:langID="1033"><v:paragraph v:horizAlign="1"/><v:tabList/>Real-Time interaction <v:newlineChar/><tspan
						x="123.07" dy="1.2em" class="st18">with physical world</tspan></text>		</g>
		<g id="shape45-91" v:mID="45" v:groupContext="shape" transform="translate(334.475,-202.677)">
			<title>Nordic Blueslate.1017</title>
			<desc>Memory</desc>
			<v:userDefs/>
			<v:textBlock v:margins="rect(3.99999,3.99999,3.99999,3.99999)"/>
			<v:textRect cx="31.8387" cy="344.034" width="63.7" height="34.1989"/>
			<rect x="0" y="326.935" width="63.6782" height="34.1989" class="st12"/>
			<text x="11.98" y="347.33" class="st8" v:langID="1033"><v:paragraph v:horizAlign="1" v:bulletSize="0.166667"/><v:tabList/>Memory</text>		</g>
		<g id="group46-94" transform="translate(-143.438,-61.297) rotate(-43.8829)" v:mID="46" v:groupContext="group">
			<v:userDefs>
				<v:ud v:nameU="Scale" v:val="VT0(1):26"/>
				<v:ud v:nameU="AntiScale" v:val="VT0(1):26"/>
				<v:ud v:nameU="visVersion" v:val="VT0(17):26"/>
			</v:userDefs>
			<title>Line Double Arrow.1018</title>
			<g id="shape47-95" v:mID="47" v:groupContext="shape">
				<title>Sheet.47</title>
				<path d="M5.67 355.46 L5.67 361.13 L0 358.29 L5.67 355.46 ZM70.32 355.46 L70.32 361.13 L75.98 358.29 L70.32 355.46
							 Z" class="st13"/>
			</g>
			<g id="shape48-97" v:mID="48" v:groupContext="shape">
				<title>Sheet.48</title>
				<path d="M5.67 355.46 L5.67 361.13 L0 358.29 L5.67 355.46 Z" class="st14"/>
			</g>
			<g id="shape49-99" v:mID="49" v:groupContext="shape" transform="translate(70.3199,5.68434E-14)">
				<title>Sheet.49</title>
				<path d="M0 355.46 L0 361.13 L5.66 358.29 L0 355.46 Z" class="st14"/>
			</g>
			<g id="group50-101" transform="translate(5.66999,-2.84)" v:mID="50" v:groupContext="group">
				<title>Sheet.50</title>
				<g id="shape51-102" v:mID="51" v:groupContext="shape">
					<title>Sheet.51</title>
					<path d="M0 361.13 L64.65 361.13 L0 361.13 Z" class="st1"/>
				</g>
				<g id="group52-104" v:mID="52" v:groupContext="group">
					<title>Sheet.52</title>
					<g id="shape53-105" v:mID="53" v:groupContext="shape">
						<title>Sheet.53</title>
						<path d="M0 361.13 L64.65 361.13 L0 361.13 Z" class="st1"/>
					</g>
					<g id="shape54-107" v:mID="54" v:groupContext="shape">
						<title>Sheet.54</title>
						<path d="M0 361.13 L64.65 361.13 L0 361.13 Z" class="st2"/>
						<path d="M0 361.13 L64.65 361.13" class="st15"/>
					</g>
				</g>
			</g>
		</g>
		<g id="group55-110" transform="translate(79.3521,467.722) rotate(-139.085)" v:mID="55" v:groupContext="group">
			<v:userDefs>
				<v:ud v:nameU="Scale" v:val="VT0(1):26"/>
				<v:ud v:nameU="AntiScale" v:val="VT0(1):26"/>
				<v:ud v:nameU="visVersion" v:val="VT0(17):26"/>
			</v:userDefs>
			<title>Line Double Arrow.1019</title>
			<g id="shape56-111" v:mID="56" v:groupContext="shape">
				<title>Sheet.56</title>
				<path d="M5.67 355.46 L5.67 361.13 L0 358.29 L5.67 355.46 ZM74.76 355.46 L74.76 361.13 L80.42 358.29 L74.76 355.46
							 Z" class="st13"/>
			</g>
			<g id="shape57-113" v:mID="57" v:groupContext="shape">
				<title>Sheet.57</title>
				<path d="M5.67 355.46 L5.67 361.13 L0 358.29 L5.67 355.46 Z" class="st14"/>
			</g>
			<g id="shape58-115" v:mID="58" v:groupContext="shape" transform="translate(74.7599,5.68434E-14)">
				<title>Sheet.58</title>
				<path d="M0 355.46 L0 361.13 L5.66 358.29 L0 355.46 Z" class="st14"/>
			</g>
			<g id="group59-117" transform="translate(5.66999,-2.84)" v:mID="59" v:groupContext="group">
				<title>Sheet.59</title>
				<g id="shape60-118" v:mID="60" v:groupContext="shape">
					<title>Sheet.60</title>
					<path d="M0 361.13 L69.09 361.13 L0 361.13 Z" class="st1"/>
				</g>
				<g id="group61-120" v:mID="61" v:groupContext="group">
					<title>Sheet.61</title>
					<g id="shape62-121" v:mID="62" v:groupContext="shape">
						<title>Sheet.62</title>
						<path d="M0 361.13 L69.09 361.13 L0 361.13 Z" class="st1"/>
					</g>
					<g id="shape63-123" v:mID="63" v:groupContext="shape">
						<title>Sheet.63</title>
						<path d="M0 361.13 L69.09 361.13 L0 361.13 Z" class="st2"/>
						<path d="M0 361.13 L69.09 361.13" class="st15"/>
					</g>
				</g>
			</g>
		</g>
		<g id="group64-126" transform="translate(9.20786,206.844) rotate(-91.5816)" v:mID="64" v:groupContext="group">
			<v:userDefs>
				<v:ud v:nameU="Scale" v:val="VT0(1):26"/>
				<v:ud v:nameU="AntiScale" v:val="VT0(1):26"/>
				<v:ud v:nameU="visVersion" v:val="VT0(17):26"/>
			</v:userDefs>
			<title>Line Double Arrow.1020</title>
			<g id="shape65-127" v:mID="65" v:groupContext="shape">
				<title>Sheet.65</title>
				<path d="M5.67 355.46 L5.67 361.13 L0 358.29 L5.67 355.46 ZM32.85 355.46 L32.85 361.13 L38.51 358.29 L32.85 355.46
							 Z" class="st13"/>
			</g>
			<g id="shape66-129" v:mID="66" v:groupContext="shape">
				<title>Sheet.66</title>
				<path d="M5.67 355.46 L5.67 361.13 L0 358.29 L5.67 355.46 Z" class="st14"/>
			</g>
			<g id="shape67-131" v:mID="67" v:groupContext="shape" transform="translate(32.85,5.68434E-14)">
				<title>Sheet.67</title>
				<path d="M0 355.46 L0 361.13 L5.66 358.29 L0 355.46 Z" class="st14"/>
			</g>
			<g id="group68-133" transform="translate(5.66999,-2.84)" v:mID="68" v:groupContext="group">
				<title>Sheet.68</title>
				<g id="shape69-134" v:mID="69" v:groupContext="shape">
					<title>Sheet.69</title>
					<path d="M0 361.13 L27.18 361.13 L0 361.13 Z" class="st1"/>
				</g>
				<g id="group70-136" v:mID="70" v:groupContext="group">
					<title>Sheet.70</title>
					<g id="shape71-137" v:mID="71" v:groupContext="shape">
						<title>Sheet.71</title>
						<path d="M0 361.13 L27.18 361.13 L0 361.13 Z" class="st1"/>
					</g>
					<g id="shape72-139" v:mID="72" v:groupContext="shape">
						<title>Sheet.72</title>
						<path d="M0 361.13 L27.18 361.13 L0 361.13 Z" class="st2"/>
						<path d="M0 361.13 L27.18 361.13" class="st15"/>
					</g>
				</g>
			</g>
		</g>
		<g id="group73-142" transform="translate(579.172,492.051) rotate(132.203)" v:mID="73" v:groupContext="group">
			<v:userDefs>
				<v:ud v:nameU="Scale" v:val="VT0(1):26"/>
				<v:ud v:nameU="AntiScale" v:val="VT0(1):26"/>
				<v:ud v:nameU="visVersion" v:val="VT0(17):26"/>
			</v:userDefs>
			<title>Line Arrow.1021</title>
			<g id="shape74-143" v:mID="74" v:groupContext="shape" transform="translate(49.6399,5.68434E-14)">
				<title>Sheet.74</title>
				<path d="M0 354.74 L0 361.13 L6.39 357.93 L0 354.74 Z" class="st13"/>
			</g>
			<g id="shape75-145" v:mID="75" v:groupContext="shape" transform="translate(49.6399,5.68434E-14)">
				<title>Sheet.75</title>
				<path d="M0 354.74 L0 361.13 L6.39 357.93 L0 354.74 Z" class="st14"/>
			</g>
			<g id="group76-147" transform="translate(1.79856E-13,-3.2)" v:mID="76" v:groupContext="group">
				<title>Sheet.76</title>
				<g id="shape77-148" v:mID="77" v:groupContext="shape">
					<title>Sheet.77</title>
					<path d="M0 361.13 L49.64 361.13 L0 361.13 Z" class="st1"/>
				</g>
				<g id="group78-150" v:mID="78" v:groupContext="group">
					<title>Sheet.78</title>
					<g id="shape79-151" v:mID="79" v:groupContext="shape">
						<title>Sheet.79</title>
						<path d="M0 361.13 L49.64 361.13 L0 361.13 Z" class="st1"/>
					</g>
					<g id="shape80-153" v:mID="80" v:groupContext="shape">
						<title>Sheet.80</title>
						<path d="M0 361.13 L49.64 361.13 L0 361.13 Z" class="st2"/>
						<path d="M0 361.13 L49.64 361.13" class="st15"/>
					</g>
				</g>
			</g>
		</g>
		<g id="shape81-156" v:mID="81" v:groupContext="shape" transform="translate(173.764,-222.024)">
			<title>Sheet.81</title>
			<desc>(nrfx driver)</desc>
			<v:userDefs/>
			<v:textBlock v:margins="rect(3.99999,3.99999,3.99999,3.99999)" v:tabSpace="42.5196"/>
			<v:textRect cx="35.0075" cy="356.386" width="70.02" height="9.49607"/>
			<rect x="0" y="351.638" width="70.0156" height="9.49607" class="st16"/>
			<text x="12.01" y="359.09" class="st19" v:langID="1033"><v:paragraph v:horizAlign="1"/><v:tabList/>(nrfx driver)</text>		</g>
		<g id="shape82-159" v:mID="82" v:groupContext="shape" transform="translate(28.3469,-115.259)">
			<title>Sheet.82</title>
			<desc>(exectues in logic gates)</desc>
			<v:userDefs/>
			<v:textBlock v:margins="rect(3.99999,3.99999,3.99999,3.99999)" v:tabSpace="42.5196"/>
			<v:textRect cx="77.2436" cy="355.92" width="154.49" height="10.4274"/>
			<rect x="0" y="350.707" width="154.488" height="10.4274" class="st16"/>
			<text x="28.72" y="358.62" class="st20" v:langID="1033"><v:paragraph v:horizAlign="1"/><v:tabList/>(exec<tspan
						class="st18" v:langID="1045">ut</tspan>es in logic gates)</text>		</g>
		<g id="shape83-163" v:mID="83" v:groupContext="shape" transform="translate(236.693,-114.297)">
			<title>Sheet.83</title>
			<desc>(exectues in FLPR)</desc>
			<v:userDefs/>
			<v:textBlock v:margins="rect(3.99999,3.99999,3.99999,3.99999)" v:tabSpace="42.5196"/>
			<v:textRect cx="77.2436" cy="355.92" width="154.49" height="10.4274"/>
			<rect x="0" y="350.707" width="154.488" height="10.4274" class="st16"/>
			<text x="38.73" y="358.62" class="st20" v:langID="1033"><v:paragraph v:horizAlign="1"/><v:tabList/>(exec<tspan
						class="st18" v:langID="1045">ut</tspan>es in FLPR)</text>		</g>
	</g>
</svg>
