<?xml version="1.0" encoding="UTF-8" standalone="no"?>
<!DOCTYPE svg PUBLIC "-//W3C//DTD SVG 1.1//EN" "http://www.w3.org/Graphics/SVG/1.1/DTD/svg11.dtd">
<!-- Generated by Microsoft Visio, SVG Export bsd_lib_memory.svg Page-1 -->
<svg xmlns="http://www.w3.org/2000/svg" xmlns:xlink="http://www.w3.org/1999/xlink" xmlns:ev="http://www.w3.org/2001/xml-events"
		width="3.3087in" height="6.32007in" viewBox="0 0 238.226 455.045" xml:space="preserve" color-interpolation-filters="sRGB"
		class="st14">
	<style type="text/css">
	<![CDATA[
		.st1 {fill:none;stroke:none;stroke-linecap:butt;stroke-width:0.75}
		.st2 {fill:#000000;font-family:Calibri;font-size:0.833336em}
		.st3 {fill:#00a9ce;stroke:none;stroke-linecap:round;stroke-linejoin:round;stroke-width:0.75}
		.st4 {fill:#00a9ce;stroke:#000000;stroke-linecap:butt;stroke-opacity:0.53;stroke-width:0.529963}
		.st5 {fill:#ffffff;font-family:Calibri;font-size:1.00001em}
		.st6 {font-size:1em}
		.st7 {fill:#0033a0;stroke:#000000;stroke-linecap:butt;stroke-opacity:0.53;stroke-width:0.529963}
		.st8 {fill:#00a9ce;stroke:#000000;stroke-linecap:butt;stroke-opacity:0.53;stroke-width:0.751858}
		.st9 {stroke:#000000;stroke-linecap:round;stroke-linejoin:round;stroke-width:1}
		.st10 {stroke:#000000;stroke-dasharray:0,3.75;stroke-linecap:round;stroke-linejoin:round;stroke-width:0.75}
		.st11 {stroke:#ffffff;stroke-dasharray:0,3.75;stroke-linecap:round;stroke-linejoin:round;stroke-width:0.75}
		.st12 {fill:none;stroke:none;stroke-linecap:round;stroke-linejoin:round;stroke-width:0.75}
		.st13 {fill:#000000;font-family:Calibri;font-size:1.00001em}
		.st14 {fill:none;fill-rule:evenodd;font-size:12px;overflow:visible;stroke-linecap:square;stroke-miterlimit:3}
	]]>
	</style>

	<g>
		<title>Page-1</title>
		<g id="group132-1" transform="translate(0.5,-0.75)">
			<title>Sheet.132</title>
			<g id="shape8-2" transform="translate(175.071,-116.759)">
				<title>text6672</title>
				<desc>0x2001 0000</desc>
				<rect x="0" y="444.245" width="54.5357" height="10.8" class="st1"/>
				<text x="-0" y="452.64" class="st2">0x2001 0000</text>			</g>
			<g id="shape9-5" transform="translate(175.071,-189.042)">
				<title>text6676</title>
				<desc>0x2001 FFFF</desc>
				<rect x="0" y="444.245" width="61.2288" height="10.8" class="st1"/>
				<text x="-0" y="452.64" class="st2">0x2001  C01F</text>			</g>
			<g id="shape10-8" transform="translate(175.071,-104.882)">
				<title>text6680</title>
				<desc>0x0000 FFFF</desc>
				<rect x="0" y="444.245" width="57.2706" height="10.8" class="st1"/>
				<text x="-0" y="452.64" class="st2">0x2000 FFFF</text>			</g>
			<g id="shape11-11" transform="translate(175.17,-1.3074E-12)">
				<title>text6684</title>
				<desc>0x2000 0000</desc>
				<rect x="0" y="444.245" width="57.2706" height="10.8" class="st1"/>
				<text x="-0" y="452.64" class="st2">0x2000 0000</text>			</g>
			<g id="shape12-14" transform="translate(175.071,-221.372)">
				<title>text6688</title>
				<desc>0x2002 0000</desc>
				<rect x="0" y="444.245" width="61.9058" height="10.8" class="st1"/>
				<text x="-0" y="452.64" class="st2">0x2002 0000</text>			</g>
			<g id="shape16-17" transform="translate(175.071,-442.743)">
				<title>text6704</title>
				<desc>0x2003 FFFF</desc>
				<rect x="0" y="444.245" width="55.2131" height="10.8" class="st1"/>
				<text x="-0" y="452.64" class="st2">0x2003 FFFF</text>			</g>
			<g id="group131-20">
				<title>Sheet.131</title>
				<g id="shape41-21" transform="translate(42.5197,-1.13687E-13)">
					<title>Nordic Blue.41</title>
					<rect x="0" y="1.50186" width="130.394" height="453.543" class="st3"/>
				</g>
				<g id="group82-23" transform="translate(42.5197,-7.38964E-13)">
					<title>Sheet.82</title>
					<g id="shape2-24">
						<title>rect6624-3</title>
						<rect x="0" y="341.659" width="130.394" height="113.386" class="st4"/>
					</g>
					<g id="shape5-26" transform="translate(14.2909,-24.7973)">
						<title>text6642</title>
						<desc>Secure Application RAM</desc>
						<rect x="0" y="391.254" width="103.347" height="63.7913" class="st1"/>
						<text x="-0" y="419.54" class="st5">Secure / Non-Secure <tspan x="-0" dy="1.2em" class="st6">Application RAM</tspan></text>					</g>
					<g id="shape13-30" transform="translate(14.1732,-12.0948)">
						<title>text6692</title>
						<desc>64 KB</desc>
						<rect x="0" y="436.715" width="33.1123" height="18.3302" class="st1"/>
						<text x="-0" y="449.48" class="st5">64 KB</text>					</g>
				</g>
				<g id="group85-33" transform="translate(42.5197,-113.386)">
					<title>Sheet.85</title>
					<g id="shape3-34">
						<title>rect6624</title>
						<rect x="0" y="368.021" width="130.394" height="87.0237" class="st7"/>
					</g>
					<g id="shape4-36" transform="translate(20.3764,-24.0945)">
						<title>text6626</title>
						<desc>BSD library Reserved RAM</desc>
						<rect x="0" y="406.085" width="99.3771" height="48.9598" class="st1"/>
						<text x="-0" y="419.76" class="st5">Non-Secure <tspan x="-0" dy="1.2em" class="st6">BSD </tspan>Library <tspan
									x="-0" dy="1.2em" class="st6">Reserved RAM</tspan></text>					</g>
					<g id="shape14-41" transform="translate(20.3764,-12.8607)">
						<title>text6696</title>
						<desc>64 KB</desc>
						<rect x="0" y="440.977" width="60.4205" height="14.0684" class="st1"/>
						<text x="-0" y="451.61" class="st5">48.04  KB</text>					</g>
				</g>
				<g id="group86-44" transform="translate(42.5197,-200.693)">
					<title>Sheet.86</title>
					<g id="shape6-45">
						<title>rect6624-1</title>
						<rect x="0" y="202.195" width="130.394" height="252.85" class="st8"/>
					</g>
					<g id="shape7-47" transform="translate(14.1732,-169.408)">
						<title>text6664</title>
						<desc>Non-Secure Application RAM</desc>
						<rect x="0" y="399.949" width="105.556" height="55.0958" class="st1"/>
						<text x="-0.01" y="423.87" class="st5">Secure / Non-Secure <tspan x="-0.01" dy="1.2em" class="st6">Application RAM</tspan></text>					</g>
					<g id="shape15-51" transform="translate(12.2403,-7.65355)">
						<title>text6700</title>
						<desc>64 KB</desc>
						<rect x="0" y="434.782" width="60.5588" height="20.2627" class="st1"/>
						<text x="-0" y="448.51" class="st5">143.96 KB</text>					</g>
				</g>
				<g id="shape90-54" transform="translate(1.75183E-06,-226.772)">
					<title>Sheet.90</title>
					<path d="M42.52 455.05 L5.67 455.05 L-0 455.05" class="st9"/>
				</g>
				<g id="shape91-57" transform="translate(42.5197,456.547) rotate(180)">
					<title>Sheet.91</title>
					<path d="M0 455.05 L42.52 455.05" class="st9"/>
				</g>
				<g id="shape92-60" transform="translate(42.5197,910.09) rotate(180)">
					<title>Sheet.92</title>
					<path d="M0 455.05 L42.52 455.05" class="st9"/>
				</g>
				<g id="shape93-63" transform="translate(42.5197,-14.1732)">
					<title>Sheet.93</title>
					<path d="M0 455.05 L130.39 455.05" class="st10"/>
				</g>
				<g id="shape94-66" transform="translate(42.5197,-28.3465)">
					<title>Sheet.94</title>
					<path d="M0 455.05 L130.39 455.05" class="st10"/>
				</g>
				<g id="shape95-69" transform="translate(42.5197,-42.5197)">
					<title>Sheet.95</title>
					<path d="M0 455.05 L130.39 455.05" class="st10"/>
				</g>
				<g id="shape96-72" transform="translate(42.5197,-85.0394)">
					<title>Sheet.96</title>
					<path d="M0 455.05 L132.55 455.05" class="st10"/>
				</g>
				<g id="shape97-75" transform="translate(42.5197,-56.6929)">
					<title>Sheet.97</title>
					<path d="M0 455.05 L130.39 455.05" class="st10"/>
				</g>
				<g id="shape98-78" transform="translate(42.5197,-70.8661)">
					<title>Sheet.98</title>
					<path d="M0 455.05 L130.39 455.05" class="st10"/>
				</g>
				<g id="shape99-81" transform="translate(42.5197,-99.2126)">
					<title>Sheet.99</title>
					<path d="M0 455.05 L130.39 455.05" class="st10"/>
				</g>
				<g id="shape100-84" transform="translate(42.5197,-127.559)">
					<title>Sheet.100</title>
					<path d="M0 455.05 L130.39 455.05" class="st11"/>
				</g>
				<g id="shape105-87" transform="translate(39.2717,-141.732)">
					<title>Sheet.105</title>
					<path d="M0 455.05 L130.39 455.05" class="st11"/>
				</g>
				<g id="shape106-90" transform="translate(42.5197,-155.906)">
					<title>Sheet.106</title>
					<path d="M0 455.05 L130.39 455.05" class="st11"/>
				</g>
				<g id="shape107-93" transform="translate(42.5197,-170.079)">
					<title>Sheet.107</title>
					<path d="M0 455.05 L132.55 455.05" class="st11"/>
				</g>
				<g id="shape108-96" transform="translate(42.5197,-184.252)">
					<title>Sheet.108</title>
					<path d="M0 455.05 L130.39 455.05" class="st11"/>
				</g>
				<g id="shape109-99" transform="translate(42.5197,-198.425)">
					<title>Sheet.109</title>
					<path d="M0 455.05 L130.39 455.05" class="st11"/>
				</g>
				<g id="shape110-102" transform="translate(42.5197,-212.598)">
					<title>Sheet.110</title>
					<path d="M0 455.05 L130.39 455.05" class="st10"/>
				</g>
				<g id="shape111-105" transform="translate(42.5197,-226.772)">
					<title>Sheet.111</title>
					<path d="M0 455.05 L130.39 455.05" class="st10"/>
				</g>
				<g id="shape112-108" transform="translate(42.5197,-240.945)">
					<title>Sheet.112</title>
					<path d="M0 455.05 L130.39 455.05" class="st10"/>
				</g>
				<g id="shape113-111" transform="translate(42.5197,-255.118)">
					<title>Sheet.113</title>
					<path d="M0 455.05 L130.39 455.05" class="st10"/>
				</g>
				<g id="shape114-114" transform="translate(42.5197,-269.291)">
					<title>Sheet.114</title>
					<path d="M0 455.05 L130.39 455.05" class="st10"/>
				</g>
				<g id="shape115-117" transform="translate(42.5197,-283.465)">
					<title>Sheet.115</title>
					<path d="M0 455.05 L130.39 455.05" class="st10"/>
				</g>
				<g id="shape116-120" transform="translate(42.5197,-297.638)">
					<title>Sheet.116</title>
					<path d="M0 455.05 L130.39 455.05" class="st10"/>
				</g>
				<g id="shape117-123" transform="translate(42.5197,-311.811)">
					<title>Sheet.117</title>
					<path d="M0 455.05 L130.39 455.05" class="st10"/>
				</g>
				<g id="shape118-126" transform="translate(42.5197,-325.984)">
					<title>Sheet.118</title>
					<path d="M0 455.05 L130.39 455.05" class="st10"/>
				</g>
				<g id="shape119-129" transform="translate(42.5197,-340.157)">
					<title>Sheet.119</title>
					<path d="M0 455.05 L130.39 455.05" class="st10"/>
				</g>
				<g id="shape120-132" transform="translate(42.5197,-354.331)">
					<title>Sheet.120</title>
					<path d="M0 455.05 L130.39 455.05" class="st10"/>
				</g>
				<g id="shape121-135" transform="translate(42.5197,-368.504)">
					<title>Sheet.121</title>
					<path d="M0 455.05 L130.39 455.05" class="st10"/>
				</g>
				<g id="shape122-138" transform="translate(42.5197,-382.677)">
					<title>Sheet.122</title>
					<path d="M0 455.05 L130.39 455.05" class="st10"/>
				</g>
				<g id="shape123-141" transform="translate(42.5197,-396.85)">
					<title>Sheet.123</title>
					<path d="M0 455.05 L130.39 455.05" class="st10"/>
				</g>
				<g id="shape124-144" transform="translate(42.5197,-411.024)">
					<title>Sheet.124</title>
					<path d="M0 455.05 L130.39 455.05" class="st10"/>
				</g>
				<g id="shape125-147" transform="translate(42.5197,-425.197)">
					<title>Sheet.125</title>
					<path d="M0 455.05 L130.39 455.05" class="st10"/>
				</g>
				<g id="shape126-150" transform="translate(42.5197,-439.37)">
					<title>Sheet.126</title>
					<path d="M0 455.05 L130.39 455.05" class="st10"/>
				</g>
				<g id="shape127-153" transform="translate(457.88,75.9113) rotate(90)">
					<title>Sheet.127</title>
					<desc>Upper 128 KB</desc>
					<rect x="0" y="426.699" width="77.9528" height="28.3465" class="st12"/>
					<text x="5.53" y="444.47" class="st13">Upper 128 KB</text>				</g>
				<g id="shape129-156" transform="translate(459.297,302.683) rotate(90)">
					<title>Sheet.129</title>
					<desc>Lower 128 KB</desc>
					<rect x="0" y="426.699" width="77.9528" height="28.3465" class="st12"/>
					<text x="5.71" y="444.47" class="st13">Lower 128 KB</text>				</g>
				<g id="shape130-159" transform="translate(175.071,-201.798)">
					<title>text6676</title>
					<desc>0x2001 FFFF</desc>
					<rect x="0" y="444.245" width="61.2288" height="10.8" class="st1"/>
					<text x="-0" y="452.64" class="st2">0x2001  C020</text>				</g>
			</g>
		</g>
	</g>
</svg>
