<?xml version="1.0" encoding="UTF-8" standalone="no"?>
<!DOCTYPE svg PUBLIC "-//W3C//DTD SVG 1.1//EN" "http://www.w3.org/Graphics/SVG/1.1/DTD/svg11.dtd">
<!-- Generated by Microsoft Visio, SVG Export bsd_lib_architecture.svg Page-1 -->
<svg xmlns="http://www.w3.org/2000/svg" xmlns:xlink="http://www.w3.org/1999/xlink" xmlns:ev="http://www.w3.org/2001/xml-events"
		width="11.2029in" height="4.02869in" viewBox="0 0 806.61 290.066" xml:space="preserve" color-interpolation-filters="sRGB"
		class="st28">
	<style type="text/css">
	<![CDATA[
		.st1 {fill:#6ad1e3;stroke:#000000;stroke-linecap:butt;stroke-opacity:0.29;stroke-width:1.57095}
		.st2 {fill:#0033a0;stroke:#000000;stroke-linecap:butt;stroke-opacity:0.29;stroke-width:1.16243}
		.st3 {fill:none;stroke:none;stroke-linecap:butt;stroke-width:0.75}
		.st4 {fill:#000000;font-family:Calibri;font-size:1.33333em}
		.st5 {fill:#00a9ce;stroke:#000000;stroke-linecap:butt;stroke-opacity:0.29;stroke-width:0.465012}
		.st6 {fill:#000000;font-family:Calibri;font-size:0.75em}
		.st7 {fill:#ffffff;font-family:Calibri;font-size:0.75em}
		.st8 {fill:#00a9ce;stroke:#000000;stroke-linecap:butt;stroke-opacity:0.29;stroke-width:0.677609}
		.st9 {fill:none;stroke:none;stroke-width:1}
		.st10 {fill:none}
		.st11 {stroke:#000000;stroke-linecap:butt;stroke-width:0.75}
		.st12 {fill:#000000;stroke:none;stroke-linecap:butt;stroke-width:0.515625}
		.st13 {fill:none;stroke:none;stroke-width:0.999999}
		.st14 {fill:#6ad1e3;stroke:#000000;stroke-linecap:butt;stroke-opacity:0.29;stroke-width:1.24015}
		.st15 {fill:#6ad1e3;stroke:#000000;stroke-linecap:butt;stroke-opacity:0.29;stroke-width:0.868345}
		.st16 {fill:#ffffff;font-family:Calibri;font-size:0.833336em}
		.st17 {font-size:1em}
		.st18 {fill:#6ad1e3;stroke:#000000;stroke-linecap:butt;stroke-opacity:0.29;stroke-width:1.21477}
		.st19 {fill:#d0df00;stroke:#000000;stroke-linecap:butt;stroke-opacity:0.29;stroke-width:1.05102}
		.st20 {fill:#ffcd00;stroke:#000000;stroke-linecap:butt;stroke-opacity:0.53;stroke-width:0.717316}
		.st21 {fill:#0033a0;stroke:#000000;stroke-linecap:butt;stroke-opacity:0.29;stroke-width:1.20204}
		.st22 {fill:#ffffff;font-family:Calibri;font-size:0.75em;font-weight:bold}
		.st23 {fill:#0033a0;stroke:#000000;stroke-linecap:butt;stroke-opacity:0.29;stroke-width:0.840976}
		.st24 {fill:#0033a0;stroke:#000000;stroke-linecap:butt;stroke-opacity:0.29;stroke-width:0.841672}
		.st25 {fill:#0033a0;stroke:#000000;stroke-linecap:butt;stroke-opacity:0.29;stroke-width:0.843962}
		.st26 {fill:#0033a0;stroke:#000000;stroke-linecap:butt;stroke-opacity:0.29;stroke-width:1.52648}
		.st27 {fill:#ff585d;stroke:none;stroke-linecap:round;stroke-linejoin:round;stroke-width:0.75}
		.st28 {fill:none;fill-rule:evenodd;font-size:12px;overflow:visible;stroke-linecap:square;stroke-miterlimit:3}
	]]>
	</style>

	<g>
		<title>Page-1</title>
		<g id="shape3-1" transform="translate(83.5096,-1.57095)">
			<title>rect2987</title>
			<rect x="0" y="153.744" width="721.529" height="136.322" class="st1"/>
		</g>
		<g id="shape10-3" transform="translate(83.841,-184.045)">
			<title>rect3074</title>
			<rect x="0" y="216.014" width="721.198" height="74.0518" class="st2"/>
		</g>
		<g id="shape26-5" transform="translate(10.7504,-55.4435)">
			<title>text3429</title>
			<desc>Modem</desc>
			<rect x="0" y="271.509" width="53.0286" height="18.5567" class="st3"/>
			<text x="-0" y="285.58" class="st4">Modem</text>		</g>
		<g id="shape27-8" transform="translate(82.4209,-264.59)">
			<title>rect3074-1</title>
			<rect x="0" y="266.21" width="407.939" height="23.8564" class="st5"/>
		</g>
		<g id="shape30-10" transform="translate(737.007,-155.326)">
			<title>text3516</title>
			<desc>Modem IRQ</desc>
			<rect x="0" y="279.266" width="48.1266" height="10.8" class="st3"/>
			<text x="-0" y="287.37" class="st6">Modem IRQ</text>		</g>
		<g id="shape31-13" transform="translate(264.572,-271.678)">
			<title>text3682</title>
			<desc>nrf_socket.h</desc>
			<rect x="0" y="279.266" width="55.5267" height="10.8" class="st3"/>
			<text x="-0" y="287.37" class="st7">nrf_socket.h</text>		</g>
		<g id="shape34-16" transform="translate(663.307,-267.887)">
			<title>rect2989-7-2-5-9-3</title>
			<rect x="0" y="268.565" width="134.537" height="21.501" class="st8"/>
		</g>
		<g id="group36-18" transform="translate(129.073,-131.168)">
			<title>Sheet.36</title>
			<g id="group37-19" transform="translate(-9.99201E-15,-3.55275)">
				<title>path3718</title>
				<g id="group38-20" transform="translate(3.32999,0)">
					<title>Sheet.38</title>
					<g id="shape39-21">
						<title>Sheet.39</title>
						<path d="M0 233.4 C0 290.07 0 290.07 0 290.07 L0 233.4 Z" class="st9"/>
					</g>
					<g id="shape40-23">
						<title>Sheet.40</title>
						<path d="M0 233.4 C0 290.07 0 290.07 0 290.07 L0 233.4 Z" class="st10"/>
						<path d="M0 233.4 C0 290.07 0 290.07 0 290.07" class="st11"/>
					</g>
				</g>
				<g id="shape41-26" transform="translate(2.19824E-14,-48.66)">
					<title>Sheet.41</title>
					<path d="M0 290.07 L3.32 281.06 L6.63 290.07 C4.67 288.63 2 288.64 0 290.07 Z" class="st12"/>
				</g>
			</g>
			<g id="group42-28" transform="translate(290.086,281.716) rotate(90)">
				<title>Arrow2Lend</title>
				<g id="shape43-29" transform="translate(8.35003,573.502) rotate(180)">
					<title>path4533</title>
					<path d="M8.35 290.07 L0 286.75 L8.35 283.44 C7.02 285.4 7.03 288.07 8.35 290.07 Z" class="st12"/>
				</g>
			</g>
		</g>
		<g id="group44-31" transform="translate(211.288,-131.31)">
			<title>Sheet.44</title>
			<g id="group45-32" transform="translate(2.44804E-14,-7.28073)">
				<title>path3720</title>
				<g id="group46-33" transform="translate(3.32999,1.13687E-13)">
					<title>Sheet.46</title>
					<g id="shape47-34">
						<title>Sheet.47</title>
						<path d="M0 236.62 C0 290.07 0 290.07 0 290.07 L0 236.62 Z" class="st9"/>
					</g>
					<g id="shape48-36">
						<title>Sheet.48</title>
						<path d="M0 236.62 C0 290.07 0 290.07 0 290.07 L0 236.62 Z" class="st10"/>
						<path d="M0 236.62 C0 290.07 0 290.07 0 290.07" class="st11"/>
					</g>
				</g>
				<g id="shape49-39" transform="translate(2.44804E-14,-45.43)">
					<title>Sheet.49</title>
					<path d="M0 290.07 L3.32 281.06 L6.63 290.07 C4.67 288.63 2 288.64 0 290.07 Z" class="st12"/>
				</g>
			</g>
			<g id="group50-41" transform="translate(290.536,281.216) rotate(90)">
				<title>Arrow2Lend</title>
				<g id="shape51-42" transform="translate(8.85004,574.402) rotate(180)">
					<title>path4533</title>
					<path d="M8.85 290.07 L0 287.2 L8.85 284.34 C7.44 286.03 7.44 288.34 8.85 290.07 Z" class="st12"/>
				</g>
			</g>
		</g>
		<g id="group52-44" transform="translate(293.483,-130.119)">
			<title>Sheet.52</title>
			<g id="group53-45" transform="translate(-9.99201E-15,-0.993809)">
				<title>path3722</title>
				<g id="group54-46" transform="translate(3.32999,-4.54747E-13)">
					<title>Sheet.54</title>
					<g id="shape55-47">
						<title>Sheet.55</title>
						<path d="M0 230.07 L0 290.07 L0 230.07 Z" class="st9"/>
					</g>
					<g id="shape56-49">
						<title>Sheet.56</title>
						<path d="M0 230.07 L0 290.07 L0 230.07 Z" class="st10"/>
						<path d="M0 230.07 L0 290.07" class="st11"/>
					</g>
				</g>
				<g id="shape57-52" transform="translate(2.19824E-14,-51.98)">
					<title>Sheet.57</title>
					<path d="M0 290.07 L3.32 281.05 L6.63 290.07 C4.67 288.63 2 288.63 0 290.07 Z" class="st12"/>
				</g>
			</g>
			<g id="group58-54" transform="translate(290.086,281.056) rotate(90)">
				<title>Arrow2Lend</title>
				<g id="shape59-55" transform="translate(9.01004,573.502) rotate(180)">
					<title>path4533</title>
					<path d="M9.01 290.07 L0 286.75 L9.01 283.44 C7.57 285.4 7.58 288.07 9.01 290.07 Z" class="st12"/>
				</g>
			</g>
		</g>
		<g id="group60-57" transform="translate(387.026,-129.751)">
			<title>Sheet.60</title>
			<g id="group61-58" transform="translate(-9.99201E-15,-0.993809)">
				<title>path3724</title>
				<g id="group62-59" transform="translate(3.32999,-4.54747E-13)">
					<title>Sheet.62</title>
					<g id="shape63-60">
						<title>Sheet.63</title>
						<path d="M0 230.07 L0 290.07 L0 230.07 Z" class="st9"/>
					</g>
					<g id="shape64-62">
						<title>Sheet.64</title>
						<path d="M0 230.07 L0 290.07 L0 230.07 Z" class="st10"/>
						<path d="M0 230.07 L0 290.07" class="st11"/>
					</g>
				</g>
				<g id="shape65-65" transform="translate(2.19824E-14,-51.98)">
					<title>Sheet.65</title>
					<path d="M0 290.07 L3.32 281.05 L6.63 290.07 C4.67 288.63 2 288.63 0 290.07 Z" class="st12"/>
				</g>
			</g>
			<g id="group66-67" transform="translate(290.086,281.056) rotate(90)">
				<title>Arrow2Lend</title>
				<g id="shape67-68" transform="translate(9.01004,573.502) rotate(180)">
					<title>path4533</title>
					<path d="M9.01 290.07 L0 286.75 L9.01 283.44 C7.57 285.4 7.58 288.07 9.01 290.07 Z" class="st12"/>
				</g>
			</g>
		</g>
		<g id="group68-70" transform="translate(474.41,-131.31)">
			<title>Sheet.68</title>
			<g id="group69-71" transform="translate(-9.99201E-15,-0.993809)">
				<title>path3726</title>
				<g id="group70-72" transform="translate(3.32999,-4.54747E-13)">
					<title>Sheet.70</title>
					<g id="shape71-73">
						<title>Sheet.71</title>
						<path d="M0 230.07 L0 290.07 L0 230.07 Z" class="st9"/>
					</g>
					<g id="shape72-75">
						<title>Sheet.72</title>
						<path d="M0 230.07 L0 290.07 L0 230.07 Z" class="st10"/>
						<path d="M0 230.07 L0 290.07" class="st11"/>
					</g>
				</g>
				<g id="shape73-78" transform="translate(2.19824E-14,-51.98)">
					<title>Sheet.73</title>
					<path d="M0 290.07 L3.32 281.05 L6.63 290.07 C4.67 288.63 2 288.63 0 290.07 Z" class="st12"/>
				</g>
			</g>
			<g id="group74-80" transform="translate(290.086,281.056) rotate(90)">
				<title>Arrow2Lend</title>
				<g id="shape75-81" transform="translate(9.01004,573.502) rotate(180)">
					<title>path4533</title>
					<path d="M9.01 290.07 L0 286.75 L9.01 283.44 C7.57 285.4 7.58 288.07 9.01 290.07 Z" class="st12"/>
				</g>
			</g>
		</g>
		<g id="group76-83" transform="translate(728.023,-130.693)">
			<title>Sheet.76</title>
			<g id="group77-84" transform="translate(3.31999,-3.41061E-13)">
				<title>path3738</title>
				<g id="shape78-85">
					<title>Sheet.78</title>
					<path d="M0 290.07 L0 229.41 L0 290.07 Z" class="st13"/>
				</g>
				<g id="group79-87">
					<title>Sheet.79</title>
					<g id="shape80-88">
						<title>Sheet.80</title>
						<path d="M0 290.07 L0 229.41 L0 290.07 Z" class="st9"/>
					</g>
					<g id="shape81-90">
						<title>Sheet.81</title>
						<path d="M0 290.07 L0 229.41 L0 290.07 Z" class="st10"/>
						<path d="M0 290.07 L0 229.41" class="st11"/>
					</g>
				</g>
			</g>
			<g id="group82-93" transform="translate(-282.921,237.98) rotate(-90)">
				<title>Arrow2Lend</title>
				<g id="shape83-94" transform="translate(9.01004,572.473) rotate(180)">
					<title>path4533</title>
					<path d="M9.01 290.07 L0 286.23 L9.01 282.41 C7.57 284.67 7.58 287.76 9.01 290.07 Z" class="st12"/>
				</g>
			</g>
		</g>
		<g id="group245-96" transform="translate(0.75,-12.2359)">
			<title>Sheet.245</title>
			<g id="group143-97" transform="translate(175.624,-180.312)">
				<title>Sheet.143</title>
				<g id="shape144-98">
					<title>rect3644-2</title>
					<rect x="0" y="231.092" width="156.474" height="58.974" class="st14"/>
				</g>
				<g id="shape145-100" transform="translate(53.2171,-24.085)">
					<title>text3317</title>
					<desc>AF_LOCAL</desc>
					<rect x="0" y="279.266" width="50.0399" height="10.8" class="st3"/>
					<text x="-0" y="287.37" class="st7">AF_LOCAL</text>				</g>
			</g>
			<g id="group146-103" transform="translate(95.5041,-180.126)">
				<title>Sheet.146</title>
				<g id="shape147-104">
					<title>rect3644</title>
					<rect x="0" y="231.092" width="74.8817" height="58.974" class="st15"/>
				</g>
				<g id="shape148-106" transform="translate(16.6039,-13.4494)">
					<title>text3076</title>
					<desc>AF_INETAF_INET6</desc>
					<rect x="0" y="256.05" width="41.6738" height="34.0157" class="st3"/>
					<text x="-0" y="270.05" class="st16">AF_INET <tspan x="-0" dy="1.2em" class="st17">AF_INET6</tspan></text>				</g>
			</g>
			<g id="group149-110" transform="translate(339.539,-180.299)">
				<title>Sheet.149</title>
				<g id="shape150-111">
					<title>rect3644-2-3</title>
					<rect x="0" y="231.067" width="150.071" height="58.9994" class="st18"/>
				</g>
				<g id="shape151-113" transform="translate(59.8304,-24.0985)">
					<title>text3301</title>
					<desc>AF_LTE</desc>
					<rect x="0" y="279.266" width="30.41" height="10.8" class="st3"/>
					<text x="-0.01" y="287.37" class="st7">AF_LTE</text>				</g>
			</g>
			<g id="group158-116" transform="translate(662.557,-5.68434E-14)">
				<title>Sheet.158</title>
				<g id="shape159-117">
					<title>rect3484-2</title>
					<rect x="0" y="171.975" width="134.699" height="118.091" class="st19"/>
				</g>
				<g id="shape160-119" transform="translate(46.0027,-45.6562)">
					<title>text3534</title>
					<desc>TRACEIRQ</desc>
					<rect x="0" y="263.287" width="42.6935" height="26.7791" class="st3"/>
					<text x="-0" y="273.98" class="st7">TRACE <tspan x="-0" dy="1.2em" class="st17">IRQ</tspan></text>				</g>
			</g>
			<g id="group161-123" transform="translate(555.516,-3.97904E-13)">
				<title>Sheet.161</title>
				<g id="shape162-124">
					<title>rect3582</title>
					<rect x="0" y="50.033" width="90.0327" height="240.033" class="st20"/>
				</g>
				<g id="shape163-126" transform="translate(11.3483,-83.397)">
					<title>text3584</title>
					<desc>Shared Communication Memory</desc>
					<rect x="0" y="216.82" width="67.3358" height="73.2462" class="st3"/>
					<text x="-0" y="245.33" class="st7">Shared <tspan x="-0" dy="1.2em" class="st17">Communication </tspan><tspan
								x="-0" dy="1.2em" class="st17">Memory</tspan></text>				</g>
			</g>
			<g id="shape170-131" transform="translate(4.79616E-14,-194.548)">
				<title>text3429</title>
				<desc>BSD library</desc>
				<rect x="0" y="259.949" width="72.9503" height="30.1173" class="st3"/>
				<text x="-0" y="279.8" class="st4">BSD library</text>			</g>
			<g id="group219-134" transform="translate(95.3041,-14.9927)">
				<title>Sheet.219</title>
				<g id="shape4-135">
					<title>rect2989</title>
					<rect x="0" y="185.042" width="74.3475" height="105.024" class="st21"/>
				</g>
				<g id="shape6-137" transform="translate(18.2778,-95.6013)">
					<title>text3034</title>
					<desc>IP stack</desc>
					<rect x="0" y="280.644" width="37.7919" height="9.42246" class="st3"/>
					<text x="-0" y="288.05" class="st22">IP stack</text>				</g>
				<g id="shape19-140" transform="translate(2.95148,-6.62423)">
					<title>text3277</title>
					<desc>SOCK_ STREAMSOCK_ DGRAM</desc>
					<rect x="0" y="206.913" width="68.4445" height="83.1526" class="st3"/>
					<text x="-0" y="224.2" class="st7">SOCK_STREAM <tspan x="-0" dy="1.2em" class="st17">SOCK_DGRAM </tspan><tspan
								x="-0" dy="1.2em" class="st17">IPPROTO_TCP </tspan><tspan x="-0" dy="1.2em" class="st17">IPPROTO_UDP </tspan><tspan
								x="-0" dy="1.2em" class="st17">SPROTO_TLS1v2 </tspan><tspan x="-0" dy="1.2em" class="st17">SPROTO_DTLS1v2</tspan></text>				</g>
			</g>
			<g id="group221-148" transform="translate(180.708,-61.7643)">
				<title>Sheet.221</title>
				<g id="shape5-149">
					<title>rect2989-1</title>
					<rect x="0" y="231.83" width="74.3733" height="58.2355" class="st23"/>
				</g>
				<g id="shape7-151" transform="translate(25.7317,-49.9916)">
					<title>text3038</title>
					<desc>GNSS</desc>
					<rect x="0" y="281.822" width="22.91" height="8.24398" class="st3"/>
					<text x="-0.01" y="288.64" class="st22">GNSS</text>				</g>
				<g id="shape23-154" transform="translate(9.92414,-19.1794)">
					<title>text3309</title>
					<desc>SOCK_DGRAM</desc>
					<rect x="0" y="270.523" width="54.525" height="19.543" class="st3"/>
					<text x="-0" y="277.59" class="st7">SOCK_DGRAM <tspan x="-0" dy="1.2em" class="st17">PROTO_GNSS</tspan></text>				</g>
			</g>
			<g id="group222-158" transform="translate(266.137,-61.7643)">
				<title>Sheet.222</title>
				<g id="shape11-159">
					<title>rect2989-7-4</title>
					<rect x="0" y="231.825" width="66.2396" height="58.2405" class="st24"/>
				</g>
				<g id="shape12-161" transform="translate(8.99479,-47.8342)">
					<title>text3042-8</title>
					<desc>Modem DFU</desc>
					<rect x="0" y="279.66" width="48.25" height="10.4063" class="st3"/>
					<text x="-0" y="287.56" class="st22">Modem DFU</text>				</g>
				<g id="shape100-164" transform="translate(10.2078,-19.5482)">
					<title>text6616</title>
					<desc>PROTO_DFU</desc>
					<rect x="0" y="279.66" width="45.824" height="10.4063" class="st3"/>
					<text x="-0" y="287.56" class="st7">PROTO_DFU</text>				</g>
			</g>
			<g id="group223-167" transform="translate(343.433,-61.7643)">
				<title>Sheet.223</title>
				<g id="shape8-168">
					<title>rect2989-0</title>
					<rect x="0" y="231.83" width="95.4692" height="58.2355" class="st25"/>
				</g>
				<g id="shape9-170" transform="translate(15.1004,-47.7366)">
					<title>text3068</title>
					<desc>LTE Management</desc>
					<rect x="0" y="279.567" width="65.2684" height="10.4989" class="st3"/>
					<text x="-0" y="287.52" class="st22">LTE Management</text>				</g>
				<g id="shape25-173" transform="translate(23.8351,-19.3381)">
					<title>text3321</title>
					<desc>PROTO_PDNPROTO_DNS</desc>
					<rect x="0" y="279.567" width="47.799" height="10.4989" class="st3"/>
					<text x="-0" y="287.52" class="st7">PROTO_PDN</text>				</g>
			</g>
			<g id="group224-176" transform="translate(449.958,-61.7643)">
				<title>Sheet.224</title>
				<g id="shape15-177">
					<title>rect2989-7</title>
					<rect x="0" y="232.167" width="83.622" height="57.8985" class="st26"/>
				</g>
				<g id="shape16-179" transform="translate(34.3657,-47.4347)">
					<title>text3042</title>
					<desc>AT</desc>
					<rect x="0" y="279.602" width="14.8906" height="10.4638" class="st3"/>
					<text x="-0" y="287.53" class="st22">AT</text>				</g>
				<g id="shape21-182" transform="translate(14.1732,-12.7722)">
					<title>text3297</title>
					<desc>SOCK_DGRAM</desc>
					<rect x="0" y="265.529" width="68.1515" height="24.5369" class="st3"/>
					<text x="-0.01" y="275.1" class="st7">SOCK_DGRAM <tspan x="-0.01" dy="1.2em" class="st17">PROTO_AT</tspan></text>				</g>
			</g>
			<g id="shape238-186" transform="translate(712.727,-261.002)">
				<title>text3682</title>
				<desc>nrf_socket.h</desc>
				<rect x="0" y="279.266" width="34.1959" height="10.8" class="st3"/>
				<text x="-0" y="287.37" class="st7">bsd_os.h</text>			</g>
			<g id="shape240-189" transform="translate(6.33612,-134.58)">
				<title>text3429.240</title>
				<desc>BSD library</desc>
				<rect x="0" y="259.949" width="62.3622" height="30.1173" class="st3"/>
				<text x="-0" y="279.8" class="st4">RPC / IPC</text>			</g>
		</g>
		<g id="shape253-192" transform="translate(663.307,-188.803)">
			<title>Red</title>
			<desc>BSD OS LOWER PRIO IRQ OS timers Trace handler Modem IRQHandler</desc>
			<rect x="0" y="227.704" width="134.699" height="62.3622" class="st27"/>
			<text x="4" y="238.19" class="st7">BSD OS <tspan x="4" dy="1.2em" class="st17">LOWER PRIO IRQ </tspan><tspan x="4"
						dy="1.2em" class="st17">OS timers </tspan><tspan x="4" dy="1.2em" class="st17">Trace handler</tspan><tspan
						x="4" dy="1.5em" class="st17">Modem IRQHandler</tspan></text>		</g>
	</g>
</svg>
