<?xml version="1.0" encoding="UTF-8" standalone="no"?>
<!DOCTYPE svg PUBLIC "-//W3C//DTD SVG 1.1//EN" "http://www.w3.org/Graphics/SVG/1.1/DTD/svg11.dtd">
<!-- Generated by Microsoft Visio, SVG Export bsd_lib_architecture.svg Page-1 -->
<svg xmlns="http://www.w3.org/2000/svg" xmlns:xlink="http://www.w3.org/1999/xlink" xmlns:ev="http://www.w3.org/2001/xml-events"
		width="13.1242in" height="4.02869in" viewBox="0 0 944.939 290.066" xml:space="preserve" color-interpolation-filters="sRGB"
		class="st28">
	<style type="text/css">
	<![CDATA[
		.st1 {fill:#6ad1e3;stroke:#000000;stroke-linecap:butt;stroke-opacity:0.29;stroke-width:1.57095}
		.st2 {fill:#0033a0;stroke:#000000;stroke-linecap:butt;stroke-opacity:0.29;stroke-width:1.16243}
		.st3 {fill:none;stroke:none;stroke-linecap:butt;stroke-width:0.75}
		.st4 {fill:#000000;font-family:Calibri;font-size:1.33333em}
		.st5 {fill:#00a9ce;stroke:#000000;stroke-linecap:butt;stroke-opacity:0.29;stroke-width:0.465012}
		.st6 {fill:#000000;font-family:Calibri;font-size:0.75em}
		.st7 {fill:#ffffff;font-family:Calibri;font-size:0.75em}
		.st8 {fill:#00a9ce;stroke:#000000;stroke-linecap:butt;stroke-opacity:0.29;stroke-width:0.677609}
		.st9 {fill:none;stroke:none;stroke-width:1}
		.st10 {fill:none}
		.st11 {stroke:#000000;stroke-linecap:butt;stroke-width:0.75}
		.st12 {fill:#000000;stroke:none;stroke-linecap:butt;stroke-width:0.515625}
		.st13 {fill:none;stroke:none;stroke-width:0.999999}
		.st14 {fill:#f58220;stroke:#000000;stroke-linecap:butt;stroke-opacity:0.29;stroke-width:0.746674}
		.st15 {font-size:1em}
		.st16 {fill:#6ad1e3;stroke:#000000;stroke-linecap:butt;stroke-opacity:0.29;stroke-width:1.24015}
		.st17 {fill:#6ad1e3;stroke:#000000;stroke-linecap:butt;stroke-opacity:0.29;stroke-width:0.868345}
		.st18 {fill:#ffffff;font-family:Calibri;font-size:0.833336em}
		.st19 {fill:#6ad1e3;stroke:#000000;stroke-linecap:butt;stroke-opacity:0.29;stroke-width:1.21477}
		.st20 {fill:#d0df00;stroke:#000000;stroke-linecap:butt;stroke-opacity:0.29;stroke-width:1.05102}
		.st21 {fill:#ffcd00;stroke:#000000;stroke-linecap:butt;stroke-opacity:0.53;stroke-width:0.717316}
		.st22 {fill:#0033a0;stroke:#000000;stroke-linecap:butt;stroke-opacity:0.29;stroke-width:1.20204}
		.st23 {fill:#ffffff;font-family:Calibri;font-size:0.75em;font-weight:bold}
		.st24 {fill:#0033a0;stroke:#000000;stroke-linecap:butt;stroke-opacity:0.29;stroke-width:0.840976}
		.st25 {fill:#0033a0;stroke:#000000;stroke-linecap:butt;stroke-opacity:0.29;stroke-width:0.841672}
		.st26 {fill:#0033a0;stroke:#000000;stroke-linecap:butt;stroke-opacity:0.29;stroke-width:0.843962}
		.st27 {fill:#0033a0;stroke:#000000;stroke-linecap:butt;stroke-opacity:0.29;stroke-width:1.52648}
		.st28 {fill:none;fill-rule:evenodd;font-size:12px;overflow:visible;stroke-linecap:square;stroke-miterlimit:3}
	]]>
	</style>

	<g>
		<title>Page-1</title>
		<g id="group252-1" transform="translate(0.75,-1.57095)">
			<title>Sheet.252</title>
			<g id="shape3-2" transform="translate(82.7596,0)">
				<title>rect2987</title>
				<rect x="0" y="153.744" width="721.529" height="136.322" class="st1"/>
			</g>
			<g id="shape10-4" transform="translate(83.091,-182.474)">
				<title>rect3074</title>
				<rect x="0" y="216.014" width="721.198" height="74.0518" class="st2"/>
			</g>
			<g id="shape26-6" transform="translate(10.0004,-53.8726)">
				<title>text3429</title>
				<desc>Modem</desc>
				<rect x="0" y="271.509" width="53.0286" height="18.5567" class="st3"/>
				<text x="-0" y="285.58" class="st4">Modem</text>			</g>
			<g id="shape27-9" transform="translate(81.6709,-263.019)">
				<title>rect3074-1</title>
				<rect x="0" y="266.21" width="407.939" height="23.8564" class="st5"/>
			</g>
			<g id="shape30-11" transform="translate(736.257,-153.755)">
				<title>text3516</title>
				<desc>Modem IRQ</desc>
				<rect x="0" y="279.266" width="48.1266" height="10.8" class="st3"/>
				<text x="-0" y="287.37" class="st6">Modem IRQ</text>			</g>
			<g id="shape31-14" transform="translate(263.822,-270.107)">
				<title>text3682</title>
				<desc>nrf_socket.h</desc>
				<rect x="0" y="279.266" width="55.5267" height="10.8" class="st3"/>
				<text x="-0" y="287.37" class="st7">nrf_socket.h</text>			</g>
			<g id="shape34-17" transform="translate(662.557,-266.316)">
				<title>rect2989-7-2-5-9-3</title>
				<rect x="0" y="268.565" width="134.537" height="21.501" class="st8"/>
			</g>
			<g id="group36-19" transform="translate(128.323,-129.597)">
				<title>Sheet.36</title>
				<g id="group37-20" transform="translate(-9.99201E-15,-3.55275)">
					<title>path3718</title>
					<g id="group38-21" transform="translate(3.32999,0)">
						<title>Sheet.38</title>
						<g id="shape39-22">
							<title>Sheet.39</title>
							<path d="M0 233.4 C0 290.07 0 290.07 0 290.07 L0 233.4 Z" class="st9"/>
						</g>
						<g id="shape40-24">
							<title>Sheet.40</title>
							<path d="M0 233.4 C0 290.07 0 290.07 0 290.07 L0 233.4 Z" class="st10"/>
							<path d="M0 233.4 C0 290.07 0 290.07 0 290.07" class="st11"/>
						</g>
					</g>
					<g id="shape41-27" transform="translate(2.19824E-14,-48.66)">
						<title>Sheet.41</title>
						<path d="M0 290.07 L3.32 281.06 L6.63 290.07 C4.67 288.63 2 288.64 0 290.07 Z" class="st12"/>
					</g>
				</g>
				<g id="group42-29" transform="translate(290.086,281.716) rotate(90)">
					<title>Arrow2Lend</title>
					<g id="shape43-30" transform="translate(8.35003,573.502) rotate(180)">
						<title>path4533</title>
						<path d="M8.35 290.07 L0 286.75 L8.35 283.44 C7.02 285.4 7.03 288.07 8.35 290.07 Z" class="st12"/>
					</g>
				</g>
			</g>
			<g id="group44-32" transform="translate(210.538,-129.739)">
				<title>Sheet.44</title>
				<g id="group45-33" transform="translate(2.44804E-14,-7.28073)">
					<title>path3720</title>
					<g id="group46-34" transform="translate(3.32999,1.13687E-13)">
						<title>Sheet.46</title>
						<g id="shape47-35">
							<title>Sheet.47</title>
							<path d="M0 236.62 C0 290.07 0 290.07 0 290.07 L0 236.62 Z" class="st9"/>
						</g>
						<g id="shape48-37">
							<title>Sheet.48</title>
							<path d="M0 236.62 C0 290.07 0 290.07 0 290.07 L0 236.62 Z" class="st10"/>
							<path d="M0 236.62 C0 290.07 0 290.07 0 290.07" class="st11"/>
						</g>
					</g>
					<g id="shape49-40" transform="translate(2.44804E-14,-45.43)">
						<title>Sheet.49</title>
						<path d="M0 290.07 L3.32 281.06 L6.63 290.07 C4.67 288.63 2 288.64 0 290.07 Z" class="st12"/>
					</g>
				</g>
				<g id="group50-42" transform="translate(290.536,281.216) rotate(90)">
					<title>Arrow2Lend</title>
					<g id="shape51-43" transform="translate(8.85004,574.402) rotate(180)">
						<title>path4533</title>
						<path d="M8.85 290.07 L0 287.2 L8.85 284.34 C7.44 286.03 7.44 288.34 8.85 290.07 Z" class="st12"/>
					</g>
				</g>
			</g>
			<g id="group52-45" transform="translate(292.733,-128.548)">
				<title>Sheet.52</title>
				<g id="group53-46" transform="translate(-9.99201E-15,-0.993809)">
					<title>path3722</title>
					<g id="group54-47" transform="translate(3.32999,-4.54747E-13)">
						<title>Sheet.54</title>
						<g id="shape55-48">
							<title>Sheet.55</title>
							<path d="M0 230.07 L0 290.07 L0 230.07 Z" class="st9"/>
						</g>
						<g id="shape56-50">
							<title>Sheet.56</title>
							<path d="M0 230.07 L0 290.07 L0 230.07 Z" class="st10"/>
							<path d="M0 230.07 L0 290.07" class="st11"/>
						</g>
					</g>
					<g id="shape57-53" transform="translate(2.19824E-14,-51.98)">
						<title>Sheet.57</title>
						<path d="M0 290.07 L3.32 281.05 L6.63 290.07 C4.67 288.63 2 288.63 0 290.07 Z" class="st12"/>
					</g>
				</g>
				<g id="group58-55" transform="translate(290.086,281.056) rotate(90)">
					<title>Arrow2Lend</title>
					<g id="shape59-56" transform="translate(9.01004,573.502) rotate(180)">
						<title>path4533</title>
						<path d="M9.01 290.07 L0 286.75 L9.01 283.44 C7.57 285.4 7.58 288.07 9.01 290.07 Z" class="st12"/>
					</g>
				</g>
			</g>
			<g id="group60-58" transform="translate(386.276,-128.18)">
				<title>Sheet.60</title>
				<g id="group61-59" transform="translate(-9.99201E-15,-0.993809)">
					<title>path3724</title>
					<g id="group62-60" transform="translate(3.32999,-4.54747E-13)">
						<title>Sheet.62</title>
						<g id="shape63-61">
							<title>Sheet.63</title>
							<path d="M0 230.07 L0 290.07 L0 230.07 Z" class="st9"/>
						</g>
						<g id="shape64-63">
							<title>Sheet.64</title>
							<path d="M0 230.07 L0 290.07 L0 230.07 Z" class="st10"/>
							<path d="M0 230.07 L0 290.07" class="st11"/>
						</g>
					</g>
					<g id="shape65-66" transform="translate(2.19824E-14,-51.98)">
						<title>Sheet.65</title>
						<path d="M0 290.07 L3.32 281.05 L6.63 290.07 C4.67 288.63 2 288.63 0 290.07 Z" class="st12"/>
					</g>
				</g>
				<g id="group66-68" transform="translate(290.086,281.056) rotate(90)">
					<title>Arrow2Lend</title>
					<g id="shape67-69" transform="translate(9.01004,573.502) rotate(180)">
						<title>path4533</title>
						<path d="M9.01 290.07 L0 286.75 L9.01 283.44 C7.57 285.4 7.58 288.07 9.01 290.07 Z" class="st12"/>
					</g>
				</g>
			</g>
			<g id="group68-71" transform="translate(473.66,-129.739)">
				<title>Sheet.68</title>
				<g id="group69-72" transform="translate(-9.99201E-15,-0.993809)">
					<title>path3726</title>
					<g id="group70-73" transform="translate(3.32999,-4.54747E-13)">
						<title>Sheet.70</title>
						<g id="shape71-74">
							<title>Sheet.71</title>
							<path d="M0 230.07 L0 290.07 L0 230.07 Z" class="st9"/>
						</g>
						<g id="shape72-76">
							<title>Sheet.72</title>
							<path d="M0 230.07 L0 290.07 L0 230.07 Z" class="st10"/>
							<path d="M0 230.07 L0 290.07" class="st11"/>
						</g>
					</g>
					<g id="shape73-79" transform="translate(2.19824E-14,-51.98)">
						<title>Sheet.73</title>
						<path d="M0 290.07 L3.32 281.05 L6.63 290.07 C4.67 288.63 2 288.63 0 290.07 Z" class="st12"/>
					</g>
				</g>
				<g id="group74-81" transform="translate(290.086,281.056) rotate(90)">
					<title>Arrow2Lend</title>
					<g id="shape75-82" transform="translate(9.01004,573.502) rotate(180)">
						<title>path4533</title>
						<path d="M9.01 290.07 L0 286.75 L9.01 283.44 C7.57 285.4 7.58 288.07 9.01 290.07 Z" class="st12"/>
					</g>
				</g>
			</g>
			<g id="group76-84" transform="translate(727.273,-129.122)">
				<title>Sheet.76</title>
				<g id="group77-85" transform="translate(3.31999,-3.41061E-13)">
					<title>path3738</title>
					<g id="shape78-86">
						<title>Sheet.78</title>
						<path d="M0 290.07 L0 229.41 L0 290.07 Z" class="st13"/>
					</g>
					<g id="group79-88">
						<title>Sheet.79</title>
						<g id="shape80-89">
							<title>Sheet.80</title>
							<path d="M0 290.07 L0 229.41 L0 290.07 Z" class="st9"/>
						</g>
						<g id="shape81-91">
							<title>Sheet.81</title>
							<path d="M0 290.07 L0 229.41 L0 290.07 Z" class="st10"/>
							<path d="M0 290.07 L0 229.41" class="st11"/>
						</g>
					</g>
				</g>
				<g id="group82-94" transform="translate(-282.921,237.98) rotate(-90)">
					<title>Arrow2Lend</title>
					<g id="shape83-95" transform="translate(9.01004,572.473) rotate(180)">
						<title>path4533</title>
						<path d="M9.01 290.07 L0 286.23 L9.01 282.41 C7.57 284.67 7.58 287.76 9.01 290.07 Z" class="st12"/>
					</g>
				</g>
			</g>
			<g id="group152-97" transform="translate(662.557,-190.127)">
				<title>Sheet.152</title>
				<g id="shape153-98">
					<title>rect3484</title>
					<rect x="0" y="230.598" width="134.699" height="59.4675" class="st14"/>
				</g>
				<g id="shape154-100" transform="translate(7.86849,-2.77462)">
					<title>text3486</title>
					<desc>BSD OS</desc>
					<rect x="0" y="236.208" width="116.856" height="53.8583" class="st3"/>
					<text x="-0.01" y="244.24" class="st7">BSD OS <tspan x="-0.01" dy="1.2em" class="st15">LOWER PRIO IRQ </tspan><tspan
								x="-0.01" dy="1.2em" class="st15">OS timers </tspan><tspan x="-0.01" dy="1.2em" class="st15">Trace handler </tspan><tspan
								x="-0.01" dy="1.2em" class="st15">Modem IRQHandler</tspan></text>				</g>
			</g>
			<g id="group245-107" transform="translate(0,-10.6649)">
				<title>Sheet.245</title>
				<g id="group143-108" transform="translate(175.624,-180.312)">
					<title>Sheet.143</title>
					<g id="shape144-109">
						<title>rect3644-2</title>
						<rect x="0" y="231.092" width="156.474" height="58.974" class="st16"/>
					</g>
					<g id="shape145-111" transform="translate(53.2171,-24.085)">
						<title>text3317</title>
						<desc>AF_LOCAL</desc>
						<rect x="0" y="279.266" width="50.0399" height="10.8" class="st3"/>
						<text x="-0" y="287.37" class="st7">AF_LOCAL</text>					</g>
				</g>
				<g id="group146-114" transform="translate(95.5041,-180.126)">
					<title>Sheet.146</title>
					<g id="shape147-115">
						<title>rect3644</title>
						<rect x="0" y="231.092" width="74.8817" height="58.974" class="st17"/>
					</g>
					<g id="shape148-117" transform="translate(16.6039,-13.4494)">
						<title>text3076</title>
						<desc>AF_INETAF_INET6</desc>
						<rect x="0" y="256.05" width="41.6738" height="34.0157" class="st3"/>
						<text x="-0" y="270.05" class="st18">AF_INET <tspan x="-0" dy="1.2em" class="st15">AF_INET6</tspan></text>					</g>
				</g>
				<g id="group149-121" transform="translate(339.539,-180.299)">
					<title>Sheet.149</title>
					<g id="shape150-122">
						<title>rect3644-2-3</title>
						<rect x="0" y="231.067" width="150.071" height="58.9994" class="st19"/>
					</g>
					<g id="shape151-124" transform="translate(59.8304,-24.0985)">
						<title>text3301</title>
						<desc>AF_LTE</desc>
						<rect x="0" y="279.266" width="30.41" height="10.8" class="st3"/>
						<text x="-0.01" y="287.37" class="st7">AF_LTE</text>					</g>
				</g>
				<g id="group158-127" transform="translate(662.557,-5.68434E-14)">
					<title>Sheet.158</title>
					<g id="shape159-128">
						<title>rect3484-2</title>
						<rect x="0" y="171.975" width="134.699" height="118.091" class="st20"/>
					</g>
					<g id="shape160-130" transform="translate(46.0027,-45.6562)">
						<title>text3534</title>
						<desc>TRACEIRQ</desc>
						<rect x="0" y="263.287" width="42.6935" height="26.7791" class="st3"/>
						<text x="-0" y="273.98" class="st7">TRACE <tspan x="-0" dy="1.2em" class="st15">IRQ</tspan></text>					</g>
				</g>
				<g id="group161-134" transform="translate(555.516,-3.97904E-13)">
					<title>Sheet.161</title>
					<g id="shape162-135">
						<title>rect3582</title>
						<rect x="0" y="50.033" width="90.0327" height="240.033" class="st21"/>
					</g>
					<g id="shape163-137" transform="translate(11.3483,-83.397)">
						<title>text3584</title>
						<desc>Shared Communication Memory</desc>
						<rect x="0" y="216.82" width="67.3358" height="73.2462" class="st3"/>
						<text x="-0" y="245.33" class="st7">Shared <tspan x="-0" dy="1.2em" class="st15">Communication </tspan><tspan
									x="-0" dy="1.2em" class="st15">Memory</tspan></text>					</g>
				</g>
				<g id="shape170-142" transform="translate(4.79616E-14,-194.548)">
					<title>text3429</title>
					<desc>BSD library</desc>
					<rect x="0" y="259.949" width="72.9503" height="30.1173" class="st3"/>
					<text x="-0" y="279.8" class="st4">BSD library</text>				</g>
				<g id="group219-145" transform="translate(95.3041,-14.9927)">
					<title>Sheet.219</title>
					<g id="shape4-146">
						<title>rect2989</title>
						<rect x="0" y="185.042" width="74.3475" height="105.024" class="st22"/>
					</g>
					<g id="shape6-148" transform="translate(18.2778,-95.6013)">
						<title>text3034</title>
						<desc>IP stack</desc>
						<rect x="0" y="280.644" width="37.7919" height="9.42246" class="st3"/>
						<text x="-0" y="288.05" class="st23">IP stack</text>					</g>
					<g id="shape19-151" transform="translate(2.95148,-6.62423)">
						<title>text3277</title>
						<desc>SOCK_ STREAMSOCK_ DGRAM</desc>
						<rect x="0" y="206.913" width="68.4445" height="83.1526" class="st3"/>
						<text x="-0" y="224.2" class="st7">SOCK_STREAM <tspan x="-0" dy="1.2em" class="st15">SOCK_DGRAM </tspan><tspan
									x="-0" dy="1.2em" class="st15">IPPROTO_TCP </tspan><tspan x="-0" dy="1.2em" class="st15">IPPROTO_UDP </tspan><tspan
									x="-0" dy="1.2em" class="st15">SPROTO_TLS1v2 </tspan><tspan x="-0" dy="1.2em" class="st15">SPROTO_DTLS1v2</tspan></text>					</g>
				</g>
				<g id="group221-159" transform="translate(180.708,-61.7643)">
					<title>Sheet.221</title>
					<g id="shape5-160">
						<title>rect2989-1</title>
						<rect x="0" y="231.83" width="74.3733" height="58.2355" class="st24"/>
					</g>
					<g id="shape7-162" transform="translate(25.7317,-49.9916)">
						<title>text3038</title>
						<desc>GNSS</desc>
						<rect x="0" y="281.822" width="22.91" height="8.24398" class="st3"/>
						<text x="-0.01" y="288.64" class="st23">GNSS</text>					</g>
					<g id="shape23-165" transform="translate(9.92414,-19.1794)">
						<title>text3309</title>
						<desc>SOCK_DGRAM</desc>
						<rect x="0" y="270.523" width="54.525" height="19.543" class="st3"/>
						<text x="-0" y="277.59" class="st7">SOCK_DGRAM <tspan x="-0" dy="1.2em" class="st15">PROTO_GNSS</tspan></text>					</g>
				</g>
				<g id="group222-169" transform="translate(266.137,-61.7643)">
					<title>Sheet.222</title>
					<g id="shape11-170">
						<title>rect2989-7-4</title>
						<rect x="0" y="231.825" width="66.2396" height="58.2405" class="st25"/>
					</g>
					<g id="shape12-172" transform="translate(8.99479,-47.8342)">
						<title>text3042-8</title>
						<desc>Modem DFU</desc>
						<rect x="0" y="279.66" width="48.25" height="10.4063" class="st3"/>
						<text x="-0" y="287.56" class="st23">Modem DFU</text>					</g>
					<g id="shape100-175" transform="translate(10.2078,-19.5482)">
						<title>text6616</title>
						<desc>PROTO_DFU</desc>
						<rect x="0" y="279.66" width="45.824" height="10.4063" class="st3"/>
						<text x="-0" y="287.56" class="st7">PROTO_DFU</text>					</g>
				</g>
				<g id="group223-178" transform="translate(343.433,-61.7643)">
					<title>Sheet.223</title>
					<g id="shape8-179">
						<title>rect2989-0</title>
						<rect x="0" y="231.83" width="95.4692" height="58.2355" class="st26"/>
					</g>
					<g id="shape9-181" transform="translate(15.1004,-47.7366)">
						<title>text3068</title>
						<desc>LTE Management</desc>
						<rect x="0" y="279.567" width="65.2684" height="10.4989" class="st3"/>
						<text x="-0" y="287.52" class="st23">LTE Management</text>					</g>
					<g id="shape25-184" transform="translate(23.8351,-19.3381)">
						<title>text3321</title>
						<desc>PROTO_PDNPROTO_DNS</desc>
						<rect x="0" y="279.567" width="47.799" height="10.4989" class="st3"/>
						<text x="-0" y="287.52" class="st7">PROTO_PDN</text>					</g>
				</g>
				<g id="group224-187" transform="translate(449.958,-61.7643)">
					<title>Sheet.224</title>
					<g id="shape15-188">
						<title>rect2989-7</title>
						<rect x="0" y="232.167" width="83.622" height="57.8985" class="st27"/>
					</g>
					<g id="shape16-190" transform="translate(34.3657,-47.4347)">
						<title>text3042</title>
						<desc>AT</desc>
						<rect x="0" y="279.602" width="14.8906" height="10.4638" class="st3"/>
						<text x="-0" y="287.53" class="st23">AT</text>					</g>
					<g id="shape21-193" transform="translate(14.1732,-12.7722)">
						<title>text3297</title>
						<desc>SOCK_DGRAM</desc>
						<rect x="0" y="265.529" width="68.1515" height="24.5369" class="st3"/>
						<text x="-0.01" y="275.1" class="st7">SOCK_DGRAM <tspan x="-0.01" dy="1.2em" class="st15">PROTO_AT</tspan></text>					</g>
				</g>
				<g id="shape238-197" transform="translate(712.727,-261.002)">
					<title>text3682</title>
					<desc>nrf_socket.h</desc>
					<rect x="0" y="279.266" width="34.1959" height="10.8" class="st3"/>
					<text x="-0" y="287.37" class="st7">bsd_os.h</text>				</g>
				<g id="shape240-200" transform="translate(6.33612,-134.58)">
					<title>text3429.240</title>
					<desc>BSD library</desc>
					<rect x="0" y="259.949" width="62.3622" height="30.1173" class="st3"/>
					<text x="-0" y="279.8" class="st4">RPC / IPC</text>				</g>
			</g>
		</g>
	</g>
</svg>
