<?xml version="1.0" encoding="UTF-8" standalone="no"?>
<!DOCTYPE svg PUBLIC "-//W3C//DTD SVG 1.1//EN" "http://www.w3.org/Graphics/SVG/1.1/DTD/svg11.dtd">
<!-- Generated by Microsoft Visio, SVG Export ble_radio_notif_multiple_packet_transfers_peripheral_s145.svg Page-1 -->
<svg xmlns="http://www.w3.org/2000/svg" xmlns:xlink="http://www.w3.org/1999/xlink" xmlns:ev="http://www.w3.org/2001/xml-events"
		width="5.87515in" height="2.25409in" viewBox="0 0 423.011 162.295" xml:space="preserve" color-interpolation-filters="sRGB"
		class="st20">
	<style type="text/css">
	<![CDATA[
		.st1 {fill:#88b7e4;stroke:none;stroke-linecap:round;stroke-linejoin:round;stroke-width:0.24}
		.st2 {fill:#000000;font-family:Arial;font-size:0.666664em}
		.st3 {font-size:1em}
		.st4 {fill:#d3d2c3;stroke:none;stroke-linecap:round;stroke-linejoin:round;stroke-width:0.24}
		.st5 {marker-end:url(#mrkr5-15);stroke:#7f7f7f;stroke-linecap:round;stroke-linejoin:round;stroke-width:3.12}
		.st6 {fill:#7f7f7f;fill-opacity:1;stroke:#7f7f7f;stroke-opacity:1;stroke-width:0.5531914893617}
		.st7 {fill:none;stroke:none;stroke-linecap:round;stroke-linejoin:round;stroke-width:0.72}
		.st8 {fill:#000000;font-family:Arial;font-size:1.00001em}
		.st9 {fill:#cbd5e0;stroke:none;stroke-linecap:round;stroke-linejoin:round;stroke-width:0.24}
		.st10 {stroke:#000000;stroke-dasharray:1.2,2.4;stroke-linecap:round;stroke-linejoin:round;stroke-width:1.2}
		.st11 {marker-start:url(#mrkr3-33);stroke:#000000;stroke-dasharray:1.2,2.4;stroke-linecap:round;stroke-linejoin:round;stroke-width:1.2}
		.st12 {fill:#000000;fill-opacity:1;stroke:#000000;stroke-opacity:1;stroke-width:0.32258064516129}
		.st13 {marker-start:url(#mrkr1-69);stroke:#000000;stroke-linecap:round;stroke-linejoin:round;stroke-width:1.2}
		.st14 {fill:#ffffff;stroke:none;stroke-linecap:butt}
		.st15 {baseline-shift:-32.4941%;font-size:0.649882em}
		.st16 {stroke:#000000;stroke-linecap:round;stroke-linejoin:round;stroke-width:0.72}
		.st17 {fill:#666666;stroke:none;stroke-linecap:round;stroke-linejoin:round;stroke-width:0.24}
		.st18 {marker-end:url(#mrkr1-92);marker-start:url(#mrkr1-69);stroke:#000000;stroke-linecap:round;stroke-linejoin:round;stroke-width:1.2}
		.st19 {fill:#ffffff;stroke:none;stroke-linecap:butt;stroke-width:7.2}
		.st20 {fill:none;fill-rule:evenodd;font-size:12px;overflow:visible;stroke-linecap:square;stroke-miterlimit:3}
	]]>
	</style>

	<defs id="Markers">
		<g id="lend5">
			<path d="M 2 1 L 0 0 L 1.98117 -0.993387 C 1.67173 -0.364515 1.67301 0.372641 1.98465 1.00043 " style="stroke:none"/>
		</g>
		<marker id="mrkr5-15" class="st6" refX="-3.1634615384615" orient="auto" markerUnits="strokeWidth" overflow="visible">
			<use xlink:href="#lend5" transform="scale(-1.8076923076923,-1.8076923076923) "/>
		</marker>
		<g id="lend3">
			<path d="M 2 1 L 0 0 L 2 -1 " style="stroke-linecap:round;stroke-linejoin:round;fill:none"/>
		</g>
		<marker id="mrkr3-33" class="st12" orient="auto" markerUnits="strokeWidth" overflow="visible">
			<use xlink:href="#lend3" transform="scale(3.1) "/>
		</marker>
		<g id="lend1">
			<path d="M 1 -1 L 0 0 L 1 1 " style="stroke-linecap:round;stroke-linejoin:round;fill:none"/>
		</g>
		<marker id="mrkr1-69" class="st12" orient="auto" markerUnits="strokeWidth" overflow="visible">
			<use xlink:href="#lend1" transform="scale(3.1) "/>
		</marker>
		<marker id="mrkr1-92" class="st12" orient="auto" markerUnits="strokeWidth" overflow="visible">
			<use xlink:href="#lend1" transform="scale(-3.1,-3.1) "/>
		</marker>
	</defs>
	<g>
		<title>Page-1</title>
		<g id="shape19-1" transform="translate(165.457,-32.9471)">
			<title>Box.19</title>
			<desc>TX</desc>
			<rect x="0" y="92.1373" width="17.0284" height="70.1575" class="st1"/>
			<text x="6.07" y="124.82" class="st2">T<tspan x="5.85" dy="1.2em" class="st3">X</tspan></text>		</g>
		<g id="shape20-5" transform="translate(145.614,-32.9584)">
			<title>Box.20</title>
			<desc>RX</desc>
			<rect x="0" y="92.1373" width="17.0284" height="70.1575" class="st4"/>
			<text x="5.63" y="124.82" class="st2">R<tspan x="5.85" dy="1.2em" class="st3">X</tspan></text>		</g>
		<g id="group27-9" transform="translate(0.36,-32.9584)">
			<title>Sheet.27</title>
			<g id="shape28-10" transform="translate(21.2598,-2.84217E-14)">
				<title>Dynamic connector.1</title>
				<path d="M7.09 162.29 L7.09 58.78" class="st5"/>
			</g>
			<g id="shape29-16" transform="translate(7.99361E-15,-111.559)">
				<title>Sheet.29</title>
				<desc>ACTIVE</desc>
				<rect x="0" y="146.295" width="54.8346" height="16" class="st7"/>
				<text x="5.75" y="157.89" class="st8">ACTIVE</text>			</g>
		</g>
		<g id="shape30-19" transform="translate(103.352,-32.9584)">
			<title>Box.30</title>
			<desc>P</desc>
			<rect x="0" y="92.1373" width="16.063" height="70.1575" class="st9"/>
			<text x="5.36" y="129.62" class="st2">P</text>		</g>
		<g id="shape31-22" transform="translate(85.0892,-33.6557)">
			<title>Dynamic connector.31</title>
			<path d="M0 162.29 L0 91.43 L50.61 91.43" class="st10"/>
		</g>
		<g id="shape32-25" transform="translate(128.616,-33.6557)">
			<title>Dynamic connector.32</title>
			<path d="M7.09 162.29 L10.47 162.29 L10.47 91.43 L7.09 91.43" class="st10"/>
		</g>
		<g id="shape33-28" transform="translate(87.1002,-60.9506)">
			<title>Dynamic connector.33</title>
			<path d="M0 155.21 L16.25 155.21" class="st11"/>
		</g>
		<g id="shape34-34" transform="translate(135.667,-60.9506)">
			<title>Dynamic connector.34</title>
			<path d="M0 155.21 L-16.25 155.21" class="st11"/>
		</g>
		<g id="shape37-39" transform="translate(205.152,-33.3128)">
			<title>Box.37</title>
			<desc>TX</desc>
			<rect x="0" y="92.1373" width="17.0284" height="70.1575" class="st1"/>
			<text x="6.07" y="124.82" class="st2">T<tspan x="5.85" dy="1.2em" class="st3">X</tspan></text>		</g>
		<g id="shape38-43" transform="translate(185.299,-33.3128)">
			<title>Box.38</title>
			<desc>RX</desc>
			<rect x="0" y="92.1373" width="17.0284" height="70.1575" class="st4"/>
			<text x="5.63" y="124.82" class="st2">R<tspan x="5.85" dy="1.2em" class="st3">X</tspan></text>		</g>
		<g id="shape39-47" transform="translate(244.816,-33.1356)">
			<title>Box.39</title>
			<desc>TX</desc>
			<rect x="0" y="92.1373" width="17.0284" height="70.1575" class="st1"/>
			<text x="6.07" y="124.82" class="st2">T<tspan x="5.85" dy="1.2em" class="st3">X</tspan></text>		</g>
		<g id="shape40-51" transform="translate(224.984,-33.1356)">
			<title>Box.40</title>
			<desc>RX</desc>
			<rect x="0" y="92.1373" width="17.0284" height="70.1575" class="st4"/>
			<text x="5.63" y="124.82" class="st2">R<tspan x="5.85" dy="1.2em" class="st3">X</tspan></text>		</g>
		<g id="group65-55" transform="translate(256.616,-34.3757)">
			<title>Sheet.65</title>
			<g id="shape66-56" transform="translate(26.9291,-2.84217E-14)">
				<title>Dynamic connector.2</title>
				<path d="M7.09 162.29 L7.09 58.78" class="st5"/>
			</g>
			<g id="shape67-61" transform="translate(0,-111.559)">
				<title>Sheet.67</title>
				<desc>nACTIVE</desc>
				<rect x="0" y="146.295" width="69.0079" height="16" class="st7"/>
				<text x="9.5" y="157.89" class="st8">nACTIVE</text>			</g>
		</g>
		<g id="shape113-64" transform="translate(142.79,-8.92346)">
			<title>Dynamic connector.113</title>
			<desc>tinterval</desc>
			<path d="M0 155.28 L274.96 155.14" class="st13"/>
			<rect x="123.244" y="148.008" width="28.4735" height="15.1158" class="st14"/>
			<text x="123.24" y="158.81" class="st8">t<tspan dy="-0.287em" class="st15">interval</tspan></text>		</g>
		<g id="shape114-73" transform="translate(386.765,-30.1892)">
			<title>Dynamic connector.53</title>
			<path d="M0 162.29 L22.76 191.73" class="st16"/>
		</g>
		<g id="shape115-76" transform="translate(373.813,-29.7967)">
			<title>Dynamic connector.114</title>
			<path d="M0 162.29 L22.76 191.73" class="st16"/>
		</g>
		<g id="shape117-79" transform="translate(304.364,-35.7931)">
			<title>Circle.117</title>
			<path d="M0 157.33 A4.96063 4.96063 0 0 1 9.92 157.33 A4.96063 4.96063 0 1 1 0 157.33 Z" class="st17"/>
		</g>
		<g id="shape118-81" transform="translate(320.664,-35.7931)">
			<title>Circle.118</title>
			<path d="M0 157.33 A4.96063 4.96063 0 0 1 9.92 157.33 A4.96063 4.96063 0 1 1 0 157.33 Z" class="st17"/>
		</g>
		<g id="shape119-83" transform="translate(336.963,-35.7931)">
			<title>Circle.119</title>
			<path d="M0 157.33 A4.96063 4.96063 0 0 1 9.92 157.33 A4.96063 4.96063 0 1 1 0 157.33 Z" class="st17"/>
		</g>
		<g id="shape121-85" transform="translate(143.64,-119.965)">
			<title>Dynamic connector.121</title>
			<desc>tradio</desc>
			<path d="M0 169.38 L137.25 169.39" class="st18"/>
			<rect x="58.2893" y="162.182" width="20.6749" height="15.1158" class="st14"/>
			<text x="58.29" y="172.98" class="st8">t<tspan dy="-0.287em" class="st15">radio</tspan></text>		</g>
		<g id="shape132-96" transform="translate(84.6794,-105.797)">
			<title>Dynamic connector.132</title>
			<desc>tprep</desc>
			<path d="M0 155.21 L56.69 155.21" class="st18"/>
			<rect x="18.8752" y="148.008" width="18.9424" height="15.1158" class="st14"/>
			<text x="18.88" y="158.81" class="st8">t<tspan dy="-0.287em" class="st15">prep</tspan></text>		</g>
		<g id="shape133-106" transform="translate(264.679,-65.5455)">
			<title>Circle.133</title>
			<path d="M0 160.97 A1.32283 1.32283 0 1 1 2.65 160.97 A1.32283 1.32283 0 1 1 0 160.97 Z" class="st17"/>
		</g>
		<g id="shape134-108" transform="translate(269.026,-65.5455)">
			<title>Circle.134</title>
			<path d="M0 160.97 A1.32283 1.32283 0 1 1 2.65 160.97 A1.32283 1.32283 0 1 1 0 160.97 Z" class="st17"/>
		</g>
		<g id="shape135-110" transform="translate(273.372,-65.5455)">
			<title>Circle.135</title>
			<path d="M0 160.97 A1.32283 1.32283 0 1 1 2.65 160.97 A1.32283 1.32283 0 1 1 0 160.97 Z" class="st17"/>
		</g>
		<g id="shape137-112" transform="translate(280.27,-35.0731)">
			<title>Dynamic connector.137</title>
			<path d="M0 162.29 L0 92.85 L-73.7 92.85" class="st10"/>
		</g>
		<g id="shape138-115" transform="translate(144.207,-32.4269)">
			<title>Dynamic connector.138</title>
			<path d="M0 162.29 L0 90.2 L62.36 90.2" class="st10"/>
		</g>
		<g id="shape139-118" transform="translate(30.6979,-105.797)">
			<title>Dynamic connector.139</title>
			<desc>tndist</desc>
			<path d="M0 155.21 L53.98 155.21" class="st18"/>
			<rect x="17.0872" y="148.008" width="19.807" height="15.1158" class="st19"/>
			<text x="17.09" y="158.81" class="st8">t<tspan dy="-0.287em" class="st15">ndist</tspan></text>		</g>
	</g>
</svg>
