<?xml version="1.0" encoding="UTF-8" standalone="no"?>
<!DOCTYPE svg PUBLIC "-//W3C//DTD SVG 1.1//EN" "http://www.w3.org/Graphics/SVG/1.1/DTD/svg11.dtd">
<!-- Generated by Microsoft Visio, SVG Export ble_radio_notif_signal_with_2_active_central_links.svg Page-1 -->
<svg xmlns="http://www.w3.org/2000/svg" xmlns:xlink="http://www.w3.org/1999/xlink" xmlns:ev="http://www.w3.org/2001/xml-events"
		width="7.32002in" height="1.94596in" viewBox="0 0 527.041 140.109" xml:space="preserve" color-interpolation-filters="sRGB"
		class="st22">
	<style type="text/css">
	<![CDATA[
		.st1 {marker-end:url(#mrkr1-9);marker-start:url(#mrkr1-7);stroke:#000000;stroke-linecap:round;stroke-linejoin:round;stroke-width:1.2}
		.st2 {fill:#000000;fill-opacity:1;stroke:#000000;stroke-opacity:1;stroke-width:0.32258064516129}
		.st3 {fill:#ffffff;stroke:none;stroke-linecap:butt}
		.st4 {fill:#000000;font-family:Arial;font-size:1.00001em}
		.st5 {baseline-shift:-32.4941%;font-size:0.649882em}
		.st6 {fill:#eaeff5;fill-opacity:0.7;stroke:none;stroke-linecap:round;stroke-linejoin:round;stroke-width:0.24}
		.st7 {marker-end:url(#mrkr5-21);stroke:#7f7f7f;stroke-linecap:round;stroke-linejoin:round;stroke-width:3.12}
		.st8 {fill:#7f7f7f;fill-opacity:1;stroke:#7f7f7f;stroke-opacity:1;stroke-width:0.5531914893617}
		.st9 {fill:none;stroke:none;stroke-linecap:round;stroke-linejoin:round;stroke-width:0.72}
		.st10 {fill:#88b7e4;stroke:none;stroke-linecap:round;stroke-linejoin:round;stroke-width:0.24}
		.st11 {fill:#000000;font-family:Arial;font-size:0.666664em}
		.st12 {font-size:1em}
		.st13 {fill:#d3d2c3;stroke:none;stroke-linecap:round;stroke-linejoin:round;stroke-width:0.24}
		.st14 {fill:#cbd5e0;stroke:none;stroke-linecap:round;stroke-linejoin:round;stroke-width:0.24}
		.st15 {stroke:#000000;stroke-dasharray:1.2,2.4;stroke-linecap:round;stroke-linejoin:round;stroke-width:1.2}
		.st16 {marker-start:url(#mrkr3-53);stroke:#000000;stroke-dasharray:1.2,2.4;stroke-linecap:round;stroke-linejoin:round;stroke-width:1.2}
		.st17 {fill:#ffffff;stroke:none;stroke-linecap:butt;stroke-width:7.2}
		.st18 {fill:#000000;font-family:Arial;font-size:0.75em}
		.st19 {baseline-shift:-32.4951%;font-size:0.649902em}
		.st20 {fill:#666666;stroke:none;stroke-linecap:round;stroke-linejoin:round;stroke-width:0.24}
		.st21 {font-size:1em;text-decoration:line-through}
		.st22 {fill:none;fill-rule:evenodd;font-size:12px;overflow:visible;stroke-linecap:square;stroke-miterlimit:3}
	]]>
	</style>

	<defs id="Markers">
		<g id="lend1">
			<path d="M 1 -1 L 0 0 L 1 1 " style="stroke-linecap:round;stroke-linejoin:round;fill:none"/>
		</g>
		<marker id="mrkr1-7" class="st2" orient="auto" markerUnits="strokeWidth" overflow="visible">
			<use xlink:href="#lend1" transform="scale(3.1) "/>
		</marker>
		<marker id="mrkr1-9" class="st2" orient="auto" markerUnits="strokeWidth" overflow="visible">
			<use xlink:href="#lend1" transform="scale(-3.1,-3.1) "/>
		</marker>
		<g id="lend5">
			<path d="M 2 1 L 0 0 L 1.98117 -0.993387 C 1.67173 -0.364515 1.67301 0.372641 1.98465 1.00043 " style="stroke:none"/>
		</g>
		<marker id="mrkr5-21" class="st8" refX="-3.1634615384615" orient="auto" markerUnits="strokeWidth" overflow="visible">
			<use xlink:href="#lend5" transform="scale(-1.8076923076923,-1.8076923076923) "/>
		</marker>
		<g id="lend3">
			<path d="M 2 1 L 0 0 L 2 -1 " style="stroke-linecap:round;stroke-linejoin:round;fill:none"/>
		</g>
		<marker id="mrkr3-53" class="st2" orient="auto" markerUnits="strokeWidth" overflow="visible">
			<use xlink:href="#lend3" transform="scale(3.1) "/>
		</marker>
	</defs>
	<g>
		<title>Page-1</title>
		<g id="shape247-1" transform="translate(181.409,-94.5995)">
			<title>Dynamic connector.247</title>
			<desc>tndist</desc>
			<path d="M0 133.02 L34.72 133.02" class="st1"/>
			<rect x="7.45791" y="125.823" width="19.807" height="15.1158" class="st3"/>
			<text x="7.46" y="136.62" class="st4">t<tspan dy="-0.287em" class="st5">ndist</tspan></text>		</g>
		<g id="shape262-13" transform="translate(135.41,-46.6733)">
			<title>Box.262</title>
			<rect x="0" y="90.8487" width="79.7953" height="49.2606" class="st6"/>
		</g>
		<g id="group244-15" transform="translate(159.717,-48.6575)">
			<title>Sheet.244</title>
			<g id="shape245-16" transform="translate(12.6012,-1.13687E-13)">
				<title>Dynamic connector.1</title>
				<path d="M7.09 140.11 L7.09 71.23" class="st7"/>
			</g>
			<g id="shape246-22" transform="translate(3.9968E-15,-77.7669)">
				<title>Sheet.246</title>
				<desc>ACTIVE</desc>
				<rect x="0" y="128.997" width="58.0676" height="11.1127" class="st9"/>
				<text x="7.36" y="138.15" class="st4">ACTIVE</text>			</g>
		</g>
		<g id="shape3-25" transform="translate(108.574,-46.6437)">
			<title>Box.47</title>
			<desc>RX</desc>
			<rect x="0" y="91.382" width="11.8269" height="48.7273" class="st10"/>
			<text x="4" y="113.35" class="st11">R<tspan x="4" dy="1.2em" class="st12">X</tspan></text>		</g>
		<g id="shape4-29" transform="translate(94.5546,-46.6437)">
			<title>Box.48</title>
			<desc>TX</desc>
			<rect x="0" y="91.382" width="11.8269" height="48.7273" class="st13"/>
			<text x="4" y="113.35" class="st11">T<tspan x="4" dy="1.2em" class="st12">X</tspan></text>		</g>
		<g id="group5-33" transform="translate(0.36,-48.7466)">
			<title>Sheet.5</title>
			<g id="shape6-34" transform="translate(12.6012,-1.13687E-13)">
				<title>Dynamic connector.1</title>
				<path d="M7.09 140.11 L7.09 71.23" class="st7"/>
			</g>
			<g id="shape7-39" transform="translate(3.9968E-15,-77.7669)">
				<title>Sheet.7</title>
				<desc>ACTIVE</desc>
				<rect x="0" y="128.997" width="58.0676" height="11.1127" class="st9"/>
				<text x="7.36" y="138.15" class="st4">ACTIVE</text>			</g>
		</g>
		<g id="shape8-42" transform="translate(69.1202,-46.6437)">
			<title>Box.58</title>
			<desc>P</desc>
			<rect x="0" y="91.382" width="11.1564" height="48.7273" class="st14"/>
			<text x="4" y="118.15" class="st11">P</text>		</g>
		<g id="shape9-45" transform="translate(56.6781,-46.6733)">
			<title>Dynamic connector.9</title>
			<path d="M0 140.11 L0 91.27 L35.13 91.27" class="st15"/>
		</g>
		<g id="shape11-48" transform="translate(56.3898,-63.9207)">
			<title>Dynamic connector.61</title>
			<path d="M1.44 133.02 L12.73 133.02" class="st16"/>
		</g>
		<g id="shape12-54" transform="translate(93.0071,-63.9207)">
			<title>Dynamic connector.62</title>
			<path d="M-1.44 133.02 L-12.73 133.02" class="st16"/>
		</g>
		<g id="shape13-59" transform="translate(19.4025,-95.2906)">
			<title>Dynamic connector.63</title>
			<desc>tndist</desc>
			<path d="M0 133.02 L36.09 133.02" class="st1"/>
			<rect x="8.14371" y="125.823" width="19.807" height="15.1158" class="st17"/>
			<text x="8.14" y="136.62" class="st4">t<tspan dy="-0.287em" class="st5">ndist</tspan></text>		</g>
		<g id="shape14-69" transform="translate(56.2575,-95.2905)">
			<title>Dynamic connector.64</title>
			<desc>tprep</desc>
			<path d="M0 133.02 L35.63 133.02" class="st1"/>
			<rect x="10.7137" y="127.623" width="14.2075" height="11.3371" class="st17"/>
			<text x="10.71" y="135.72" class="st18">t<tspan dy="-0.287em" class="st19">prep</tspan></text>		</g>
		<g id="shape41-79" transform="translate(92.0562,-4.11524)">
			<title>Dynamic connector.41</title>
			<desc>tinterval</desc>
			<path d="M0 133.06 L345.46 132.98" class="st1"/>
			<rect x="158.491" y="125.823" width="28.4735" height="15.1158" class="st17"/>
			<text x="158.49" y="136.62" class="st4">t<tspan dy="-0.287em" class="st5">interval</tspan></text>		</g>
		<g id="group94-89" transform="translate(346.804,-48.7466)">
			<title>Sheet.94</title>
			<g id="shape95-90" transform="translate(12.6012,-1.13687E-13)">
				<title>Dynamic connector.1</title>
				<path d="M7.09 140.11 L7.09 71.23" class="st7"/>
			</g>
			<g id="shape96-95" transform="translate(3.9968E-15,-77.7669)">
				<title>Sheet.96</title>
				<desc>ACTIVE</desc>
				<rect x="0" y="128.997" width="58.0676" height="11.1127" class="st9"/>
				<text x="7.36" y="138.15" class="st4">ACTIVE</text>			</g>
		</g>
		<g id="group105-98" transform="translate(467.537,-44.5407)">
			<title>Sheet.105</title>
			<g id="shape106-99" transform="translate(16.5388,-3.93756)">
				<title>Dynamic connector.2</title>
				<path d="M7.09 140.11 L7.09 71.23" class="st7"/>
			</g>
			<g id="shape107-104" transform="translate(-27.7781,-81.7044)">
				<title>Sheet.107</title>
				<desc>nACTIVE</desc>
				<rect x="0" y="128.997" width="86.9228" height="11.1127" class="st9"/>
				<text x="4" y="138.15" class="st4">nACTIVE</text>			</g>
		</g>
		<g id="shape108-107" transform="translate(126.836,-45.6427)">
			<title>Dynamic connector.108</title>
			<path d="M7.09 140.11 L7.09 90.89" class="st15"/>
		</g>
		<g id="shape109-110" transform="translate(91.686,-47.6654)">
			<title>Dynamic connector.109</title>
			<path d="M0 140.11 L0 92.26 L42.43 92.26" class="st15"/>
		</g>
		<g id="shape110-113" transform="translate(93.4582,-95.2905)">
			<title>Dynamic connector.110</title>
			<desc>tradio</desc>
			<path d="M0 133.02 L41.36 133.02" class="st1"/>
			<rect x="12.9259" y="127.623" width="15.5069" height="11.3371" class="st17"/>
			<text x="12.93" y="135.72" class="st18">t<tspan dy="-0.287em" class="st19">radio</tspan></text>		</g>
		<g id="shape111-123" transform="translate(121.498,-70.1316)">
			<title>Circle.133</title>
			<path d="M0 138.8 A1.30852 1.30852 0 1 1 2.62 138.8 A1.30852 1.30852 0 1 1 0 138.8 Z" class="st20"/>
		</g>
		<g id="shape112-125" transform="translate(125.797,-70.1316)">
			<title>Circle.134</title>
			<path d="M0 138.8 A1.30852 1.30852 0 1 1 2.62 138.8 A1.30852 1.30852 0 1 1 0 138.8 Z" class="st20"/>
		</g>
		<g id="shape113-127" transform="translate(130.097,-70.1316)">
			<title>Circle.135</title>
			<path d="M0 138.8 A1.30852 1.30852 0 1 1 2.62 138.8 A1.30852 1.30852 0 1 1 0 138.8 Z" class="st20"/>
		</g>
		<g id="shape142-129" transform="translate(57.6702,-18.0967)">
			<title>Dynamic connector.142</title>
			<desc>tevent,0</desc>
			<path d="M0 133.02 L79.91 133.02" class="st1"/>
			<rect x="25.4988" y="125.823" width="28.9155" height="15.1158" class="st17"/>
			<text x="25.5" y="136.62" class="st4">t<tspan dy="-0.287em" class="st5">event,0</tspan></text>		</g>
		<g id="shape150-139" transform="translate(76.9148,-36.1188)">
			<title>Sheet.150</title>
			<desc>Link-0</desc>
			<rect x="0" y="133.941" width="33.0868" height="6.16872" class="st9"/>
			<text x="4.29" y="139.72" class="st18">Link-0</text>		</g>
		<g id="shape170-142" transform="translate(268.055,-45.8025)">
			<title>Box.170</title>
			<desc>RX</desc>
			<rect x="0" y="91.382" width="11.8269" height="48.7273" class="st10"/>
			<text x="4" y="113.35" class="st11">R<tspan x="4" dy="1.2em" class="st12">X</tspan></text>		</g>
		<g id="shape171-146" transform="translate(254.035,-45.8025)">
			<title>Box.171</title>
			<desc>TX</desc>
			<rect x="0" y="91.382" width="11.8269" height="48.7273" class="st13"/>
			<text x="4" y="113.35" class="st11">T<tspan x="4" dy="1.2em" class="st12">X</tspan></text>		</g>
		<g id="shape172-150" transform="translate(228.6,-45.8025)">
			<title>Box.172</title>
			<desc>P</desc>
			<rect x="0" y="91.382" width="11.1564" height="48.7273" class="st14"/>
			<text x="4" y="118.15" class="st11">P</text>		</g>
		<g id="shape173-153" transform="translate(216.694,-46.1064)">
			<title>Dynamic connector.173</title>
			<path d="M0 140.11 L0 90.89 L35.15 90.89" class="st15"/>
		</g>
		<g id="shape174-156" transform="translate(215.87,-63.0795)">
			<title>Dynamic connector.174</title>
			<path d="M1.44 133.02 L12.73 133.02" class="st16"/>
		</g>
		<g id="shape175-161" transform="translate(252.487,-63.0795)">
			<title>Dynamic connector.175</title>
			<path d="M-1.44 133.02 L-12.73 133.02" class="st16"/>
		</g>
		<g id="shape176-166" transform="translate(286.71,-46.8587)">
			<title>Dynamic connector.176</title>
			<path d="M7.09 140.11 L7.09 90.89" class="st15"/>
		</g>
		<g id="shape182-169" transform="translate(252.583,-94.5995)">
			<title>Dynamic connector.182</title>
			<desc>tradio</desc>
			<path d="M0 133.02 L41.36 133.02" class="st1"/>
			<rect x="12.9259" y="127.623" width="15.5069" height="11.3371" class="st17"/>
			<text x="12.93" y="135.72" class="st18">t<tspan dy="-0.287em" class="st19">radio</tspan></text>		</g>
		<g id="shape177-179" transform="translate(251.536,-46.5639)">
			<title>Dynamic connector.177</title>
			<path d="M0 140.11 L0 91.39 L42.06 91.39" class="st15"/>
		</g>
		<g id="shape178-182" transform="translate(280.978,-69.2904)">
			<title>Circle.178</title>
			<path d="M0 138.8 A1.30852 1.30852 0 1 1 2.62 138.8 A1.30852 1.30852 0 1 1 0 138.8 Z" class="st20"/>
		</g>
		<g id="shape179-184" transform="translate(285.277,-69.2904)">
			<title>Circle.179</title>
			<path d="M0 138.8 A1.30852 1.30852 0 1 1 2.62 138.8 A1.30852 1.30852 0 1 1 0 138.8 Z" class="st20"/>
		</g>
		<g id="shape180-186" transform="translate(289.577,-69.2904)">
			<title>Circle.180</title>
			<path d="M0 138.8 A1.30852 1.30852 0 1 1 2.62 138.8 A1.30852 1.30852 0 1 1 0 138.8 Z" class="st20"/>
		</g>
		<g id="shape181-188" transform="translate(235.899,-36.1188)">
			<title>Sheet.181</title>
			<desc>Link-2</desc>
			<rect x="0" y="133.941" width="33.0868" height="6.16872" class="st9"/>
			<text x="4.29" y="139.72" class="st18">Link-2</text>		</g>
		<g id="shape183-191" transform="translate(216.132,-94.5995)">
			<title>Dynamic connector.183</title>
			<desc>tprep</desc>
			<path d="M0 133.02 L34.86 133.02" class="st1"/>
			<rect x="10.326" y="127.623" width="14.2075" height="11.3371" class="st17"/>
			<text x="10.33" y="135.72" class="st18">t<tspan dy="-0.287em" class="st19">prep</tspan></text>		</g>
		<g id="shape184-201" transform="translate(138.985,-18.0967)">
			<title>Dynamic connector.184</title>
			<desc>tevent,1</desc>
			<path d="M0 133.02 L79.91 133.02" class="st1"/>
			<rect x="25.4988" y="125.823" width="28.9155" height="15.1158" class="st3"/>
			<text x="25.5" y="136.62" class="st4">t<tspan dy="-0.287em" class="st5">event,1</tspan></text>		</g>
		<g id="shape185-211" transform="translate(220.3,-18.0967)">
			<title>Dynamic connector.185</title>
			<desc>tevent,2</desc>
			<path d="M0 133.02 L79.91 133.02" class="st1"/>
			<rect x="25.4988" y="125.823" width="28.9155" height="15.1158" class="st17"/>
			<text x="25.5" y="136.62" class="st4">t<tspan dy="-0.287em" class="st5">event,2</tspan></text>		</g>
		<g id="shape187-221" transform="translate(452.979,-46.2256)">
			<title>Box.187</title>
			<desc>RX</desc>
			<rect x="0" y="91.382" width="11.8269" height="48.7273" class="st10"/>
			<text x="4" y="113.35" class="st11">R<tspan x="4" dy="1.2em" class="st12">X</tspan></text>		</g>
		<g id="shape188-225" transform="translate(438.959,-46.2256)">
			<title>Box.188</title>
			<desc>TX</desc>
			<rect x="0" y="91.382" width="11.8269" height="48.7273" class="st13"/>
			<text x="4" y="113.35" class="st11">T<tspan x="4" dy="1.2em" class="st12">X</tspan></text>		</g>
		<g id="shape189-229" transform="translate(413.525,-46.2256)">
			<title>Box.189</title>
			<desc>P</desc>
			<rect x="0" y="91.382" width="11.1564" height="48.7273" class="st14"/>
			<text x="4" y="118.15" class="st11">P</text>		</g>
		<g id="shape190-232" transform="translate(401.056,-45.8798)">
			<title>Dynamic connector.190</title>
			<path d="M0 140.11 L0 90.89 L35.15 90.89" class="st15"/>
		</g>
		<g id="shape191-235" transform="translate(400.795,-63.5026)">
			<title>Dynamic connector.191</title>
			<path d="M1.44 133.02 L12.73 133.02" class="st16"/>
		</g>
		<g id="shape192-240" transform="translate(437.412,-63.5026)">
			<title>Dynamic connector.192</title>
			<path d="M-1.44 133.02 L-12.73 133.02" class="st16"/>
		</g>
		<g id="shape235-245" transform="translate(368.372,-94.8724)">
			<title>Dynamic connector.235</title>
			<desc>tndist</desc>
			<path d="M0 133.02 L32.29 133.02" class="st1"/>
			<rect x="6.24163" y="125.823" width="19.807" height="15.1158" class="st17"/>
			<text x="6.24" y="136.62" class="st4">t<tspan dy="-0.287em" class="st5">ndist</tspan></text>		</g>
		<g id="shape193-255" transform="translate(400.662,-94.8724)">
			<title>Dynamic connector.193</title>
			<desc>tprep</desc>
			<path d="M0 133.02 L35.63 133.02" class="st1"/>
			<rect x="10.7137" y="127.623" width="14.2075" height="11.3371" class="st17"/>
			<text x="10.71" y="135.72" class="st18">t<tspan dy="-0.287em" class="st19">prep</tspan></text>		</g>
		<g id="shape194-265" transform="translate(471.812,-47.06)">
			<title>Dynamic connector.194</title>
			<path d="M7.09 140.11 L7.09 90.89" class="st15"/>
		</g>
		<g id="shape195-268" transform="translate(436.461,-46.4222)">
			<title>Dynamic connector.195</title>
			<path d="M0 140.11 L0 91.39 L42.06 91.39" class="st15"/>
		</g>
		<g id="shape196-271" transform="translate(437.863,-94.8724)">
			<title>Dynamic connector.196</title>
			<desc>tradio</desc>
			<path d="M0 133.02 L41.36 133.02" class="st1"/>
			<rect x="12.9259" y="127.623" width="15.5069" height="11.3371" class="st17"/>
			<text x="12.93" y="135.72" class="st18">t<tspan dy="-0.287em" class="st19">radio</tspan></text>		</g>
		<g id="shape197-281" transform="translate(465.903,-69.7135)">
			<title>Circle.197</title>
			<path d="M0 138.8 A1.30852 1.30852 0 1 1 2.62 138.8 A1.30852 1.30852 0 1 1 0 138.8 Z" class="st20"/>
		</g>
		<g id="shape198-283" transform="translate(470.202,-69.7135)">
			<title>Circle.198</title>
			<path d="M0 138.8 A1.30852 1.30852 0 1 1 2.62 138.8 A1.30852 1.30852 0 1 1 0 138.8 Z" class="st20"/>
		</g>
		<g id="shape199-285" transform="translate(474.501,-69.7135)">
			<title>Circle.199</title>
			<path d="M0 138.8 A1.30852 1.30852 0 1 1 2.62 138.8 A1.30852 1.30852 0 1 1 0 138.8 Z" class="st20"/>
		</g>
		<g id="shape203-287" transform="translate(421.32,-36.1188)">
			<title>Sheet.203</title>
			<desc>Link-0</desc>
			<rect x="0" y="133.941" width="33.0868" height="6.16872" class="st9"/>
			<text x="4.29" y="139.72" class="st18">Link-0</text>		</g>
		<g id="group241-290" transform="translate(121.58,-44.5348)">
			<title>Sheet.241</title>
			<g id="shape242-291" transform="translate(16.5388,-4.20594)">
				<title>Dynamic connector.2</title>
				<path d="M7.09 140.11 L7.09 71.23" class="st7"/>
			</g>
			<g id="shape243-296" transform="translate(-27.7781,-81.7044)">
				<title>Sheet.243</title>
				<desc>nACTIVE</desc>
				<rect x="0" y="128.997" width="86.9228" height="11.1127" class="st9"/>
				<text x="4" y="138.15" class="st4">nACTIVE</text>			</g>
		</g>
		<g id="shape251-299" transform="translate(139.875,-32.5001)">
			<title>Sheet.251</title>
			<desc>Link-1</desc>
			<rect x="0" y="125.936" width="68.0315" height="14.1732" class="st9"/>
			<text x="21.76" y="135.72" class="st18"><tspan class="st21">Link</tspan><tspan class="st21">-</tspan><tspan
						class="st21">1</tspan></text>		</g>
		<g id="shape257-305" transform="translate(498.458,-52.8866)">
			<title>Circle.117</title>
			<path d="M0 136.84 A3.27129 3.27129 0 0 1 6.54 136.84 A3.27129 3.27129 0 0 1 0 136.84 Z" class="st20"/>
		</g>
		<g id="shape258-307" transform="translate(509.206,-52.8866)">
			<title>Circle.118</title>
			<path d="M0 136.84 A3.27129 3.27129 0 0 1 6.54 136.84 A3.27129 3.27129 0 0 1 0 136.84 Z" class="st20"/>
		</g>
		<g id="shape259-309" transform="translate(519.955,-52.8866)">
			<title>Circle.119</title>
			<path d="M0 136.84 A3.27129 3.27129 0 0 1 6.54 136.84 A3.27129 3.27129 0 0 1 0 136.84 Z" class="st20"/>
		</g>
		<g id="shape260-311" transform="translate(295.029,-46.1375)">
			<title>Box.260</title>
			<rect x="0" y="90.8487" width="38.3538" height="49.2606" class="st6"/>
		</g>
		<g id="group17-313" transform="translate(279.033,-44.5407)">
			<title>Sheet.17</title>
			<g id="shape18-314" transform="translate(16.5388,-4.20594)">
				<title>Dynamic connector.2</title>
				<path d="M7.09 140.11 L7.09 71.23" class="st7"/>
			</g>
			<g id="shape19-319" transform="translate(-27.7781,-81.7044)">
				<title>Sheet.19</title>
				<desc>nACTIVE</desc>
				<rect x="0" y="128.997" width="86.9228" height="11.1127" class="st9"/>
				<text x="4" y="138.15" class="st4">nACTIVE</text>			</g>
		</g>
	</g>
</svg>
