<?xml version="1.0" encoding="UTF-8" standalone="no"?>
<!DOCTYPE svg PUBLIC "-//W3C//DTD SVG 1.1//EN" "http://www.w3.org/Graphics/SVG/1.1/DTD/svg11.dtd">
<!-- Generated by Microsoft Visio, SVG Export ble_radio_notif_signal_in_relation_to_3_active_links_s145.svg Page-1 -->
<svg xmlns="http://www.w3.org/2000/svg" xmlns:xlink="http://www.w3.org/1999/xlink" xmlns:ev="http://www.w3.org/2001/xml-events"
		width="8.7964in" height="1.94596in" viewBox="0 0 633.341 140.109" xml:space="preserve" color-interpolation-filters="sRGB"
		class="st23">
	<style type="text/css">
	<![CDATA[
		.st1 {fill:#eaeff5;fill-opacity:0.7;stroke:none;stroke-linecap:round;stroke-linejoin:round;stroke-width:0.24}
		.st2 {fill:#88b7e4;stroke:none;stroke-linecap:round;stroke-linejoin:round;stroke-width:0.24}
		.st3 {fill:#000000;font-family:Arial;font-size:0.666664em}
		.st4 {font-size:1em}
		.st5 {fill:#d3d2c3;stroke:none;stroke-linecap:round;stroke-linejoin:round;stroke-width:0.24}
		.st6 {marker-end:url(#mrkr5-17);stroke:#7f7f7f;stroke-linecap:round;stroke-linejoin:round;stroke-width:3.12}
		.st7 {fill:#7f7f7f;fill-opacity:1;stroke:#7f7f7f;stroke-opacity:1;stroke-width:0.5531914893617}
		.st8 {fill:none;stroke:none;stroke-linecap:round;stroke-linejoin:round;stroke-width:0.72}
		.st9 {fill:#000000;font-family:Arial;font-size:1.00001em}
		.st10 {fill:#cbd5e0;stroke:none;stroke-linecap:round;stroke-linejoin:round;stroke-width:0.24}
		.st11 {stroke:#000000;stroke-dasharray:1.2,2.4;stroke-linecap:round;stroke-linejoin:round;stroke-width:1.2}
		.st12 {marker-start:url(#mrkr3-32);stroke:#000000;stroke-dasharray:1.2,2.4;stroke-linecap:round;stroke-linejoin:round;stroke-width:1.2}
		.st13 {fill:#000000;fill-opacity:1;stroke:#000000;stroke-opacity:1;stroke-width:0.32258064516129}
		.st14 {marker-end:url(#mrkr1-46);marker-start:url(#mrkr1-44);stroke:#000000;stroke-linecap:round;stroke-linejoin:round;stroke-width:1.2}
		.st15 {fill:#ffffff;stroke:none;stroke-linecap:butt;stroke-width:7.2}
		.st16 {baseline-shift:-32.4941%;font-size:0.649882em}
		.st17 {fill:#000000;font-family:Arial;font-size:0.75em}
		.st18 {baseline-shift:-32.4951%;font-size:0.649902em}
		.st19 {fill:#666666;stroke:none;stroke-linecap:round;stroke-linejoin:round;stroke-width:0.24}
		.st20 {fill:#ffffff;stroke:none;stroke-linecap:butt}
		.st21 {marker-end:url(#mrkr1-412);marker-start:url(#mrkr1-410);stroke:#000000;stroke-dasharray:0,3.75;stroke-linecap:round;stroke-linejoin:round;stroke-width:1.25}
		.st22 {fill:#000000;fill-opacity:1;stroke:#000000;stroke-opacity:1;stroke-width:0.3315649867374}
		.st23 {fill:none;fill-rule:evenodd;font-size:12px;overflow:visible;stroke-linecap:square;stroke-miterlimit:3}
	]]>
	</style>

	<defs id="Markers">
		<g id="lend5">
			<path d="M 2 1 L 0 0 L 1.98117 -0.993387 C 1.67173 -0.364515 1.67301 0.372641 1.98465 1.00043 " style="stroke:none"/>
		</g>
		<marker id="mrkr5-17" class="st7" refX="-3.1634615384615" orient="auto" markerUnits="strokeWidth" overflow="visible">
			<use xlink:href="#lend5" transform="scale(-1.8076923076923,-1.8076923076923) "/>
		</marker>
		<g id="lend3">
			<path d="M 2 1 L 0 0 L 2 -1 " style="stroke-linecap:round;stroke-linejoin:round;fill:none"/>
		</g>
		<marker id="mrkr3-32" class="st13" orient="auto" markerUnits="strokeWidth" overflow="visible">
			<use xlink:href="#lend3" transform="scale(3.1) "/>
		</marker>
		<g id="lend1">
			<path d="M 1 -1 L 0 0 L 1 1 " style="stroke-linecap:round;stroke-linejoin:round;fill:none"/>
		</g>
		<marker id="mrkr1-44" class="st13" orient="auto" markerUnits="strokeWidth" overflow="visible">
			<use xlink:href="#lend1" transform="scale(3.1) "/>
		</marker>
		<marker id="mrkr1-46" class="st13" orient="auto" markerUnits="strokeWidth" overflow="visible">
			<use xlink:href="#lend1" transform="scale(-3.1,-3.1) "/>
		</marker>
		<marker id="mrkr1-410" class="st22" orient="auto" markerUnits="strokeWidth" overflow="visible">
			<use xlink:href="#lend1" transform="scale(3.016) "/>
		</marker>
		<marker id="mrkr1-412" class="st22" orient="auto" markerUnits="strokeWidth" overflow="visible">
			<use xlink:href="#lend1" transform="scale(-3.016,-3.016) "/>
		</marker>
	</defs>
	<g>
		<title>Page-1</title>
		<g id="shape240-1" transform="translate(295.78,-46.1375)">
			<title>Box.240</title>
			<rect x="0" y="90.8487" width="38.3538" height="49.2606" class="st1"/>
		</g>
		<g id="shape3-3" transform="translate(108.574,-46.6437)">
			<title>Box.47</title>
			<desc>RX</desc>
			<rect x="0" y="91.382" width="11.8269" height="48.7273" class="st2"/>
			<text x="4" y="113.35" class="st3">R<tspan x="4" dy="1.2em" class="st4">X</tspan></text>		</g>
		<g id="shape4-7" transform="translate(94.5546,-46.6437)">
			<title>Box.48</title>
			<desc>TX</desc>
			<rect x="0" y="91.382" width="11.8269" height="48.7273" class="st5"/>
			<text x="4" y="113.35" class="st3">T<tspan x="4" dy="1.2em" class="st4">X</tspan></text>		</g>
		<g id="group5-11" transform="translate(0.36,-48.7466)">
			<title>Sheet.5</title>
			<g id="shape6-12" transform="translate(12.6012,-2.84217E-14)">
				<title>Dynamic connector.1</title>
				<path d="M7.09 140.11 L7.09 71.23" class="st6"/>
			</g>
			<g id="shape7-18" transform="translate(3.9968E-15,-77.7669)">
				<title>Sheet.7</title>
				<desc>ACTIVE</desc>
				<rect x="0" y="128.997" width="58.0676" height="11.1127" class="st8"/>
				<text x="7.36" y="138.15" class="st9">ACTIVE</text>			</g>
		</g>
		<g id="shape8-21" transform="translate(69.1202,-46.6437)">
			<title>Box.58</title>
			<desc>P</desc>
			<rect x="0" y="91.382" width="11.1564" height="48.7273" class="st10"/>
			<text x="4" y="118.15" class="st3">P</text>		</g>
		<g id="shape9-24" transform="translate(56.6781,-46.6733)">
			<title>Dynamic connector.9</title>
			<path d="M0 140.11 L0 91.27 L35.13 91.27" class="st11"/>
		</g>
		<g id="shape11-27" transform="translate(56.3898,-63.9207)">
			<title>Dynamic connector.61</title>
			<path d="M1.44 133.02 L12.73 133.02" class="st12"/>
		</g>
		<g id="shape12-33" transform="translate(93.0071,-63.9207)">
			<title>Dynamic connector.62</title>
			<path d="M-1.44 133.02 L-12.73 133.02" class="st12"/>
		</g>
		<g id="shape13-38" transform="translate(22.1755,-95.2905)">
			<title>Dynamic connector.63</title>
			<desc>tndist</desc>
			<path d="M0 133.02 L34.08 133.02" class="st14"/>
			<rect x="7.13747" y="125.823" width="19.807" height="15.1158" class="st15"/>
			<text x="7.14" y="136.62" class="st9">t<tspan dy="-0.287em" class="st16">ndist</tspan></text>		</g>
		<g id="shape14-50" transform="translate(56.2575,-95.2905)">
			<title>Dynamic connector.64</title>
			<desc>tprep</desc>
			<path d="M0 133.02 L35.63 133.02" class="st14"/>
			<rect x="10.7137" y="127.623" width="14.2075" height="11.3371" class="st15"/>
			<text x="10.71" y="135.72" class="st17">t<tspan dy="-0.287em" class="st18">prep</tspan></text>		</g>
		<g id="shape41-60" transform="translate(92.0562,-4.11524)">
			<title>Dynamic connector.41</title>
			<desc>tinterval</desc>
			<path d="M0 133.06 L344.04 132.98" class="st14"/>
			<rect x="157.783" y="125.823" width="28.4735" height="15.1158" class="st15"/>
			<text x="157.78" y="136.62" class="st9">t<tspan dy="-0.287em" class="st16">interval</tspan></text>		</g>
		<g id="group94-70" transform="translate(346.804,-48.7466)">
			<title>Sheet.94</title>
			<g id="shape95-71" transform="translate(12.6012,-2.84217E-14)">
				<title>Dynamic connector.1</title>
				<path d="M7.09 140.11 L7.09 71.23" class="st6"/>
			</g>
			<g id="shape96-76" transform="translate(3.9968E-15,-77.7669)">
				<title>Sheet.96</title>
				<desc>ACTIVE</desc>
				<rect x="0" y="128.997" width="58.0676" height="11.1127" class="st8"/>
				<text x="7.36" y="138.15" class="st9">ACTIVE</text>			</g>
		</g>
		<g id="group105-79" transform="translate(573.836,-44.5407)">
			<title>Sheet.105</title>
			<g id="shape106-80" transform="translate(16.5388,-3.93756)">
				<title>Dynamic connector.2</title>
				<path d="M7.09 140.11 L7.09 71.23" class="st6"/>
			</g>
			<g id="shape107-85" transform="translate(-27.7781,-81.7044)">
				<title>Sheet.107</title>
				<desc>nACTIVE</desc>
				<rect x="0" y="128.997" width="86.9228" height="11.1127" class="st8"/>
				<text x="4" y="138.15" class="st9">nACTIVE</text>			</g>
		</g>
		<g id="shape108-88" transform="translate(126.836,-45.6427)">
			<title>Dynamic connector.108</title>
			<path d="M7.09 140.11 L7.09 90.89" class="st11"/>
		</g>
		<g id="shape109-91" transform="translate(91.686,-47.6654)">
			<title>Dynamic connector.109</title>
			<path d="M0 140.11 L0 92.26 L42.43 92.26" class="st11"/>
		</g>
		<g id="shape110-94" transform="translate(93.4582,-95.2905)">
			<title>Dynamic connector.110</title>
			<desc>tradio</desc>
			<path d="M0 133.02 L41.36 133.02" class="st14"/>
			<rect x="12.9259" y="127.623" width="15.5069" height="11.3371" class="st15"/>
			<text x="12.93" y="135.72" class="st17">t<tspan dy="-0.287em" class="st18">radio</tspan></text>		</g>
		<g id="shape111-104" transform="translate(121.498,-70.1316)">
			<title>Circle.133</title>
			<path d="M0 138.8 A1.30852 1.30852 0 1 1 2.62 138.8 A1.30852 1.30852 0 1 1 0 138.8 Z" class="st19"/>
		</g>
		<g id="shape112-106" transform="translate(125.797,-70.1316)">
			<title>Circle.134</title>
			<path d="M0 138.8 A1.30852 1.30852 0 1 1 2.62 138.8 A1.30852 1.30852 0 1 1 0 138.8 Z" class="st19"/>
		</g>
		<g id="shape113-108" transform="translate(130.097,-70.1316)">
			<title>Circle.135</title>
			<path d="M0 138.8 A1.30852 1.30852 0 1 1 2.62 138.8 A1.30852 1.30852 0 1 1 0 138.8 Z" class="st19"/>
		</g>
		<g id="shape142-110" transform="translate(53.2377,-18.0967)">
			<title>Dynamic connector.142</title>
			<desc>tevent,0</desc>
			<path d="M0 133.02 L79.91 133.02" class="st14"/>
			<rect x="25.4988" y="125.823" width="28.9155" height="15.1158" class="st15"/>
			<text x="25.5" y="136.62" class="st9">t<tspan dy="-0.287em" class="st16">event,0</tspan></text>		</g>
		<g id="shape150-120" transform="translate(76.9148,-36.1188)">
			<title>Sheet.150</title>
			<desc>Link-0</desc>
			<rect x="0" y="133.941" width="33.0868" height="6.16872" class="st8"/>
			<text x="4.29" y="139.72" class="st17">Link-0</text>		</g>
		<g id="shape155-123" transform="translate(188.843,-46.1349)">
			<title>Box.155</title>
			<desc>RX</desc>
			<rect x="0" y="91.382" width="11.8269" height="48.7273" class="st2"/>
			<text x="4" y="113.35" class="st3">R<tspan x="4" dy="1.2em" class="st4">X</tspan></text>		</g>
		<g id="shape156-127" transform="translate(174.82,-46.4041)">
			<title>Box.156</title>
			<desc>TX</desc>
			<rect x="0" y="91.382" width="11.8269" height="48.7273" class="st5"/>
			<text x="4" y="113.35" class="st3">T<tspan x="4" dy="1.2em" class="st4">X</tspan></text>		</g>
		<g id="shape157-131" transform="translate(149.389,-46.4934)">
			<title>Box.157</title>
			<desc>P</desc>
			<rect x="0" y="91.382" width="11.1564" height="48.7273" class="st10"/>
			<text x="4" y="118.15" class="st3">P</text>		</g>
		<g id="shape158-134" transform="translate(136.19,-46.2481)">
			<title>Dynamic connector.158</title>
			<path d="M0 140.11 L0 90.89 L35.15 90.89" class="st11"/>
		</g>
		<g id="shape159-137" transform="translate(136.658,-63.7705)">
			<title>Dynamic connector.159</title>
			<path d="M1.44 133.02 L12.73 133.02" class="st12"/>
		</g>
		<g id="shape160-142" transform="translate(173.275,-63.7705)">
			<title>Dynamic connector.160</title>
			<path d="M-1.44 133.02 L-12.73 133.02" class="st12"/>
		</g>
		<g id="shape161-147" transform="translate(207.297,-45.6427)">
			<title>Dynamic connector.161</title>
			<path d="M7.09 140.11 L7.09 90.89" class="st11"/>
		</g>
		<g id="shape162-150" transform="translate(172.325,-46.6733)">
			<title>Dynamic connector.162</title>
			<path d="M0 140.11 L0 91.39 L42.06 91.39" class="st11"/>
		</g>
		<g id="shape163-153" transform="translate(201.766,-69.9814)">
			<title>Circle.163</title>
			<path d="M0 138.8 A1.30852 1.30852 0 1 1 2.62 138.8 A1.30852 1.30852 0 1 1 0 138.8 Z" class="st19"/>
		</g>
		<g id="shape164-155" transform="translate(206.066,-69.9814)">
			<title>Circle.164</title>
			<path d="M0 138.8 A1.30852 1.30852 0 1 1 2.62 138.8 A1.30852 1.30852 0 1 1 0 138.8 Z" class="st19"/>
		</g>
		<g id="shape165-157" transform="translate(210.365,-69.9814)">
			<title>Circle.165</title>
			<path d="M0 138.8 A1.30852 1.30852 0 1 1 2.62 138.8 A1.30852 1.30852 0 1 1 0 138.8 Z" class="st19"/>
		</g>
		<g id="shape166-159" transform="translate(157.949,-36.1188)">
			<title>Sheet.166</title>
			<desc>Link-1</desc>
			<rect x="0" y="133.941" width="33.0868" height="6.16872" class="st8"/>
			<text x="4.29" y="139.72" class="st17">Link-1</text>		</g>
		<g id="shape168-162" transform="translate(173.371,-95.2905)">
			<title>Dynamic connector.168</title>
			<desc>tradio</desc>
			<path d="M0 133.02 L41.36 133.02" class="st14"/>
			<rect x="12.9259" y="127.623" width="15.5069" height="11.3371" class="st20"/>
			<text x="12.93" y="135.72" class="st17">t<tspan dy="-0.287em" class="st18">radio</tspan></text>		</g>
		<g id="shape169-172" transform="translate(136.92,-95.2905)">
			<title>Dynamic connector.169</title>
			<desc>tprep</desc>
			<path d="M0 133.02 L34.86 133.02" class="st14"/>
			<rect x="10.326" y="127.623" width="14.2075" height="11.3371" class="st15"/>
			<text x="10.33" y="135.72" class="st17">t<tspan dy="-0.287em" class="st18">prep</tspan></text>		</g>
		<g id="shape170-182" transform="translate(268.055,-45.8025)">
			<title>Box.170</title>
			<desc>RX</desc>
			<rect x="0" y="91.382" width="11.8269" height="48.7273" class="st2"/>
			<text x="4" y="113.35" class="st3">R<tspan x="4" dy="1.2em" class="st4">X</tspan></text>		</g>
		<g id="shape171-186" transform="translate(254.035,-45.8025)">
			<title>Box.171</title>
			<desc>TX</desc>
			<rect x="0" y="91.382" width="11.8269" height="48.7273" class="st5"/>
			<text x="4" y="113.35" class="st3">T<tspan x="4" dy="1.2em" class="st4">X</tspan></text>		</g>
		<g id="shape172-190" transform="translate(228.6,-45.8025)">
			<title>Box.172</title>
			<desc>P</desc>
			<rect x="0" y="91.382" width="11.1564" height="48.7273" class="st10"/>
			<text x="4" y="118.15" class="st3">P</text>		</g>
		<g id="shape173-193" transform="translate(216.694,-46.1064)">
			<title>Dynamic connector.173</title>
			<path d="M0 140.11 L0 90.89 L35.15 90.89" class="st11"/>
		</g>
		<g id="shape174-196" transform="translate(215.87,-63.0795)">
			<title>Dynamic connector.174</title>
			<path d="M1.44 133.02 L12.73 133.02" class="st12"/>
		</g>
		<g id="shape175-201" transform="translate(252.487,-63.0795)">
			<title>Dynamic connector.175</title>
			<path d="M-1.44 133.02 L-12.73 133.02" class="st12"/>
		</g>
		<g id="shape176-206" transform="translate(286.71,-46.8587)">
			<title>Dynamic connector.176</title>
			<path d="M7.09 140.11 L7.09 90.89" class="st11"/>
		</g>
		<g id="shape182-209" transform="translate(252.583,-94.5995)">
			<title>Dynamic connector.182</title>
			<desc>tradio</desc>
			<path d="M0 133.02 L41.36 133.02" class="st14"/>
			<rect x="12.9259" y="127.623" width="15.5069" height="11.3371" class="st20"/>
			<text x="12.93" y="135.72" class="st17">t<tspan dy="-0.287em" class="st18">radio</tspan></text>		</g>
		<g id="shape177-219" transform="translate(251.536,-46.5639)">
			<title>Dynamic connector.177</title>
			<path d="M0 140.11 L0 91.39 L42.06 91.39" class="st11"/>
		</g>
		<g id="shape178-222" transform="translate(280.978,-69.2904)">
			<title>Circle.178</title>
			<path d="M0 138.8 A1.30852 1.30852 0 1 1 2.62 138.8 A1.30852 1.30852 0 1 1 0 138.8 Z" class="st19"/>
		</g>
		<g id="shape179-224" transform="translate(285.277,-69.2904)">
			<title>Circle.179</title>
			<path d="M0 138.8 A1.30852 1.30852 0 1 1 2.62 138.8 A1.30852 1.30852 0 1 1 0 138.8 Z" class="st19"/>
		</g>
		<g id="shape180-226" transform="translate(289.577,-69.2904)">
			<title>Circle.180</title>
			<path d="M0 138.8 A1.30852 1.30852 0 1 1 2.62 138.8 A1.30852 1.30852 0 1 1 0 138.8 Z" class="st19"/>
		</g>
		<g id="shape181-228" transform="translate(235.899,-36.1188)">
			<title>Sheet.181</title>
			<desc>Link-2</desc>
			<rect x="0" y="133.941" width="33.0868" height="6.16872" class="st8"/>
			<text x="4.29" y="139.72" class="st17">Link-2</text>		</g>
		<g id="shape183-231" transform="translate(216.132,-94.5995)">
			<title>Dynamic connector.183</title>
			<desc>tprep</desc>
			<path d="M0 133.02 L34.86 133.02" class="st14"/>
			<rect x="10.326" y="127.623" width="14.2075" height="11.3371" class="st20"/>
			<text x="10.33" y="135.72" class="st17">t<tspan dy="-0.287em" class="st18">prep</tspan></text>		</g>
		<g id="shape184-241" transform="translate(134.553,-18.0967)">
			<title>Dynamic connector.184</title>
			<desc>tevent,1</desc>
			<path d="M0 133.02 L79.91 133.02" class="st14"/>
			<rect x="25.4988" y="125.823" width="28.9155" height="15.1158" class="st20"/>
			<text x="25.5" y="136.62" class="st9">t<tspan dy="-0.287em" class="st16">event,1</tspan></text>		</g>
		<g id="shape185-251" transform="translate(215.868,-18.0967)">
			<title>Dynamic connector.185</title>
			<desc>tevent,2</desc>
			<path d="M0 133.02 L79.91 133.02" class="st14"/>
			<rect x="25.4988" y="125.823" width="28.9155" height="15.1158" class="st15"/>
			<text x="25.5" y="136.62" class="st9">t<tspan dy="-0.287em" class="st16">event,2</tspan></text>		</g>
		<g id="shape187-261" transform="translate(452.979,-46.2256)">
			<title>Box.187</title>
			<desc>RX</desc>
			<rect x="0" y="91.382" width="11.8269" height="48.7273" class="st2"/>
			<text x="4" y="113.35" class="st3">R<tspan x="4" dy="1.2em" class="st4">X</tspan></text>		</g>
		<g id="shape188-265" transform="translate(438.959,-46.2256)">
			<title>Box.188</title>
			<desc>TX</desc>
			<rect x="0" y="91.382" width="11.8269" height="48.7273" class="st5"/>
			<text x="4" y="113.35" class="st3">T<tspan x="4" dy="1.2em" class="st4">X</tspan></text>		</g>
		<g id="shape189-269" transform="translate(413.525,-46.2256)">
			<title>Box.189</title>
			<desc>P</desc>
			<rect x="0" y="91.382" width="11.1564" height="48.7273" class="st10"/>
			<text x="4" y="118.15" class="st3">P</text>		</g>
		<g id="shape190-272" transform="translate(401.056,-45.8798)">
			<title>Dynamic connector.190</title>
			<path d="M0 140.11 L0 90.89 L35.15 90.89" class="st11"/>
		</g>
		<g id="shape191-275" transform="translate(400.795,-63.5026)">
			<title>Dynamic connector.191</title>
			<path d="M1.44 133.02 L12.73 133.02" class="st12"/>
		</g>
		<g id="shape192-280" transform="translate(437.412,-63.5026)">
			<title>Dynamic connector.192</title>
			<path d="M-1.44 133.02 L-12.73 133.02" class="st12"/>
		</g>
		<g id="shape235-285" transform="translate(368.495,-94.8724)">
			<title>Dynamic connector.235</title>
			<desc>tndist</desc>
			<path d="M0 133.02 L32.17 133.02" class="st14"/>
			<rect x="6.18" y="125.823" width="19.807" height="15.1158" class="st15"/>
			<text x="6.18" y="136.62" class="st9">t<tspan dy="-0.287em" class="st16">ndist</tspan></text>		</g>
		<g id="shape193-295" transform="translate(400.662,-94.8724)">
			<title>Dynamic connector.193</title>
			<desc>tprep</desc>
			<path d="M0 133.02 L35.63 133.02" class="st14"/>
			<rect x="10.7137" y="127.623" width="14.2075" height="11.3371" class="st15"/>
			<text x="10.71" y="135.72" class="st17">t<tspan dy="-0.287em" class="st18">prep</tspan></text>		</g>
		<g id="shape194-305" transform="translate(471.812,-47.06)">
			<title>Dynamic connector.194</title>
			<path d="M7.09 140.11 L7.09 90.89" class="st11"/>
		</g>
		<g id="shape195-308" transform="translate(436.461,-46.4222)">
			<title>Dynamic connector.195</title>
			<path d="M0 140.11 L0 91.39 L42.06 91.39" class="st11"/>
		</g>
		<g id="shape196-311" transform="translate(437.863,-94.8724)">
			<title>Dynamic connector.196</title>
			<desc>tradio</desc>
			<path d="M0 133.02 L41.36 133.02" class="st14"/>
			<rect x="12.9259" y="127.623" width="15.5069" height="11.3371" class="st20"/>
			<text x="12.93" y="135.72" class="st17">t<tspan dy="-0.287em" class="st18">radio</tspan></text>		</g>
		<g id="shape197-321" transform="translate(465.903,-69.7135)">
			<title>Circle.197</title>
			<path d="M0 138.8 A1.30852 1.30852 0 1 1 2.62 138.8 A1.30852 1.30852 0 1 1 0 138.8 Z" class="st19"/>
		</g>
		<g id="shape198-323" transform="translate(470.202,-69.7135)">
			<title>Circle.198</title>
			<path d="M0 138.8 A1.30852 1.30852 0 1 1 2.62 138.8 A1.30852 1.30852 0 1 1 0 138.8 Z" class="st19"/>
		</g>
		<g id="shape199-325" transform="translate(474.501,-69.7135)">
			<title>Circle.199</title>
			<path d="M0 138.8 A1.30852 1.30852 0 1 1 2.62 138.8 A1.30852 1.30852 0 1 1 0 138.8 Z" class="st19"/>
		</g>
		<g id="shape203-327" transform="translate(421.32,-36.1188)">
			<title>Sheet.203</title>
			<desc>Link-0</desc>
			<rect x="0" y="133.941" width="33.0868" height="6.16872" class="st8"/>
			<text x="4.29" y="139.72" class="st17">Link-0</text>		</g>
		<g id="shape205-330" transform="translate(533.248,-46.0754)">
			<title>Box.205</title>
			<desc>RX</desc>
			<rect x="0" y="91.382" width="11.8269" height="48.7273" class="st2"/>
			<text x="4" y="113.35" class="st3">R<tspan x="4" dy="1.2em" class="st4">X</tspan></text>		</g>
		<g id="shape206-334" transform="translate(519.228,-46.0754)">
			<title>Box.206</title>
			<desc>TX</desc>
			<rect x="0" y="91.382" width="11.8269" height="48.7273" class="st5"/>
			<text x="4" y="113.35" class="st3">T<tspan x="4" dy="1.2em" class="st4">X</tspan></text>		</g>
		<g id="shape207-338" transform="translate(493.793,-46.0754)">
			<title>Box.207</title>
			<desc>P</desc>
			<rect x="0" y="91.382" width="11.1564" height="48.7273" class="st10"/>
			<text x="4" y="118.15" class="st3">P</text>		</g>
		<g id="shape208-341" transform="translate(481.324,-45.9262)">
			<title>Dynamic connector.208</title>
			<path d="M0 140.11 L0 90.89 L35.15 90.89" class="st11"/>
		</g>
		<g id="shape209-344" transform="translate(481.063,-63.3524)">
			<title>Dynamic connector.209</title>
			<path d="M1.44 133.02 L12.73 133.02" class="st12"/>
		</g>
		<g id="shape210-349" transform="translate(517.68,-63.3524)">
			<title>Dynamic connector.210</title>
			<path d="M-1.44 133.02 L-12.73 133.02" class="st12"/>
		</g>
		<g id="shape211-354" transform="translate(551.702,-46.7766)">
			<title>Dynamic connector.211</title>
			<path d="M7.09 140.11 L7.09 90.89" class="st11"/>
		</g>
		<g id="shape212-357" transform="translate(516.729,-46.4222)">
			<title>Dynamic connector.212</title>
			<path d="M0 140.11 L0 91.39 L42.06 91.39" class="st11"/>
		</g>
		<g id="shape213-360" transform="translate(546.171,-69.5633)">
			<title>Circle.213</title>
			<path d="M0 138.8 A1.30852 1.30852 0 1 1 2.62 138.8 A1.30852 1.30852 0 1 1 0 138.8 Z" class="st19"/>
		</g>
		<g id="shape214-362" transform="translate(550.47,-69.5633)">
			<title>Circle.214</title>
			<path d="M0 138.8 A1.30852 1.30852 0 1 1 2.62 138.8 A1.30852 1.30852 0 1 1 0 138.8 Z" class="st19"/>
		</g>
		<g id="shape215-364" transform="translate(554.77,-69.5633)">
			<title>Circle.215</title>
			<path d="M0 138.8 A1.30852 1.30852 0 1 1 2.62 138.8 A1.30852 1.30852 0 1 1 0 138.8 Z" class="st19"/>
		</g>
		<g id="shape216-366" transform="translate(502.354,-36.1188)">
			<title>Sheet.216</title>
			<desc>Link-1</desc>
			<rect x="0" y="133.941" width="33.0868" height="6.16872" class="st8"/>
			<text x="4.29" y="139.72" class="st17">Link-1</text>		</g>
		<g id="shape217-369" transform="translate(517.776,-94.8724)">
			<title>Dynamic connector.217</title>
			<desc>tradio</desc>
			<path d="M0 133.02 L41.36 133.02" class="st14"/>
			<rect x="12.9259" y="127.623" width="15.5069" height="11.3371" class="st15"/>
			<text x="12.93" y="135.72" class="st17">t<tspan dy="-0.287em" class="st18">radio</tspan></text>		</g>
		<g id="shape218-379" transform="translate(481.324,-94.8724)">
			<title>Dynamic connector.218</title>
			<desc>tprep</desc>
			<path d="M0 133.02 L34.86 133.02" class="st14"/>
			<rect x="10.326" y="127.623" width="14.2075" height="11.3371" class="st15"/>
			<text x="10.33" y="135.72" class="st17">t<tspan dy="-0.287em" class="st18">prep</tspan></text>		</g>
		<g id="shape237-389" transform="translate(563.292,-53.2229)">
			<title>Circle.117</title>
			<path d="M0 136.84 A3.27129 3.27129 0 0 1 6.54 136.84 A3.27129 3.27129 0 0 1 0 136.84 Z" class="st19"/>
		</g>
		<g id="shape238-391" transform="translate(574.041,-53.2229)">
			<title>Circle.118</title>
			<path d="M0 136.84 A3.27129 3.27129 0 0 1 6.54 136.84 A3.27129 3.27129 0 0 1 0 136.84 Z" class="st19"/>
		</g>
		<g id="shape239-393" transform="translate(584.789,-53.2229)">
			<title>Circle.119</title>
			<path d="M0 136.84 A3.27129 3.27129 0 0 1 6.54 136.84 A3.27129 3.27129 0 0 1 0 136.84 Z" class="st19"/>
		</g>
		<g id="group17-395" transform="translate(277.485,-44.5407)">
			<title>Sheet.17</title>
			<g id="shape18-396" transform="translate(16.5388,-4.20594)">
				<title>Dynamic connector.2</title>
				<path d="M7.09 140.11 L7.09 71.23" class="st6"/>
			</g>
			<g id="shape19-401" transform="translate(-27.7781,-81.7044)">
				<title>Sheet.19</title>
				<desc>nACTIVE</desc>
				<rect x="0" y="128.997" width="86.9228" height="11.1127" class="st8"/>
				<text x="4" y="138.15" class="st9">nACTIVE</text>			</g>
		</g>
		<g id="shape241-404" transform="translate(295.78,-101.949)">
			<title>Sheet.241</title>
			<desc>tprep</desc>
			<path d="M0 140.11 L38.19 140.11" class="st21"/>
			<rect x="11.993" y="132.909" width="14.2075" height="14.4001" class="st15"/>
			<text x="11.99" y="143.71" class="st17">t<tspan dy="-0.287em" class="st18">prep</tspan></text>		</g>
	</g>
</svg>
