<?xml version="1.0" encoding="UTF-8" standalone="no"?>
<!DOCTYPE svg PUBLIC "-//W3C//DTD SVG 1.1//EN" "http://www.w3.org/Graphics/SVG/1.1/DTD/svg11.dtd">
<!-- Generated by Microsoft Visio, SVG Export ble_radio_notif_signal_in_relation_to_3_active_links_and_running_scanner_s145.svg Page-1 -->
<svg xmlns="http://www.w3.org/2000/svg" xmlns:xlink="http://www.w3.org/1999/xlink" xmlns:ev="http://www.w3.org/2001/xml-events"
		width="8.94403in" height="1.94596in" viewBox="0 0 643.97 140.109" xml:space="preserve" color-interpolation-filters="sRGB"
		class="st20">
	<style type="text/css">
	<![CDATA[
		.st1 {marker-end:url(#mrkr1-9);marker-start:url(#mrkr1-7);stroke:#000000;stroke-linecap:round;stroke-linejoin:round;stroke-width:1.2}
		.st2 {fill:#000000;fill-opacity:1;stroke:#000000;stroke-opacity:1;stroke-width:0.32258064516129}
		.st3 {fill:#ffffff;stroke:none;stroke-linecap:butt}
		.st4 {fill:#000000;font-family:Arial;font-size:0.75em}
		.st5 {baseline-shift:-32.4951%;font-size:0.649902em}
		.st6 {fill:#ffffff;stroke:none;stroke-linecap:butt;stroke-width:7.2}
		.st7 {fill:#88b7e4;stroke:none;stroke-linecap:round;stroke-linejoin:round;stroke-width:0.24}
		.st8 {fill:#000000;font-family:Arial;font-size:0.666664em}
		.st9 {font-size:1em}
		.st10 {fill:#d3d2c3;stroke:none;stroke-linecap:round;stroke-linejoin:round;stroke-width:0.24}
		.st11 {marker-end:url(#mrkr5-37);stroke:#7f7f7f;stroke-linecap:round;stroke-linejoin:round;stroke-width:3.12}
		.st12 {fill:#7f7f7f;fill-opacity:1;stroke:#7f7f7f;stroke-opacity:1;stroke-width:0.5531914893617}
		.st13 {fill:none;stroke:none;stroke-linecap:round;stroke-linejoin:round;stroke-width:0.72}
		.st14 {fill:#000000;font-family:Arial;font-size:1.00001em}
		.st15 {fill:#cbd5e0;stroke:none;stroke-linecap:round;stroke-linejoin:round;stroke-width:0.24}
		.st16 {stroke:#000000;stroke-dasharray:1.2,2.4;stroke-linecap:round;stroke-linejoin:round;stroke-width:1.2}
		.st17 {marker-start:url(#mrkr3-52);stroke:#000000;stroke-dasharray:1.2,2.4;stroke-linecap:round;stroke-linejoin:round;stroke-width:1.2}
		.st18 {baseline-shift:-32.4941%;font-size:0.649882em}
		.st19 {fill:#666666;stroke:none;stroke-linecap:round;stroke-linejoin:round;stroke-width:0.24}
		.st20 {fill:none;fill-rule:evenodd;font-size:12px;overflow:visible;stroke-linecap:square;stroke-miterlimit:3}
	]]>
	</style>

	<defs id="Markers">
		<g id="lend1">
			<path d="M 1 -1 L 0 0 L 1 1 " style="stroke-linecap:round;stroke-linejoin:round;fill:none"/>
		</g>
		<marker id="mrkr1-7" class="st2" orient="auto" markerUnits="strokeWidth" overflow="visible">
			<use xlink:href="#lend1" transform="scale(3.1) "/>
		</marker>
		<marker id="mrkr1-9" class="st2" orient="auto" markerUnits="strokeWidth" overflow="visible">
			<use xlink:href="#lend1" transform="scale(-3.1,-3.1) "/>
		</marker>
		<g id="lend5">
			<path d="M 2 1 L 0 0 L 1.98117 -0.993387 C 1.67173 -0.364515 1.67301 0.372641 1.98465 1.00043 " style="stroke:none"/>
		</g>
		<marker id="mrkr5-37" class="st12" refX="-3.1634615384615" orient="auto" markerUnits="strokeWidth" overflow="visible">
			<use xlink:href="#lend5" transform="scale(-1.8076923076923,-1.8076923076923) "/>
		</marker>
		<g id="lend3">
			<path d="M 2 1 L 0 0 L 2 -1 " style="stroke-linecap:round;stroke-linejoin:round;fill:none"/>
		</g>
		<marker id="mrkr3-52" class="st2" orient="auto" markerUnits="strokeWidth" overflow="visible">
			<use xlink:href="#lend3" transform="scale(3.1) "/>
		</marker>
	</defs>
	<g>
		<title>Page-1</title>
		<g id="shape196-1" transform="translate(526.446,-94.8724)">
			<title>Dynamic connector.196</title>
			<desc>tradio</desc>
			<path d="M0 133.02 L41.36 133.02" class="st1"/>
			<rect x="12.9259" y="127.623" width="15.5069" height="11.3371" class="st3"/>
			<text x="12.93" y="135.72" class="st4">t<tspan dy="-0.287em" class="st5">radio</tspan></text>		</g>
		<g id="shape193-13" transform="translate(489.245,-94.8724)">
			<title>Dynamic connector.193</title>
			<desc>tprep</desc>
			<path d="M0 133.02 L35.63 133.02" class="st1"/>
			<rect x="10.7137" y="127.623" width="14.2075" height="11.3371" class="st6"/>
			<text x="10.71" y="135.72" class="st4">t<tspan dy="-0.287em" class="st5">prep</tspan></text>		</g>
		<g id="shape3-23" transform="translate(108.574,-46.6437)">
			<title>Box.47</title>
			<desc>RX</desc>
			<rect x="0" y="91.382" width="11.8269" height="48.7273" class="st7"/>
			<text x="4" y="113.35" class="st8">R<tspan x="4" dy="1.2em" class="st9">X</tspan></text>		</g>
		<g id="shape4-27" transform="translate(94.5546,-46.6437)">
			<title>Box.48</title>
			<desc>TX</desc>
			<rect x="0" y="91.382" width="11.8269" height="48.7273" class="st10"/>
			<text x="4" y="113.35" class="st8">T<tspan x="4" dy="1.2em" class="st9">X</tspan></text>		</g>
		<g id="group5-31" transform="translate(0.36,-48.7466)">
			<title>Sheet.5</title>
			<g id="shape6-32" transform="translate(12.6012,-2.84217E-14)">
				<title>Dynamic connector.1</title>
				<path d="M7.09 140.11 L7.09 71.23" class="st11"/>
			</g>
			<g id="shape7-38" transform="translate(3.9968E-15,-77.7669)">
				<title>Sheet.7</title>
				<desc>ACTIVE</desc>
				<rect x="0" y="128.997" width="58.0676" height="11.1127" class="st13"/>
				<text x="7.36" y="138.15" class="st14">ACTIVE</text>			</g>
		</g>
		<g id="shape8-41" transform="translate(69.1202,-46.6437)">
			<title>Box.58</title>
			<desc>P</desc>
			<rect x="0" y="91.382" width="11.1564" height="48.7273" class="st15"/>
			<text x="4" y="118.15" class="st8">P</text>		</g>
		<g id="shape9-44" transform="translate(56.6781,-46.6733)">
			<title>Dynamic connector.9</title>
			<path d="M0 140.11 L0 91.27 L35.13 91.27" class="st16"/>
		</g>
		<g id="shape11-47" transform="translate(56.3898,-63.9207)">
			<title>Dynamic connector.61</title>
			<path d="M1.44 133.02 L12.73 133.02" class="st17"/>
		</g>
		<g id="shape12-53" transform="translate(93.0071,-63.9207)">
			<title>Dynamic connector.62</title>
			<path d="M-1.44 133.02 L-12.73 133.02" class="st17"/>
		</g>
		<g id="shape13-58" transform="translate(21.8592,-95.2905)">
			<title>Dynamic connector.63</title>
			<desc>tndist</desc>
			<path d="M0 133.02 L34.4 133.02" class="st1"/>
			<rect x="7.29564" y="125.823" width="19.807" height="15.1158" class="st6"/>
			<text x="7.3" y="136.62" class="st14">t<tspan dy="-0.287em" class="st18">ndist</tspan></text>		</g>
		<g id="shape14-68" transform="translate(56.2575,-95.2905)">
			<title>Dynamic connector.64</title>
			<desc>tprep</desc>
			<path d="M0 133.02 L35.63 133.02" class="st1"/>
			<rect x="10.7137" y="127.623" width="14.2075" height="11.3371" class="st6"/>
			<text x="10.71" y="135.72" class="st4">t<tspan dy="-0.287em" class="st5">prep</tspan></text>		</g>
		<g id="group17-78" transform="translate(381.08,-44.5407)">
			<title>Sheet.17</title>
			<g id="shape18-79" transform="translate(16.5388,-4.20594)">
				<title>Dynamic connector.2</title>
				<path d="M7.09 140.11 L7.09 71.23" class="st11"/>
			</g>
			<g id="shape19-84" transform="translate(-27.7781,-81.7044)">
				<title>Sheet.19</title>
				<desc>nACTIVE</desc>
				<rect x="0" y="128.997" width="86.9228" height="11.1127" class="st13"/>
				<text x="4" y="138.15" class="st14">nACTIVE</text>			</g>
		</g>
		<g id="shape41-87" transform="translate(92.0562,-4.11524)">
			<title>Dynamic connector.41</title>
			<desc>tinterval</desc>
			<path d="M0 133.06 L436.17 132.98" class="st1"/>
			<rect x="203.846" y="125.823" width="28.4735" height="15.1158" class="st6"/>
			<text x="203.85" y="136.62" class="st14">t<tspan dy="-0.287em" class="st18">interval</tspan></text>		</g>
		<g id="group94-97" transform="translate(435.387,-48.7466)">
			<title>Sheet.94</title>
			<g id="shape95-98" transform="translate(12.6012,-2.84217E-14)">
				<title>Dynamic connector.1</title>
				<path d="M7.09 140.11 L7.09 71.23" class="st11"/>
			</g>
			<g id="shape96-103" transform="translate(3.9968E-15,-77.7669)">
				<title>Sheet.96</title>
				<desc>ACTIVE</desc>
				<rect x="0" y="128.997" width="58.0676" height="11.1127" class="st13"/>
				<text x="7.36" y="138.15" class="st14">ACTIVE</text>			</g>
		</g>
		<g id="group105-106" transform="translate(584.466,-44.5407)">
			<title>Sheet.105</title>
			<g id="shape106-107" transform="translate(16.5388,-3.93756)">
				<title>Dynamic connector.2</title>
				<path d="M7.09 140.11 L7.09 71.23" class="st11"/>
			</g>
			<g id="shape107-112" transform="translate(-27.7781,-81.7044)">
				<title>Sheet.107</title>
				<desc>nACTIVE</desc>
				<rect x="0" y="128.997" width="86.9228" height="11.1127" class="st13"/>
				<text x="4" y="138.15" class="st14">nACTIVE</text>			</g>
		</g>
		<g id="shape108-115" transform="translate(126.836,-45.6427)">
			<title>Dynamic connector.108</title>
			<path d="M7.09 140.11 L7.09 90.89" class="st16"/>
		</g>
		<g id="shape109-118" transform="translate(91.686,-47.6654)">
			<title>Dynamic connector.109</title>
			<path d="M0 140.11 L0 92.26 L42.43 92.26" class="st16"/>
		</g>
		<g id="shape110-121" transform="translate(93.4582,-95.2905)">
			<title>Dynamic connector.110</title>
			<desc>tradio</desc>
			<path d="M0 133.02 L41.36 133.02" class="st1"/>
			<rect x="12.9259" y="127.623" width="15.5069" height="11.3371" class="st6"/>
			<text x="12.93" y="135.72" class="st4">t<tspan dy="-0.287em" class="st5">radio</tspan></text>		</g>
		<g id="shape111-131" transform="translate(121.498,-70.1316)">
			<title>Circle.133</title>
			<path d="M0 138.8 A1.30852 1.30852 0 1 1 2.62 138.8 A1.30852 1.30852 0 1 1 0 138.8 Z" class="st19"/>
		</g>
		<g id="shape112-133" transform="translate(125.797,-70.1316)">
			<title>Circle.134</title>
			<path d="M0 138.8 A1.30852 1.30852 0 1 1 2.62 138.8 A1.30852 1.30852 0 1 1 0 138.8 Z" class="st19"/>
		</g>
		<g id="shape113-135" transform="translate(130.097,-70.1316)">
			<title>Circle.135</title>
			<path d="M0 138.8 A1.30852 1.30852 0 1 1 2.62 138.8 A1.30852 1.30852 0 1 1 0 138.8 Z" class="st19"/>
		</g>
		<g id="shape142-137" transform="translate(57.6702,-18.0967)">
			<title>Dynamic connector.142</title>
			<desc>tevent,0</desc>
			<path d="M0 133.02 L79.91 133.02" class="st1"/>
			<rect x="25.4988" y="125.823" width="28.9155" height="15.1158" class="st6"/>
			<text x="25.5" y="136.62" class="st14">t<tspan dy="-0.287em" class="st18">event,0</tspan></text>		</g>
		<g id="shape150-147" transform="translate(76.9148,-36.1188)">
			<title>Sheet.150</title>
			<desc>Link-0</desc>
			<rect x="0" y="133.941" width="33.0868" height="6.16872" class="st13"/>
			<text x="4.29" y="139.72" class="st4">Link-0</text>		</g>
		<g id="shape155-150" transform="translate(188.843,-46.1349)">
			<title>Box.155</title>
			<desc>RX</desc>
			<rect x="0" y="91.382" width="11.8269" height="48.7273" class="st7"/>
			<text x="4" y="113.35" class="st8">R<tspan x="4" dy="1.2em" class="st9">X</tspan></text>		</g>
		<g id="shape156-154" transform="translate(174.82,-46.4041)">
			<title>Box.156</title>
			<desc>TX</desc>
			<rect x="0" y="91.382" width="11.8269" height="48.7273" class="st10"/>
			<text x="4" y="113.35" class="st8">T<tspan x="4" dy="1.2em" class="st9">X</tspan></text>		</g>
		<g id="shape157-158" transform="translate(149.389,-46.4934)">
			<title>Box.157</title>
			<desc>P</desc>
			<rect x="0" y="91.382" width="11.1564" height="48.7273" class="st15"/>
			<text x="4" y="118.15" class="st8">P</text>		</g>
		<g id="shape158-161" transform="translate(136.19,-46.2481)">
			<title>Dynamic connector.158</title>
			<path d="M0 140.11 L0 90.89 L35.15 90.89" class="st16"/>
		</g>
		<g id="shape159-164" transform="translate(136.658,-63.7705)">
			<title>Dynamic connector.159</title>
			<path d="M1.44 133.02 L12.73 133.02" class="st17"/>
		</g>
		<g id="shape160-169" transform="translate(173.275,-63.7705)">
			<title>Dynamic connector.160</title>
			<path d="M-1.44 133.02 L-12.73 133.02" class="st17"/>
		</g>
		<g id="shape161-174" transform="translate(207.297,-45.6427)">
			<title>Dynamic connector.161</title>
			<path d="M7.09 140.11 L7.09 90.89" class="st16"/>
		</g>
		<g id="shape162-177" transform="translate(172.325,-46.6733)">
			<title>Dynamic connector.162</title>
			<path d="M0 140.11 L0 91.39 L42.06 91.39" class="st16"/>
		</g>
		<g id="shape163-180" transform="translate(201.766,-69.9814)">
			<title>Circle.163</title>
			<path d="M0 138.8 A1.30852 1.30852 0 1 1 2.62 138.8 A1.30852 1.30852 0 1 1 0 138.8 Z" class="st19"/>
		</g>
		<g id="shape164-182" transform="translate(206.066,-69.9814)">
			<title>Circle.164</title>
			<path d="M0 138.8 A1.30852 1.30852 0 1 1 2.62 138.8 A1.30852 1.30852 0 1 1 0 138.8 Z" class="st19"/>
		</g>
		<g id="shape165-184" transform="translate(210.365,-69.9814)">
			<title>Circle.165</title>
			<path d="M0 138.8 A1.30852 1.30852 0 1 1 2.62 138.8 A1.30852 1.30852 0 1 1 0 138.8 Z" class="st19"/>
		</g>
		<g id="shape166-186" transform="translate(157.949,-36.1188)">
			<title>Sheet.166</title>
			<desc>Link-1</desc>
			<rect x="0" y="133.941" width="33.0868" height="6.16872" class="st13"/>
			<text x="4.29" y="139.72" class="st4">Link-1</text>		</g>
		<g id="shape168-189" transform="translate(173.371,-95.2905)">
			<title>Dynamic connector.168</title>
			<desc>tradio</desc>
			<path d="M0 133.02 L41.36 133.02" class="st1"/>
			<rect x="12.9259" y="127.623" width="15.5069" height="11.3371" class="st6"/>
			<text x="12.93" y="135.72" class="st4">t<tspan dy="-0.287em" class="st5">radio</tspan></text>		</g>
		<g id="shape169-199" transform="translate(136.92,-95.2905)">
			<title>Dynamic connector.169</title>
			<desc>tprep</desc>
			<path d="M0 133.02 L34.86 133.02" class="st1"/>
			<rect x="10.326" y="127.623" width="14.2075" height="11.3371" class="st6"/>
			<text x="10.33" y="135.72" class="st4">t<tspan dy="-0.287em" class="st5">prep</tspan></text>		</g>
		<g id="shape170-209" transform="translate(268.055,-45.8025)">
			<title>Box.170</title>
			<desc>RX</desc>
			<rect x="0" y="91.382" width="11.8269" height="48.7273" class="st7"/>
			<text x="4" y="113.35" class="st8">R<tspan x="4" dy="1.2em" class="st9">X</tspan></text>		</g>
		<g id="shape171-213" transform="translate(254.035,-45.8025)">
			<title>Box.171</title>
			<desc>TX</desc>
			<rect x="0" y="91.382" width="11.8269" height="48.7273" class="st10"/>
			<text x="4" y="113.35" class="st8">T<tspan x="4" dy="1.2em" class="st9">X</tspan></text>		</g>
		<g id="shape172-217" transform="translate(228.6,-45.8025)">
			<title>Box.172</title>
			<desc>P</desc>
			<rect x="0" y="91.382" width="11.1564" height="48.7273" class="st15"/>
			<text x="4" y="118.15" class="st8">P</text>		</g>
		<g id="shape173-220" transform="translate(216.694,-46.1064)">
			<title>Dynamic connector.173</title>
			<path d="M0 140.11 L0 90.89 L35.15 90.89" class="st16"/>
		</g>
		<g id="shape174-223" transform="translate(215.87,-63.0795)">
			<title>Dynamic connector.174</title>
			<path d="M1.44 133.02 L12.73 133.02" class="st17"/>
		</g>
		<g id="shape175-228" transform="translate(252.487,-63.0795)">
			<title>Dynamic connector.175</title>
			<path d="M-1.44 133.02 L-12.73 133.02" class="st17"/>
		</g>
		<g id="shape176-233" transform="translate(286.71,-46.8587)">
			<title>Dynamic connector.176</title>
			<path d="M7.09 140.11 L7.09 90.89" class="st16"/>
		</g>
		<g id="shape182-236" transform="translate(252.583,-94.5995)">
			<title>Dynamic connector.182</title>
			<desc>tradio</desc>
			<path d="M0 133.02 L41.36 133.02" class="st1"/>
			<rect x="12.9259" y="127.623" width="15.5069" height="11.3371" class="st6"/>
			<text x="12.93" y="135.72" class="st4">t<tspan dy="-0.287em" class="st5">radio</tspan></text>		</g>
		<g id="shape177-246" transform="translate(251.536,-46.5639)">
			<title>Dynamic connector.177</title>
			<path d="M0 140.11 L0 91.39 L42.06 91.39" class="st16"/>
		</g>
		<g id="shape178-249" transform="translate(280.978,-69.2904)">
			<title>Circle.178</title>
			<path d="M0 138.8 A1.30852 1.30852 0 1 1 2.62 138.8 A1.30852 1.30852 0 1 1 0 138.8 Z" class="st19"/>
		</g>
		<g id="shape179-251" transform="translate(285.277,-69.2904)">
			<title>Circle.179</title>
			<path d="M0 138.8 A1.30852 1.30852 0 1 1 2.62 138.8 A1.30852 1.30852 0 1 1 0 138.8 Z" class="st19"/>
		</g>
		<g id="shape180-253" transform="translate(289.577,-69.2904)">
			<title>Circle.180</title>
			<path d="M0 138.8 A1.30852 1.30852 0 1 1 2.62 138.8 A1.30852 1.30852 0 1 1 0 138.8 Z" class="st19"/>
		</g>
		<g id="shape181-255" transform="translate(235.899,-36.1188)">
			<title>Sheet.181</title>
			<desc>Link-2</desc>
			<rect x="0" y="133.941" width="33.0868" height="6.16872" class="st13"/>
			<text x="4.29" y="139.72" class="st4">Link-2</text>		</g>
		<g id="shape183-258" transform="translate(216.132,-94.5995)">
			<title>Dynamic connector.183</title>
			<desc>tprep</desc>
			<path d="M0 133.02 L34.86 133.02" class="st1"/>
			<rect x="10.326" y="127.623" width="14.2075" height="11.3371" class="st6"/>
			<text x="10.33" y="135.72" class="st4">t<tspan dy="-0.287em" class="st5">prep</tspan></text>		</g>
		<g id="shape184-268" transform="translate(138.985,-18.0967)">
			<title>Dynamic connector.184</title>
			<desc>tevent,1</desc>
			<path d="M0 133.02 L79.91 133.02" class="st1"/>
			<rect x="25.4988" y="125.823" width="28.9155" height="15.1158" class="st6"/>
			<text x="25.5" y="136.62" class="st14">t<tspan dy="-0.287em" class="st18">event,1</tspan></text>		</g>
		<g id="shape185-278" transform="translate(220.3,-18.0967)">
			<title>Dynamic connector.185</title>
			<desc>tevent,2</desc>
			<path d="M0 133.02 L79.91 133.02" class="st1"/>
			<rect x="25.4988" y="125.823" width="28.9155" height="15.1158" class="st6"/>
			<text x="25.5" y="136.62" class="st14">t<tspan dy="-0.287em" class="st18">event,2</tspan></text>		</g>
		<g id="shape187-288" transform="translate(541.562,-46.2256)">
			<title>Box.187</title>
			<desc>RX</desc>
			<rect x="0" y="91.382" width="11.8269" height="48.7273" class="st7"/>
			<text x="4" y="113.35" class="st8">R<tspan x="4" dy="1.2em" class="st9">X</tspan></text>		</g>
		<g id="shape188-292" transform="translate(527.542,-46.2256)">
			<title>Box.188</title>
			<desc>TX</desc>
			<rect x="0" y="91.382" width="11.8269" height="48.7273" class="st10"/>
			<text x="4" y="113.35" class="st8">T<tspan x="4" dy="1.2em" class="st9">X</tspan></text>		</g>
		<g id="shape189-296" transform="translate(502.108,-46.2256)">
			<title>Box.189</title>
			<desc>P</desc>
			<rect x="0" y="91.382" width="11.1564" height="48.7273" class="st15"/>
			<text x="4" y="118.15" class="st8">P</text>		</g>
		<g id="shape190-299" transform="translate(489.639,-45.8798)">
			<title>Dynamic connector.190</title>
			<path d="M0 140.11 L0 90.89 L35.15 90.89" class="st16"/>
		</g>
		<g id="shape191-302" transform="translate(489.377,-63.5026)">
			<title>Dynamic connector.191</title>
			<path d="M1.44 133.02 L12.73 133.02" class="st17"/>
		</g>
		<g id="shape192-307" transform="translate(525.995,-63.5026)">
			<title>Dynamic connector.192</title>
			<path d="M-1.44 133.02 L-12.73 133.02" class="st17"/>
		</g>
		<g id="shape235-312" transform="translate(456.883,-94.8724)">
			<title>Dynamic connector.235</title>
			<desc>tndist</desc>
			<path d="M0 133.02 L32.36 133.02" class="st1"/>
			<rect x="6.27757" y="125.823" width="19.807" height="15.1158" class="st6"/>
			<text x="6.28" y="136.62" class="st14">t<tspan dy="-0.287em" class="st18">ndist</tspan></text>		</g>
		<g id="shape194-322" transform="translate(560.395,-47.06)">
			<title>Dynamic connector.194</title>
			<path d="M7.09 140.11 L7.09 90.89" class="st16"/>
		</g>
		<g id="shape195-325" transform="translate(525.044,-46.4222)">
			<title>Dynamic connector.195</title>
			<path d="M0 140.11 L0 91.39 L42.06 91.39" class="st16"/>
		</g>
		<g id="shape197-328" transform="translate(554.485,-69.7135)">
			<title>Circle.197</title>
			<path d="M0 138.8 A1.30852 1.30852 0 1 1 2.62 138.8 A1.30852 1.30852 0 1 1 0 138.8 Z" class="st19"/>
		</g>
		<g id="shape198-330" transform="translate(558.785,-69.7135)">
			<title>Circle.198</title>
			<path d="M0 138.8 A1.30852 1.30852 0 1 1 2.62 138.8 A1.30852 1.30852 0 1 1 0 138.8 Z" class="st19"/>
		</g>
		<g id="shape199-332" transform="translate(563.084,-69.7135)">
			<title>Circle.199</title>
			<path d="M0 138.8 A1.30852 1.30852 0 1 1 2.62 138.8 A1.30852 1.30852 0 1 1 0 138.8 Z" class="st19"/>
		</g>
		<g id="shape203-334" transform="translate(509.902,-36.1188)">
			<title>Sheet.203</title>
			<desc>Link-0</desc>
			<rect x="0" y="133.941" width="33.0868" height="6.16872" class="st13"/>
			<text x="4.29" y="139.72" class="st4">Link-0</text>		</g>
		<g id="shape237-337" transform="translate(574.284,-53.2229)">
			<title>Circle.117</title>
			<path d="M0 136.84 A3.27129 3.27129 0 0 1 6.54 136.84 A3.27129 3.27129 0 0 1 0 136.84 Z" class="st19"/>
		</g>
		<g id="shape238-339" transform="translate(585.033,-53.2229)">
			<title>Circle.118</title>
			<path d="M0 136.84 A3.27129 3.27129 0 0 1 6.54 136.84 A3.27129 3.27129 0 0 1 0 136.84 Z" class="st19"/>
		</g>
		<g id="shape239-341" transform="translate(595.781,-53.2229)">
			<title>Circle.119</title>
			<path d="M0 136.84 A3.27129 3.27129 0 0 1 6.54 136.84 A3.27129 3.27129 0 0 1 0 136.84 Z" class="st19"/>
		</g>
		<g id="shape240-343" transform="translate(309.263,-46.3502)">
			<title>Box.240</title>
			<desc>P</desc>
			<rect x="0" y="91.382" width="11.1564" height="48.7273" class="st15"/>
			<text x="4" y="118.15" class="st8">P</text>		</g>
		<g id="shape241-346" transform="translate(296.064,-46.1048)">
			<title>Dynamic connector.241</title>
			<path d="M0 140.11 L0 90.89 L35.15 90.89" class="st16"/>
		</g>
		<g id="shape242-349" transform="translate(296.532,-63.6272)">
			<title>Dynamic connector.242</title>
			<path d="M1.44 133.02 L12.73 133.02" class="st17"/>
		</g>
		<g id="shape243-354" transform="translate(333.149,-63.6272)">
			<title>Dynamic connector.243</title>
			<path d="M-1.44 133.02 L-12.73 133.02" class="st17"/>
		</g>
		<g id="shape244-359" transform="translate(296.794,-95.1472)">
			<title>Dynamic connector.244</title>
			<desc>tprep</desc>
			<path d="M0 133.02 L34.86 133.02" class="st1"/>
			<rect x="10.326" y="127.623" width="14.2075" height="11.3371" class="st6"/>
			<text x="10.33" y="135.72" class="st4">t<tspan dy="-0.287em" class="st5">prep</tspan></text>		</g>
		<g id="shape246-369" transform="translate(333.652,-46.2481)">
			<title>Box.246</title>
			<desc>Scan Window</desc>
			<rect x="0" y="91.382" width="58.6479" height="48.7273" class="st10"/>
			<text x="4.87" y="118.15" class="st8">Scan Window</text>		</g>
		<g id="shape247-372" transform="translate(332.631,-46.5866)">
			<title>Dynamic connector.247</title>
			<path d="M0 140.11 L0 91.39 L59.54 91.39" class="st16"/>
		</g>
		<g id="shape251-375" transform="translate(333.225,-109.29)">
			<title>Dynamic connector.251</title>
			<desc>tradio</desc>
			<path d="M0 147.17 L59.9 147.22" class="st1"/>
			<rect x="22.1952" y="141.796" width="15.5069" height="11.3371" class="st6"/>
			<text x="22.2" y="149.9" class="st4">t<tspan dy="-0.287em" class="st5">radio</tspan></text>		</g>
		<g id="shape252-385" transform="translate(385.214,-45.7559)">
			<title>Dynamic connector.252</title>
			<path d="M7.09 140.11 L7.09 90.89" class="st16"/>
		</g>
	</g>
</svg>
