<?xml version="1.0" encoding="UTF-8" standalone="no"?>
<svg xmlns="http://www.w3.org/2000/svg" xmlns:xlink="http://www.w3.org/1999/xlink" contentScriptType="application/ecmascript" contentStyleType="text/css" height="974px" preserveAspectRatio="none" style="width:429px;height:974px;" version="1.1" viewBox="0 0 429 974" width="429px" zoomAndPan="magnify"><defs><filter height="300%" id="f1lcoytfo498xe" width="300%" x="-1" y="-1"><feGaussianBlur result="blurOut" stdDeviation="2.0"/><feColorMatrix in="blurOut" result="blurOut2" type="matrix" values="0 0 0 0 0 0 0 0 0 0 0 0 0 0 0 0 0 0 .4 0"/><feOffset dx="4.0" dy="4.0" in="blurOut2" result="blurOut3"/><feBlend in="SourceGraphic" in2="blurOut3" mode="normal"/></filter></defs><g><line style="stroke: #A80036; stroke-width: 1.0;" x1="57" x2="57" y1="54.5938" y2="446.8516"/><line style="stroke: #A80036; stroke-width: 1.0; stroke-dasharray: 1.0,4.0;" x1="57" x2="57" y1="446.8516" y2="487.6563"/><line style="stroke: #A80036; stroke-width: 1.0;" x1="57" x2="57" y1="487.6563" y2="545.9219"/><line style="stroke: #A80036; stroke-width: 1.0; stroke-dasharray: 1.0,4.0;" x1="57" x2="57" y1="545.9219" y2="586.7266"/><line style="stroke: #A80036; stroke-width: 1.0;" x1="57" x2="57" y1="586.7266" y2="644.9922"/><line style="stroke: #A80036; stroke-width: 1.0; stroke-dasharray: 1.0,4.0;" x1="57" x2="57" y1="644.9922" y2="685.7969"/><line style="stroke: #A80036; stroke-width: 1.0;" x1="57" x2="57" y1="685.7969" y2="801.3281"/><line style="stroke: #A80036; stroke-width: 1.0; stroke-dasharray: 1.0,4.0;" x1="57" x2="57" y1="801.3281" y2="842.1328"/><line style="stroke: #A80036; stroke-width: 1.0;" x1="57" x2="57" y1="842.1328" y2="910.3984"/><line style="stroke: #A80036; stroke-width: 1.0;" x1="172" x2="172" y1="54.5938" y2="446.8516"/><line style="stroke: #A80036; stroke-width: 1.0; stroke-dasharray: 1.0,4.0;" x1="172" x2="172" y1="446.8516" y2="487.6563"/><line style="stroke: #A80036; stroke-width: 1.0;" x1="172" x2="172" y1="487.6563" y2="545.9219"/><line style="stroke: #A80036; stroke-width: 1.0; stroke-dasharray: 1.0,4.0;" x1="172" x2="172" y1="545.9219" y2="586.7266"/><line style="stroke: #A80036; stroke-width: 1.0;" x1="172" x2="172" y1="586.7266" y2="644.9922"/><line style="stroke: #A80036; stroke-width: 1.0; stroke-dasharray: 1.0,4.0;" x1="172" x2="172" y1="644.9922" y2="685.7969"/><line style="stroke: #A80036; stroke-width: 1.0;" x1="172" x2="172" y1="685.7969" y2="801.3281"/><line style="stroke: #A80036; stroke-width: 1.0; stroke-dasharray: 1.0,4.0;" x1="172" x2="172" y1="801.3281" y2="842.1328"/><line style="stroke: #A80036; stroke-width: 1.0;" x1="172" x2="172" y1="842.1328" y2="910.3984"/><line style="stroke: #A80036; stroke-width: 1.0;" x1="364.5" x2="364.5" y1="54.5938" y2="446.8516"/><line style="stroke: #A80036; stroke-width: 1.0; stroke-dasharray: 1.0,4.0;" x1="364.5" x2="364.5" y1="446.8516" y2="487.6563"/><line style="stroke: #A80036; stroke-width: 1.0;" x1="364.5" x2="364.5" y1="487.6563" y2="545.9219"/><line style="stroke: #A80036; stroke-width: 1.0; stroke-dasharray: 1.0,4.0;" x1="364.5" x2="364.5" y1="545.9219" y2="586.7266"/><line style="stroke: #A80036; stroke-width: 1.0;" x1="364.5" x2="364.5" y1="586.7266" y2="644.9922"/><line style="stroke: #A80036; stroke-width: 1.0; stroke-dasharray: 1.0,4.0;" x1="364.5" x2="364.5" y1="644.9922" y2="685.7969"/><line style="stroke: #A80036; stroke-width: 1.0;" x1="364.5" x2="364.5" y1="685.7969" y2="801.3281"/><line style="stroke: #A80036; stroke-width: 1.0; stroke-dasharray: 1.0,4.0;" x1="364.5" x2="364.5" y1="801.3281" y2="842.1328"/><line style="stroke: #A80036; stroke-width: 1.0;" x1="364.5" x2="364.5" y1="842.1328" y2="910.3984"/><rect fill="#FEFECE" filter="url(#f1lcoytfo498xe)" height="30.2969" style="stroke: #A80036; stroke-width: 1.5;" width="95" x="8" y="19.2969"/><text fill="#000000" font-family="sans-serif" font-size="14" lengthAdjust="spacingAndGlyphs" textLength="81" x="15" y="39.292">application</text><rect fill="#FEFECE" filter="url(#f1lcoytfo498xe)" height="30.2969" style="stroke: #A80036; stroke-width: 1.5;" width="95" x="8" y="909.3984"/><text fill="#000000" font-family="sans-serif" font-size="14" lengthAdjust="spacingAndGlyphs" textLength="81" x="15" y="929.3936">application</text><rect fill="#FEFECE" filter="url(#f1lcoytfo498xe)" height="46.5938" style="stroke: #A80036; stroke-width: 1.5;" width="67" x="137" y="3"/><text fill="#000000" font-family="sans-serif" font-size="14" lengthAdjust="spacingAndGlyphs" textLength="29" x="156" y="22.9951">FEM</text><text fill="#000000" font-family="sans-serif" font-size="14" lengthAdjust="spacingAndGlyphs" textLength="53" x="144" y="39.292">module</text><rect fill="#FEFECE" filter="url(#f1lcoytfo498xe)" height="46.5938" style="stroke: #A80036; stroke-width: 1.5;" width="67" x="137" y="909.3984"/><text fill="#000000" font-family="sans-serif" font-size="14" lengthAdjust="spacingAndGlyphs" textLength="29" x="156" y="929.3936">FEM</text><text fill="#000000" font-family="sans-serif" font-size="14" lengthAdjust="spacingAndGlyphs" textLength="53" x="144" y="945.6904">module</text><rect fill="#FEFECE" filter="url(#f1lcoytfo498xe)" height="30.2969" style="stroke: #A80036; stroke-width: 1.5;" width="80" x="322.5" y="19.2969"/><text fill="#000000" font-family="sans-serif" font-size="14" lengthAdjust="spacingAndGlyphs" textLength="66" x="329.5" y="39.292">hardware</text><rect fill="#FEFECE" filter="url(#f1lcoytfo498xe)" height="30.2969" style="stroke: #A80036; stroke-width: 1.5;" width="80" x="322.5" y="909.3984"/><text fill="#000000" font-family="sans-serif" font-size="14" lengthAdjust="spacingAndGlyphs" textLength="66" x="329.5" y="929.3936">hardware</text><polygon fill="#A80036" points="160.5,111.9922,170.5,115.9922,160.5,119.9922,164.5,115.9922" style="stroke: #A80036; stroke-width: 1.0;"/><line style="stroke: #A80036; stroke-width: 1.0;" x1="57.5" x2="166.5" y1="115.9922" y2="115.9922"/><text fill="#000000" font-family="sans-serif" font-size="13" lengthAdjust="spacingAndGlyphs" textLength="91" x="64.5" y="80.6606">configure PDN</text><text fill="#000000" font-family="sans-serif" font-size="13" lengthAdjust="spacingAndGlyphs" textLength="90" x="64.5" y="95.7935">timer=TIMER0</text><text fill="#000000" font-family="sans-serif" font-size="13" lengthAdjust="spacingAndGlyphs" textLength="91" x="64.5" y="110.9263">event=rx_end</text><polygon fill="#A80036" points="352.5,156.2578,362.5,160.2578,352.5,164.2578,356.5,160.2578" style="stroke: #A80036; stroke-width: 1.0;"/><line style="stroke: #A80036; stroke-width: 1.0;" x1="172.5" x2="358.5" y1="160.2578" y2="160.2578"/><text fill="#000000" font-family="sans-serif" font-size="13" lengthAdjust="spacingAndGlyphs" textLength="131" x="179.5" y="140.0591">set TIMER0 compare</text><text fill="#000000" font-family="sans-serif" font-size="13" lengthAdjust="spacingAndGlyphs" textLength="94" x="179.5" y="155.1919">channel to 5us</text><polygon fill="#A80036" points="352.5,200.5234,362.5,204.5234,352.5,208.5234,356.5,204.5234" style="stroke: #A80036; stroke-width: 1.0;"/><line style="stroke: #A80036; stroke-width: 1.0;" x1="172.5" x2="358.5" y1="204.5234" y2="204.5234"/><text fill="#000000" font-family="sans-serif" font-size="13" lengthAdjust="spacingAndGlyphs" textLength="99" x="179.5" y="184.3247">connect rx_end</text><text fill="#000000" font-family="sans-serif" font-size="13" lengthAdjust="spacingAndGlyphs" textLength="112" x="179.5" y="199.4575">to TIMER0_START</text><polygon fill="#A80036" points="160.5,275.0547,170.5,279.0547,160.5,283.0547,164.5,279.0547" style="stroke: #A80036; stroke-width: 1.0;"/><line style="stroke: #A80036; stroke-width: 1.0;" x1="57.5" x2="166.5" y1="279.0547" y2="279.0547"/><text fill="#000000" font-family="sans-serif" font-size="13" lengthAdjust="spacingAndGlyphs" textLength="89" x="64.5" y="228.5903">configure LNA</text><text fill="#000000" font-family="sans-serif" font-size="13" lengthAdjust="spacingAndGlyphs" textLength="82" x="64.5" y="243.7231">time = 40 us</text><text fill="#000000" font-family="sans-serif" font-size="13" lengthAdjust="spacingAndGlyphs" textLength="90" x="64.5" y="258.856">timer=TIMER1</text><text fill="#000000" font-family="sans-serif" font-size="13" lengthAdjust="spacingAndGlyphs" textLength="91" x="64.5" y="273.9888">event=rx_end</text><line style="stroke: #A80036; stroke-width: 1.0;" x1="172.5" x2="214.5" y1="323.3203" y2="323.3203"/><line style="stroke: #A80036; stroke-width: 1.0;" x1="214.5" x2="214.5" y1="323.3203" y2="336.3203"/><line style="stroke: #A80036; stroke-width: 1.0;" x1="173.5" x2="214.5" y1="336.3203" y2="336.3203"/><polygon fill="#A80036" points="183.5,332.3203,173.5,336.3203,183.5,340.3203,179.5,336.3203" style="stroke: #A80036; stroke-width: 1.0;"/><text fill="#000000" font-family="sans-serif" font-size="13" lengthAdjust="spacingAndGlyphs" textLength="57" x="179.5" y="303.1216">calculate</text><text fill="#000000" font-family="sans-serif" font-size="13" lengthAdjust="spacingAndGlyphs" textLength="47" x="179.5" y="318.2544">timings</text><polygon fill="#A80036" points="352.5,376.5859,362.5,380.5859,352.5,384.5859,356.5,380.5859" style="stroke: #A80036; stroke-width: 1.0;"/><line style="stroke: #A80036; stroke-width: 1.0;" x1="172.5" x2="358.5" y1="380.5859" y2="380.5859"/><text fill="#000000" font-family="sans-serif" font-size="13" lengthAdjust="spacingAndGlyphs" textLength="131" x="179.5" y="360.3872">set TIMER0 compare</text><text fill="#000000" font-family="sans-serif" font-size="13" lengthAdjust="spacingAndGlyphs" textLength="168" x="179.5" y="375.52">channels to 9us and 27 us</text><polygon fill="#A80036" points="352.5,405.7188,362.5,409.7188,352.5,413.7188,356.5,409.7188" style="stroke: #A80036; stroke-width: 1.0;"/><line style="stroke: #A80036; stroke-width: 1.0;" x1="57.5" x2="358.5" y1="409.7188" y2="409.7188"/><text fill="#000000" font-family="sans-serif" font-size="13" lengthAdjust="spacingAndGlyphs" textLength="51" x="64.5" y="404.6528">start Rx</text><polygon fill="#A80036" points="352.5,434.8516,362.5,438.8516,352.5,442.8516,356.5,438.8516" style="stroke: #A80036; stroke-width: 1.0;"/><line style="stroke: #A80036; stroke-width: 1.0;" x1="57.5" x2="358.5" y1="438.8516" y2="438.8516"/><text fill="#000000" font-family="sans-serif" font-size="13" lengthAdjust="spacingAndGlyphs" textLength="80" x="64.5" y="433.7856">start TIMER1</text><text fill="#000000" font-family="sans-serif" font-size="11" lengthAdjust="spacingAndGlyphs" textLength="143" x="139.5" y="471.062">Waiting for TIMER1 event</text><polygon fill="#A80036" points="183.5,504.7891,173.5,508.7891,183.5,512.7891,179.5,508.7891" style="stroke: #A80036; stroke-width: 1.0;"/><line style="stroke: #A80036; stroke-width: 1.0;" x1="177.5" x2="363.5" y1="508.7891" y2="508.7891"/><text fill="#000000" font-family="sans-serif" font-size="13" lengthAdjust="spacingAndGlyphs" textLength="87" x="189.5" y="503.7231">TIMER1 event</text><polygon fill="#A80036" points="352.5,533.9219,362.5,537.9219,352.5,541.9219,356.5,537.9219" style="stroke: #A80036; stroke-width: 1.0;"/><line style="stroke: #A80036; stroke-width: 1.0;" x1="172.5" x2="358.5" y1="537.9219" y2="537.9219"/><text fill="#000000" font-family="sans-serif" font-size="13" lengthAdjust="spacingAndGlyphs" textLength="87" x="179.5" y="532.856">deassert PDN</text><text fill="#000000" font-family="sans-serif" font-size="11" lengthAdjust="spacingAndGlyphs" textLength="143" x="139.5" y="570.1323">Waiting for TIMER1 event</text><polygon fill="#A80036" points="183.5,603.8594,173.5,607.8594,183.5,611.8594,179.5,607.8594" style="stroke: #A80036; stroke-width: 1.0;"/><line style="stroke: #A80036; stroke-width: 1.0;" x1="177.5" x2="363.5" y1="607.8594" y2="607.8594"/><text fill="#000000" font-family="sans-serif" font-size="13" lengthAdjust="spacingAndGlyphs" textLength="87" x="189.5" y="602.7935">TIMER1 event</text><polygon fill="#A80036" points="352.5,632.9922,362.5,636.9922,352.5,640.9922,356.5,636.9922" style="stroke: #A80036; stroke-width: 1.0;"/><line style="stroke: #A80036; stroke-width: 1.0;" x1="172.5" x2="358.5" y1="636.9922" y2="636.9922"/><text fill="#000000" font-family="sans-serif" font-size="13" lengthAdjust="spacingAndGlyphs" textLength="81" x="179.5" y="631.9263">activate LNA</text><text fill="#000000" font-family="sans-serif" font-size="11" lengthAdjust="spacingAndGlyphs" textLength="72" x="175" y="669.2026">Rx operation</text><polygon fill="#A80036" points="183.5,702.9297,173.5,706.9297,183.5,710.9297,179.5,706.9297" style="stroke: #A80036; stroke-width: 1.0;"/><line style="stroke: #A80036; stroke-width: 1.0;" x1="177.5" x2="363.5" y1="706.9297" y2="706.9297"/><text fill="#000000" font-family="sans-serif" font-size="13" lengthAdjust="spacingAndGlyphs" textLength="44" x="189.5" y="701.8638">rx_end</text><line style="stroke: #A80036; stroke-width: 1.0;" x1="364.5" x2="406.5" y1="751.1953" y2="751.1953"/><line style="stroke: #A80036; stroke-width: 1.0;" x1="406.5" x2="406.5" y1="751.1953" y2="764.1953"/><line style="stroke: #A80036; stroke-width: 1.0;" x1="365.5" x2="406.5" y1="764.1953" y2="764.1953"/><polygon fill="#A80036" points="375.5,760.1953,365.5,764.1953,375.5,768.1953,371.5,764.1953" style="stroke: #A80036; stroke-width: 1.0;"/><text fill="#000000" font-family="sans-serif" font-size="13" lengthAdjust="spacingAndGlyphs" textLength="30" x="371.5" y="730.9966">start</text><text fill="#000000" font-family="sans-serif" font-size="13" lengthAdjust="spacingAndGlyphs" textLength="46" x="371.5" y="746.1294">TIMER0</text><polygon fill="#A80036" points="352.5,789.3281,362.5,793.3281,352.5,797.3281,356.5,793.3281" style="stroke: #A80036; stroke-width: 1.0;"/><line style="stroke: #A80036; stroke-width: 1.0;" x1="172.5" x2="358.5" y1="793.3281" y2="793.3281"/><text fill="#000000" font-family="sans-serif" font-size="13" lengthAdjust="spacingAndGlyphs" textLength="97" x="179.5" y="788.2622">deactivate LNA</text><text fill="#000000" font-family="sans-serif" font-size="11" lengthAdjust="spacingAndGlyphs" textLength="143" x="139.5" y="825.5386">Waiting for TIMER0 event</text><polygon fill="#A80036" points="183.5,859.2656,173.5,863.2656,183.5,867.2656,179.5,863.2656" style="stroke: #A80036; stroke-width: 1.0;"/><line style="stroke: #A80036; stroke-width: 1.0;" x1="177.5" x2="363.5" y1="863.2656" y2="863.2656"/><text fill="#000000" font-family="sans-serif" font-size="13" lengthAdjust="spacingAndGlyphs" textLength="87" x="189.5" y="858.1997">TIMER0 event</text><polygon fill="#A80036" points="352.5,888.3984,362.5,892.3984,352.5,896.3984,356.5,892.3984" style="stroke: #A80036; stroke-width: 1.0;"/><line style="stroke: #A80036; stroke-width: 1.0;" x1="172.5" x2="358.5" y1="892.3984" y2="892.3984"/><text fill="#000000" font-family="sans-serif" font-size="13" lengthAdjust="spacingAndGlyphs" textLength="71" x="179.5" y="887.3325">assert PDN</text><!--MD5=[8de33235a9c6eed3a73b642d75b7eea8]
@startuml
participant application as app
participant "FEM\nmodule" as fem
participant hardware as hw

app->fem: configure PDN\ntimer=TIMER0\nevent=rx_end
fem->hw: set TIMER0 compare\nchannel to 5us
fem->hw: connect rx_end\nto TIMER0_START 

app->fem: configure LNA\ntime = 40 us\ntimer=TIMER1\nevent=rx_end
fem->fem: calculate\ntimings
fem->hw: set TIMER0 compare\nchannels to 9us and 27 us

app->hw: start Rx
app->hw: start TIMER1
... Waiting for TIMER1 event ...

hw->fem: TIMER1 event
fem->hw: deassert PDN

... Waiting for TIMER1 event ...

hw->fem: TIMER1 event
fem->hw: activate LNA

... Rx operation ...

hw->fem: rx_end
hw<-hw: start\nTIMER0
fem->hw: deactivate LNA

... Waiting for TIMER0 event ...

hw->fem: TIMER0 event
fem->hw: assert PDN
@enduml

PlantUML version 1.2020.17beta5(Unknown compile time)
(GPL source distribution)
Java Runtime: Java(TM) SE Runtime Environment
JVM: Java HotSpot(TM) 64-Bit Server VM
Default Encoding: UTF-8
Language: en
Country: US
--></g></svg>