<?xml version="1.0" encoding="UTF-8" standalone="no"?><svg xmlns="http://www.w3.org/2000/svg" xmlns:xlink="http://www.w3.org/1999/xlink" contentScriptType="application/ecmascript" contentStyleType="text/css" height="263px" preserveAspectRatio="none" style="width:1023px;height:263px;background:#FFFFFF;" version="1.1" viewBox="0 0 1023 263" width="1023px" zoomAndPan="magnify"><defs/><g><line style="stroke:#000000;stroke-width:1.7;" x1="10" x2="10" y1="10" y2="233.2031"/><line style="stroke:#000000;stroke-width:1.7;" x1="1006" x2="1006" y1="10" y2="233.2031"/><rect fill="#ADD8E6" height="223.2031" style="stroke:none;stroke-width:1.0;" width="216" x="245" y="10"/><rect fill="#D3D3D3" height="223.2031" style="stroke:none;stroke-width:1.0;" width="156" x="461" y="10"/><rect fill="#ADD8E6" height="223.2031" style="stroke:none;stroke-width:1.0;" width="24" x="857" y="10"/><line style="stroke:#AAAAAA;stroke-width:0.5;stroke-dasharray:3.0,5.0;" x1="137" x2="137" y1="10" y2="233.2031"/><line style="stroke:#AAAAAA;stroke-width:0.5;stroke-dasharray:3.0,5.0;" x1="257" x2="257" y1="10" y2="233.2031"/><line style="stroke:#AAAAAA;stroke-width:0.5;stroke-dasharray:3.0,5.0;" x1="377" x2="377" y1="10" y2="233.2031"/><line style="stroke:#AAAAAA;stroke-width:0.5;stroke-dasharray:3.0,5.0;" x1="497" x2="497" y1="10" y2="233.2031"/><line style="stroke:#AAAAAA;stroke-width:0.5;stroke-dasharray:3.0,5.0;" x1="617" x2="617" y1="10" y2="233.2031"/><line style="stroke:#AAAAAA;stroke-width:0.5;stroke-dasharray:3.0,5.0;" x1="737" x2="737" y1="10" y2="233.2031"/><line style="stroke:#AAAAAA;stroke-width:0.5;stroke-dasharray:3.0,5.0;" x1="857" x2="857" y1="10" y2="233.2031"/><line style="stroke:#AAAAAA;stroke-width:0.5;stroke-dasharray:3.0,5.0;" x1="977" x2="977" y1="10" y2="233.2031"/><line style="stroke:#000000;stroke-width:1.7;" x1="10" x2="1006" y1="10" y2="10"/><text fill="#000000" font-family="sans-serif" font-size="12" lengthAdjust="spacing" textLength="62" x="15" y="21.1387">Operation</text><line style="stroke:#000000;stroke-width:1.0;" x1="10" x2="78" y1="24.9688" y2="24.9688"/><line style="stroke:#000000;stroke-width:1.0;" x1="78" x2="88" y1="24.9688" y2="10"/><polygon fill="#D7E0F2" points="91,57.9063,125,57.9063,137,69.9063,125,81.9063,91,81.9063" style="stroke:#D7E0F2;stroke-width:1.5;"/><path d="M91,57.9063 L125,57.9063 L137,69.9063 L125,81.9063 L91,81.9063 " fill="#D7E0F2" style="stroke:#038048;stroke-width:1.5;"/><text fill="#000000" font-family="sans-serif" font-size="12" lengthAdjust="spacing" textLength="22" x="103" y="74.0605">Idle</text><polygon fill="#D7E0F2" points="149,57.9063,605,57.9063,617,69.9063,605,81.9063,149,81.9063,137,69.9063" style="stroke:#038048;stroke-width:1.5;"/><polygon fill="#D7E0F2" points="629,57.9063,845,57.9063,857,69.9063,845,81.9063,629,81.9063,617,69.9063" style="stroke:#038048;stroke-width:1.5;"/><polygon fill="#D7E0F2" points="869,57.9063,1001,57.9063,1001,81.9063,869,81.9063,857,69.9063" style="stroke:#D7E0F2;stroke-width:1.5;"/><path d="M1001,57.9063 L869,57.9063 L857,69.9063 L869,81.9063 L1001,81.9063 " fill="#D7E0F2" style="stroke:#038048;stroke-width:1.5;"/><text fill="#000000" font-family="sans-serif" font-size="12" lengthAdjust="spacing" textLength="55" x="349.5" y="74.0605">Ramp-up</text><text fill="#000000" font-family="sans-serif" font-size="12" lengthAdjust="spacing" textLength="14" x="730" y="74.0605">Rx</text><text fill="#000000" font-family="sans-serif" font-size="12" lengthAdjust="spacing" textLength="22" x="869" y="74.0605">Idle</text><line style="stroke:#000000;stroke-width:1.7;" x1="10" x2="1006" y1="91.9063" y2="91.9063"/><text fill="#000000" font-family="sans-serif" font-size="12" lengthAdjust="spacing" textLength="96" x="15" y="121.709">TIMER1 running</text><line style="stroke:#038048;stroke-width:1.5;" x1="137" x2="137" y1="135.2031" y2="135.2031"/><line style="stroke:#038048;stroke-width:1.5;" x1="137" x2="137" y1="121.2031" y2="135.2031"/><line style="stroke:#038048;stroke-width:1.5;" x1="137" x2="461" y1="121.2031" y2="121.2031"/><line style="stroke:#038048;stroke-width:1.5;" x1="461" x2="461" y1="121.2031" y2="135.2031"/><line style="stroke:#038048;stroke-width:1.5;" x1="461" x2="1001" y1="135.2031" y2="135.2031"/><line style="stroke:#FF0000;stroke-width:1.5;" x1="137" x2="245" y1="113.2031" y2="113.2031"/><polygon fill="#FF0000" points="144.5175,110.467,144.5175,115.9393,137,113.2031" style="stroke:#FF0000;stroke-width:1.5;"/><polygon fill="#FF0000" points="237.4825,115.9393,237.4825,110.467,245,113.2031" style="stroke:#FF0000;stroke-width:1.5;"/><text fill="#000000" font-family="Serif" font-size="14" lengthAdjust="spacing" textLength="105" x="138.5" y="104.9014">40-11-18=9 us</text><line style="stroke:#FF0000;stroke-width:1.5;" x1="245" x2="461" y1="113.2031" y2="113.2031"/><polygon fill="#FF0000" points="252.5175,110.467,252.5175,115.9393,245,113.2031" style="stroke:#FF0000;stroke-width:1.5;"/><polygon fill="#FF0000" points="453.4825,115.9393,453.4825,110.467,461,113.2031" style="stroke:#FF0000;stroke-width:1.5;"/><text fill="#000000" font-family="Serif" font-size="14" lengthAdjust="spacing" textLength="38" x="334" y="104.9014">18 us</text><line style="stroke:#FF0000;stroke-width:1.5;" x1="461" x2="617" y1="113.2031" y2="113.2031"/><polygon fill="#FF0000" points="468.5175,110.467,468.5175,115.9393,461,113.2031" style="stroke:#FF0000;stroke-width:1.5;"/><polygon fill="#FF0000" points="609.4825,115.9393,609.4825,110.467,617,113.2031" style="stroke:#FF0000;stroke-width:1.5;"/><text fill="#000000" font-family="Serif" font-size="14" lengthAdjust="spacing" textLength="38" x="520" y="104.9014">13 us</text><line style="stroke:#000000;stroke-width:1.7;" x1="10" x2="1006" y1="143.2031" y2="143.2031"/><text fill="#000000" font-family="sans-serif" font-size="12" lengthAdjust="spacing" textLength="117" x="15" y="162.3574">Deactivation event</text><line style="stroke:#038048;stroke-width:1.5;" x1="137" x2="857" y1="165.2031" y2="165.2031"/><line style="stroke:#038048;stroke-width:1.5;" x1="857" x2="857" y1="151.2031" y2="165.2031"/><line style="stroke:#038048;stroke-width:1.5;" x1="857" x2="1001" y1="151.2031" y2="151.2031"/><line style="stroke:#000000;stroke-width:1.7;" x1="10" x2="1006" y1="173.2031" y2="173.2031"/><text fill="#000000" font-family="sans-serif" font-size="12" lengthAdjust="spacing" textLength="64" x="15" y="192.3574">LNA active</text><line style="stroke:#038048;stroke-width:1.5;" x1="137" x2="461" y1="195.2031" y2="195.2031"/><line style="stroke:#038048;stroke-width:1.5;" x1="461" x2="461" y1="181.2031" y2="195.2031"/><line style="stroke:#038048;stroke-width:1.5;" x1="461" x2="857" y1="181.2031" y2="181.2031"/><line style="stroke:#038048;stroke-width:1.5;" x1="857" x2="857" y1="181.2031" y2="195.2031"/><line style="stroke:#038048;stroke-width:1.5;" x1="857" x2="1001" y1="195.2031" y2="195.2031"/><line style="stroke:#000000;stroke-width:1.7;" x1="10" x2="1006" y1="203.2031" y2="203.2031"/><text fill="#000000" font-family="sans-serif" font-size="12" lengthAdjust="spacing" textLength="49" x="15" y="222.3574">PDN pin</text><line style="stroke:#038048;stroke-width:1.5;" x1="137" x2="245" y1="211.2031" y2="211.2031"/><line style="stroke:#038048;stroke-width:1.5;" x1="245" x2="245" y1="211.2031" y2="225.2031"/><line style="stroke:#038048;stroke-width:1.5;" x1="245" x2="881" y1="225.2031" y2="225.2031"/><line style="stroke:#038048;stroke-width:1.5;" x1="881" x2="881" y1="211.2031" y2="225.2031"/><line style="stroke:#038048;stroke-width:1.5;" x1="881" x2="1001" y1="211.2031" y2="211.2031"/><line style="stroke:#000000;stroke-width:2.0;" x1="137" x2="137" y1="233.2031" y2="238.2031"/><line style="stroke:#000000;stroke-width:2.0;" x1="257" x2="257" y1="233.2031" y2="238.2031"/><line style="stroke:#000000;stroke-width:2.0;" x1="377" x2="377" y1="233.2031" y2="238.2031"/><line style="stroke:#000000;stroke-width:2.0;" x1="497" x2="497" y1="233.2031" y2="238.2031"/><line style="stroke:#000000;stroke-width:2.0;" x1="617" x2="617" y1="233.2031" y2="238.2031"/><line style="stroke:#000000;stroke-width:2.0;" x1="737" x2="737" y1="233.2031" y2="238.2031"/><line style="stroke:#000000;stroke-width:2.0;" x1="857" x2="857" y1="233.2031" y2="238.2031"/><line style="stroke:#000000;stroke-width:2.0;" x1="977" x2="977" y1="233.2031" y2="238.2031"/><line style="stroke:#000000;stroke-width:2.0;" x1="137" x2="977" y1="233.2031" y2="233.2031"/><text fill="#000000" font-family="sans-serif" font-size="12" lengthAdjust="spacing" textLength="8" x="133" y="250.3418">0</text><text fill="#000000" font-family="sans-serif" font-size="12" lengthAdjust="spacing" textLength="16" x="249" y="250.3418">10</text><text fill="#000000" font-family="sans-serif" font-size="12" lengthAdjust="spacing" textLength="16" x="369" y="250.3418">20</text><text fill="#000000" font-family="sans-serif" font-size="12" lengthAdjust="spacing" textLength="16" x="489" y="250.3418">30</text><text fill="#000000" font-family="sans-serif" font-size="12" lengthAdjust="spacing" textLength="16" x="609" y="250.3418">40</text><text fill="#000000" font-family="sans-serif" font-size="12" lengthAdjust="spacing" textLength="16" x="729" y="250.3418">50</text><text fill="#000000" font-family="sans-serif" font-size="12" lengthAdjust="spacing" textLength="16" x="849" y="250.3418">60</text><text fill="#000000" font-family="sans-serif" font-size="12" lengthAdjust="spacing" textLength="16" x="969" y="250.3418">70</text><line style="stroke:#87CEEB;stroke-width:2.0;stroke-dasharray:4.0,4.0;" x1="245" x2="245" y1="10" y2="233.2031"/><line style="stroke:#87CEEB;stroke-width:2.0;stroke-dasharray:4.0,4.0;" x1="461" x2="461" y1="10" y2="233.2031"/><text fill="#000000" font-family="sans-serif" font-size="12" lengthAdjust="spacing" textLength="25" x="248" y="23.1387">FEM</text><text fill="#000000" font-family="sans-serif" font-size="12" lengthAdjust="spacing" textLength="52" x="248" y="37.1074">ramp-up</text><line style="stroke:#696969;stroke-width:2.0;stroke-dasharray:4.0,4.0;" x1="461" x2="461" y1="10" y2="233.2031"/><line style="stroke:#696969;stroke-width:2.0;stroke-dasharray:4.0,4.0;" x1="617" x2="617" y1="10" y2="233.2031"/><text fill="#000000" font-family="sans-serif" font-size="12" lengthAdjust="spacing" textLength="23" x="464" y="23.1387">LNA</text><text fill="#000000" font-family="sans-serif" font-size="12" lengthAdjust="spacing" textLength="52" x="464" y="37.1074">ramp-up</text><line style="stroke:#87CEEB;stroke-width:2.0;stroke-dasharray:4.0,4.0;" x1="857" x2="857" y1="10" y2="233.2031"/><line style="stroke:#87CEEB;stroke-width:2.0;stroke-dasharray:4.0,4.0;" x1="881" x2="881" y1="10" y2="233.2031"/><text fill="#000000" font-family="sans-serif" font-size="12" lengthAdjust="spacing" textLength="68" x="860" y="23.1387">SW latency</text><!--MD5=[fa83aeab63e0e5cb763c78eb2a2e0807]
@startuml
concise "Operation" as op
binary "TIMER1 running" as tm1
binary "Deactivation event" as ev
binary "LNA active" as lna
binary "PDN pin" as pdn

scale 10 as 120 pixels

tm1 is low
lna is low
op is "Idle"
ev is low
pdn is high

@0
op is "Ramp-up"
tm1 is high

@9
pdn is low

@27
tm1 is low
lna is high

tm1@0 <-> @9: 40-11-18=9 us
tm1@9 <-> @27: 18 us
tm1@27 <-> @40: 13 us
highlight 9  to 27 #LightBlue;line:SkyBlue : FEM\nramp-up
highlight 27 to 40 #LightGrey;line:DimGrey : LNA\nramp-up

@40
op is Rx

@60
op is "Idle"
lna is low
ev is high

@62
pdn is high

highlight 60 to 62 #LightBlue;line:SkyBlue : SW latency

@enduml

PlantUML version 1.2021.8(Sat Jun 26 10:20:59 CEST 2021)
(GPL source distribution)
Java Runtime: OpenJDK Runtime Environment
JVM: OpenJDK 64-Bit Server VM
Default Encoding: UTF-8
Language: en
Country: US
--></g></svg>