<svg xmlns="http://www.w3.org/2000/svg" xmlns:xlink="http://www.w3.org/1999/xlink" contentStyleType="text/css" data-diagram-type="TIMING" height="218px" preserveAspectRatio="none" style="width:912px;height:218px;background:#FFFFFF;" version="1.1" viewBox="0 0 912 218" width="912px" zoomAndPan="magnify"><defs/><g><line style="stroke:#000000;stroke-width:0.5;" x1="10" x2="10" y1="10" y2="189.2344"/><line style="stroke:#000000;stroke-width:0.5;" x1="894.6523" x2="894.6523" y1="10" y2="189.2344"/><rect fill="#6AD1E3" height="179.2344" style="stroke:transparent;stroke-width:1;" width="222" x="229.6523" y="10"/><rect fill="#00A9CE" height="179.2344" style="stroke:transparent;stroke-width:1;" width="78" x="451.6523" y="10"/><rect fill="#0077C8" height="179.2344" style="stroke:transparent;stroke-width:1;" width="30" x="769.6523" y="10"/><line style="stroke:#000000;stroke-width:0.5;stroke-dasharray:3.0,5.0;" x1="169.6523" x2="169.6523" y1="10" y2="189.2344"/><line style="stroke:#000000;stroke-width:0.5;stroke-dasharray:3.0,5.0;" x1="199.6523" x2="199.6523" y1="10" y2="189.2344"/><line style="stroke:#000000;stroke-width:0.5;stroke-dasharray:3.0,5.0;" x1="229.6523" x2="229.6523" y1="10" y2="189.2344"/><line style="stroke:#000000;stroke-width:0.5;stroke-dasharray:3.0,5.0;" x1="259.6523" x2="259.6523" y1="10" y2="189.2344"/><line style="stroke:#000000;stroke-width:0.5;stroke-dasharray:3.0,5.0;" x1="289.6523" x2="289.6523" y1="10" y2="189.2344"/><line style="stroke:#000000;stroke-width:0.5;stroke-dasharray:3.0,5.0;" x1="319.6523" x2="319.6523" y1="10" y2="189.2344"/><line style="stroke:#000000;stroke-width:0.5;stroke-dasharray:3.0,5.0;" x1="349.6523" x2="349.6523" y1="10" y2="189.2344"/><line style="stroke:#000000;stroke-width:0.5;stroke-dasharray:3.0,5.0;" x1="379.6523" x2="379.6523" y1="10" y2="189.2344"/><line style="stroke:#000000;stroke-width:0.5;stroke-dasharray:3.0,5.0;" x1="409.6523" x2="409.6523" y1="10" y2="189.2344"/><line style="stroke:#000000;stroke-width:0.5;stroke-dasharray:3.0,5.0;" x1="439.6523" x2="439.6523" y1="10" y2="189.2344"/><line style="stroke:#000000;stroke-width:0.5;stroke-dasharray:3.0,5.0;" x1="469.6523" x2="469.6523" y1="10" y2="189.2344"/><line style="stroke:#000000;stroke-width:0.5;stroke-dasharray:3.0,5.0;" x1="499.6523" x2="499.6523" y1="10" y2="189.2344"/><line style="stroke:#000000;stroke-width:0.5;stroke-dasharray:3.0,5.0;" x1="529.6523" x2="529.6523" y1="10" y2="189.2344"/><line style="stroke:#000000;stroke-width:0.5;stroke-dasharray:3.0,5.0;" x1="559.6523" x2="559.6523" y1="10" y2="189.2344"/><line style="stroke:#000000;stroke-width:0.5;stroke-dasharray:3.0,5.0;" x1="589.6523" x2="589.6523" y1="10" y2="189.2344"/><line style="stroke:#000000;stroke-width:0.5;stroke-dasharray:3.0,5.0;" x1="619.6523" x2="619.6523" y1="10" y2="189.2344"/><line style="stroke:#000000;stroke-width:0.5;stroke-dasharray:3.0,5.0;" x1="649.6523" x2="649.6523" y1="10" y2="189.2344"/><line style="stroke:#000000;stroke-width:0.5;stroke-dasharray:3.0,5.0;" x1="679.6523" x2="679.6523" y1="10" y2="189.2344"/><line style="stroke:#000000;stroke-width:0.5;stroke-dasharray:3.0,5.0;" x1="709.6523" x2="709.6523" y1="10" y2="189.2344"/><line style="stroke:#000000;stroke-width:0.5;stroke-dasharray:3.0,5.0;" x1="739.6523" x2="739.6523" y1="10" y2="189.2344"/><line style="stroke:#000000;stroke-width:0.5;stroke-dasharray:3.0,5.0;" x1="769.6523" x2="769.6523" y1="10" y2="189.2344"/><line style="stroke:#000000;stroke-width:0.5;stroke-dasharray:3.0,5.0;" x1="799.6523" x2="799.6523" y1="10" y2="189.2344"/><line style="stroke:#000000;stroke-width:0.5;stroke-dasharray:3.0,5.0;" x1="829.6523" x2="829.6523" y1="10" y2="189.2344"/><line style="stroke:#000000;stroke-width:0.5;stroke-dasharray:3.0,5.0;" x1="859.6523" x2="859.6523" y1="10" y2="189.2344"/><line style="stroke:#000000;stroke-width:0.5;stroke-dasharray:3.0,5.0;" x1="889.6523" x2="889.6523" y1="10" y2="189.2344"/><line style="stroke:#000000;stroke-width:0.5;" x1="10" x2="894.6523" y1="10" y2="10"/><text fill="#333333" font-family="sans-serif" font-size="14" font-weight="bold" lengthAdjust="spacing" textLength="50.3467" x="15" y="22.9951">RADIO</text><line style="stroke:#000000;stroke-width:0.5;" x1="10" x2="66.3467" y1="27.2969" y2="27.2969"/><line style="stroke:#000000;stroke-width:0.5;" x1="66.3467" x2="76.3467" y1="27.2969" y2="10"/><polygon fill="#E2E2F0" points="86.9063,65.2344,277.6523,65.2344,289.6523,77.2344,277.6523,89.2344,86.9063,89.2344" style="stroke:#E2E2F0;stroke-width:1.5;"/><path d="M86.9063,65.2344 L277.6523,65.2344 L289.6523,77.2344 L277.6523,89.2344 L86.9063,89.2344 " fill="#E2E2F0" style="stroke:#000000;stroke-width:1.5;"/><text fill="#333333" font-family="sans-serif" font-size="12" font-weight="bold" lengthAdjust="spacing" textLength="58.7461" x="98.9063" y="81.3887">Disabled</text><polygon fill="#E2E2F0" points="301.6523,65.2344,517.6523,65.2344,529.6523,77.2344,517.6523,89.2344,301.6523,89.2344,289.6523,77.2344" style="stroke:#000000;stroke-width:1.5;"/><polygon fill="#E2E2F0" points="541.6523,65.2344,757.6523,65.2344,769.6523,77.2344,757.6523,89.2344,541.6523,89.2344,529.6523,77.2344" style="stroke:#000000;stroke-width:1.5;"/><polygon fill="#E2E2F0" points="781.6523,65.2344,889.6523,65.2344,889.6523,89.2344,781.6523,89.2344,769.6523,77.2344" style="stroke:#E2E2F0;stroke-width:1.5;"/><path d="M889.6523,65.2344 L781.6523,65.2344 L769.6523,77.2344 L781.6523,89.2344 L889.6523,89.2344 " fill="#E2E2F0" style="stroke:#000000;stroke-width:1.5;"/><text fill="#333333" font-family="sans-serif" font-size="12" font-weight="bold" lengthAdjust="spacing" textLength="34.7637" x="392.2705" y="81.3887">RxRu</text><text fill="#333333" font-family="sans-serif" font-size="12" font-weight="bold" lengthAdjust="spacing" textLength="16.9805" x="641.1621" y="81.3887">Rx</text><text fill="#333333" font-family="sans-serif" font-size="12" font-weight="bold" lengthAdjust="spacing" textLength="58.7461" x="781.6523" y="81.3887">Disabled</text><line style="stroke:#000000;stroke-width:1.5;" x1="230.6523" x2="450.6523" y1="55.75" y2="55.75"/><polygon fill="#000000" points="238.6523,59.75,238.6523,51.75,230.6523,55.75" style="stroke:#000000;stroke-width:1;"/><polygon fill="#000000" points="442.6523,59.75,442.6523,51.75,450.6523,55.75" style="stroke:#000000;stroke-width:1;"/><text fill="#8B0000" font-family="sans-serif" font-size="12" lengthAdjust="spacing" textLength="56.8652" x="312.2197" y="47.9199">&gt;= 18 us</text><line style="stroke:#000000;stroke-width:1.5;" x1="452.6523" x2="528.6523" y1="55.75" y2="55.75"/><polygon fill="#000000" points="460.6523,59.75,460.6523,51.75,452.6523,55.75" style="stroke:#000000;stroke-width:1;"/><polygon fill="#000000" points="520.6523,59.75,520.6523,51.75,528.6523,55.75" style="stroke:#000000;stroke-width:1;"/><text fill="#8B0000" font-family="sans-serif" font-size="12" lengthAdjust="spacing" textLength="32.9414" x="474.1816" y="47.9199">13 us</text><line style="stroke:#000000;stroke-width:0.5;" x1="10" x2="894.6523" y1="99.2344" y2="99.2344"/><text fill="#333333" font-family="sans-serif" font-size="14" font-weight="bold" lengthAdjust="spacing" textLength="33.5986" x="15" y="119.0811">PDN</text><line style="stroke:#000000;stroke-width:2;" x1="169.6523" x2="169.6523" y1="121.2344" y2="121.2344"/><line style="stroke:#000000;stroke-width:2;" x1="169.6523" x2="229.6523" y1="121.2344" y2="121.2344"/><line style="stroke:#000000;stroke-width:2;" x1="229.6523" x2="229.6523" y1="107.2344" y2="121.2344"/><line style="stroke:#000000;stroke-width:2;" x1="229.6523" x2="799.6523" y1="107.2344" y2="107.2344"/><line style="stroke:#000000;stroke-width:2;" x1="799.6523" x2="799.6523" y1="107.2344" y2="121.2344"/><line style="stroke:#000000;stroke-width:2;" x1="799.6523" x2="889.6523" y1="121.2344" y2="121.2344"/><line style="stroke:#000000;stroke-width:0.5;" x1="10" x2="894.6523" y1="129.2344" y2="129.2344"/><text fill="#333333" font-family="sans-serif" font-size="14" font-weight="bold" lengthAdjust="spacing" textLength="49.8545" x="15" y="149.0811">RX_EN</text><line style="stroke:#000000;stroke-width:2;" x1="169.6523" x2="451.6523" y1="151.2344" y2="151.2344"/><line style="stroke:#000000;stroke-width:2;" x1="451.6523" x2="451.6523" y1="137.2344" y2="151.2344"/><line style="stroke:#000000;stroke-width:2;" x1="451.6523" x2="769.6523" y1="137.2344" y2="137.2344"/><line style="stroke:#000000;stroke-width:2;" x1="769.6523" x2="769.6523" y1="137.2344" y2="151.2344"/><line style="stroke:#000000;stroke-width:2;" x1="769.6523" x2="889.6523" y1="151.2344" y2="151.2344"/><line style="stroke:#000000;stroke-width:0.5;" x1="10" x2="894.6523" y1="159.2344" y2="159.2344"/><text fill="#333333" font-family="sans-serif" font-size="14" font-weight="bold" lengthAdjust="spacing" textLength="149.6523" x="15" y="179.0811">Deactivation event</text><line style="stroke:#000000;stroke-width:2;" x1="169.6523" x2="769.6523" y1="181.2344" y2="181.2344"/><line style="stroke:#000000;stroke-width:2;" x1="769.6523" x2="769.6523" y1="167.2344" y2="181.2344"/><line style="stroke:#000000;stroke-width:2;" x1="769.6523" x2="889.6523" y1="167.2344" y2="167.2344"/><line style="stroke:#000000;stroke-width:2;" x1="289.6523" x2="289.6523" y1="189.2344" y2="194.2344"/><line style="stroke:#000000;stroke-width:2;" x1="319.6523" x2="319.6523" y1="189.2344" y2="194.2344"/><line style="stroke:#000000;stroke-width:2;" x1="349.6523" x2="349.6523" y1="189.2344" y2="194.2344"/><line style="stroke:#000000;stroke-width:2;" x1="379.6523" x2="379.6523" y1="189.2344" y2="194.2344"/><line style="stroke:#000000;stroke-width:2;" x1="409.6523" x2="409.6523" y1="189.2344" y2="194.2344"/><line style="stroke:#000000;stroke-width:2;" x1="439.6523" x2="439.6523" y1="189.2344" y2="194.2344"/><line style="stroke:#000000;stroke-width:2;" x1="469.6523" x2="469.6523" y1="189.2344" y2="194.2344"/><line style="stroke:#000000;stroke-width:2;" x1="499.6523" x2="499.6523" y1="189.2344" y2="194.2344"/><line style="stroke:#000000;stroke-width:2;" x1="529.6523" x2="529.6523" y1="189.2344" y2="194.2344"/><line style="stroke:#000000;stroke-width:2;" x1="559.6523" x2="559.6523" y1="189.2344" y2="194.2344"/><line style="stroke:#000000;stroke-width:2;" x1="589.6523" x2="589.6523" y1="189.2344" y2="194.2344"/><line style="stroke:#000000;stroke-width:2;" x1="619.6523" x2="619.6523" y1="189.2344" y2="194.2344"/><line style="stroke:#000000;stroke-width:2;" x1="649.6523" x2="649.6523" y1="189.2344" y2="194.2344"/><line style="stroke:#000000;stroke-width:2;" x1="679.6523" x2="679.6523" y1="189.2344" y2="194.2344"/><line style="stroke:#000000;stroke-width:2;" x1="709.6523" x2="709.6523" y1="189.2344" y2="194.2344"/><line style="stroke:#000000;stroke-width:2;" x1="739.6523" x2="739.6523" y1="189.2344" y2="194.2344"/><line style="stroke:#000000;stroke-width:2;" x1="769.6523" x2="769.6523" y1="189.2344" y2="194.2344"/><line style="stroke:#000000;stroke-width:2;" x1="799.6523" x2="799.6523" y1="189.2344" y2="194.2344"/><line style="stroke:#000000;stroke-width:2;" x1="829.6523" x2="829.6523" y1="189.2344" y2="194.2344"/><line style="stroke:#000000;stroke-width:2;" x1="859.6523" x2="859.6523" y1="189.2344" y2="194.2344"/><line style="stroke:#000000;stroke-width:2;" x1="889.6523" x2="889.6523" y1="189.2344" y2="194.2344"/><line style="stroke:#000000;stroke-width:2;" x1="289.6523" x2="889.6523" y1="189.2344" y2="189.2344"/><text fill="#333333" font-family="sans-serif" font-size="11" lengthAdjust="spacing" textLength="17.9663" x="160.6692" y="205.4448">-20</text><text fill="#333333" font-family="sans-serif" font-size="11" lengthAdjust="spacing" textLength="17.9663" x="190.6692" y="205.4448">-15</text><text fill="#333333" font-family="sans-serif" font-size="11" lengthAdjust="spacing" textLength="17.9663" x="220.6692" y="205.4448">-10</text><text fill="#333333" font-family="sans-serif" font-size="11" lengthAdjust="spacing" textLength="10.9678" x="254.1685" y="205.4448">-5</text><text fill="#333333" font-family="sans-serif" font-size="11" lengthAdjust="spacing" textLength="6.9985" x="286.1531" y="205.4448">0</text><text fill="#333333" font-family="sans-serif" font-size="11" lengthAdjust="spacing" textLength="6.9985" x="316.1531" y="205.4448">5</text><text fill="#333333" font-family="sans-serif" font-size="11" lengthAdjust="spacing" textLength="13.9971" x="342.6538" y="205.4448">10</text><text fill="#333333" font-family="sans-serif" font-size="11" lengthAdjust="spacing" textLength="13.9971" x="372.6538" y="205.4448">15</text><text fill="#333333" font-family="sans-serif" font-size="11" lengthAdjust="spacing" textLength="13.9971" x="402.6538" y="205.4448">20</text><text fill="#333333" font-family="sans-serif" font-size="11" lengthAdjust="spacing" textLength="13.9971" x="432.6538" y="205.4448">25</text><text fill="#333333" font-family="sans-serif" font-size="11" lengthAdjust="spacing" textLength="13.9971" x="462.6538" y="205.4448">30</text><text fill="#333333" font-family="sans-serif" font-size="11" lengthAdjust="spacing" textLength="13.9971" x="492.6538" y="205.4448">35</text><text fill="#333333" font-family="sans-serif" font-size="11" lengthAdjust="spacing" textLength="13.9971" x="522.6538" y="205.4448">40</text><text fill="#333333" font-family="sans-serif" font-size="11" lengthAdjust="spacing" textLength="13.9971" x="552.6538" y="205.4448">45</text><text fill="#333333" font-family="sans-serif" font-size="11" lengthAdjust="spacing" textLength="13.9971" x="582.6538" y="205.4448">50</text><text fill="#333333" font-family="sans-serif" font-size="11" lengthAdjust="spacing" textLength="13.9971" x="612.6538" y="205.4448">55</text><text fill="#333333" font-family="sans-serif" font-size="11" lengthAdjust="spacing" textLength="13.9971" x="642.6538" y="205.4448">60</text><text fill="#333333" font-family="sans-serif" font-size="11" lengthAdjust="spacing" textLength="13.9971" x="672.6538" y="205.4448">65</text><text fill="#333333" font-family="sans-serif" font-size="11" lengthAdjust="spacing" textLength="13.9971" x="702.6538" y="205.4448">70</text><text fill="#333333" font-family="sans-serif" font-size="11" lengthAdjust="spacing" textLength="13.9971" x="732.6538" y="205.4448">75</text><text fill="#333333" font-family="sans-serif" font-size="11" lengthAdjust="spacing" textLength="13.9971" x="762.6538" y="205.4448">80</text><text fill="#333333" font-family="sans-serif" font-size="11" lengthAdjust="spacing" textLength="13.9971" x="792.6538" y="205.4448">85</text><text fill="#333333" font-family="sans-serif" font-size="11" lengthAdjust="spacing" textLength="13.9971" x="822.6538" y="205.4448">90</text><text fill="#333333" font-family="sans-serif" font-size="11" lengthAdjust="spacing" textLength="13.9971" x="852.6538" y="205.4448">95</text><text fill="#333333" font-family="sans-serif" font-size="11" lengthAdjust="spacing" textLength="20.9956" x="879.1545" y="205.4448">100</text><line style="stroke:#696969;stroke-width:2;stroke-dasharray:4.0,4.0;" x1="229.6523" x2="229.6523" y1="10" y2="189.2344"/><line style="stroke:#696969;stroke-width:2;stroke-dasharray:4.0,4.0;" x1="451.6523" x2="451.6523" y1="10" y2="189.2344"/><text fill="#000000" font-family="sans-serif" font-size="12" lengthAdjust="spacing" textLength="79.7988" x="232.6523" y="23.1387">FEM ramp-up</text><line style="stroke:#696969;stroke-width:2;stroke-dasharray:4.0,4.0;" x1="451.6523" x2="451.6523" y1="10" y2="189.2344"/><line style="stroke:#696969;stroke-width:2;stroke-dasharray:4.0,4.0;" x1="529.6523" x2="529.6523" y1="10" y2="189.2344"/><text fill="#000000" font-family="sans-serif" font-size="12" lengthAdjust="spacing" textLength="78.832" x="454.6523" y="23.1387">LNA ramp-up</text><line style="stroke:#696969;stroke-width:2;stroke-dasharray:4.0,4.0;" x1="769.6523" x2="769.6523" y1="10" y2="189.2344"/><line style="stroke:#696969;stroke-width:2;stroke-dasharray:4.0,4.0;" x1="799.6523" x2="799.6523" y1="10" y2="189.2344"/><text fill="#000000" font-family="sans-serif" font-size="12" lengthAdjust="spacing" textLength="70.7285" x="772.6523" y="23.1387">SW Latency</text><!--SRC=[RLFVJy8m47w_l-A4HqFSdFW3aJ1f5PE9Pc3KfwMCYWrb8ziW4EF_RjSfwoQyqDvzttTtttf7C_uX8ewZE9c9SBpOOVESpMpkm54bSolN79kMvLuDQ2tbiOLENLmCBW-mKiaodNSSrwfJnVmpkq-ugagkg4rF0RffjfEy1vbOYcXE19idR8bVWEhdAUOWbd62Kyd21Nn3z-GN3cd89CSsiXGT2rTYosKA4CPHA5AE3Tyb3q-DFAjFC1KHItROU2OZ7LN_-vZ_5j0Yga_xEE4ipCI6PIAEa6zub6aGeG2WLL6ecqZPLF8PACNyRe4MAOxGFxDoIaV30v-wv1twvgrL1RpvBy5uulgJ4hKFjUm2gWe5Ope9XW_tmvgOxHHYUGS7yiUrOdH4L8iLGLMadAIM-qlOSA2xqX5_wwyreknYRub9rMOOB5CrxupGWc7u-T_rAkUuNN78Utgj36CYxNPzFEosUcYsZHtitQ1zYUkqCiuVi1n38PNr2WQVweNB_9LNlnDciVbPolMxbkgDTuXOwgteu1rzHBK0gzPwPMePLArab2uthwxbZTo3MgKBMinmozZmkjZu5Jsrs56u-m40]--></g></svg>