<svg xmlns="http://www.w3.org/2000/svg" xmlns:xlink="http://www.w3.org/1999/xlink" contentStyleType="text/css" data-diagram-type="SEQUENCE" height="738px" preserveAspectRatio="none" style="width:650px;height:738px;background:#FFFFFF;" version="1.1" viewBox="0 0 650 738" width="650px" zoomAndPan="magnify"><defs/><g><g><title>Application</title><rect fill="transparent" height="273.4609" width="8" x="47.1118" y="36.2969"/><line style="stroke:#181818;stroke-width:0.5;stroke-dasharray:5.0,5.0;" x1="51" x2="51" y1="36.2969" y2="309.7578"/></g><line style="stroke:#A80036;stroke-width:1;stroke-dasharray:1.0,4.0;" x1="51" x2="51" y1="309.7578" y2="350.5625"/><g><title>Application</title><rect fill="transparent" height="99.3984" width="8" x="47.1118" y="350.5625"/><line style="stroke:#181818;stroke-width:0.5;stroke-dasharray:5.0,5.0;" x1="51" x2="51" y1="350.5625" y2="449.9609"/></g><line style="stroke:#A80036;stroke-width:1;stroke-dasharray:1.0,4.0;" x1="51" x2="51" y1="449.9609" y2="490.7656"/><g><title>Application</title><rect fill="transparent" height="212.9297" width="8" x="47.1118" y="490.7656"/><line style="stroke:#181818;stroke-width:0.5;stroke-dasharray:5.0,5.0;" x1="51" x2="51" y1="490.7656" y2="703.6953"/></g><g><title>FEM module</title><rect fill="transparent" height="273.4609" width="8" x="301.9126" y="36.2969"/><line style="stroke:#181818;stroke-width:0.5;stroke-dasharray:5.0,5.0;" x1="304.9658" x2="304.9658" y1="36.2969" y2="309.7578"/></g><line style="stroke:#A80036;stroke-width:1;stroke-dasharray:1.0,4.0;" x1="304.9658" x2="304.9658" y1="309.7578" y2="350.5625"/><g><title>FEM module</title><rect fill="transparent" height="99.3984" width="8" x="301.9126" y="350.5625"/><line style="stroke:#181818;stroke-width:0.5;stroke-dasharray:5.0,5.0;" x1="304.9658" x2="304.9658" y1="350.5625" y2="449.9609"/></g><line style="stroke:#A80036;stroke-width:1;stroke-dasharray:1.0,4.0;" x1="304.9658" x2="304.9658" y1="449.9609" y2="490.7656"/><g><title>FEM module</title><rect fill="transparent" height="212.9297" width="8" x="301.9126" y="490.7656"/><line style="stroke:#181818;stroke-width:0.5;stroke-dasharray:5.0,5.0;" x1="304.9658" x2="304.9658" y1="490.7656" y2="703.6953"/></g><g><title>Hardware</title><rect fill="transparent" height="273.4609" width="8" x="492.7861" y="36.2969"/><line style="stroke:#181818;stroke-width:0.5;stroke-dasharray:5.0,5.0;" x1="496.7124" x2="496.7124" y1="36.2969" y2="309.7578"/></g><line style="stroke:#A80036;stroke-width:1;stroke-dasharray:1.0,4.0;" x1="496.7124" x2="496.7124" y1="309.7578" y2="350.5625"/><g><title>Hardware</title><rect fill="transparent" height="99.3984" width="8" x="492.7861" y="350.5625"/><line style="stroke:#181818;stroke-width:0.5;stroke-dasharray:5.0,5.0;" x1="496.7124" x2="496.7124" y1="350.5625" y2="449.9609"/></g><line style="stroke:#A80036;stroke-width:1;stroke-dasharray:1.0,4.0;" x1="496.7124" x2="496.7124" y1="449.9609" y2="490.7656"/><g><title>Hardware</title><rect fill="transparent" height="212.9297" width="8" x="492.7861" y="490.7656"/><line style="stroke:#181818;stroke-width:0.5;stroke-dasharray:5.0,5.0;" x1="496.7124" x2="496.7124" y1="490.7656" y2="703.6953"/></g><rect fill="#00A9CE" height="30.2969" rx="2.5" ry="2.5" style="stroke:#181818;stroke-width:0.5;" width="92.2236" x="5" y="5"/><text fill="#FFFFFF" font-family="sans-serif" font-size="14" lengthAdjust="spacing" textLength="78.2236" x="12" y="24.9951">Application</text><rect fill="#00A9CE" height="30.2969" rx="2.5" ry="2.5" style="stroke:#181818;stroke-width:0.5;" width="92.2236" x="5" y="702.6953"/><text fill="#FFFFFF" font-family="sans-serif" font-size="14" lengthAdjust="spacing" textLength="78.2236" x="12" y="722.6904">Application</text><rect fill="#00A9CE" height="30.2969" rx="2.5" ry="2.5" style="stroke:#181818;stroke-width:0.5;" width="99.8936" x="255.9658" y="5"/><text fill="#FFFFFF" font-family="sans-serif" font-size="14" lengthAdjust="spacing" textLength="85.8936" x="262.9658" y="24.9951">FEM module</text><rect fill="#00A9CE" height="30.2969" rx="2.5" ry="2.5" style="stroke:#181818;stroke-width:0.5;" width="99.8936" x="255.9658" y="702.6953"/><text fill="#FFFFFF" font-family="sans-serif" font-size="14" lengthAdjust="spacing" textLength="85.8936" x="262.9658" y="722.6904">FEM module</text><rect fill="#00A9CE" height="30.2969" rx="2.5" ry="2.5" style="stroke:#181818;stroke-width:0.5;" width="82.1475" x="455.7124" y="5"/><text fill="#FFFFFF" font-family="sans-serif" font-size="14" lengthAdjust="spacing" textLength="68.1475" x="462.7124" y="24.9951">Hardware</text><rect fill="#00A9CE" height="30.2969" rx="2.5" ry="2.5" style="stroke:#181818;stroke-width:0.5;" width="82.1475" x="455.7124" y="702.6953"/><text fill="#FFFFFF" font-family="sans-serif" font-size="14" lengthAdjust="spacing" textLength="68.1475" x="462.7124" y="722.6904">Hardware</text><polygon fill="#181818" points="293.9126,63.4297,303.9126,67.4297,293.9126,71.4297,297.9126,67.4297" style="stroke:#181818;stroke-width:1;"/><line style="stroke:#181818;stroke-width:1;" x1="51.1118" x2="299.9126" y1="67.4297" y2="67.4297"/><text fill="#000000" font-family="sans-serif" font-size="13" lengthAdjust="spacing" textLength="123.7476" x="58.1118" y="62.3638">mpsl_fem_enable()</text><polygon fill="#181818" points="484.7861,92.5625,494.7861,96.5625,484.7861,100.5625,488.7861,96.5625" style="stroke:#181818;stroke-width:1;"/><line style="stroke:#181818;stroke-width:1;" x1="305.9126" x2="490.7861" y1="96.5625" y2="96.5625"/><text fill="#000000" font-family="sans-serif" font-size="13" lengthAdjust="spacing" textLength="108.5195" x="312.9126" y="91.4966">activate PDN pin</text><polygon fill="#181818" points="293.9126,182.2266,303.9126,186.2266,293.9126,190.2266,297.9126,186.2266" style="stroke:#181818;stroke-width:1;"/><line style="stroke:#181818;stroke-width:1;" x1="51.1118" x2="299.9126" y1="186.2266" y2="186.2266"/><text fill="#000000" font-family="sans-serif" font-size="13" lengthAdjust="spacing" textLength="218.6006" x="58.1118" y="120.6294">mpsl_fem_lna_configuration_set()</text><text fill="#000000" font-family="sans-serif" font-size="13" lengthAdjust="spacing" textLength="91.3555" x="58.1118" y="135.7622">configure LNA</text><text fill="#000000" font-family="sans-serif" font-size="13" lengthAdjust="spacing" textLength="80.082" x="58.1118" y="150.895">time = 40us</text><text fill="#000000" font-family="sans-serif" font-size="13" lengthAdjust="spacing" textLength="94.1167" x="58.1118" y="166.0278">timer=TIMER0</text><text fill="#000000" font-family="sans-serif" font-size="13" lengthAdjust="spacing" textLength="91.9458" x="58.1118" y="181.1606">event=rx_end</text><line style="stroke:#181818;stroke-width:1;" x1="305.9126" x2="347.9126" y1="215.3594" y2="215.3594"/><line style="stroke:#181818;stroke-width:1;" x1="347.9126" x2="347.9126" y1="215.3594" y2="228.3594"/><line style="stroke:#181818;stroke-width:1;" x1="306.9126" x2="347.9126" y1="228.3594" y2="228.3594"/><polygon fill="#181818" points="316.9126,224.3594,306.9126,228.3594,316.9126,232.3594,312.9126,228.3594" style="stroke:#181818;stroke-width:1;"/><text fill="#000000" font-family="sans-serif" font-size="13" lengthAdjust="spacing" textLength="111.1665" x="312.9126" y="210.2935">calculate timings</text><polygon fill="#181818" points="484.7861,253.4922,494.7861,257.4922,484.7861,261.4922,488.7861,257.4922" style="stroke:#181818;stroke-width:1;"/><line style="stroke:#181818;stroke-width:1;" x1="305.9126" x2="490.7861" y1="257.4922" y2="257.4922"/><text fill="#000000" font-family="sans-serif" font-size="13" lengthAdjust="spacing" textLength="166.8735" x="312.9126" y="252.4263">configure TIMER0 to 27us</text><polygon fill="#181818" points="484.7861,297.7578,494.7861,301.7578,484.7861,305.7578,488.7861,301.7578" style="stroke:#181818;stroke-width:1;"/><line style="stroke:#181818;stroke-width:1;" x1="51.1118" x2="490.7861" y1="301.7578" y2="301.7578"/><text fill="#000000" font-family="sans-serif" font-size="13" lengthAdjust="spacing" textLength="51.1367" x="58.1118" y="281.5591">start Rx</text><text fill="#000000" font-family="sans-serif" font-size="13" lengthAdjust="spacing" textLength="82.9194" x="58.1118" y="296.6919">start TIMER0</text><text fill="#000000" font-family="sans-serif" font-size="11" lengthAdjust="spacing" textLength="139.9868" x="203.9556" y="333.9683">Waiting for TIMER0 event</text><line style="stroke:#181818;stroke-width:1;" x1="496.7861" x2="538.7861" y1="386.8281" y2="386.8281"/><line style="stroke:#181818;stroke-width:1;" x1="538.7861" x2="538.7861" y1="386.8281" y2="399.8281"/><line style="stroke:#181818;stroke-width:1;" x1="497.7861" x2="538.7861" y1="399.8281" y2="399.8281"/><polygon fill="#181818" points="507.7861,395.8281,497.7861,399.8281,507.7861,403.8281,503.7861,399.8281" style="stroke:#181818;stroke-width:1;"/><text fill="#000000" font-family="sans-serif" font-size="13" lengthAdjust="spacing" textLength="89.667" x="503.7861" y="366.6294">TIMER0 event</text><text fill="#000000" font-family="sans-serif" font-size="13" lengthAdjust="spacing" textLength="123.3223" x="503.7861" y="381.7622">activate RX_EN pin</text><line style="stroke:#181818;stroke-width:1;" x1="496.7861" x2="538.7861" y1="428.9609" y2="428.9609"/><line style="stroke:#181818;stroke-width:1;" x1="538.7861" x2="538.7861" y1="428.9609" y2="441.9609"/><line style="stroke:#181818;stroke-width:1;" x1="497.7861" x2="538.7861" y1="441.9609" y2="441.9609"/><polygon fill="#181818" points="507.7861,437.9609,497.7861,441.9609,507.7861,445.9609,503.7861,441.9609" style="stroke:#181818;stroke-width:1;"/><text fill="#000000" font-family="sans-serif" font-size="13" lengthAdjust="spacing" textLength="131.3838" x="503.7861" y="423.895">RADIO READY event</text><text fill="#000000" font-family="sans-serif" font-size="11" lengthAdjust="spacing" textLength="71.4893" x="238.2043" y="474.1714">RX operation</text><polygon fill="#181818" points="484.7861,507.8984,494.7861,511.8984,484.7861,515.8984,488.7861,511.8984" style="stroke:#181818;stroke-width:1;"/><line style="stroke:#181818;stroke-width:1;" x1="51.1118" x2="490.7861" y1="511.8984" y2="511.8984"/><text fill="#000000" font-family="sans-serif" font-size="13" lengthAdjust="spacing" textLength="48.9341" x="58.1118" y="506.8325">stop Rx</text><line style="stroke:#181818;stroke-width:1;" x1="496.7861" x2="538.7861" y1="556.1641" y2="556.1641"/><line style="stroke:#181818;stroke-width:1;" x1="538.7861" x2="538.7861" y1="556.1641" y2="569.1641"/><line style="stroke:#181818;stroke-width:1;" x1="497.7861" x2="538.7861" y1="569.1641" y2="569.1641"/><polygon fill="#181818" points="507.7861,565.1641,497.7861,569.1641,507.7861,573.1641,503.7861,569.1641" style="stroke:#181818;stroke-width:1;"/><text fill="#000000" font-family="sans-serif" font-size="13" lengthAdjust="spacing" textLength="85.1855" x="503.7861" y="535.9653">rx_end event</text><text fill="#000000" font-family="sans-serif" font-size="13" lengthAdjust="spacing" textLength="139.5723" x="503.7861" y="551.0981">deactivate RX_EN pin</text><polygon fill="#181818" points="293.9126,594.2969,303.9126,598.2969,293.9126,602.2969,297.9126,598.2969" style="stroke:#181818;stroke-width:1;"/><line style="stroke:#181818;stroke-width:1;" x1="51.1118" x2="299.9126" y1="598.2969" y2="598.2969"/><text fill="#000000" font-family="sans-serif" font-size="13" lengthAdjust="spacing" textLength="230.8008" x="58.1118" y="593.231">mpsl_fem_lna_configuartion_clear()</text><polygon fill="#181818" points="484.7861,623.4297,494.7861,627.4297,484.7861,631.4297,488.7861,627.4297" style="stroke:#181818;stroke-width:1;"/><line style="stroke:#181818;stroke-width:1;" x1="305.9126" x2="490.7861" y1="627.4297" y2="627.4297"/><text fill="#000000" font-family="sans-serif" font-size="13" lengthAdjust="spacing" textLength="130.2539" x="312.9126" y="622.3638">deconfigure TIMER0</text><polygon fill="#181818" points="293.9126,652.5625,303.9126,656.5625,293.9126,660.5625,297.9126,656.5625" style="stroke:#181818;stroke-width:1;"/><line style="stroke:#181818;stroke-width:1;" x1="51.1118" x2="299.9126" y1="656.5625" y2="656.5625"/><text fill="#000000" font-family="sans-serif" font-size="13" lengthAdjust="spacing" textLength="126.147" x="58.1118" y="651.4966">mpsl_fem_disable()</text><polygon fill="#181818" points="484.7861,681.6953,494.7861,685.6953,484.7861,689.6953,488.7861,685.6953" style="stroke:#181818;stroke-width:1;"/><line style="stroke:#181818;stroke-width:1;" x1="305.9126" x2="490.7861" y1="685.6953" y2="685.6953"/><text fill="#000000" font-family="sans-serif" font-size="13" lengthAdjust="spacing" textLength="124.7695" x="312.9126" y="680.6294">deactivate PDN pin</text><!--SRC=[XL9XJzim4FtkNt705_YmAeD97PKwARHXHO8EHPFAf4YHvroBLUVisGumJVllS-8LcZ2qV8hzthrxVdS75Qub8IorhQIuK0qwnJt2KPASdQK9EtY5jr1wFii6q3NVTj1uFFiuXEJctd-s-1EEvkVP- -oKCRULPBZbDJZyqI09X5yCmdVBhPT26ax-Weljnkg6gfbMskvP638lDVd8URoN7jblnimB2eUfCKeAxgMcG-0EmhbFkCnkeDPLex33mx6FBxYj7hcDw6B5M520TvzQ8aoWDawLQwnB9FvTuV49Q-y3l5X1WBdmyg7Dz7Q-12FfZM95l1IQrdBJsCvgwT0VdnIqkqIuNgO5ULaZJE53qhXuiDElLpTPdXI43qX-Qf-2aMhd8NOHN8cc6soeaBHnVOilBQ8KU0sduyOzFpJG9k1yo0JofuBYN-GoDXgDLbpw80lhC8E_4fsP034MYdSI-rX1pydaTsKMizdZvkdywWlaMJh_5WjOrog_0sqmHjJ9zorg4npkoyGuTYqh_4TJzl-HjDiGHY8KSjiRy0Gg7CRtXbmbtQlzQCk72_87]--></g></svg>