<?xml version="1.0" encoding="UTF-8" standalone="no"?>
<svg xmlns="http://www.w3.org/2000/svg" xmlns:xlink="http://www.w3.org/1999/xlink" contentScriptType="application/ecmascript" contentStyleType="text/css" height="315px" preserveAspectRatio="none" style="width:994px;height:315px;" version="1.1" viewBox="0 0 994 315" width="994px" zoomAndPan="magnify"><defs/><g><line style="stroke: #000000; stroke-width: 1.7;" x1="10" x2="10" y1="10" y2="284.5"/><line style="stroke: #000000; stroke-width: 1.7;" x1="977" x2="977" y1="10" y2="284.5"/><rect fill="#ADD8E6" height="274.5" style="stroke: none; stroke-width: 1.0;" width="216" x="240" y="10"/><rect fill="#D3D3D3" height="274.5" style="stroke: none; stroke-width: 1.0;" width="156" x="456" y="10"/><rect fill="#ADD8E6" height="274.5" style="stroke: none; stroke-width: 1.0;" width="60" x="852" y="10"/><line style="stroke: #AAAAAA; stroke-width: 0.5; stroke-dasharray: 3.0,5.0;" x1="132" x2="132" y1="10" y2="284.5"/><line style="stroke: #AAAAAA; stroke-width: 0.5; stroke-dasharray: 3.0,5.0;" x1="252" x2="252" y1="10" y2="284.5"/><line style="stroke: #AAAAAA; stroke-width: 0.5; stroke-dasharray: 3.0,5.0;" x1="372" x2="372" y1="10" y2="284.5"/><line style="stroke: #AAAAAA; stroke-width: 0.5; stroke-dasharray: 3.0,5.0;" x1="492" x2="492" y1="10" y2="284.5"/><line style="stroke: #AAAAAA; stroke-width: 0.5; stroke-dasharray: 3.0,5.0;" x1="612" x2="612" y1="10" y2="284.5"/><line style="stroke: #AAAAAA; stroke-width: 0.5; stroke-dasharray: 3.0,5.0;" x1="732" x2="732" y1="10" y2="284.5"/><line style="stroke: #AAAAAA; stroke-width: 0.5; stroke-dasharray: 3.0,5.0;" x1="852" x2="852" y1="10" y2="284.5"/><line style="stroke: #AAAAAA; stroke-width: 0.5; stroke-dasharray: 3.0,5.0;" x1="972" x2="972" y1="10" y2="284.5"/><line style="stroke: #000000; stroke-width: 1.7;" x1="10" x2="977" y1="10" y2="10"/><text fill="#000000" font-family="sans-serif" font-size="12" lengthAdjust="spacingAndGlyphs" textLength="60" x="15" y="21.1387">Operation</text><line style="stroke: #000000; stroke-width: 1.0;" x1="10" x2="76" y1="24.9688" y2="24.9688"/><line style="stroke: #000000; stroke-width: 1.0;" x1="76" x2="86" y1="24.9688" y2="10"/><polygon fill="#D7E0F2" points="86,57.9063,120,57.9063,132,69.9063,120,81.9063,86,81.9063" style="stroke: #D7E0F2; stroke-width: 1.5;"/><path d="M86,57.9063 L120,57.9063 L132,69.9063 L120,81.9063 L86,81.9063 " fill="#D7E0F2" style="stroke: #038048; stroke-width: 1.5;"/><text fill="#000000" font-family="sans-serif" font-size="12" lengthAdjust="spacingAndGlyphs" textLength="22" x="98" y="74.0605">Idle</text><polygon fill="#D7E0F2" points="144,57.9063,600,57.9063,612,69.9063,600,81.9063,144,81.9063,132,69.9063" style="stroke: #038048; stroke-width: 1.5;"/><polygon fill="#D7E0F2" points="624,57.9063,840,57.9063,852,69.9063,840,81.9063,624,81.9063,612,69.9063" style="stroke: #038048; stroke-width: 1.5;"/><polygon fill="#D7E0F2" points="864,57.9063,972,57.9063,972,81.9063,864,81.9063,852,69.9063" style="stroke: #D7E0F2; stroke-width: 1.5;"/><path d="M972,57.9063 L864,57.9063 L852,69.9063 L864,81.9063 L972,81.9063 " fill="#D7E0F2" style="stroke: #038048; stroke-width: 1.5;"/><text fill="#000000" font-family="sans-serif" font-size="12" lengthAdjust="spacingAndGlyphs" textLength="53" x="345.5" y="74.0605">Ramp-up</text><text fill="#000000" font-family="sans-serif" font-size="12" lengthAdjust="spacingAndGlyphs" textLength="14" x="725" y="74.0605">Rx</text><text fill="#000000" font-family="sans-serif" font-size="12" lengthAdjust="spacingAndGlyphs" textLength="22" x="864" y="74.0605">Idle</text><line style="stroke: #000000; stroke-width: 1.7;" x1="10" x2="977" y1="91.9063" y2="91.9063"/><text fill="#000000" font-family="sans-serif" font-size="12" lengthAdjust="spacingAndGlyphs" textLength="90" x="15" y="121.709">TIMER0 running</text><line style="stroke: #038048; stroke-width: 1.5;" x1="132" x2="132" y1="135.2031" y2="135.2031"/><line style="stroke: #038048; stroke-width: 1.5;" x1="132" x2="132" y1="121.2031" y2="135.2031"/><line style="stroke: #038048; stroke-width: 1.5;" x1="132" x2="456" y1="121.2031" y2="121.2031"/><line style="stroke: #038048; stroke-width: 1.5;" x1="456" x2="456" y1="121.2031" y2="135.2031"/><line style="stroke: #038048; stroke-width: 1.5;" x1="456" x2="972" y1="135.2031" y2="135.2031"/><line style="stroke: #FF0000; stroke-width: 1.5;" x1="132" x2="240" y1="113.2031" y2="113.2031"/><polygon fill="#FF0000" points="139.5175,110.467,139.5175,115.9393,132,113.2031" style="stroke: #FF0000; stroke-width: 1.5;"/><polygon fill="#FF0000" points="232.4825,115.9393,232.4825,110.467,240,113.2031" style="stroke: #FF0000; stroke-width: 1.5;"/><text fill="#000000" font-family="Serif" font-size="14" lengthAdjust="spacingAndGlyphs" textLength="105" x="133.5" y="104.9014">40-13-18=9 us</text><line style="stroke: #FF0000; stroke-width: 1.5;" x1="240" x2="456" y1="113.2031" y2="113.2031"/><polygon fill="#FF0000" points="247.5175,110.467,247.5175,115.9393,240,113.2031" style="stroke: #FF0000; stroke-width: 1.5;"/><polygon fill="#FF0000" points="448.4825,115.9393,448.4825,110.467,456,113.2031" style="stroke: #FF0000; stroke-width: 1.5;"/><text fill="#000000" font-family="Serif" font-size="14" lengthAdjust="spacingAndGlyphs" textLength="38" x="329" y="104.9014">18 us</text><line style="stroke: #FF0000; stroke-width: 1.5;" x1="456" x2="612" y1="113.2031" y2="113.2031"/><polygon fill="#FF0000" points="463.5175,110.467,463.5175,115.9393,456,113.2031" style="stroke: #FF0000; stroke-width: 1.5;"/><polygon fill="#FF0000" points="604.4825,115.9393,604.4825,110.467,612,113.2031" style="stroke: #FF0000; stroke-width: 1.5;"/><text fill="#000000" font-family="Serif" font-size="14" lengthAdjust="spacingAndGlyphs" textLength="37" x="515.5" y="104.9014">13 us</text><line style="stroke: #000000; stroke-width: 1.7;" x1="10" x2="977" y1="143.2031" y2="143.2031"/><text fill="#000000" font-family="sans-serif" font-size="12" lengthAdjust="spacingAndGlyphs" textLength="89" x="15" y="173.0059">TIMER1 running</text><line style="stroke: #038048; stroke-width: 1.5;" x1="132" x2="852" y1="186.5" y2="186.5"/><line style="stroke: #038048; stroke-width: 1.5;" x1="852" x2="852" y1="172.5" y2="186.5"/><line style="stroke: #038048; stroke-width: 1.5;" x1="852" x2="912" y1="172.5" y2="172.5"/><line style="stroke: #038048; stroke-width: 1.5;" x1="912" x2="912" y1="172.5" y2="186.5"/><line style="stroke: #038048; stroke-width: 1.5;" x1="912" x2="972" y1="186.5" y2="186.5"/><line style="stroke: #FF0000; stroke-width: 1.5;" x1="852" x2="912" y1="164.5" y2="164.5"/><polygon fill="#FF0000" points="859.5175,161.7638,859.5175,167.2362,852,164.5" style="stroke: #FF0000; stroke-width: 1.5;"/><polygon fill="#FF0000" points="904.4825,167.2362,904.4825,161.7638,912,164.5" style="stroke: #FF0000; stroke-width: 1.5;"/><text fill="#000000" font-family="Serif" font-size="14" lengthAdjust="spacingAndGlyphs" textLength="29" x="867.5" y="156.1982">5 us</text><line style="stroke: #000000; stroke-width: 1.7;" x1="10" x2="977" y1="194.5" y2="194.5"/><text fill="#000000" font-family="sans-serif" font-size="12" lengthAdjust="spacingAndGlyphs" textLength="112" x="15" y="213.6543">Deactivation event</text><line style="stroke: #038048; stroke-width: 1.5;" x1="132" x2="852" y1="216.5" y2="216.5"/><line style="stroke: #038048; stroke-width: 1.5;" x1="852" x2="852" y1="202.5" y2="216.5"/><line style="stroke: #038048; stroke-width: 1.5;" x1="852" x2="972" y1="202.5" y2="202.5"/><line style="stroke: #000000; stroke-width: 1.7;" x1="10" x2="977" y1="224.5" y2="224.5"/><text fill="#000000" font-family="sans-serif" font-size="12" lengthAdjust="spacingAndGlyphs" textLength="62" x="15" y="243.6543">LNA active</text><line style="stroke: #038048; stroke-width: 1.5;" x1="132" x2="456" y1="246.5" y2="246.5"/><line style="stroke: #038048; stroke-width: 1.5;" x1="456" x2="456" y1="232.5" y2="246.5"/><line style="stroke: #038048; stroke-width: 1.5;" x1="456" x2="852" y1="232.5" y2="232.5"/><line style="stroke: #038048; stroke-width: 1.5;" x1="852" x2="852" y1="232.5" y2="246.5"/><line style="stroke: #038048; stroke-width: 1.5;" x1="852" x2="972" y1="246.5" y2="246.5"/><line style="stroke: #000000; stroke-width: 1.7;" x1="10" x2="977" y1="254.5" y2="254.5"/><text fill="#000000" font-family="sans-serif" font-size="12" lengthAdjust="spacingAndGlyphs" textLength="45" x="15" y="273.6543">PDN pin</text><line style="stroke: #038048; stroke-width: 1.5;" x1="132" x2="240" y1="262.5" y2="262.5"/><line style="stroke: #038048; stroke-width: 1.5;" x1="240" x2="240" y1="262.5" y2="276.5"/><line style="stroke: #038048; stroke-width: 1.5;" x1="240" x2="912" y1="276.5" y2="276.5"/><line style="stroke: #038048; stroke-width: 1.5;" x1="912" x2="912" y1="262.5" y2="276.5"/><line style="stroke: #038048; stroke-width: 1.5;" x1="912" x2="972" y1="262.5" y2="262.5"/><line style="stroke: #000000; stroke-width: 2.0;" x1="132" x2="132" y1="284.5" y2="289.5"/><line style="stroke: #000000; stroke-width: 2.0;" x1="252" x2="252" y1="284.5" y2="289.5"/><line style="stroke: #000000; stroke-width: 2.0;" x1="372" x2="372" y1="284.5" y2="289.5"/><line style="stroke: #000000; stroke-width: 2.0;" x1="492" x2="492" y1="284.5" y2="289.5"/><line style="stroke: #000000; stroke-width: 2.0;" x1="612" x2="612" y1="284.5" y2="289.5"/><line style="stroke: #000000; stroke-width: 2.0;" x1="732" x2="732" y1="284.5" y2="289.5"/><line style="stroke: #000000; stroke-width: 2.0;" x1="852" x2="852" y1="284.5" y2="289.5"/><line style="stroke: #000000; stroke-width: 2.0;" x1="972" x2="972" y1="284.5" y2="289.5"/><line style="stroke: #000000; stroke-width: 2.0;" x1="132" x2="972" y1="284.5" y2="284.5"/><text fill="#000000" font-family="sans-serif" font-size="12" lengthAdjust="spacingAndGlyphs" textLength="8" x="128" y="301.6387">0</text><text fill="#000000" font-family="sans-serif" font-size="12" lengthAdjust="spacingAndGlyphs" textLength="15" x="244.5" y="301.6387">10</text><text fill="#000000" font-family="sans-serif" font-size="12" lengthAdjust="spacingAndGlyphs" textLength="16" x="364" y="301.6387">20</text><text fill="#000000" font-family="sans-serif" font-size="12" lengthAdjust="spacingAndGlyphs" textLength="16" x="484" y="301.6387">30</text><text fill="#000000" font-family="sans-serif" font-size="12" lengthAdjust="spacingAndGlyphs" textLength="16" x="604" y="301.6387">40</text><text fill="#000000" font-family="sans-serif" font-size="12" lengthAdjust="spacingAndGlyphs" textLength="16" x="724" y="301.6387">50</text><text fill="#000000" font-family="sans-serif" font-size="12" lengthAdjust="spacingAndGlyphs" textLength="16" x="844" y="301.6387">60</text><text fill="#000000" font-family="sans-serif" font-size="12" lengthAdjust="spacingAndGlyphs" textLength="16" x="964" y="301.6387">70</text><line style="stroke: #87CEEB; stroke-width: 2.0; stroke-dasharray: 4.0,4.0;" x1="240" x2="240" y1="10" y2="284.5"/><line style="stroke: #87CEEB; stroke-width: 2.0; stroke-dasharray: 4.0,4.0;" x1="456" x2="456" y1="10" y2="284.5"/><text fill="#000000" font-family="sans-serif" font-size="12" lengthAdjust="spacingAndGlyphs" textLength="24" x="243" y="23.1387">FEM</text><text fill="#000000" font-family="sans-serif" font-size="12" lengthAdjust="spacingAndGlyphs" textLength="51" x="243" y="37.1074">ramp-up</text><line style="stroke: #696969; stroke-width: 2.0; stroke-dasharray: 4.0,4.0;" x1="456" x2="456" y1="10" y2="284.5"/><line style="stroke: #696969; stroke-width: 2.0; stroke-dasharray: 4.0,4.0;" x1="612" x2="612" y1="10" y2="284.5"/><text fill="#000000" font-family="sans-serif" font-size="12" lengthAdjust="spacingAndGlyphs" textLength="22" x="459" y="23.1387">LNA</text><text fill="#000000" font-family="sans-serif" font-size="12" lengthAdjust="spacingAndGlyphs" textLength="51" x="459" y="37.1074">ramp-up</text><line style="stroke: #87CEEB; stroke-width: 2.0; stroke-dasharray: 4.0,4.0;" x1="852" x2="852" y1="10" y2="284.5"/><line style="stroke: #87CEEB; stroke-width: 2.0; stroke-dasharray: 4.0,4.0;" x1="912" x2="912" y1="10" y2="284.5"/><text fill="#000000" font-family="sans-serif" font-size="12" lengthAdjust="spacingAndGlyphs" textLength="52" x="855" y="23.1387">TRX hold</text><!--MD5=[fcdb52c6dba16ab1debf8b869442ac6d]
@startuml
concise "Operation" as op
binary "TIMER0 running" as tm0
binary "TIMER1 running" as tm1
binary "Deactivation event" as ev
binary "LNA active" as lna
binary "PDN pin" as pdn

scale 10 as 120 pixels

tm0 is low
tm1 is low
lna is low
op is "Idle"
ev is low
pdn is high

@0
op is "Ramp-up"
tm0 is high

@9
pdn is low

@27
tm0 is low
lna is high

tm0@0 <-> @9: 40-13-18=9 us
tm0@9 <-> @27: 18 us
tm0@27 <-> @40: 13 us
highlight 9  to 27 #LightBlue;line:SkyBlue : FEM\nramp-up
highlight 27 to 40 #LightGrey;line:DimGrey : LNA\nramp-up

@40
op is Rx

@60
op is "Idle"
lna is low
ev is high
tm1 is high

@65
pdn is high
tm1 is low
tm1@60 <-> @65: 5 us
highlight 60  to 65 #LightBlue;line:SkyBlue : TRX hold
@enduml

PlantUML version 1.2020.17beta5(Unknown compile time)
(GPL source distribution)
Java Runtime: Java(TM) SE Runtime Environment
JVM: Java HotSpot(TM) 64-Bit Server VM
Default Encoding: UTF-8
Language: en
Country: US
--></g></svg>