<?xml version="1.0" encoding="UTF-8" standalone="no"?><svg xmlns="http://www.w3.org/2000/svg" xmlns:xlink="http://www.w3.org/1999/xlink" contentScriptType="application/ecmascript" contentStyleType="text/css" height="752px" preserveAspectRatio="none" style="width:415px;height:752px;background:#FFFFFF;" version="1.1" viewBox="0 0 415 752" width="415px" zoomAndPan="magnify"><defs><filter height="300%" id="f9v8w89zer8w8" width="300%" x="-1" y="-1"><feGaussianBlur result="blurOut" stdDeviation="2.0"/><feColorMatrix in="blurOut" result="blurOut2" type="matrix" values="0 0 0 0 0 0 0 0 0 0 0 0 0 0 0 0 0 0 .4 0"/><feOffset dx="4.0" dy="4.0" in="blurOut2" result="blurOut3"/><feBlend in="SourceGraphic" in2="blurOut3" mode="normal"/></filter></defs><g><line style="stroke:#A80036;stroke-width:1.0;" x1="51" x2="51" y1="56.5938" y2="300.9219"/><line style="stroke:#A80036;stroke-width:1.0;stroke-dasharray:1.0,4.0;" x1="51" x2="51" y1="300.9219" y2="341.7266"/><line style="stroke:#A80036;stroke-width:1.0;" x1="51" x2="51" y1="341.7266" y2="398.9922"/><line style="stroke:#A80036;stroke-width:1.0;stroke-dasharray:1.0,4.0;" x1="51" x2="51" y1="398.9922" y2="439.7969"/><line style="stroke:#A80036;stroke-width:1.0;" x1="51" x2="51" y1="439.7969" y2="497.0625"/><line style="stroke:#A80036;stroke-width:1.0;stroke-dasharray:1.0,4.0;" x1="51" x2="51" y1="497.0625" y2="537.8672"/><line style="stroke:#A80036;stroke-width:1.0;" x1="51" x2="51" y1="537.8672" y2="692.5313"/><line style="stroke:#A80036;stroke-width:1.0;" x1="172" x2="172" y1="56.5938" y2="300.9219"/><line style="stroke:#A80036;stroke-width:1.0;stroke-dasharray:1.0,4.0;" x1="172" x2="172" y1="300.9219" y2="341.7266"/><line style="stroke:#A80036;stroke-width:1.0;" x1="172" x2="172" y1="341.7266" y2="398.9922"/><line style="stroke:#A80036;stroke-width:1.0;stroke-dasharray:1.0,4.0;" x1="172" x2="172" y1="398.9922" y2="439.7969"/><line style="stroke:#A80036;stroke-width:1.0;" x1="172" x2="172" y1="439.7969" y2="497.0625"/><line style="stroke:#A80036;stroke-width:1.0;stroke-dasharray:1.0,4.0;" x1="172" x2="172" y1="497.0625" y2="537.8672"/><line style="stroke:#A80036;stroke-width:1.0;" x1="172" x2="172" y1="537.8672" y2="692.5313"/><line style="stroke:#A80036;stroke-width:1.0;" x1="364" x2="364" y1="56.5938" y2="300.9219"/><line style="stroke:#A80036;stroke-width:1.0;stroke-dasharray:1.0,4.0;" x1="364" x2="364" y1="300.9219" y2="341.7266"/><line style="stroke:#A80036;stroke-width:1.0;" x1="364" x2="364" y1="341.7266" y2="398.9922"/><line style="stroke:#A80036;stroke-width:1.0;stroke-dasharray:1.0,4.0;" x1="364" x2="364" y1="398.9922" y2="439.7969"/><line style="stroke:#A80036;stroke-width:1.0;" x1="364" x2="364" y1="439.7969" y2="497.0625"/><line style="stroke:#A80036;stroke-width:1.0;stroke-dasharray:1.0,4.0;" x1="364" x2="364" y1="497.0625" y2="537.8672"/><line style="stroke:#A80036;stroke-width:1.0;" x1="364" x2="364" y1="537.8672" y2="692.5313"/><rect fill="#FEFECE" filter="url(#f9v8w89zer8w8)" height="30.2969" style="stroke:#A80036;stroke-width:1.5;" width="88" x="5" y="21.2969"/><text fill="#000000" font-family="sans-serif" font-size="14" lengthAdjust="spacing" textLength="74" x="12" y="41.292">application</text><rect fill="#FEFECE" filter="url(#f9v8w89zer8w8)" height="30.2969" style="stroke:#A80036;stroke-width:1.5;" width="88" x="5" y="691.5313"/><text fill="#000000" font-family="sans-serif" font-size="14" lengthAdjust="spacing" textLength="74" x="12" y="711.5264">application</text><rect fill="#FEFECE" filter="url(#f9v8w89zer8w8)" height="46.5938" style="stroke:#A80036;stroke-width:1.5;" width="66" x="137" y="5"/><text fill="#000000" font-family="sans-serif" font-size="14" lengthAdjust="spacing" textLength="29" x="155.5" y="24.9951">FEM</text><text fill="#000000" font-family="sans-serif" font-size="14" lengthAdjust="spacing" textLength="52" x="144" y="41.292">module</text><rect fill="#FEFECE" filter="url(#f9v8w89zer8w8)" height="46.5938" style="stroke:#A80036;stroke-width:1.5;" width="66" x="137" y="691.5313"/><text fill="#000000" font-family="sans-serif" font-size="14" lengthAdjust="spacing" textLength="29" x="155.5" y="711.5264">FEM</text><text fill="#000000" font-family="sans-serif" font-size="14" lengthAdjust="spacing" textLength="52" x="144" y="727.8232">module</text><rect fill="#FEFECE" filter="url(#f9v8w89zer8w8)" height="30.2969" style="stroke:#A80036;stroke-width:1.5;" width="78" x="323" y="21.2969"/><text fill="#000000" font-family="sans-serif" font-size="14" lengthAdjust="spacing" textLength="64" x="330" y="41.292">hardware</text><rect fill="#FEFECE" filter="url(#f9v8w89zer8w8)" height="30.2969" style="stroke:#A80036;stroke-width:1.5;" width="78" x="323" y="691.5313"/><text fill="#000000" font-family="sans-serif" font-size="14" lengthAdjust="spacing" textLength="64" x="330" y="711.5264">hardware</text><polygon fill="#A80036" points="160,129.125,170,133.125,160,137.125,164,133.125" style="stroke:#A80036;stroke-width:1.0;"/><line style="stroke:#A80036;stroke-width:1.0;" x1="51" x2="166" y1="133.125" y2="133.125"/><text fill="#000000" font-family="sans-serif" font-size="13" lengthAdjust="spacing" textLength="89" x="58" y="82.6606">configure LNA</text><text fill="#000000" font-family="sans-serif" font-size="13" lengthAdjust="spacing" textLength="83" x="58" y="97.7935">time = 40 us</text><text fill="#000000" font-family="sans-serif" font-size="13" lengthAdjust="spacing" textLength="90" x="58" y="112.9263">timer=TIMER1</text><text fill="#000000" font-family="sans-serif" font-size="13" lengthAdjust="spacing" textLength="90" x="58" y="128.0591">event=rx_end</text><line style="stroke:#A80036;stroke-width:1.0;" x1="172" x2="214" y1="177.3906" y2="177.3906"/><line style="stroke:#A80036;stroke-width:1.0;" x1="214" x2="214" y1="177.3906" y2="190.3906"/><line style="stroke:#A80036;stroke-width:1.0;" x1="173" x2="214" y1="190.3906" y2="190.3906"/><polygon fill="#A80036" points="183,186.3906,173,190.3906,183,194.3906,179,190.3906" style="stroke:#A80036;stroke-width:1.0;"/><text fill="#000000" font-family="sans-serif" font-size="13" lengthAdjust="spacing" textLength="57" x="179" y="157.1919">calculate</text><text fill="#000000" font-family="sans-serif" font-size="13" lengthAdjust="spacing" textLength="47" x="179" y="172.3247">timings</text><polygon fill="#A80036" points="352,230.6563,362,234.6563,352,238.6563,356,234.6563" style="stroke:#A80036;stroke-width:1.0;"/><line style="stroke:#A80036;stroke-width:1.0;" x1="172" x2="358" y1="234.6563" y2="234.6563"/><text fill="#000000" font-family="sans-serif" font-size="13" lengthAdjust="spacing" textLength="130" x="179" y="214.4575">set TIMER1 compare</text><text fill="#000000" font-family="sans-serif" font-size="13" lengthAdjust="spacing" textLength="168" x="179" y="229.5903">channels to 9us and 27 us</text><polygon fill="#A80036" points="352,259.7891,362,263.7891,352,267.7891,356,263.7891" style="stroke:#A80036;stroke-width:1.0;"/><line style="stroke:#A80036;stroke-width:1.0;" x1="51" x2="358" y1="263.7891" y2="263.7891"/><text fill="#000000" font-family="sans-serif" font-size="13" lengthAdjust="spacing" textLength="49" x="58" y="258.7231">start Rx</text><polygon fill="#A80036" points="352,288.9219,362,292.9219,352,296.9219,356,292.9219" style="stroke:#A80036;stroke-width:1.0;"/><line style="stroke:#A80036;stroke-width:1.0;" x1="51" x2="358" y1="292.9219" y2="292.9219"/><text fill="#000000" font-family="sans-serif" font-size="13" lengthAdjust="spacing" textLength="79" x="58" y="287.856">start TIMER1</text><text fill="#000000" font-family="sans-serif" font-size="11" lengthAdjust="spacing" textLength="139" x="138" y="325.1323">Waiting for TIMER1 event</text><line style="stroke:#A80036;stroke-width:1.0;" x1="322" x2="364" y1="377.9922" y2="377.9922"/><line style="stroke:#A80036;stroke-width:1.0;" x1="322" x2="322" y1="377.9922" y2="390.9922"/><line style="stroke:#A80036;stroke-width:1.0;" x1="322" x2="363" y1="390.9922" y2="390.9922"/><polygon fill="#A80036" points="355,386.9922,365,390.9922,355,394.9922,359,390.9922" style="stroke:#A80036;stroke-width:1.0;"/><text fill="#000000" font-family="sans-serif" font-size="13" lengthAdjust="spacing" textLength="85" x="276" y="357.7935">TIMER1 event</text><text fill="#000000" font-family="sans-serif" font-size="13" lengthAdjust="spacing" textLength="88" x="276" y="372.9263">deassert PDN</text><text fill="#000000" font-family="sans-serif" font-size="11" lengthAdjust="spacing" textLength="139" x="138" y="423.2026">Waiting for TIMER1 event</text><line style="stroke:#A80036;stroke-width:1.0;" x1="322" x2="364" y1="476.0625" y2="476.0625"/><line style="stroke:#A80036;stroke-width:1.0;" x1="322" x2="322" y1="476.0625" y2="489.0625"/><line style="stroke:#A80036;stroke-width:1.0;" x1="322" x2="363" y1="489.0625" y2="489.0625"/><polygon fill="#A80036" points="355,485.0625,365,489.0625,355,493.0625,359,489.0625" style="stroke:#A80036;stroke-width:1.0;"/><text fill="#000000" font-family="sans-serif" font-size="13" lengthAdjust="spacing" textLength="85" x="279" y="455.8638">TIMER1 event</text><text fill="#000000" font-family="sans-serif" font-size="13" lengthAdjust="spacing" textLength="81" x="279" y="470.9966">activate LNA</text><text fill="#000000" font-family="sans-serif" font-size="11" lengthAdjust="spacing" textLength="71" x="172" y="521.2729">Rx operation</text><polygon fill="#A80036" points="352,555,362,559,352,563,356,559" style="stroke:#A80036;stroke-width:1.0;"/><line style="stroke:#A80036;stroke-width:1.0;" x1="51" x2="358" y1="559" y2="559"/><text fill="#000000" font-family="sans-serif" font-size="13" lengthAdjust="spacing" textLength="47" x="58" y="553.9341">stop Rx</text><line style="stroke:#A80036;stroke-width:1.0;" x1="322" x2="364" y1="603.2656" y2="603.2656"/><line style="stroke:#A80036;stroke-width:1.0;" x1="322" x2="322" y1="603.2656" y2="616.2656"/><line style="stroke:#A80036;stroke-width:1.0;" x1="322" x2="363" y1="616.2656" y2="616.2656"/><polygon fill="#A80036" points="355,612.2656,365,616.2656,355,620.2656,359,616.2656" style="stroke:#A80036;stroke-width:1.0;"/><text fill="#000000" font-family="sans-serif" font-size="13" lengthAdjust="spacing" textLength="83" x="267" y="583.0669">rx_end event</text><text fill="#000000" font-family="sans-serif" font-size="13" lengthAdjust="spacing" textLength="97" x="267" y="598.1997">deactivate LNA</text><polygon fill="#A80036" points="160,641.3984,170,645.3984,160,649.3984,164,645.3984" style="stroke:#A80036;stroke-width:1.0;"/><line style="stroke:#A80036;stroke-width:1.0;" x1="51" x2="166" y1="645.3984" y2="645.3984"/><text fill="#000000" font-family="sans-serif" font-size="13" lengthAdjust="spacing" textLength="97" x="58" y="640.3325">deactivate FEM</text><polygon fill="#A80036" points="352,670.5313,362,674.5313,352,678.5313,356,674.5313" style="stroke:#A80036;stroke-width:1.0;"/><line style="stroke:#A80036;stroke-width:1.0;" x1="172" x2="358" y1="674.5313" y2="674.5313"/><text fill="#000000" font-family="sans-serif" font-size="13" lengthAdjust="spacing" textLength="72" x="179" y="669.4653">assert PDN</text><!--MD5=[587d214baf59002385ad57285605e5ed]
@startuml
participant application as app
participant "FEM\nmodule" as fem
participant hardware as hw

app->fem: configure LNA\ntime = 40 us\ntimer=TIMER1\nevent=rx_end
fem->fem: calculate\ntimings
fem->hw: set TIMER1 compare\nchannels to 9us and 27 us

app->hw: start Rx
app->hw: start TIMER1
... Waiting for TIMER1 event ...

hw<-hw: TIMER1 event\ndeassert PDN

... Waiting for TIMER1 event ...

hw<-hw: TIMER1 event\nactivate LNA

... Rx operation ...

app->hw: stop Rx
hw<-hw: rx_end event\ndeactivate LNA
app->fem: deactivate FEM
fem->hw: assert PDN

@enduml

PlantUML version 1.2021.8(Sat Jun 26 10:20:59 CEST 2021)
(GPL source distribution)
Java Runtime: OpenJDK Runtime Environment
JVM: OpenJDK 64-Bit Server VM
Default Encoding: UTF-8
Language: en
Country: US
--></g></svg>