<?xml version="1.0" encoding="UTF-8" standalone="no"?>
<svg xmlns="http://www.w3.org/2000/svg" xmlns:xlink="http://www.w3.org/1999/xlink" contentScriptType="application/ecmascript" contentStyleType="text/css" height="233px" preserveAspectRatio="none" style="width:994px;height:233px;" version="1.1" viewBox="0 0 994 233" width="994px" zoomAndPan="magnify"><defs/><g><line style="stroke: #000000; stroke-width: 1.7;" x1="10" x2="10" y1="10" y2="203.2031"/><line style="stroke: #000000; stroke-width: 1.7;" x1="977" x2="977" y1="10" y2="203.2031"/><rect fill="#D3D3D3" height="193.2031" style="stroke: none; stroke-width: 1.0;" width="156" x="456" y="10"/><line style="stroke: #AAAAAA; stroke-width: 0.5; stroke-dasharray: 3.0,5.0;" x1="132" x2="132" y1="10" y2="203.2031"/><line style="stroke: #AAAAAA; stroke-width: 0.5; stroke-dasharray: 3.0,5.0;" x1="252" x2="252" y1="10" y2="203.2031"/><line style="stroke: #AAAAAA; stroke-width: 0.5; stroke-dasharray: 3.0,5.0;" x1="372" x2="372" y1="10" y2="203.2031"/><line style="stroke: #AAAAAA; stroke-width: 0.5; stroke-dasharray: 3.0,5.0;" x1="492" x2="492" y1="10" y2="203.2031"/><line style="stroke: #AAAAAA; stroke-width: 0.5; stroke-dasharray: 3.0,5.0;" x1="612" x2="612" y1="10" y2="203.2031"/><line style="stroke: #AAAAAA; stroke-width: 0.5; stroke-dasharray: 3.0,5.0;" x1="732" x2="732" y1="10" y2="203.2031"/><line style="stroke: #AAAAAA; stroke-width: 0.5; stroke-dasharray: 3.0,5.0;" x1="852" x2="852" y1="10" y2="203.2031"/><line style="stroke: #AAAAAA; stroke-width: 0.5; stroke-dasharray: 3.0,5.0;" x1="972" x2="972" y1="10" y2="203.2031"/><line style="stroke: #000000; stroke-width: 1.7;" x1="10" x2="977" y1="10" y2="10"/><text fill="#000000" font-family="sans-serif" font-size="12" lengthAdjust="spacingAndGlyphs" textLength="60" x="15" y="21.1387">Operation</text><line style="stroke: #000000; stroke-width: 1.0;" x1="10" x2="76" y1="24.9688" y2="24.9688"/><line style="stroke: #000000; stroke-width: 1.0;" x1="76" x2="86" y1="24.9688" y2="10"/><polygon fill="#D7E0F2" points="86,57.9063,120,57.9063,132,69.9063,120,81.9063,86,81.9063" style="stroke: #D7E0F2; stroke-width: 1.5;"/><path d="M86,57.9063 L120,57.9063 L132,69.9063 L120,81.9063 L86,81.9063 " fill="#D7E0F2" style="stroke: #038048; stroke-width: 1.5;"/><text fill="#000000" font-family="sans-serif" font-size="12" lengthAdjust="spacingAndGlyphs" textLength="22" x="98" y="74.0605">Idle</text><polygon fill="#D7E0F2" points="144,57.9063,600,57.9063,612,69.9063,600,81.9063,144,81.9063,132,69.9063" style="stroke: #038048; stroke-width: 1.5;"/><polygon fill="#D7E0F2" points="624,57.9063,840,57.9063,852,69.9063,840,81.9063,624,81.9063,612,69.9063" style="stroke: #038048; stroke-width: 1.5;"/><polygon fill="#D7E0F2" points="864,57.9063,972,57.9063,972,81.9063,864,81.9063,852,69.9063" style="stroke: #D7E0F2; stroke-width: 1.5;"/><path d="M972,57.9063 L864,57.9063 L852,69.9063 L864,81.9063 L972,81.9063 " fill="#D7E0F2" style="stroke: #038048; stroke-width: 1.5;"/><text fill="#000000" font-family="sans-serif" font-size="12" lengthAdjust="spacingAndGlyphs" textLength="53" x="345.5" y="74.0605">Ramp-up</text><text fill="#000000" font-family="sans-serif" font-size="12" lengthAdjust="spacingAndGlyphs" textLength="14" x="725" y="74.0605">Rx</text><text fill="#000000" font-family="sans-serif" font-size="12" lengthAdjust="spacingAndGlyphs" textLength="22" x="864" y="74.0605">Idle</text><line style="stroke: #000000; stroke-width: 1.7;" x1="10" x2="977" y1="91.9063" y2="91.9063"/><text fill="#000000" font-family="sans-serif" font-size="12" lengthAdjust="spacingAndGlyphs" textLength="82" x="15" y="121.709">Timer running</text><line style="stroke: #038048; stroke-width: 1.5;" x1="132" x2="132" y1="135.2031" y2="135.2031"/><line style="stroke: #038048; stroke-width: 1.5;" x1="132" x2="132" y1="121.2031" y2="135.2031"/><line style="stroke: #038048; stroke-width: 1.5;" x1="132" x2="456" y1="121.2031" y2="121.2031"/><line style="stroke: #038048; stroke-width: 1.5;" x1="456" x2="456" y1="121.2031" y2="135.2031"/><line style="stroke: #038048; stroke-width: 1.5;" x1="456" x2="972" y1="135.2031" y2="135.2031"/><line style="stroke: #FF0000; stroke-width: 1.5;" x1="132" x2="456" y1="113.2031" y2="113.2031"/><polygon fill="#FF0000" points="139.5175,110.467,139.5175,115.9393,132,113.2031" style="stroke: #FF0000; stroke-width: 1.5;"/><polygon fill="#FF0000" points="448.4825,115.9393,448.4825,110.467,456,113.2031" style="stroke: #FF0000; stroke-width: 1.5;"/><text fill="#000000" font-family="Serif" font-size="14" lengthAdjust="spacingAndGlyphs" textLength="89" x="249.5" y="104.9014">40-13=27 us</text><line style="stroke: #FF0000; stroke-width: 1.5;" x1="456" x2="612" y1="113.2031" y2="113.2031"/><polygon fill="#FF0000" points="463.5175,110.467,463.5175,115.9393,456,113.2031" style="stroke: #FF0000; stroke-width: 1.5;"/><polygon fill="#FF0000" points="604.4825,115.9393,604.4825,110.467,612,113.2031" style="stroke: #FF0000; stroke-width: 1.5;"/><text fill="#000000" font-family="Serif" font-size="14" lengthAdjust="spacingAndGlyphs" textLength="37" x="515.5" y="104.9014">13 us</text><line style="stroke: #000000; stroke-width: 1.7;" x1="10" x2="977" y1="143.2031" y2="143.2031"/><text fill="#000000" font-family="sans-serif" font-size="12" lengthAdjust="spacingAndGlyphs" textLength="62" x="15" y="162.3574">LNA active</text><line style="stroke: #038048; stroke-width: 1.5;" x1="132" x2="456" y1="165.2031" y2="165.2031"/><line style="stroke: #038048; stroke-width: 1.5;" x1="456" x2="456" y1="151.2031" y2="165.2031"/><line style="stroke: #038048; stroke-width: 1.5;" x1="456" x2="852" y1="151.2031" y2="151.2031"/><line style="stroke: #038048; stroke-width: 1.5;" x1="852" x2="852" y1="151.2031" y2="165.2031"/><line style="stroke: #038048; stroke-width: 1.5;" x1="852" x2="972" y1="165.2031" y2="165.2031"/><line style="stroke: #000000; stroke-width: 1.7;" x1="10" x2="977" y1="173.2031" y2="173.2031"/><text fill="#000000" font-family="sans-serif" font-size="12" lengthAdjust="spacingAndGlyphs" textLength="112" x="15" y="192.3574">Deactivation event</text><line style="stroke: #038048; stroke-width: 1.5;" x1="132" x2="852" y1="195.2031" y2="195.2031"/><line style="stroke: #038048; stroke-width: 1.5;" x1="852" x2="852" y1="181.2031" y2="195.2031"/><line style="stroke: #038048; stroke-width: 1.5;" x1="852" x2="972" y1="181.2031" y2="181.2031"/><line style="stroke: #000000; stroke-width: 2.0;" x1="132" x2="132" y1="203.2031" y2="208.2031"/><line style="stroke: #000000; stroke-width: 2.0;" x1="252" x2="252" y1="203.2031" y2="208.2031"/><line style="stroke: #000000; stroke-width: 2.0;" x1="372" x2="372" y1="203.2031" y2="208.2031"/><line style="stroke: #000000; stroke-width: 2.0;" x1="492" x2="492" y1="203.2031" y2="208.2031"/><line style="stroke: #000000; stroke-width: 2.0;" x1="612" x2="612" y1="203.2031" y2="208.2031"/><line style="stroke: #000000; stroke-width: 2.0;" x1="732" x2="732" y1="203.2031" y2="208.2031"/><line style="stroke: #000000; stroke-width: 2.0;" x1="852" x2="852" y1="203.2031" y2="208.2031"/><line style="stroke: #000000; stroke-width: 2.0;" x1="972" x2="972" y1="203.2031" y2="208.2031"/><line style="stroke: #000000; stroke-width: 2.0;" x1="132" x2="972" y1="203.2031" y2="203.2031"/><text fill="#000000" font-family="sans-serif" font-size="12" lengthAdjust="spacingAndGlyphs" textLength="8" x="128" y="220.3418">0</text><text fill="#000000" font-family="sans-serif" font-size="12" lengthAdjust="spacingAndGlyphs" textLength="15" x="244.5" y="220.3418">10</text><text fill="#000000" font-family="sans-serif" font-size="12" lengthAdjust="spacingAndGlyphs" textLength="16" x="364" y="220.3418">20</text><text fill="#000000" font-family="sans-serif" font-size="12" lengthAdjust="spacingAndGlyphs" textLength="16" x="484" y="220.3418">30</text><text fill="#000000" font-family="sans-serif" font-size="12" lengthAdjust="spacingAndGlyphs" textLength="16" x="604" y="220.3418">40</text><text fill="#000000" font-family="sans-serif" font-size="12" lengthAdjust="spacingAndGlyphs" textLength="16" x="724" y="220.3418">50</text><text fill="#000000" font-family="sans-serif" font-size="12" lengthAdjust="spacingAndGlyphs" textLength="16" x="844" y="220.3418">60</text><text fill="#000000" font-family="sans-serif" font-size="12" lengthAdjust="spacingAndGlyphs" textLength="16" x="964" y="220.3418">70</text><line style="stroke: #696969; stroke-width: 2.0; stroke-dasharray: 4.0,4.0;" x1="456" x2="456" y1="10" y2="203.2031"/><line style="stroke: #696969; stroke-width: 2.0; stroke-dasharray: 4.0,4.0;" x1="612" x2="612" y1="10" y2="203.2031"/><text fill="#000000" font-family="sans-serif" font-size="12" lengthAdjust="spacingAndGlyphs" textLength="22" x="459" y="23.1387">LNA</text><text fill="#000000" font-family="sans-serif" font-size="12" lengthAdjust="spacingAndGlyphs" textLength="51" x="459" y="37.1074">ramp-up</text><!--MD5=[eaa47f6ee6342ee922205139089f0e36]
@startuml
concise "Operation" as op
binary "Timer running" as tm
binary "LNA active" as lna
binary "Deactivation event" as ev

scale 10 as 120 pixels

tm is low
lna is low
op is "Idle"
ev is low

@0
op is "Ramp-up"
tm is high

@27
tm is low
lna is high

tm@0 <-> @27: 40-13=27 us
tm@27 <-> @40: 13 us
highlight 27 to 40 #LightGrey;line:DimGrey : LNA\nramp-up

@40
op is Rx

@60
op is "Idle"
lna is low
ev is high
@enduml

PlantUML version 1.2020.17beta5(Unknown compile time)
(GPL source distribution)
Java Runtime: Java(TM) SE Runtime Environment
JVM: Java HotSpot(TM) 64-Bit Server VM
Default Encoding: UTF-8
Language: en
Country: US
--></g></svg>