<?xml version="1.0" encoding="UTF-8" standalone="no"?>
<svg xmlns="http://www.w3.org/2000/svg" xmlns:xlink="http://www.w3.org/1999/xlink" contentScriptType="application/ecmascript" contentStyleType="text/css" height="542px" preserveAspectRatio="none" style="width:384px;height:542px;" version="1.1" viewBox="0 0 384 542" width="384px" zoomAndPan="magnify"><defs><filter height="300%" id="fvravsbponoyb" width="300%" x="-1" y="-1"><feGaussianBlur result="blurOut" stdDeviation="2.0"/><feColorMatrix in="blurOut" result="blurOut2" type="matrix" values="0 0 0 0 0 0 0 0 0 0 0 0 0 0 0 0 0 0 .4 0"/><feOffset dx="4.0" dy="4.0" in="blurOut2" result="blurOut3"/><feBlend in="SourceGraphic" in2="blurOut3" mode="normal"/></filter></defs><g><line style="stroke: #A80036; stroke-width: 1.0;" x1="57" x2="57" y1="54.5938" y2="269.7891"/><line style="stroke: #A80036; stroke-width: 1.0; stroke-dasharray: 1.0,4.0;" x1="57" x2="57" y1="269.7891" y2="310.5938"/><line style="stroke: #A80036; stroke-width: 1.0;" x1="57" x2="57" y1="310.5938" y2="368.8594"/><line style="stroke: #A80036; stroke-width: 1.0; stroke-dasharray: 1.0,4.0;" x1="57" x2="57" y1="368.8594" y2="409.6641"/><line style="stroke: #A80036; stroke-width: 1.0;" x1="57" x2="57" y1="409.6641" y2="477.9297"/><line style="stroke: #A80036; stroke-width: 1.0;" x1="172" x2="172" y1="54.5938" y2="269.7891"/><line style="stroke: #A80036; stroke-width: 1.0; stroke-dasharray: 1.0,4.0;" x1="172" x2="172" y1="269.7891" y2="310.5938"/><line style="stroke: #A80036; stroke-width: 1.0;" x1="172" x2="172" y1="310.5938" y2="368.8594"/><line style="stroke: #A80036; stroke-width: 1.0; stroke-dasharray: 1.0,4.0;" x1="172" x2="172" y1="368.8594" y2="409.6641"/><line style="stroke: #A80036; stroke-width: 1.0;" x1="172" x2="172" y1="409.6641" y2="477.9297"/><line style="stroke: #A80036; stroke-width: 1.0;" x1="327.5" x2="327.5" y1="54.5938" y2="269.7891"/><line style="stroke: #A80036; stroke-width: 1.0; stroke-dasharray: 1.0,4.0;" x1="327.5" x2="327.5" y1="269.7891" y2="310.5938"/><line style="stroke: #A80036; stroke-width: 1.0;" x1="327.5" x2="327.5" y1="310.5938" y2="368.8594"/><line style="stroke: #A80036; stroke-width: 1.0; stroke-dasharray: 1.0,4.0;" x1="327.5" x2="327.5" y1="368.8594" y2="409.6641"/><line style="stroke: #A80036; stroke-width: 1.0;" x1="327.5" x2="327.5" y1="409.6641" y2="477.9297"/><rect fill="#FEFECE" filter="url(#fvravsbponoyb)" height="30.2969" style="stroke: #A80036; stroke-width: 1.5;" width="95" x="8" y="19.2969"/><text fill="#000000" font-family="sans-serif" font-size="14" lengthAdjust="spacingAndGlyphs" textLength="81" x="15" y="39.292">application</text><rect fill="#FEFECE" filter="url(#fvravsbponoyb)" height="30.2969" style="stroke: #A80036; stroke-width: 1.5;" width="95" x="8" y="476.9297"/><text fill="#000000" font-family="sans-serif" font-size="14" lengthAdjust="spacingAndGlyphs" textLength="81" x="15" y="496.9248">application</text><rect fill="#FEFECE" filter="url(#fvravsbponoyb)" height="46.5938" style="stroke: #A80036; stroke-width: 1.5;" width="67" x="137" y="3"/><text fill="#000000" font-family="sans-serif" font-size="14" lengthAdjust="spacingAndGlyphs" textLength="29" x="156" y="22.9951">FEM</text><text fill="#000000" font-family="sans-serif" font-size="14" lengthAdjust="spacingAndGlyphs" textLength="53" x="144" y="39.292">module</text><rect fill="#FEFECE" filter="url(#fvravsbponoyb)" height="46.5938" style="stroke: #A80036; stroke-width: 1.5;" width="67" x="137" y="476.9297"/><text fill="#000000" font-family="sans-serif" font-size="14" lengthAdjust="spacingAndGlyphs" textLength="29" x="156" y="496.9248">FEM</text><text fill="#000000" font-family="sans-serif" font-size="14" lengthAdjust="spacingAndGlyphs" textLength="53" x="144" y="513.2217">module</text><rect fill="#FEFECE" filter="url(#fvravsbponoyb)" height="30.2969" style="stroke: #A80036; stroke-width: 1.5;" width="80" x="285.5" y="19.2969"/><text fill="#000000" font-family="sans-serif" font-size="14" lengthAdjust="spacingAndGlyphs" textLength="66" x="292.5" y="39.292">hardware</text><rect fill="#FEFECE" filter="url(#fvravsbponoyb)" height="30.2969" style="stroke: #A80036; stroke-width: 1.5;" width="80" x="285.5" y="476.9297"/><text fill="#000000" font-family="sans-serif" font-size="14" lengthAdjust="spacingAndGlyphs" textLength="66" x="292.5" y="496.9248">hardware</text><polygon fill="#A80036" points="160.5,127.125,170.5,131.125,160.5,135.125,164.5,131.125" style="stroke: #A80036; stroke-width: 1.0;"/><line style="stroke: #A80036; stroke-width: 1.0;" x1="57.5" x2="166.5" y1="131.125" y2="131.125"/><text fill="#000000" font-family="sans-serif" font-size="13" lengthAdjust="spacingAndGlyphs" textLength="89" x="64.5" y="80.6606">configure LNA</text><text fill="#000000" font-family="sans-serif" font-size="13" lengthAdjust="spacingAndGlyphs" textLength="82" x="64.5" y="95.7935">time = 40 us</text><text fill="#000000" font-family="sans-serif" font-size="13" lengthAdjust="spacingAndGlyphs" textLength="90" x="64.5" y="110.9263">timer=TIMER0</text><text fill="#000000" font-family="sans-serif" font-size="13" lengthAdjust="spacingAndGlyphs" textLength="91" x="64.5" y="126.0591">event=rx_end</text><line style="stroke: #A80036; stroke-width: 1.0;" x1="172.5" x2="214.5" y1="175.3906" y2="175.3906"/><line style="stroke: #A80036; stroke-width: 1.0;" x1="214.5" x2="214.5" y1="175.3906" y2="188.3906"/><line style="stroke: #A80036; stroke-width: 1.0;" x1="173.5" x2="214.5" y1="188.3906" y2="188.3906"/><polygon fill="#A80036" points="183.5,184.3906,173.5,188.3906,183.5,192.3906,179.5,188.3906" style="stroke: #A80036; stroke-width: 1.0;"/><text fill="#000000" font-family="sans-serif" font-size="13" lengthAdjust="spacingAndGlyphs" textLength="57" x="179.5" y="155.1919">calculate</text><text fill="#000000" font-family="sans-serif" font-size="13" lengthAdjust="spacingAndGlyphs" textLength="47" x="179.5" y="170.3247">timings</text><polygon fill="#A80036" points="315.5,228.6563,325.5,232.6563,315.5,236.6563,319.5,232.6563" style="stroke: #A80036; stroke-width: 1.0;"/><line style="stroke: #A80036; stroke-width: 1.0;" x1="172.5" x2="321.5" y1="232.6563" y2="232.6563"/><text fill="#000000" font-family="sans-serif" font-size="13" lengthAdjust="spacingAndGlyphs" textLength="131" x="179.5" y="212.4575">set TIMER0 compare</text><text fill="#000000" font-family="sans-serif" font-size="13" lengthAdjust="spacingAndGlyphs" textLength="102" x="179.5" y="227.5903">channel to 27us</text><polygon fill="#A80036" points="315.5,257.7891,325.5,261.7891,315.5,265.7891,319.5,261.7891" style="stroke: #A80036; stroke-width: 1.0;"/><line style="stroke: #A80036; stroke-width: 1.0;" x1="57.5" x2="321.5" y1="261.7891" y2="261.7891"/><text fill="#000000" font-family="sans-serif" font-size="13" lengthAdjust="spacingAndGlyphs" textLength="80" x="64.5" y="256.7231">start TIMER0</text><text fill="#000000" font-family="sans-serif" font-size="11" lengthAdjust="spacingAndGlyphs" textLength="133" x="126" y="293.9995">Waiting for timer event</text><polygon fill="#A80036" points="183.5,327.7266,173.5,331.7266,183.5,335.7266,179.5,331.7266" style="stroke: #A80036; stroke-width: 1.0;"/><line style="stroke: #A80036; stroke-width: 1.0;" x1="177.5" x2="326.5" y1="331.7266" y2="331.7266"/><text fill="#000000" font-family="sans-serif" font-size="13" lengthAdjust="spacingAndGlyphs" textLength="87" x="189.5" y="326.6606">TIMER0 event</text><polygon fill="#A80036" points="315.5,356.8594,325.5,360.8594,315.5,364.8594,319.5,360.8594" style="stroke: #A80036; stroke-width: 1.0;"/><line style="stroke: #A80036; stroke-width: 1.0;" x1="172.5" x2="321.5" y1="360.8594" y2="360.8594"/><text fill="#000000" font-family="sans-serif" font-size="13" lengthAdjust="spacingAndGlyphs" textLength="81" x="179.5" y="355.7935">activate LNA</text><text fill="#000000" font-family="sans-serif" font-size="11" lengthAdjust="spacingAndGlyphs" textLength="72" x="156.5" y="393.0698">Rx operation</text><polygon fill="#A80036" points="183.5,426.7969,173.5,430.7969,183.5,434.7969,179.5,430.7969" style="stroke: #A80036; stroke-width: 1.0;"/><line style="stroke: #A80036; stroke-width: 1.0;" x1="177.5" x2="326.5" y1="430.7969" y2="430.7969"/><text fill="#000000" font-family="sans-serif" font-size="13" lengthAdjust="spacingAndGlyphs" textLength="44" x="189.5" y="425.731">rx_end</text><polygon fill="#A80036" points="315.5,455.9297,325.5,459.9297,315.5,463.9297,319.5,459.9297" style="stroke: #A80036; stroke-width: 1.0;"/><line style="stroke: #A80036; stroke-width: 1.0;" x1="172.5" x2="321.5" y1="459.9297" y2="459.9297"/><text fill="#000000" font-family="sans-serif" font-size="13" lengthAdjust="spacingAndGlyphs" textLength="97" x="179.5" y="454.8638">deactivate LNA</text><!--MD5=[7617e8ba3ae3d7dbe1c121c191fb0b85]
@startuml
participant application as app
participant "FEM\nmodule" as fem
participant hardware as hw

app->fem: configure LNA\ntime = 40 us\ntimer=TIMER0\nevent=rx_end
fem->fem: calculate\ntimings
fem->hw: set TIMER0 compare\nchannel to 27us

app->hw: start TIMER0
... Waiting for timer event ...

hw->fem: TIMER0 event
fem->hw: activate LNA

... Rx operation ...

hw->fem: rx_end
fem->hw: deactivate LNA
@enduml

PlantUML version 1.2020.17beta5(Unknown compile time)
(GPL source distribution)
Java Runtime: Java(TM) SE Runtime Environment
JVM: Java HotSpot(TM) 64-Bit Server VM
Default Encoding: UTF-8
Language: en
Country: US
--></g></svg>