<?xml version="1.0" encoding="UTF-8" standalone="no"?>
<!DOCTYPE svg PUBLIC "-//W3C//DTD SVG 1.1//EN" "http://www.w3.org/Graphics/SVG/1.1/DTD/svg11.dtd">
<!-- Generated by Microsoft Visio, SVG Export gap_between_central_links_sufficient_s145.svg Page-1 -->
<svg xmlns="http://www.w3.org/2000/svg" xmlns:xlink="http://www.w3.org/1999/xlink" xmlns:ev="http://www.w3.org/2001/xml-events"
		width="9.06534in" height="1.90985in" viewBox="0 0 652.705 137.509" xml:space="preserve" color-interpolation-filters="sRGB"
		class="st20">
	<style type="text/css">
	<![CDATA[
		.st1 {marker-end:url(#mrkr1-9);marker-start:url(#mrkr1-7);stroke:#000000;stroke-linecap:round;stroke-linejoin:round;stroke-width:1.2}
		.st2 {fill:#000000;fill-opacity:1;stroke:#000000;stroke-opacity:1;stroke-width:0.32258064516129}
		.st3 {fill:#ffffff;stroke:none;stroke-linecap:butt;stroke-width:7.2}
		.st4 {fill:#000000;font-family:Arial;font-size:0.75em}
		.st5 {baseline-shift:-32.4951%;font-size:0.649902em}
		.st6 {fill:#88b7e4;stroke:none;stroke-linecap:round;stroke-linejoin:round;stroke-width:0.24}
		.st7 {fill:#000000;font-family:Arial;font-size:0.666664em}
		.st8 {font-size:1em}
		.st9 {fill:#d3d2c3;stroke:none;stroke-linecap:round;stroke-linejoin:round;stroke-width:0.24}
		.st10 {marker-end:url(#mrkr5-27);stroke:#7f7f7f;stroke-linecap:round;stroke-linejoin:round;stroke-width:3.12}
		.st11 {fill:#7f7f7f;fill-opacity:1;stroke:#7f7f7f;stroke-opacity:1;stroke-width:0.5531914893617}
		.st12 {fill:none;stroke:none;stroke-linecap:round;stroke-linejoin:round;stroke-width:0.72}
		.st13 {fill:#000000;font-family:Arial;font-size:1.00001em}
		.st14 {fill:#cbd5e0;stroke:none;stroke-linecap:round;stroke-linejoin:round;stroke-width:0.24}
		.st15 {stroke:#000000;stroke-dasharray:1.2,2.4;stroke-linecap:round;stroke-linejoin:round;stroke-width:1.2}
		.st16 {marker-start:url(#mrkr3-55);stroke:#000000;stroke-dasharray:1.2,2.4;stroke-linecap:round;stroke-linejoin:round;stroke-width:1.2}
		.st17 {baseline-shift:-32.4941%;font-size:0.649882em}
		.st18 {fill:#ffffff;stroke:none;stroke-linecap:butt}
		.st19 {fill:#666666;stroke:none;stroke-linecap:round;stroke-linejoin:round;stroke-width:0.24}
		.st20 {fill:none;fill-rule:evenodd;font-size:12px;overflow:visible;stroke-linecap:square;stroke-miterlimit:3}
	]]>
	</style>

	<defs id="Markers">
		<g id="lend1">
			<path d="M 1 -1 L 0 0 L 1 1 " style="stroke-linecap:round;stroke-linejoin:round;fill:none"/>
		</g>
		<marker id="mrkr1-7" class="st2" orient="auto" markerUnits="strokeWidth" overflow="visible">
			<use xlink:href="#lend1" transform="scale(3.1) "/>
		</marker>
		<marker id="mrkr1-9" class="st2" orient="auto" markerUnits="strokeWidth" overflow="visible">
			<use xlink:href="#lend1" transform="scale(-3.1,-3.1) "/>
		</marker>
		<g id="lend5">
			<path d="M 2 1 L 0 0 L 1.98117 -0.993387 C 1.67173 -0.364515 1.67301 0.372641 1.98465 1.00043 " style="stroke:none"/>
		</g>
		<marker id="mrkr5-27" class="st11" refX="-3.1634615384615" orient="auto" markerUnits="strokeWidth" overflow="visible">
			<use xlink:href="#lend5" transform="scale(-1.8076923076923,-1.8076923076923) "/>
		</marker>
		<g id="lend3">
			<path d="M 2 1 L 0 0 L 2 -1 " style="stroke-linecap:round;stroke-linejoin:round;fill:none"/>
		</g>
		<marker id="mrkr3-55" class="st2" orient="auto" markerUnits="strokeWidth" overflow="visible">
			<use xlink:href="#lend3" transform="scale(3.1) "/>
		</marker>
	</defs>
	<g>
		<title>Page-1</title>
		<g id="shape49-1" transform="translate(281.27,-87.2702)">
			<title>Dynamic connector.58</title>
			<desc>tprep</desc>
			<path d="M0 130.42 L36.02 130.42" class="st1"/>
			<rect x="10.9087" y="125.023" width="14.2075" height="11.3371" class="st3"/>
			<text x="10.91" y="133.12" class="st4">t<tspan dy="-0.287em" class="st5">prep</tspan></text>		</g>
		<g id="shape3-13" transform="translate(159.896,-39.0425)">
			<title>Box.47</title>
			<desc>RX</desc>
			<rect x="0" y="88.2486" width="11.9563" height="49.2606" class="st6"/>
			<text x="4" y="110.48" class="st7">R<tspan x="4" dy="1.2em" class="st8">X</tspan></text>		</g>
		<g id="shape4-17" transform="translate(144.589,-39.0425)">
			<title>Box.48</title>
			<desc>TX</desc>
			<rect x="0" y="88.2486" width="11.9563" height="49.2606" class="st9"/>
			<text x="4" y="110.48" class="st7">T<tspan x="4" dy="1.2em" class="st8">X</tspan></text>		</g>
		<g id="group5-21" transform="translate(0.36,-39.4835)">
			<title>Sheet.5</title>
			<g id="shape6-22" transform="translate(12.8166,-1.13687E-13)">
				<title>Dynamic connector.1</title>
				<path d="M7.09 137.51 L7.09 67.77" class="st10"/>
			</g>
			<g id="shape7-28" transform="translate(7.99361E-15,-78.6179)">
				<title>Sheet.7</title>
				<desc>ACTIVE</desc>
				<rect x="0" y="126.275" width="58.703" height="11.2343" class="st12"/>
				<text x="7.68" y="135.49" class="st13">ACTIVE</text>			</g>
		</g>
		<g id="shape8-31" transform="translate(117.553,-39.0425)">
			<title>Box.58</title>
			<desc>P</desc>
			<rect x="0" y="88.2486" width="11.2785" height="49.2606" class="st14"/>
			<text x="4" y="115.28" class="st7">P</text>		</g>
		<g id="shape14-34" transform="translate(104.55,-87.685)">
			<title>Dynamic connector.64</title>
			<desc>tprep</desc>
			<path d="M0 130.42 L36.02 130.42" class="st1"/>
			<rect x="10.9087" y="125.023" width="14.2075" height="11.3371" class="st3"/>
			<text x="10.91" y="133.12" class="st4">t<tspan dy="-0.287em" class="st5">prep</tspan></text>		</g>
		<g id="shape9-44" transform="translate(104.948,-39.3965)">
			<title>Dynamic connector.9</title>
			<path d="M0 137.51 L0 87.75 L35.54 87.75" class="st15"/>
		</g>
		<g id="shape10-47" transform="translate(133.399,-39.0425)">
			<title>Dynamic connector.10</title>
			<path d="M7.09 137.51 L7.09 87.75" class="st15"/>
		</g>
		<g id="shape11-50" transform="translate(104.761,-56.5861)">
			<title>Dynamic connector.61</title>
			<path d="M1.38 130.42 L12.79 130.42" class="st16"/>
		</g>
		<g id="shape12-56" transform="translate(141.624,-56.5861)">
			<title>Dynamic connector.62</title>
			<path d="M-1.38 130.42 L-12.79 130.42" class="st16"/>
		</g>
		<g id="shape13-61" transform="translate(21.8997,-87.685)">
			<title>Dynamic connector.63</title>
			<desc>tndist</desc>
			<path d="M0 130.42 L82.65 130.42" class="st1"/>
			<rect x="31.4215" y="123.223" width="19.807" height="15.1158" class="st3"/>
			<text x="31.42" y="134.02" class="st13">t<tspan dy="-0.287em" class="st17">ndist</tspan></text>		</g>
		<g id="shape16-71" transform="translate(143.223,-87.7111)">
			<title>Dynamic connector.16</title>
			<desc>tradio</desc>
			<path d="M0 130.45 L46.2 130.4" class="st1"/>
			<rect x="15.349" y="125.023" width="15.5069" height="11.3371" class="st3"/>
			<text x="15.35" y="133.12" class="st4">t<tspan dy="-0.287em" class="st5">radio</tspan></text>		</g>
		<g id="shape42-81" transform="translate(336.448,-38.6277)">
			<title>Box.51</title>
			<desc>RX</desc>
			<rect x="0" y="88.2486" width="11.9563" height="49.2606" class="st6"/>
			<text x="4" y="110.48" class="st7">R<tspan x="4" dy="1.2em" class="st8">X</tspan></text>		</g>
		<g id="shape43-85" transform="translate(320.479,-38.6277)">
			<title>Box.52</title>
			<desc>TX</desc>
			<rect x="0" y="88.2486" width="11.9563" height="49.2606" class="st9"/>
			<text x="4" y="110.48" class="st7">T<tspan x="4" dy="1.2em" class="st8">X</tspan></text>		</g>
		<g id="shape44-89" transform="translate(294.273,-38.6277)">
			<title>Box.53</title>
			<desc>P</desc>
			<rect x="0" y="88.2486" width="11.2785" height="49.2606" class="st14"/>
			<text x="4" y="115.28" class="st7">P</text>		</g>
		<g id="shape45-92" transform="translate(281.668,-38.6277)">
			<title>Dynamic connector.54</title>
			<path d="M0 137.51 L0 87.75 L35.54 87.75" class="st15"/>
		</g>
		<g id="shape46-95" transform="translate(310.119,-38.6277)">
			<title>Dynamic connector.55</title>
			<path d="M7.09 137.51 L7.09 87.75" class="st15"/>
		</g>
		<g id="shape47-98" transform="translate(281.481,-56.1714)">
			<title>Dynamic connector.56</title>
			<path d="M1.38 130.42 L12.79 130.42" class="st16"/>
		</g>
		<g id="shape48-103" transform="translate(318.344,-56.1714)">
			<title>Dynamic connector.57</title>
			<path d="M-1.38 130.42 L-12.79 130.42" class="st16"/>
		</g>
		<g id="shape50-108" transform="translate(320.822,-87.2702)">
			<title>Dynamic connector.59</title>
			<desc>tradio</desc>
			<path d="M0 130.42 L27.86 130.42" class="st1"/>
			<rect x="6.17895" y="125.023" width="15.5069" height="11.3371" class="st18"/>
			<text x="6.18" y="133.12" class="st4">t<tspan dy="-0.287em" class="st5">radio</tspan></text>		</g>
		<g id="shape51-118" transform="translate(104.55,-20.5877)">
			<title>Sheet.51</title>
			<desc>Link-0</desc>
			<rect x="0" y="123.336" width="68.0315" height="14.1732" class="st12"/>
			<text x="17.67" y="134.02" class="st13">Link-0</text>		</g>
		<g id="shape54-121" transform="translate(281.27,-21.5902)">
			<title>Sheet.54</title>
			<desc>Link-2</desc>
			<rect x="0" y="123.336" width="68.0315" height="14.1732" class="st12"/>
			<text x="17.67" y="134.02" class="st13">Link-2</text>		</g>
		<g id="shape80-124" transform="translate(247.724,-38.6277)">
			<title>Box.80</title>
			<desc>RX</desc>
			<rect x="0" y="88.2486" width="11.9563" height="49.2606" class="st6"/>
			<text x="4" y="110.48" class="st7">R<tspan x="4" dy="1.2em" class="st8">X</tspan></text>		</g>
		<g id="shape81-128" transform="translate(232.463,-38.6277)">
			<title>Box.81</title>
			<desc>TX</desc>
			<rect x="0" y="88.2486" width="11.9563" height="49.2606" class="st9"/>
			<text x="4" y="110.48" class="st7">T<tspan x="4" dy="1.2em" class="st8">X</tspan></text>		</g>
		<g id="shape82-132" transform="translate(205.549,-38.6277)">
			<title>Box.82</title>
			<desc>P</desc>
			<rect x="0" y="88.2486" width="11.2785" height="49.2606" class="st14"/>
			<text x="4" y="115.28" class="st7">P</text>		</g>
		<g id="shape87-135" transform="translate(192.545,-87.2702)">
			<title>Dynamic connector.87</title>
			<desc>tprep</desc>
			<path d="M0 130.42 L36.02 130.42" class="st1"/>
			<rect x="10.9087" y="125.023" width="14.2075" height="11.3371" class="st3"/>
			<text x="10.91" y="133.12" class="st4">t<tspan dy="-0.287em" class="st5">prep</tspan></text>		</g>
		<g id="shape83-145" transform="translate(192.943,-39.3965)">
			<title>Dynamic connector.83</title>
			<path d="M0 137.51 L0 87.75 L35.54 87.75" class="st15"/>
		</g>
		<g id="shape84-148" transform="translate(221.395,-38.6277)">
			<title>Dynamic connector.84</title>
			<path d="M7.09 137.51 L7.09 87.75" class="st15"/>
		</g>
		<g id="shape85-151" transform="translate(192.757,-56.1714)">
			<title>Dynamic connector.85</title>
			<path d="M1.38 130.42 L12.79 130.42" class="st16"/>
		</g>
		<g id="shape86-156" transform="translate(229.62,-56.1714)">
			<title>Dynamic connector.86</title>
			<path d="M-1.38 130.42 L-12.79 130.42" class="st16"/>
		</g>
		<g id="shape88-161" transform="translate(231.947,-87.1704)">
			<title>Dynamic connector.88</title>
			<desc>tradio</desc>
			<path d="M0 130.42 L46.49 130.42" class="st1"/>
			<rect x="15.4908" y="125.023" width="15.5069" height="11.3371" class="st3"/>
			<text x="15.49" y="133.12" class="st4">t<tspan dy="-0.287em" class="st5">radio</tspan></text>		</g>
		<g id="shape89-171" transform="translate(192.545,-21.5902)">
			<title>Sheet.89</title>
			<desc>Link-1</desc>
			<rect x="0" y="123.336" width="68.0315" height="14.1732" class="st12"/>
			<text x="17.67" y="134.02" class="st13">Link-1</text>		</g>
		<g id="group110-174" transform="translate(583.337,-37.6251)">
			<title>Sheet.110</title>
			<g id="shape111-175" transform="translate(26.9291,-1.42109E-13)">
				<title>Dynamic connector.2</title>
				<path d="M7.09 137.51 L7.09 65.04" class="st10"/>
			</g>
			<g id="shape112-180" transform="translate(0,-81.0128)">
				<title>Sheet.112</title>
				<desc>nACTIVE</desc>
				<rect x="0" y="125.89" width="69.0079" height="11.619" class="st12"/>
				<text x="9.5" y="135.3" class="st13">nACTIVE</text>			</g>
		</g>
		<g id="shape116-183" transform="translate(571.119,-39.5392)">
			<title>Box.116</title>
			<desc>TX</desc>
			<rect x="0" y="88.2486" width="11.9563" height="49.2606" class="st6"/>
			<text x="4" y="110.48" class="st7">T<tspan x="4" dy="1.2em" class="st8">X</tspan></text>		</g>
		<g id="shape117-187" transform="translate(555.151,-39.5392)">
			<title>Box.117</title>
			<desc>RX</desc>
			<rect x="0" y="88.2486" width="11.9563" height="49.2606" class="st9"/>
			<text x="4" y="110.48" class="st7">R<tspan x="4" dy="1.2em" class="st8">X</tspan></text>		</g>
		<g id="shape118-191" transform="translate(528.945,-39.5392)">
			<title>Box.118</title>
			<desc>P</desc>
			<rect x="0" y="88.2486" width="11.2785" height="49.2606" class="st14"/>
			<text x="4" y="115.28" class="st7">P</text>		</g>
		<g id="shape123-194" transform="translate(515.941,-88.1817)">
			<title>Dynamic connector.123</title>
			<desc>tprep</desc>
			<path d="M0 130.42 L36.02 130.42" class="st1"/>
			<rect x="10.9087" y="125.023" width="14.2075" height="11.3371" class="st3"/>
			<text x="10.91" y="133.12" class="st4">t<tspan dy="-0.287em" class="st5">prep</tspan></text>		</g>
		<g id="shape119-204" transform="translate(516.339,-39.5392)">
			<title>Dynamic connector.119</title>
			<path d="M0 137.51 L0 87.75 L35.54 87.75" class="st15"/>
		</g>
		<g id="shape120-207" transform="translate(544.791,-39.5392)">
			<title>Dynamic connector.120</title>
			<path d="M7.09 137.51 L7.09 87.75" class="st15"/>
		</g>
		<g id="shape121-210" transform="translate(516.153,-57.0828)">
			<title>Dynamic connector.121</title>
			<path d="M1.38 130.42 L12.79 130.42" class="st16"/>
		</g>
		<g id="shape122-215" transform="translate(553.015,-57.0828)">
			<title>Dynamic connector.122</title>
			<path d="M-1.38 130.42 L-12.79 130.42" class="st16"/>
		</g>
		<g id="shape124-220" transform="translate(556.691,-88.1296)">
			<title>Dynamic connector.124</title>
			<desc>tradio</desc>
			<path d="M0 130.47 L42.24 130.37" class="st1"/>
			<rect x="13.3648" y="125.023" width="15.5069" height="11.3371" class="st3"/>
			<text x="13.36" y="133.12" class="st4">t<tspan dy="-0.287em" class="st5">radio</tspan></text>		</g>
		<g id="shape125-230" transform="translate(516.545,-22.5017)">
			<title>Sheet.125</title>
			<desc>Link-3</desc>
			<rect x="0" y="123.336" width="85.0394" height="14.1732" class="st12"/>
			<text x="26.18" y="134.02" class="st13">Link-3</text>		</g>
		<g id="shape126-233" transform="translate(367.726,-4.11524)">
			<title>Dynamic connector.126</title>
			<desc>tgap</desc>
			<path d="M0 130.42 L148.44 130.42" class="st1"/>
			<rect x="66.0478" y="123.223" width="16.3455" height="15.1158" class="st3"/>
			<text x="66.05" y="134.02" class="st13">t<tspan dy="-0.287em" class="st17">gap</tspan></text>		</g>
		<g id="shape129-243" transform="translate(415.03,-39.5483)">
			<title>Dynamic connector.1</title>
			<path d="M7.09 137.51 L7.09 67.77" class="st10"/>
		</g>
		<g id="shape130-248" transform="translate(399.851,-124.692)">
			<title>Sheet.130</title>
			<desc>ACTIVE</desc>
			<rect x="0" y="126.275" width="58.703" height="11.2343" class="st12"/>
			<text x="7.68" y="135.49" class="st13">ACTIVE</text>		</g>
		<g id="shape131-251" transform="translate(424.041,-88.1817)">
			<title>Dynamic connector.131</title>
			<desc>tndist</desc>
			<path d="M0 130.42 L91.9 130.42" class="st1"/>
			<rect x="36.0464" y="123.223" width="19.807" height="15.1158" class="st3"/>
			<text x="36.05" y="134.02" class="st13">t<tspan dy="-0.287em" class="st17">ndist</tspan></text>		</g>
		<g id="shape132-261" transform="translate(367.238,-39.0425)">
			<title>Dynamic connector.2</title>
			<path d="M7.09 137.51 L7.09 65.04" class="st10"/>
		</g>
		<g id="shape133-266" transform="translate(340.309,-123.852)">
			<title>Sheet.133</title>
			<desc>nACTIVE</desc>
			<rect x="0" y="125.89" width="69.0079" height="11.619" class="st12"/>
			<text x="9.5" y="135.3" class="st13">nACTIVE</text>		</g>
		<g id="shape135-269" transform="translate(586.171,-62.3343)">
			<title>Circle.135</title>
			<path d="M0 136.2 A1.30852 1.30852 0 1 1 2.62 136.2 A1.30852 1.30852 0 1 1 0 136.2 Z" class="st19"/>
		</g>
		<g id="shape136-271" transform="translate(590.471,-62.3343)">
			<title>Circle.136</title>
			<path d="M0 136.2 A1.30852 1.30852 0 1 1 2.62 136.2 A1.30852 1.30852 0 1 1 0 136.2 Z" class="st19"/>
		</g>
		<g id="shape137-273" transform="translate(594.77,-62.3343)">
			<title>Circle.137</title>
			<path d="M0 136.2 A1.30852 1.30852 0 1 1 2.62 136.2 A1.30852 1.30852 0 1 1 0 136.2 Z" class="st19"/>
		</g>
		<g id="shape138-275" transform="translate(554.585,-39.5483)">
			<title>Dynamic connector.138</title>
			<path d="M0 137.51 L0 87.75 L45.27 87.75" class="st15"/>
		</g>
		<g id="shape139-278" transform="translate(593.258,-39.0425)">
			<title>Dynamic connector.139</title>
			<path d="M7.09 137.51 L7.09 87.75" class="st15"/>
		</g>
		<g id="shape141-281" transform="translate(143.759,-39.3965)">
			<title>Dynamic connector.141</title>
			<path d="M0 137.51 L0 87.75 L39.18 87.75" class="st15"/>
		</g>
		<g id="shape142-284" transform="translate(176.955,-39.3965)">
			<title>Dynamic connector.142</title>
			<path d="M7.09 137.51 L12.4 137.51 L12.4 87.75 L7.09 87.75" class="st15"/>
		</g>
		<g id="shape143-287" transform="translate(174.465,-60.8082)">
			<title>Circle.143</title>
			<path d="M0 136.2 A1.30852 1.30852 0 1 1 2.62 136.2 A1.30852 1.30852 0 1 1 0 136.2 Z" class="st19"/>
		</g>
		<g id="shape144-289" transform="translate(178.764,-60.8082)">
			<title>Circle.144</title>
			<path d="M0 136.2 A1.30852 1.30852 0 1 1 2.62 136.2 A1.30852 1.30852 0 1 1 0 136.2 Z" class="st19"/>
		</g>
		<g id="shape145-291" transform="translate(183.064,-60.8082)">
			<title>Circle.145</title>
			<path d="M0 136.2 A1.30852 1.30852 0 1 1 2.62 136.2 A1.30852 1.30852 0 1 1 0 136.2 Z" class="st19"/>
		</g>
		<g id="shape213-293" transform="translate(233.081,-39.2648)">
			<title>Dynamic connector.213</title>
			<path d="M0 137.51 L0 87.75 L42.52 87.75" class="st15"/>
		</g>
		<g id="shape214-296" transform="translate(268.514,-39.2648)">
			<title>Dynamic connector.214</title>
			<path d="M7.09 137.51 L7.09 87.75" class="st15"/>
		</g>
		<g id="shape215-299" transform="translate(262.623,-60.8082)">
			<title>Circle.215</title>
			<path d="M0 136.2 A1.30852 1.30852 0 1 1 2.62 136.2 A1.30852 1.30852 0 1 1 0 136.2 Z" class="st19"/>
		</g>
		<g id="shape216-301" transform="translate(266.922,-60.8082)">
			<title>Circle.216</title>
			<path d="M0 136.2 A1.30852 1.30852 0 1 1 2.62 136.2 A1.30852 1.30852 0 1 1 0 136.2 Z" class="st19"/>
		</g>
		<g id="shape217-303" transform="translate(271.221,-60.8082)">
			<title>Circle.217</title>
			<path d="M0 136.2 A1.30852 1.30852 0 1 1 2.62 136.2 A1.30852 1.30852 0 1 1 0 136.2 Z" class="st19"/>
		</g>
		<g id="shape218-305" transform="translate(319.908,-39.0425)">
			<title>Dynamic connector.218</title>
			<path d="M0 137.51 L0 87.75 L43.57 87.75" class="st15"/>
		</g>
		<g id="shape219-308" transform="translate(352.136,-60.8082)">
			<title>Circle.219</title>
			<path d="M0 136.2 A1.30852 1.30852 0 1 1 2.62 136.2 A1.30852 1.30852 0 1 1 0 136.2 Z" class="st19"/>
		</g>
		<g id="shape220-310" transform="translate(356.435,-60.8082)">
			<title>Circle.220</title>
			<path d="M0 136.2 A1.30852 1.30852 0 1 1 2.62 136.2 A1.30852 1.30852 0 1 1 0 136.2 Z" class="st19"/>
		</g>
		<g id="shape221-312" transform="translate(360.735,-60.8082)">
			<title>Circle.221</title>
			<path d="M0 136.2 A1.30852 1.30852 0 1 1 2.62 136.2 A1.30852 1.30852 0 1 1 0 136.2 Z" class="st19"/>
		</g>
		<g id="shape222-314" transform="translate(354.687,-39.0425)">
			<title>Dynamic connector.222</title>
			<path d="M7.09 137.51 L12.4 137.51 L12.4 87.75 L7.09 87.75" class="st15"/>
		</g>
	</g>
</svg>
