<?xml version="1.0" encoding="UTF-8" standalone="no"?>
<!DOCTYPE svg PUBLIC "-//W3C//DTD SVG 1.1//EN" "http://www.w3.org/Graphics/SVG/1.1/DTD/svg11.dtd">
<!-- Generated by Microsoft Visio, SVG Export gap_between_central_links_too_small_and_peripheral_too_small_s145.svg Page-1 -->
<svg xmlns="http://www.w3.org/2000/svg" xmlns:xlink="http://www.w3.org/1999/xlink" xmlns:ev="http://www.w3.org/2001/xml-events"
		width="7.50098in" height="1.89675in" viewBox="0 0 540.071 136.566" xml:space="preserve" color-interpolation-filters="sRGB"
		class="st21">
	<style type="text/css">
	<![CDATA[
		.st1 {marker-end:url(#mrkr1-9);marker-start:url(#mrkr1-7);stroke:#000000;stroke-linecap:round;stroke-linejoin:round;stroke-width:1.2}
		.st2 {fill:#000000;fill-opacity:1;stroke:#000000;stroke-opacity:1;stroke-width:0.32258064516129}
		.st3 {fill:#ffffff;stroke:none;stroke-linecap:butt;stroke-width:7.2}
		.st4 {fill:#000000;font-family:Arial;font-size:0.75em}
		.st5 {baseline-shift:-32.4951%;font-size:0.649902em}
		.st6 {fill:#88b7e4;stroke:none;stroke-linecap:round;stroke-linejoin:round;stroke-width:0.24}
		.st7 {fill:#000000;font-family:Arial;font-size:0.666664em}
		.st8 {font-size:1em}
		.st9 {fill:#d3d2c3;stroke:none;stroke-linecap:round;stroke-linejoin:round;stroke-width:0.24}
		.st10 {marker-end:url(#mrkr5-27);stroke:#7f7f7f;stroke-linecap:round;stroke-linejoin:round;stroke-width:3.12}
		.st11 {fill:#7f7f7f;fill-opacity:1;stroke:#7f7f7f;stroke-opacity:1;stroke-width:0.5531914893617}
		.st12 {fill:none;stroke:none;stroke-linecap:round;stroke-linejoin:round;stroke-width:0.72}
		.st13 {fill:#000000;font-family:Arial;font-size:1.00001em}
		.st14 {fill:#cbd5e0;stroke:none;stroke-linecap:round;stroke-linejoin:round;stroke-width:0.24}
		.st15 {stroke:#000000;stroke-dasharray:1.2,2.4;stroke-linecap:round;stroke-linejoin:round;stroke-width:1.2}
		.st16 {marker-start:url(#mrkr3-45);stroke:#000000;stroke-dasharray:1.2,2.4;stroke-linecap:round;stroke-linejoin:round;stroke-width:1.2}
		.st17 {baseline-shift:-32.4941%;font-size:0.649882em}
		.st18 {marker-end:url(#mrkr1-241);marker-start:url(#mrkr1-239);stroke:#000000;stroke-linecap:round;stroke-linejoin:round;stroke-width:1}
		.st19 {fill:#000000;fill-opacity:1;stroke:#000000;stroke-opacity:1;stroke-width:0.28409090909091}
		.st20 {fill:#666666;stroke:none;stroke-linecap:round;stroke-linejoin:round;stroke-width:0.24}
		.st21 {fill:none;fill-rule:evenodd;font-size:12px;overflow:visible;stroke-linecap:square;stroke-miterlimit:3}
	]]>
	</style>

	<defs id="Markers">
		<g id="lend1">
			<path d="M 1 -1 L 0 0 L 1 1 " style="stroke-linecap:round;stroke-linejoin:round;fill:none"/>
		</g>
		<marker id="mrkr1-7" class="st2" orient="auto" markerUnits="strokeWidth" overflow="visible">
			<use xlink:href="#lend1" transform="scale(3.1) "/>
		</marker>
		<marker id="mrkr1-9" class="st2" orient="auto" markerUnits="strokeWidth" overflow="visible">
			<use xlink:href="#lend1" transform="scale(-3.1,-3.1) "/>
		</marker>
		<g id="lend5">
			<path d="M 2 1 L 0 0 L 1.98117 -0.993387 C 1.67173 -0.364515 1.67301 0.372641 1.98465 1.00043 " style="stroke:none"/>
		</g>
		<marker id="mrkr5-27" class="st11" refX="-3.1634615384615" orient="auto" markerUnits="strokeWidth" overflow="visible">
			<use xlink:href="#lend5" transform="scale(-1.8076923076923,-1.8076923076923) "/>
		</marker>
		<g id="lend3">
			<path d="M 2 1 L 0 0 L 2 -1 " style="stroke-linecap:round;stroke-linejoin:round;fill:none"/>
		</g>
		<marker id="mrkr3-45" class="st2" orient="auto" markerUnits="strokeWidth" overflow="visible">
			<use xlink:href="#lend3" transform="scale(3.1) "/>
		</marker>
		<marker id="mrkr1-239" class="st19" orient="auto" markerUnits="strokeWidth" overflow="visible">
			<use xlink:href="#lend1" transform="scale(3.52) "/>
		</marker>
		<marker id="mrkr1-241" class="st19" orient="auto" markerUnits="strokeWidth" overflow="visible">
			<use xlink:href="#lend1" transform="scale(-3.52,-3.52) "/>
		</marker>
	</defs>
	<g>
		<title>Page-1</title>
		<g id="shape87-1" transform="translate(190.561,-89.8042)">
			<title>Dynamic connector.87</title>
			<desc>tprep</desc>
			<path d="M0 129.48 L36.02 129.48" class="st1"/>
			<rect x="10.9087" y="124.08" width="14.2075" height="11.3371" class="st3"/>
			<text x="10.91" y="132.18" class="st4">t<tspan dy="-0.287em" class="st5">prep</tspan></text>		</g>
		<g id="shape3-13" transform="translate(159.071,-41.1094)">
			<title>Box.47</title>
			<desc>RX</desc>
			<rect x="0" y="87.3055" width="11.9563" height="49.2606" class="st6"/>
			<text x="4" y="109.54" class="st7">R<tspan x="4" dy="1.2em" class="st8">X</tspan></text>		</g>
		<g id="shape4-17" transform="translate(144.589,-41.1094)">
			<title>Box.48</title>
			<desc>TX</desc>
			<rect x="0" y="87.3055" width="11.9563" height="49.2606" class="st9"/>
			<text x="4" y="109.54" class="st7">T<tspan x="4" dy="1.2em" class="st8">X</tspan></text>		</g>
		<g id="group5-21" transform="translate(0.36,-41.5504)">
			<title>Sheet.5</title>
			<g id="shape6-22" transform="translate(12.8166,-1.13687E-13)">
				<title>Dynamic connector.1</title>
				<path d="M7.09 136.57 L7.09 66.82" class="st10"/>
			</g>
			<g id="shape7-28" transform="translate(7.99361E-15,-78.6179)">
				<title>Sheet.7</title>
				<desc>ACTIVE</desc>
				<rect x="0" y="125.332" width="58.703" height="11.2343" class="st12"/>
				<text x="7.68" y="134.55" class="st13">ACTIVE</text>			</g>
		</g>
		<g id="shape8-31" transform="translate(117.553,-41.1094)">
			<title>Box.58</title>
			<desc>P</desc>
			<rect x="0" y="87.3055" width="11.2785" height="49.2606" class="st14"/>
			<text x="4" y="114.34" class="st7">P</text>		</g>
		<g id="shape9-34" transform="translate(104.948,-41.1094)">
			<title>Dynamic connector.9</title>
			<path d="M0 136.57 L0 86.81 L35.54 86.81" class="st15"/>
		</g>
		<g id="shape10-37" transform="translate(133.399,-41.1094)">
			<title>Dynamic connector.10</title>
			<path d="M7.09 136.57 L7.09 86.81" class="st15"/>
		</g>
		<g id="shape11-40" transform="translate(104.761,-58.6531)">
			<title>Dynamic connector.61</title>
			<path d="M1.38 129.48 L12.79 129.48" class="st16"/>
		</g>
		<g id="shape12-46" transform="translate(141.624,-58.6531)">
			<title>Dynamic connector.62</title>
			<path d="M-1.38 129.48 L-12.79 129.48" class="st16"/>
		</g>
		<g id="shape13-51" transform="translate(22.0741,-89.7519)">
			<title>Dynamic connector.63</title>
			<desc>tndist</desc>
			<path d="M0 129.48 L82.48 129.48" class="st1"/>
			<rect x="31.3343" y="122.28" width="19.807" height="15.1158" class="st3"/>
			<text x="31.33" y="133.08" class="st13">t<tspan dy="-0.287em" class="st17">ndist</tspan></text>		</g>
		<g id="shape14-61" transform="translate(104.55,-89.7519)">
			<title>Dynamic connector.64</title>
			<desc>tprep</desc>
			<path d="M0 129.48 L36.02 129.48" class="st1"/>
			<rect x="10.9087" y="124.08" width="14.2075" height="11.3371" class="st3"/>
			<text x="10.91" y="132.18" class="st4">t<tspan dy="-0.287em" class="st5">prep</tspan></text>		</g>
		<g id="shape16-71" transform="translate(142.939,-89.8042)">
			<title>Dynamic connector.16</title>
			<desc>tradio</desc>
			<path d="M0 129.48 L44.5 129.48" class="st1"/>
			<rect x="14.4986" y="124.08" width="15.5069" height="11.3371" class="st3"/>
			<text x="14.5" y="132.18" class="st4">t<tspan dy="-0.287em" class="st5">radio</tspan></text>		</g>
		<g id="shape42-81" transform="translate(330.779,-41.1094)">
			<title>Box.51</title>
			<desc>RX</desc>
			<rect x="0" y="87.3055" width="11.9563" height="49.2606" class="st6"/>
			<text x="4" y="109.54" class="st7">R<tspan x="4" dy="1.2em" class="st8">X</tspan></text>		</g>
		<g id="shape43-85" transform="translate(314.81,-41.1094)">
			<title>Box.52</title>
			<desc>TX</desc>
			<rect x="0" y="87.3055" width="11.9563" height="49.2606" class="st9"/>
			<text x="4" y="109.54" class="st7">T<tspan x="4" dy="1.2em" class="st8">X</tspan></text>		</g>
		<g id="shape44-89" transform="translate(288.604,-41.1094)">
			<title>Box.53</title>
			<desc>P</desc>
			<rect x="0" y="87.3055" width="11.2785" height="49.2606" class="st14"/>
			<text x="4" y="114.34" class="st7">P</text>		</g>
		<g id="shape45-92" transform="translate(275.999,-41.1094)">
			<title>Dynamic connector.54</title>
			<path d="M0 136.57 L0 86.81 L35.54 86.81" class="st15"/>
		</g>
		<g id="shape46-95" transform="translate(304.45,-41.1094)">
			<title>Dynamic connector.55</title>
			<path d="M7.09 136.57 L7.09 86.81" class="st15"/>
		</g>
		<g id="shape47-98" transform="translate(275.812,-58.6531)">
			<title>Dynamic connector.56</title>
			<path d="M1.38 129.48 L12.79 129.48" class="st16"/>
		</g>
		<g id="shape48-103" transform="translate(312.675,-58.6531)">
			<title>Dynamic connector.57</title>
			<path d="M-1.38 129.48 L-12.79 129.48" class="st16"/>
		</g>
		<g id="shape49-108" transform="translate(275.601,-89.7519)">
			<title>Dynamic connector.58</title>
			<desc>tprep</desc>
			<path d="M0 129.48 L36.02 129.48" class="st1"/>
			<rect x="10.9087" y="124.08" width="14.2075" height="11.3371" class="st3"/>
			<text x="10.91" y="132.18" class="st4">t<tspan dy="-0.287em" class="st5">prep</tspan></text>		</g>
		<g id="shape50-118" transform="translate(315.153,-89.7781)">
			<title>Dynamic connector.59</title>
			<desc>tradio</desc>
			<path d="M0 129.51 L42.65 129.45" class="st1"/>
			<rect x="13.5729" y="124.08" width="15.5069" height="11.3371" class="st3"/>
			<text x="13.57" y="132.18" class="st4">t<tspan dy="-0.287em" class="st5">radio</tspan></text>		</g>
		<g id="shape51-128" transform="translate(104.55,-22.6546)">
			<title>Sheet.51</title>
			<desc>Link-0</desc>
			<rect x="0" y="122.393" width="68.0315" height="14.1732" class="st12"/>
			<text x="17.67" y="133.08" class="st13">Link-0</text>		</g>
		<g id="shape54-131" transform="translate(275.601,-24.0719)">
			<title>Sheet.54</title>
			<desc>Link-2</desc>
			<rect x="0" y="122.393" width="68.0315" height="14.1732" class="st12"/>
			<text x="17.67" y="133.08" class="st13">Link-2</text>		</g>
		<g id="shape80-134" transform="translate(245.739,-40.6946)">
			<title>Box.80</title>
			<desc>RX</desc>
			<rect x="0" y="87.3055" width="11.9563" height="49.2606" class="st6"/>
			<text x="4" y="109.54" class="st7">R<tspan x="4" dy="1.2em" class="st8">X</tspan></text>		</g>
		<g id="shape81-138" transform="translate(229.771,-40.6946)">
			<title>Box.81</title>
			<desc>TX</desc>
			<rect x="0" y="87.3055" width="11.9563" height="49.2606" class="st9"/>
			<text x="4" y="109.54" class="st7">T<tspan x="4" dy="1.2em" class="st8">X</tspan></text>		</g>
		<g id="shape82-142" transform="translate(203.565,-40.6946)">
			<title>Box.82</title>
			<desc>P</desc>
			<rect x="0" y="87.3055" width="11.2785" height="49.2606" class="st14"/>
			<text x="4" y="114.34" class="st7">P</text>		</g>
		<g id="shape83-145" transform="translate(190.959,-40.1979)">
			<title>Dynamic connector.83</title>
			<path d="M0 136.57 L0 86.81 L35.54 86.81" class="st15"/>
		</g>
		<g id="shape84-148" transform="translate(219.411,-40.6946)">
			<title>Dynamic connector.84</title>
			<path d="M7.09 136.57 L7.09 86.81" class="st15"/>
		</g>
		<g id="shape85-151" transform="translate(190.772,-58.2383)">
			<title>Dynamic connector.85</title>
			<path d="M1.38 129.48 L12.79 129.48" class="st16"/>
		</g>
		<g id="shape86-156" transform="translate(227.635,-58.2383)">
			<title>Dynamic connector.86</title>
			<path d="M-1.38 129.48 L-12.79 129.48" class="st16"/>
		</g>
		<g id="shape88-161" transform="translate(230.113,-89.8042)">
			<title>Dynamic connector.88</title>
			<desc>tradio</desc>
			<path d="M0 129.48 L43.5 129.48" class="st1"/>
			<rect x="13.9981" y="124.08" width="15.5069" height="11.3371" class="st3"/>
			<text x="14" y="132.18" class="st4">t<tspan dy="-0.287em" class="st5">radio</tspan></text>		</g>
		<g id="shape89-171" transform="translate(190.561,-23.6571)">
			<title>Sheet.89</title>
			<desc>Link-1</desc>
			<rect x="0" y="122.393" width="68.0315" height="14.1732" class="st12"/>
			<text x="17.67" y="133.08" class="st13">Link-1</text>		</g>
		<g id="group110-174" transform="translate(470.703,-41.6152)">
			<title>Sheet.110</title>
			<g id="shape111-175" transform="translate(26.9291,-1.42109E-13)">
				<title>Dynamic connector.2</title>
				<path d="M7.09 136.57 L7.09 64.1" class="st10"/>
			</g>
			<g id="shape112-180" transform="translate(0,-81.0128)">
				<title>Sheet.112</title>
				<desc>nACTIVE</desc>
				<rect x="0" y="124.947" width="69.0079" height="11.619" class="st12"/>
				<text x="9.5" y="134.36" class="st13">nACTIVE</text>			</g>
		</g>
		<g id="shape116-183" transform="translate(452.662,-40.665)">
			<title>Box.116</title>
			<desc>TX</desc>
			<rect x="0" y="87.3055" width="11.9563" height="49.2606" class="st6"/>
			<text x="4" y="109.54" class="st7">T<tspan x="4" dy="1.2em" class="st8">X</tspan></text>		</g>
		<g id="shape117-187" transform="translate(437.175,-40.665)">
			<title>Box.117</title>
			<desc>RX</desc>
			<rect x="0" y="87.3055" width="11.9563" height="49.2606" class="st9"/>
			<text x="4" y="109.54" class="st7">R<tspan x="4" dy="1.2em" class="st8">X</tspan></text>		</g>
		<g id="shape118-191" transform="translate(410.487,-41.1617)">
			<title>Box.118</title>
			<desc>P</desc>
			<rect x="0" y="87.3055" width="11.2785" height="49.2606" class="st14"/>
			<text x="4" y="114.34" class="st7">P</text>		</g>
		<g id="shape119-194" transform="translate(397.882,-41.1617)">
			<title>Dynamic connector.119</title>
			<path d="M0 136.57 L0 86.81 L35.54 86.81" class="st15"/>
		</g>
		<g id="shape120-197" transform="translate(426.333,-41.1617)">
			<title>Dynamic connector.120</title>
			<path d="M7.09 136.57 L7.09 86.81" class="st15"/>
		</g>
		<g id="shape121-200" transform="translate(397.695,-58.7054)">
			<title>Dynamic connector.121</title>
			<path d="M1.38 129.48 L12.79 129.48" class="st16"/>
		</g>
		<g id="shape122-205" transform="translate(434.558,-58.7054)">
			<title>Dynamic connector.122</title>
			<path d="M-1.38 129.48 L-12.79 129.48" class="st16"/>
		</g>
		<g id="shape123-210" transform="translate(397.484,-89.8042)">
			<title>Dynamic connector.123</title>
			<desc>tprep</desc>
			<path d="M0 129.48 L36.02 129.48" class="st1"/>
			<rect x="10.9087" y="124.08" width="14.2075" height="11.3371" class="st3"/>
			<text x="10.91" y="132.18" class="st4">t<tspan dy="-0.287em" class="st5">prep</tspan></text>		</g>
		<g id="shape124-220" transform="translate(437.175,-89.8042)">
			<title>Dynamic connector.124</title>
			<desc>tradio</desc>
			<path d="M0 129.48 L42.66 129.48" class="st1"/>
			<rect x="13.5763" y="124.08" width="15.5069" height="11.3371" class="st3"/>
			<text x="13.58" y="132.18" class="st4">t<tspan dy="-0.287em" class="st5">radio</tspan></text>		</g>
		<g id="shape125-230" transform="translate(397.49,-24.6074)">
			<title>Sheet.125</title>
			<desc>Link-3</desc>
			<rect x="0" y="122.393" width="85.0394" height="14.1732" class="st12"/>
			<text x="26.18" y="133.08" class="st13">Link-3</text>		</g>
		<g id="shape126-233" transform="translate(358.288,-4.11524)">
			<title>Dynamic connector.126</title>
			<desc>tgap</desc>
			<path d="M0 129.48 L39.69 129.48" class="st18"/>
			<rect x="11.6699" y="122.28" width="16.3455" height="15.1158" class="st3"/>
			<text x="11.67" y="133.08" class="st13">t<tspan dy="-0.287em" class="st17">gap</tspan></text>		</g>
		<g id="shape128-245" transform="translate(143.759,-41.6152)">
			<title>Dynamic connector.128</title>
			<path d="M0 136.57 L0 87.31 L39.64 87.31" class="st15"/>
		</g>
		<g id="shape129-248" transform="translate(176.313,-41.1094)">
			<title>Dynamic connector.129</title>
			<path d="M7.09 136.57 L10.82 136.57 L10.82 86.81 L7.09 86.81" class="st15"/>
		</g>
		<g id="shape130-251" transform="translate(173.553,-64.4012)">
			<title>Circle.197</title>
			<path d="M0 135.26 A1.30852 1.30852 0 1 1 2.62 135.26 A1.30852 1.30852 0 1 1 0 135.26 Z" class="st20"/>
		</g>
		<g id="shape131-253" transform="translate(177.853,-64.4012)">
			<title>Circle.198</title>
			<path d="M0 135.26 A1.30852 1.30852 0 1 1 2.62 135.26 A1.30852 1.30852 0 1 1 0 135.26 Z" class="st20"/>
		</g>
		<g id="shape132-255" transform="translate(182.152,-64.4012)">
			<title>Circle.199</title>
			<path d="M0 135.26 A1.30852 1.30852 0 1 1 2.62 135.26 A1.30852 1.30852 0 1 1 0 135.26 Z" class="st20"/>
		</g>
		<g id="shape133-257" transform="translate(230.246,-41.1094)">
			<title>Dynamic connector.133</title>
			<path d="M0 136.57 L0 87.31 L39.64 87.31" class="st15"/>
		</g>
		<g id="shape134-260" transform="translate(262.845,-40.6036)">
			<title>Dynamic connector.134</title>
			<path d="M7.09 136.57 L10.82 136.57 L10.82 86.81 L7.09 86.81" class="st15"/>
		</g>
		<g id="shape135-263" transform="translate(260.7,-64.4012)">
			<title>Circle.135</title>
			<path d="M0 135.26 A1.30852 1.30852 0 1 1 2.62 135.26 A1.30852 1.30852 0 1 1 0 135.26 Z" class="st20"/>
		</g>
		<g id="shape136-265" transform="translate(264.999,-64.4012)">
			<title>Circle.136</title>
			<path d="M0 135.26 A1.30852 1.30852 0 1 1 2.62 135.26 A1.30852 1.30852 0 1 1 0 135.26 Z" class="st20"/>
		</g>
		<g id="shape137-267" transform="translate(269.298,-64.4012)">
			<title>Circle.137</title>
			<path d="M0 135.26 A1.30852 1.30852 0 1 1 2.62 135.26 A1.30852 1.30852 0 1 1 0 135.26 Z" class="st20"/>
		</g>
		<g id="shape138-269" transform="translate(315.286,-41.1177)">
			<title>Dynamic connector.138</title>
			<path d="M0 136.57 L0 87.31 L39.64 87.31" class="st15"/>
		</g>
		<g id="shape139-272" transform="translate(345.456,-64.4012)">
			<title>Circle.139</title>
			<path d="M0 135.26 A1.30852 1.30852 0 1 1 2.62 135.26 A1.30852 1.30852 0 1 1 0 135.26 Z" class="st20"/>
		</g>
		<g id="shape140-274" transform="translate(349.755,-64.4012)">
			<title>Circle.140</title>
			<path d="M0 135.26 A1.30852 1.30852 0 1 1 2.62 135.26 A1.30852 1.30852 0 1 1 0 135.26 Z" class="st20"/>
		</g>
		<g id="shape141-276" transform="translate(354.054,-64.4012)">
			<title>Circle.141</title>
			<path d="M0 135.26 A1.30852 1.30852 0 1 1 2.62 135.26 A1.30852 1.30852 0 1 1 0 135.26 Z" class="st20"/>
		</g>
		<g id="shape142-278" transform="translate(347.317,-40.6118)">
			<title>Dynamic connector.142</title>
			<path d="M7.09 136.57 L10.82 136.57 L10.82 86.81 L7.09 86.81" class="st15"/>
		</g>
		<g id="shape143-281" transform="translate(437.175,-41.5154)">
			<title>Dynamic connector.143</title>
			<path d="M0 136.57 L0 87.31 L39.64 87.31" class="st15"/>
		</g>
		<g id="shape144-284" transform="translate(468.923,-40.7966)">
			<title>Dynamic connector.144</title>
			<path d="M7.09 136.57 L10.82 136.57 L10.82 86.81 L7.09 86.81" class="st15"/>
		</g>
		<g id="shape145-287" transform="translate(466.656,-62.0337)">
			<title>Circle.145</title>
			<path d="M0 135.26 A1.30852 1.30852 0 1 1 2.62 135.26 A1.30852 1.30852 0 1 1 0 135.26 Z" class="st20"/>
		</g>
		<g id="shape146-289" transform="translate(470.955,-62.0337)">
			<title>Circle.146</title>
			<path d="M0 135.26 A1.30852 1.30852 0 1 1 2.62 135.26 A1.30852 1.30852 0 1 1 0 135.26 Z" class="st20"/>
		</g>
		<g id="shape147-291" transform="translate(475.254,-62.0337)">
			<title>Circle.147</title>
			<path d="M0 135.26 A1.30852 1.30852 0 1 1 2.62 135.26 A1.30852 1.30852 0 1 1 0 135.26 Z" class="st20"/>
		</g>
	</g>
</svg>
