<?xml version="1.0" encoding="UTF-8" standalone="no"?>
<!DOCTYPE svg PUBLIC "-//W3C//DTD SVG 1.1//EN" "http://www.w3.org/Graphics/SVG/1.1/DTD/svg11.dtd">
<!-- Generated by Microsoft Visio, SVG Export s115_tgap_too_small_and_notif_signal_unavailable.svg Page-1 -->
<svg xmlns="http://www.w3.org/2000/svg" xmlns:xlink="http://www.w3.org/1999/xlink" xmlns:ev="http://www.w3.org/2001/xml-events"
		width="7.77297in" height="1.74656in" viewBox="0 0 559.654 125.753" xml:space="preserve" color-interpolation-filters="sRGB"
		class="st15">
	<style type="text/css">
	<![CDATA[
		.st1 {marker-end:url(#mrkr5-7);stroke:#7f7f7f;stroke-linecap:round;stroke-linejoin:round;stroke-width:3.12}
		.st2 {fill:#7f7f7f;fill-opacity:1;stroke:#7f7f7f;stroke-opacity:1;stroke-width:0.5531914893617}
		.st3 {fill:none;stroke:none;stroke-linecap:round;stroke-linejoin:round;stroke-width:0.72}
		.st4 {fill:#000000;font-family:Arial;font-size:1.00001em}
		.st5 {stroke:#000000;stroke-dasharray:1.2,2.4;stroke-linecap:round;stroke-linejoin:round;stroke-width:1.2}
		.st6 {marker-start:url(#mrkr3-19);stroke:#000000;stroke-dasharray:1.2,2.4;stroke-linecap:round;stroke-linejoin:round;stroke-width:1.2}
		.st7 {fill:#000000;fill-opacity:1;stroke:#000000;stroke-opacity:1;stroke-width:0.32258064516129}
		.st8 {marker-end:url(#mrkr1-33);marker-start:url(#mrkr1-31);stroke:#000000;stroke-linecap:round;stroke-linejoin:round;stroke-width:1.2}
		.st9 {fill:#ffffff;stroke:none;stroke-linecap:butt;stroke-width:7.2}
		.st10 {baseline-shift:-32.4941%;font-size:0.649882em}
		.st11 {fill:#ffffff;stroke:none;stroke-linecap:butt}
		.st12 {fill:#88b7e4;stroke:none;stroke-linecap:round;stroke-linejoin:round;stroke-width:0.24}
		.st13 {fill:#000000;font-family:Arial;font-size:0.666664em}
		.st14 {fill:#cbd5e0;stroke:none;stroke-linecap:round;stroke-linejoin:round;stroke-width:0.24}
		.st15 {fill:none;fill-rule:evenodd;font-size:12px;overflow:visible;stroke-linecap:square;stroke-miterlimit:3}
	]]>
	</style>

	<defs id="Markers">
		<g id="lend5">
			<path d="M 2 1 L 0 0 L 1.98117 -0.993387 C 1.67173 -0.364515 1.67301 0.372641 1.98465 1.00043 " style="stroke:none"/>
		</g>
		<marker id="mrkr5-7" class="st2" refX="-3.1634615384615" orient="auto" markerUnits="strokeWidth" overflow="visible">
			<use xlink:href="#lend5" transform="scale(-1.8076923076923,-1.8076923076923) "/>
		</marker>
		<g id="lend3">
			<path d="M 2 1 L 0 0 L 2 -1 " style="stroke-linecap:round;stroke-linejoin:round;fill:none"/>
		</g>
		<marker id="mrkr3-19" class="st7" orient="auto" markerUnits="strokeWidth" overflow="visible">
			<use xlink:href="#lend3" transform="scale(3.1) "/>
		</marker>
		<g id="lend1">
			<path d="M 1 -1 L 0 0 L 1 1 " style="stroke-linecap:round;stroke-linejoin:round;fill:none"/>
		</g>
		<marker id="mrkr1-31" class="st7" orient="auto" markerUnits="strokeWidth" overflow="visible">
			<use xlink:href="#lend1" transform="scale(3.1) "/>
		</marker>
		<marker id="mrkr1-33" class="st7" orient="auto" markerUnits="strokeWidth" overflow="visible">
			<use xlink:href="#lend1" transform="scale(-3.1,-3.1) "/>
		</marker>
	</defs>
	<g>
		<title>Page-1</title>
		<g id="group11-1" transform="translate(0.36,-14.4345)">
			<title>Sheet.11</title>
			<g id="shape1-2" transform="translate(21.4097,-1.42109E-13)">
				<title>Dynamic connector.1</title>
				<path d="M7.09 125.75 L7.09 36.99" class="st1"/>
			</g>
			<g id="shape3-8" transform="translate(7.99361E-15,-97.0403)">
				<title>Sheet.3</title>
				<desc>ACTIVE</desc>
				<rect x="0" y="111.835" width="55.1246" height="13.9177" class="st3"/>
				<text x="5.89" y="122.39" class="st4">ACTIVE</text>			</g>
		</g>
		<g id="shape14-11" transform="translate(210.483,-14.4345)">
			<title>Dynamic connector.14</title>
			<path d="M7.09 125.75 L7.09 64.11" class="st5"/>
		</g>
		<g id="shape15-14" transform="translate(130.46,-37.8613)">
			<title>Dynamic connector.15</title>
			<path d="M0 118.67 L28.94 118.67" class="st6"/>
		</g>
		<g id="shape16-20" transform="translate(216.953,-37.8613)">
			<title>Dynamic connector.16</title>
			<path d="M0 118.67 L-28.94 118.67" class="st6"/>
		</g>
		<g id="shape17-25" transform="translate(30.8324,-76.8508)">
			<title>Dynamic connector.17</title>
			<desc>tndist</desc>
			<path d="M0 118.67 L94.4 118.67" class="st8"/>
			<rect x="37.2984" y="111.466" width="19.807" height="15.1158" class="st9"/>
			<text x="37.3" y="122.27" class="st4">t<tspan dy="-0.287em" class="st10">ndist</tspan></text>		</g>
		<g id="shape72-37" transform="translate(127.491,-76.8508)">
			<title>Dynamic connector.72</title>
			<desc>tprep</desc>
			<path d="M0 118.67 L92.47 118.67" class="st8"/>
			<rect x="36.7613" y="111.466" width="18.9424" height="15.1158" class="st9"/>
			<text x="36.76" y="122.27" class="st4">t<tspan dy="-0.287em" class="st10">prep</tspan></text>		</g>
		<g id="shape73-47" transform="translate(224.993,-76.8508)">
			<title>Dynamic connector.73</title>
			<desc>tradio</desc>
			<path d="M0 118.67 L66.15 118.67" class="st8"/>
			<rect x="22.7373" y="111.466" width="20.6749" height="15.1158" class="st9"/>
			<text x="22.74" y="122.27" class="st4">t<tspan dy="-0.287em" class="st10">radio</tspan></text>		</g>
		<g id="group103-57" transform="translate(499.776,-12.6114)">
			<title>Sheet.103</title>
			<g id="shape104-58" transform="translate(22.2516,-1.42109E-13)">
				<title>Dynamic connector.2</title>
				<path d="M7.09 125.75 L7.09 36.99" class="st1"/>
			</g>
			<g id="shape105-63" transform="translate(0,-97.0403)">
				<title>Sheet.105</title>
				<desc>nACTIVE</desc>
				<rect x="0" y="111.835" width="59.5185" height="13.9177" class="st3"/>
				<text x="4.75" y="122.39" class="st4">nACTIVE</text>			</g>
		</g>
		<g id="shape111-66" transform="translate(438.568,-12.6114)">
			<title>Dynamic connector.111</title>
			<path d="M7.09 125.75 L7.09 64.11" class="st5"/>
		</g>
		<g id="shape112-69" transform="translate(358.545,-36.0383)">
			<title>Dynamic connector.112</title>
			<path d="M0 118.67 L28.94 118.67" class="st6"/>
		</g>
		<g id="shape113-74" transform="translate(445.038,-36.0383)">
			<title>Dynamic connector.113</title>
			<path d="M0 118.67 L-28.94 118.67" class="st6"/>
		</g>
		<g id="shape116-79" transform="translate(355.576,-74.1854)">
			<title>Dynamic connector.116</title>
			<desc>tprep</desc>
			<path d="M0 118.67 L92.47 118.67" class="st8"/>
			<rect x="36.7613" y="111.466" width="18.9424" height="15.1158" class="st11"/>
			<text x="36.76" y="122.27" class="st4">t<tspan dy="-0.287em" class="st10">prep</tspan></text>		</g>
		<g id="shape117-89" transform="translate(450.507,-74.1854)">
			<title>Dynamic connector.117</title>
			<desc>tradio</desc>
			<path d="M0 118.67 L68.55 118.67" class="st8"/>
			<rect x="23.9362" y="111.466" width="20.6749" height="15.1158" class="st9"/>
			<text x="23.94" y="122.27" class="st4">t<tspan dy="-0.287em" class="st10">radio</tspan></text>		</g>
		<g id="shape118-99" transform="translate(295.315,-4.56738)">
			<title>Dynamic connector.118</title>
			<desc>tgap</desc>
			<path d="M0 118.67 L56.54 118.67" class="st8"/>
			<rect x="20.0979" y="111.466" width="16.3455" height="15.1158" class="st9"/>
			<text x="20.1" y="122.27" class="st4">t<tspan dy="-0.287em" class="st10">gap</tspan></text>		</g>
		<g id="shape121-109" transform="translate(293.037,-88.8428)">
			<title>Dynamic connector.121</title>
			<desc>tndist</desc>
			<path d="M0 118.67 L92.38 118.67" class="st8"/>
			<rect x="36.286" y="111.466" width="19.807" height="15.1158" class="st9"/>
			<text x="36.29" y="122.27" class="st4">t<tspan dy="-0.287em" class="st10">ndist</tspan></text>		</g>
		<g id="shape5-119" transform="translate(222.421,-14.4345)">
			<title>Box.5</title>
			<desc>Radio activity</desc>
			<rect x="0" y="64.7256" width="69.3283" height="61.0269" class="st12"/>
			<text x="10.88" y="97.64" class="st13">Radio activity</text>		</g>
		<g id="shape115-122" transform="translate(450.507,-12.6114)">
			<title>Box.115</title>
			<desc>Radio activity</desc>
			<rect x="0" y="64.7256" width="69.3283" height="61.0269" class="st12"/>
			<text x="10.88" y="97.64" class="st13">Radio activity</text>		</g>
		<g id="shape109-125" transform="translate(387.488,-12.6114)">
			<title>Box.109</title>
			<desc>P</desc>
			<rect x="0" y="64.7256" width="28.6069" height="61.0269" class="st14"/>
			<text x="11.64" y="97.64" class="st13">P</text>		</g>
		<g id="shape12-128" transform="translate(159.403,-14.4345)">
			<title>Box.12</title>
			<desc>P</desc>
			<rect x="0" y="64.7256" width="28.6069" height="61.0269" class="st14"/>
			<text x="11.64" y="97.64" class="st13">P</text>		</g>
		<g id="shape13-131" transform="translate(127.431,-14.4345)">
			<title>Dynamic connector</title>
			<path d="M0 125.75 L0 64.11 L90.14 64.11" class="st5"/>
		</g>
		<g id="shape110-134" transform="translate(355.516,-12.6114)">
			<title>Dynamic connector.110</title>
			<path d="M0 125.75 L0 64.11 L90.14 64.11" class="st5"/>
		</g>
	</g>
</svg>
