<?xml version="1.0" encoding="UTF-8" standalone="no"?>
<!DOCTYPE svg PUBLIC "-//W3C//DTD SVG 1.1//EN" "http://www.w3.org/Graphics/SVG/1.1/DTD/svg11.dtd">
<!-- Generated by Microsoft Visio, SVG Export s115_two_radio_events_with_active_and_nactive_signal.svg Page-1 -->
<svg xmlns="http://www.w3.org/2000/svg" xmlns:xlink="http://www.w3.org/1999/xlink" xmlns:ev="http://www.w3.org/2001/xml-events"
		width="10.4243in" height="2.10739in" viewBox="0 0 750.55 151.732" xml:space="preserve" color-interpolation-filters="sRGB"
		class="st15">
	<style type="text/css">
	<![CDATA[
		.st1 {marker-end:url(#mrkr5-7);stroke:#7f7f7f;stroke-linecap:round;stroke-linejoin:round;stroke-width:3.12}
		.st2 {fill:#7f7f7f;fill-opacity:1;stroke:#7f7f7f;stroke-opacity:1;stroke-width:0.5531914893617}
		.st3 {fill:none;stroke:none;stroke-linecap:round;stroke-linejoin:round;stroke-width:0.72}
		.st4 {fill:#000000;font-family:Arial;font-size:1.00001em}
		.st5 {stroke:#000000;stroke-dasharray:1.2,2.4;stroke-linecap:round;stroke-linejoin:round;stroke-width:1.2}
		.st6 {marker-start:url(#mrkr3-19);stroke:#000000;stroke-dasharray:1.2,2.4;stroke-linecap:round;stroke-linejoin:round;stroke-width:1.2}
		.st7 {fill:#000000;fill-opacity:1;stroke:#000000;stroke-opacity:1;stroke-width:0.32258064516129}
		.st8 {marker-end:url(#mrkr1-33);marker-start:url(#mrkr1-31);stroke:#000000;stroke-linecap:round;stroke-linejoin:round;stroke-width:1.2}
		.st9 {fill:#ffffff;stroke:none;stroke-linecap:butt}
		.st10 {baseline-shift:-32.4941%;font-size:0.649882em}
		.st11 {fill:#ffffff;stroke:none;stroke-linecap:butt;stroke-width:7.2}
		.st12 {fill:#cbd5e0;stroke:none;stroke-linecap:round;stroke-linejoin:round;stroke-width:0.24}
		.st13 {fill:#000000;font-family:Arial;font-size:0.666664em}
		.st14 {fill:#88b7e4;stroke:none;stroke-linecap:round;stroke-linejoin:round;stroke-width:0.24}
		.st15 {fill:none;fill-rule:evenodd;font-size:12px;overflow:visible;stroke-linecap:square;stroke-miterlimit:3}
	]]>
	</style>

	<defs id="Markers">
		<g id="lend5">
			<path d="M 2 1 L 0 0 L 1.98117 -0.993387 C 1.67173 -0.364515 1.67301 0.372641 1.98465 1.00043 " style="stroke:none"/>
		</g>
		<marker id="mrkr5-7" class="st2" refX="-3.1634615384615" orient="auto" markerUnits="strokeWidth" overflow="visible">
			<use xlink:href="#lend5" transform="scale(-1.8076923076923,-1.8076923076923) "/>
		</marker>
		<g id="lend3">
			<path d="M 2 1 L 0 0 L 2 -1 " style="stroke-linecap:round;stroke-linejoin:round;fill:none"/>
		</g>
		<marker id="mrkr3-19" class="st7" orient="auto" markerUnits="strokeWidth" overflow="visible">
			<use xlink:href="#lend3" transform="scale(3.1) "/>
		</marker>
		<g id="lend1">
			<path d="M 1 -1 L 0 0 L 1 1 " style="stroke-linecap:round;stroke-linejoin:round;fill:none"/>
		</g>
		<marker id="mrkr1-31" class="st7" orient="auto" markerUnits="strokeWidth" overflow="visible">
			<use xlink:href="#lend1" transform="scale(3.1) "/>
		</marker>
		<marker id="mrkr1-33" class="st7" orient="auto" markerUnits="strokeWidth" overflow="visible">
			<use xlink:href="#lend1" transform="scale(-3.1,-3.1) "/>
		</marker>
	</defs>
	<g>
		<title>Page-1</title>
		<g id="group11-1" transform="translate(0.36,-23.8133)">
			<title>Sheet.11</title>
			<g id="shape1-2" transform="translate(22.0142,-1.13687E-13)">
				<title>Dynamic connector.1</title>
				<path d="M7.09 151.73 L7.09 48.22" class="st1"/>
			</g>
			<g id="shape3-8" transform="translate(3.9968E-15,-111.559)">
				<title>Sheet.3</title>
				<desc>ACTIVE</desc>
				<rect x="0" y="135.732" width="56.2939" height="16" class="st3"/>
				<text x="6.48" y="147.33" class="st4">ACTIVE</text>			</g>
		</g>
		<g id="shape14-11" transform="translate(232.962,-23.8133)">
			<title>Dynamic connector.14</title>
			<path d="M7.09 151.73 L7.09 80.87" class="st5"/>
		</g>
		<g id="shape15-14" transform="translate(139.905,-51.8054)">
			<title>Dynamic connector.15</title>
			<path d="M0 144.65 L33.27 144.65" class="st6"/>
		</g>
		<g id="shape16-20" transform="translate(239.34,-51.8054)">
			<title>Dynamic connector.16</title>
			<path d="M0 144.65 L-33.27 144.65" class="st6"/>
		</g>
		<g id="shape17-25" transform="translate(32.1812,-96.2412)">
			<title>Dynamic connector.17</title>
			<desc>tndist</desc>
			<path d="M0 144.65 L104.31 144.65" class="st8"/>
			<rect x="42.2518" y="137.446" width="19.807" height="15.1158" class="st9"/>
			<text x="42.25" y="148.25" class="st4">t<tspan dy="-0.287em" class="st10">ndist</tspan></text>		</g>
		<g id="shape72-37" transform="translate(136.492,-96.2412)">
			<title>Dynamic connector.72</title>
			<desc>tprep</desc>
			<path d="M0 144.65 L106.3 144.65" class="st8"/>
			<rect x="43.6784" y="137.446" width="18.9424" height="15.1158" class="st9"/>
			<text x="43.68" y="148.25" class="st4">t<tspan dy="-0.287em" class="st10">prep</tspan></text>		</g>
		<g id="shape73-47" transform="translate(245.626,-96.2412)">
			<title>Dynamic connector.73</title>
			<desc>tradio</desc>
			<path d="M0 144.65 L78.8 144.65" class="st8"/>
			<rect x="29.0641" y="137.446" width="20.6749" height="15.1158" class="st11"/>
			<text x="29.06" y="148.25" class="st4">t<tspan dy="-0.287em" class="st10">radio</tspan></text>		</g>
		<g id="group103-57" transform="translate(691.524,-21.7175)">
			<title>Sheet.103</title>
			<g id="shape104-58" transform="translate(21.8314,-1.13687E-13)">
				<title>Dynamic connector.2</title>
				<path d="M7.09 151.73 L7.09 48.22" class="st1"/>
			</g>
			<g id="shape105-63" transform="translate(0,-111.559)">
				<title>Sheet.105</title>
				<desc>nACTIVE</desc>
				<rect x="0" y="135.732" width="58.666" height="16" class="st3"/>
				<text x="4.32" y="147.33" class="st4">nACTIVE</text>			</g>
		</g>
		<g id="shape111-66" transform="translate(612.812,-21.7175)">
			<title>Dynamic connector.111</title>
			<path d="M7.09 151.73 L7.09 80.87" class="st5"/>
		</g>
		<g id="shape112-69" transform="translate(519.756,-49.7096)">
			<title>Dynamic connector.112</title>
			<path d="M0 144.65 L33.27 144.65" class="st6"/>
		</g>
		<g id="shape113-74" transform="translate(619.19,-49.7096)">
			<title>Dynamic connector.113</title>
			<path d="M0 144.65 L-33.27 144.65" class="st6"/>
		</g>
		<g id="shape114-79" transform="translate(400.801,-94.1454)">
			<title>Dynamic connector.114</title>
			<desc>tndist</desc>
			<path d="M0 144.65 L113.2 144.65" class="st8"/>
			<rect x="46.6949" y="137.446" width="19.807" height="15.1158" class="st11"/>
			<text x="46.69" y="148.25" class="st4">t<tspan dy="-0.287em" class="st10">ndist</tspan></text>		</g>
		<g id="shape116-89" transform="translate(516.343,-94.1454)">
			<title>Dynamic connector.116</title>
			<desc>tprep</desc>
			<path d="M0 144.65 L106.3 144.65" class="st8"/>
			<rect x="43.6784" y="137.446" width="18.9424" height="15.1158" class="st11"/>
			<text x="43.68" y="148.25" class="st4">t<tspan dy="-0.287em" class="st10">prep</tspan></text>		</g>
		<g id="shape117-99" transform="translate(625.477,-94.1454)">
			<title>Dynamic connector.117</title>
			<desc>tradio</desc>
			<path d="M0 144.65 L78.8 144.65" class="st8"/>
			<rect x="29.0641" y="137.446" width="20.6749" height="15.1158" class="st11"/>
			<text x="29.06" y="148.25" class="st4">t<tspan dy="-0.287em" class="st10">radio</tspan></text>		</g>
		<g id="shape118-109" transform="translate(326.413,-4.11524)">
			<title>Dynamic connector.118</title>
			<desc>tgap</desc>
			<path d="M0 144.65 L189.29 144.65" class="st8"/>
			<rect x="86.4701" y="137.446" width="16.3455" height="15.1158" class="st11"/>
			<text x="86.47" y="148.25" class="st4">t<tspan dy="-0.287em" class="st10">gap</tspan></text>		</g>
		<g id="group119-119" transform="translate(369.132,-18.2885)">
			<title>Sheet.119</title>
			<g id="shape120-120" transform="translate(22.0142,-1.13687E-13)">
				<title>Dynamic connector.1</title>
				<path d="M7.09 151.73 L7.09 48.22" class="st1"/>
			</g>
			<g id="shape121-125" transform="translate(3.9968E-15,-111.559)">
				<title>Sheet.121</title>
				<desc>ACTIVE</desc>
				<rect x="0" y="135.732" width="56.2939" height="16" class="st3"/>
				<text x="6.48" y="147.33" class="st4">ACTIVE</text>			</g>
		</g>
		<g id="group122-128" transform="translate(310.267,-18.2885)">
			<title>Sheet.122</title>
			<g id="shape123-129" transform="translate(21.8314,-1.13687E-13)">
				<title>Dynamic connector.2</title>
				<path d="M7.09 151.73 L7.09 48.22" class="st1"/>
			</g>
			<g id="shape124-134" transform="translate(0,-111.559)">
				<title>Sheet.124</title>
				<desc>nACTIVE</desc>
				<rect x="0" y="135.732" width="58.666" height="16" class="st3"/>
				<text x="4.32" y="147.33" class="st4">nACTIVE</text>			</g>
		</g>
		<g id="shape12-137" transform="translate(173.179,-23.8133)">
			<title>Box.12</title>
			<desc>P</desc>
			<rect x="0" y="81.5749" width="32.8869" height="70.1575" class="st12"/>
			<text x="13.78" y="119.05" class="st13">P</text>		</g>
		<g id="shape5-140" transform="translate(245.626,-23.8133)">
			<title>Box.5</title>
			<desc>Radio activity</desc>
			<rect x="0" y="81.5749" width="79.7009" height="70.1575" class="st14"/>
			<text x="16.06" y="119.05" class="st13">Radio activity</text>		</g>
		<g id="shape109-143" transform="translate(553.03,-21.7175)">
			<title>Box.109</title>
			<desc>P</desc>
			<rect x="0" y="81.5749" width="32.8869" height="70.1575" class="st12"/>
			<text x="13.78" y="119.05" class="st13">P</text>		</g>
		<g id="shape115-146" transform="translate(625.477,-21.7175)">
			<title>Box.115</title>
			<desc>Radio activity</desc>
			<rect x="0" y="81.5749" width="79.7009" height="70.1575" class="st14"/>
			<text x="16.06" y="119.05" class="st13">Radio activity</text>		</g>
		<g id="shape110-149" transform="translate(516.274,-21.7175)">
			<title>Dynamic connector.110</title>
			<path d="M0 151.73 L0 80.87 L103.63 80.87" class="st5"/>
		</g>
		<g id="shape13-152" transform="translate(136.423,-23.8133)">
			<title>Dynamic connector</title>
			<path d="M0 151.73 L0 80.87 L103.63 80.87" class="st5"/>
		</g>
	</g>
</svg>
