<?xml version="1.0" encoding="UTF-8" standalone="no"?>
<!DOCTYPE svg PUBLIC "-//W3C//DTD SVG 1.1//EN" "http://www.w3.org/Graphics/SVG/1.1/DTD/svg11.dtd">
<!-- Generated by Microsoft Visio, SVG Export cx_3w_example_ext_scannable_adv.svg Page-1 -->
<svg xmlns="http://www.w3.org/2000/svg" xmlns:xlink="http://www.w3.org/1999/xlink" xmlns:ev="http://www.w3.org/2001/xml-events"
		width="7.26522in" height="1.1241in" viewBox="0 0 523.096 80.9353" xml:space="preserve" color-interpolation-filters="sRGB"
		class="st12">
	<style type="text/css">
	<![CDATA[
		.st1 {fill:none;stroke:none;stroke-linecap:butt;stroke-width:0.75}
		.st2 {fill:#333f48;font-family:Arial;font-size:0.75em}
		.st3 {fill:#00a9ce}
		.st4 {fill:#ffffff;font-family:Arial;font-size:0.666664em}
		.st5 {fill:none}
		.st6 {stroke:#768692;stroke-dasharray:7,5;stroke-linecap:round;stroke-linejoin:round;stroke-width:1}
		.st7 {stroke:#333f48;stroke-linecap:round;stroke-linejoin:round;stroke-width:1}
		.st8 {fill:none;stroke:none;stroke-width:1}
		.st9 {fill:#333f48;font-family:Arial;font-size:1.00001em}
		.st10 {fill:#333f48;font-family:Arial;font-size:0.666664em}
		.st11 {stroke:#333f48;stroke-width:1}
		.st12 {fill:none;fill-rule:evenodd;font-size:12px;overflow:visible;stroke-linecap:square;stroke-miterlimit:3}
	]]>
	</style>

	<g>
		<title>Page-1</title>
		<g id="shape555-1" transform="translate(0.75,-29.3799)">
			<title>text5</title>
			<desc>BLE_REQUEST</desc>
			<rect x="0" y="69.8528" width="70.9605" height="11.0825" class="st1"/>
			<text x="5.44" y="78.09" class="st2">BLE_REQUEST</text>		</g>
		<g id="shape557-4" transform="translate(0.75,-12.6555)">
			<title>text13</title>
			<desc>BLE_PRIORITY</desc>
			<rect x="0" y="69.8528" width="70.9605" height="11.0825" class="st1"/>
			<text x="6.44" y="78.09" class="st2">BLE_PRIORITY</text>		</g>
		<g id="shape559-7" transform="translate(0.75,-0.75)">
			<title>text21</title>
			<desc>BLE_GRANT</desc>
			<rect x="0" y="69.8528" width="70.9605" height="11.0825" class="st1"/>
			<text x="17.44" y="78.09" class="st2">BLE_GRANT</text>		</g>
		<g id="shape562-10" transform="translate(90.5799,81.5303) scale(1,-1)">
			<title>path35</title>
			<desc>ADV_EXT_IND</desc>
			<path d="M0 60.7 L60.1 60.7 L60.1 80.94 L0 80.94 L0 60.7 Z" class="st3"/>
			<text x="2.71" y="-68.42" transform="scale(1,-1)" class="st4">ADV_EXT_IND</text>		</g>
		<g id="shape566-14" transform="translate(327.415,81.5303) scale(1,-1)">
			<title>path53</title>
			<desc>AUX_ADV_IND</desc>
			<path d="M0 60.7 L63.67 60.7 L63.67 80.94 L0 80.94 L0 60.7 Z" class="st3"/>
			<text x="4.05" y="-68.42" transform="scale(1,-1)" class="st4">AUX_ADV_IND</text>		</g>
		<g id="shape570-18" transform="translate(401.798,82.1254) scale(1,-1)">
			<title>path71</title>
			<desc>SCAN_REQ</desc>
			<path d="M0 60.7 L45.22 60.7 L45.22 80.94 L0 80.94 L0 60.7 Z" class="st3"/>
			<text x="0.61" y="-68.42" transform="scale(1,-1)" class="st4">SCAN_REQ</text>		</g>
		<g id="shape574-22" transform="translate(458.329,82.1254) scale(1,-1)">
			<title>path89</title>
			<desc>SCAN_RSP</desc>
			<path d="M0 60.7 L44.63 60.7 L44.63 80.94 L0 80.94 L0 60.7 Z" class="st3"/>
			<text x="0.75" y="-68.42" transform="scale(1,-1)" class="st4">SCAN_RSP</text>		</g>
		<g id="shape578-26" transform="translate(159.607,80.9353) scale(1,-1)">
			<title>path107</title>
			<desc>ADV_EXT_IND</desc>
			<path d="M0 60.7 L60.1 60.7 L60.1 80.94 L0 80.94 L0 60.7 Z" class="st3"/>
			<text x="2.71" y="-68.42" transform="scale(1,-1)" class="st4">ADV_EXT_IND</text>		</g>
		<g id="shape582-30" transform="translate(228.635,81.5303) scale(1,-1)">
			<title>path125</title>
			<desc>ADV_EXT_IND</desc>
			<path d="M0 60.7 L60.1 60.7 L60.1 80.94 L0 80.94 L0 60.7 Z" class="st3"/>
			<text x="2.71" y="-68.42" transform="scale(1,-1)" class="st4">ADV_EXT_IND</text>		</g>
		<g id="shape585-34" transform="translate(483.031,55.6384) rotate(90) scale(-1,1)">
			<title>path137</title>
			<path d="M0 80.94 L33.32 80.94 L0 80.94 Z" class="st5"/>
			<path d="M0 80.94 L33.32 80.94" class="st6"/>
		</g>
		<g id="shape587-37" transform="translate(480.651,55.0434) rotate(90) scale(-1,1)">
			<title>path143</title>
			<path d="M0 80.94 L53.56 80.94 L0 80.94 Z" class="st5"/>
			<path d="M0 80.94 L53.56 80.94" class="st6"/>
		</g>
		<g id="shape594-40" transform="translate(539.562,62.4551) rotate(90) scale(-1,1)">
			<title>path167</title>
			<path d="M0 80.94 L40.14 80.94 L0 80.94 Z" class="st5"/>
			<path d="M0 80.94 L40.14 80.94" class="st6"/>
		</g>
		<g id="shape596-43" transform="translate(536.884,55.936) rotate(90) scale(-1,1)">
			<title>path173</title>
			<path d="M0 80.94 L54.15 80.94 L0 80.94 Z" class="st5"/>
			<path d="M0 80.94 L54.15 80.94" class="st6"/>
		</g>
		<g id="shape611-46" transform="translate(503.554,-32.1401)">
			<title>path221</title>
			<path d="M0 80.94 L19.04 80.94 L0 80.94 Z" class="st5"/>
			<path d="M0 80.94 L19.04 80.94" class="st7"/>
		</g>
		<g id="shape613-49" transform="translate(73.9181,-16.0733)">
			<title>path227</title>
			<path d="M0 80.94 L326.09 80.94 L0 80.94 Z" class="st5"/>
			<path d="M0 80.94 L326.09 80.94" class="st7"/>
		</g>
		<g id="shape615-52" transform="translate(73.323,-4.17214)">
			<title>path233</title>
			<path d="M0 80.94 L449.27 80.94 L0 80.94 Z" class="st5"/>
			<path d="M0 80.94 L449.27 80.94" class="st7"/>
		</g>
		<g id="shape617-55" transform="translate(87.0095,-41.066)">
			<title>path239</title>
			<path d="M0 80.94 L64.27 80.94 L0 80.94 Z" class="st5"/>
			<path d="M0 80.94 L64.27 80.94" class="st7"/>
		</g>
		<g id="shape619-58" transform="translate(400.013,-24.4043)">
			<title>path245</title>
			<path d="M0 80.94 L55.94 80.94 L0 80.94 Z" class="st5"/>
			<path d="M0 80.94 L55.94 80.94" class="st7"/>
		</g>
		<g id="shape621-61" transform="translate(322.655,120.805) scale(1,-1)">
			<title>path251</title>
			<path d="M0 72.01 L0 80.94 L0 72.01 Z" class="st5"/>
			<path d="M0 72.01 L0 80.94" class="st7"/>
		</g>
		<g id="shape623-64" transform="translate(503.554,120.805) scale(1,-1)">
			<title>path257</title>
			<path d="M0 80.94 L0 72.01 L0 80.94 Z" class="st5"/>
			<path d="M0 80.94 L0 72.01" class="st7"/>
		</g>
		<g id="shape625-67" transform="translate(400.013,137.466) scale(1,-1)">
			<title>path263</title>
			<path d="M0 80.94 L0 72.6 L0 80.94 Z" class="st5"/>
			<path d="M0 80.94 L0 72.6" class="st7"/>
		</g>
		<g id="shape627-70" transform="translate(455.949,137.466) scale(1,-1)">
			<title>path269</title>
			<path d="M0 80.94 L0 72.6 L0 80.94 Z" class="st5"/>
			<path d="M0 80.94 L0 72.6" class="st7"/>
		</g>
		<g id="shape629-73" transform="translate(455.949,-16.0733)">
			<title>path275</title>
			<path d="M0 80.94 L66.65 80.94 L0 80.94 Z" class="st5"/>
			<path d="M0 80.94 L66.65 80.94" class="st7"/>
		</g>
		<g id="shape631-76" transform="translate(151.276,120.805) scale(1,-1)">
			<title>path281</title>
			<path d="M0 80.94 L0 72.6 L0 80.94 Z" class="st5"/>
			<path d="M0 80.94 L0 72.6" class="st7"/>
		</g>
		<g id="shape633-79" transform="translate(156.037,120.805) scale(1,-1)">
			<title>path287</title>
			<path d="M0 80.94 L0 72.6 L0 80.94 Z" class="st5"/>
			<path d="M0 80.94 L0 72.6" class="st7"/>
		</g>
		<g id="shape635-82" transform="translate(289.331,120.805) scale(1,-1)">
			<title>path293</title>
			<path d="M0 80.94 L0 72.01 L0 80.94 Z" class="st5"/>
			<path d="M0 80.94 L0 72.01" class="st7"/>
		</g>
		<g id="shape637-85" transform="translate(151.276,-32.7351)">
			<title>path299</title>
			<path d="M0 80.94 L4.76 80.94 L0 80.94 Z" class="st5"/>
			<path d="M0 80.94 L4.76 80.94" class="st7"/>
		</g>
		<g id="shape639-88" transform="translate(156.037,-41.066)">
			<title>path305</title>
			<path d="M0 80.94 L64.27 80.94 L0 80.94 Z" class="st5"/>
			<path d="M0 80.94 L64.27 80.94" class="st7"/>
		</g>
		<g id="shape641-91" transform="translate(289.331,-32.1401)">
			<title>path311</title>
			<path d="M0 80.94 L33.32 80.94 L0 80.94 Z" class="st5"/>
			<path d="M0 80.94 L33.32 80.94" class="st7"/>
		</g>
		<g id="shape643-94" transform="translate(322.655,-41.066)">
			<title>path317</title>
			<path d="M0 80.94 L180.9 80.94 L0 80.94 Z" class="st5"/>
			<path d="M0 80.94 L180.9 80.94" class="st7"/>
		</g>
		<g id="shape645-97" transform="translate(86.4144,120.805) scale(1,-1)">
			<title>path323</title>
			<path d="M0 72.6 L0 80.94 L0 72.6 Z" class="st5"/>
			<path d="M0 72.6 L0 80.94" class="st7"/>
		</g>
		<g id="shape647-100" transform="translate(73.9181,-32.7351)">
			<title>path329</title>
			<path d="M0 80.94 L12.5 80.94 L0 80.94 Z" class="st5"/>
			<path d="M0 80.94 L12.5 80.94" class="st7"/>
		</g>
		<g id="shape649-103" transform="translate(220.304,120.805) scale(1,-1)">
			<title>path335</title>
			<path d="M0 80.94 L0 72.6 L0 80.94 Z" class="st5"/>
			<path d="M0 80.94 L0 72.6" class="st7"/>
		</g>
		<g id="shape651-106" transform="translate(225.064,121.4) scale(1,-1)">
			<title>path341</title>
			<path d="M0 80.94 L0 73.2 L0 80.94 Z" class="st5"/>
			<path d="M0 80.94 L0 73.2" class="st7"/>
		</g>
		<g id="shape653-109" transform="translate(220.304,-32.7351)">
			<title>path347</title>
			<path d="M0 80.94 L4.76 80.94 L0 80.94 Z" class="st5"/>
			<path d="M0 80.94 L4.76 80.94" class="st7"/>
		</g>
		<g id="shape655-112" transform="translate(225.064,120.805) scale(1,-1)">
			<title>path353</title>
			<path d="M0 80.34 L64.27 80.94 L0 80.34 Z" class="st5"/>
			<path d="M0 80.34 L64.27 80.94" class="st7"/>
		</g>
		<g id="group656-115" transform="translate(352.638,-45.5774)">
			<title>Sheet.656</title>
			<g id="shape657-116" transform="translate(3.19744E-14,-0.272734)">
				<title>Sheet.657</title>
				<desc>t</desc>
				<rect x="0" y="71.6845" width="12.5489" height="9.25077" class="st8"/>
				<text x="4.61" y="79.91" class="st9">t</text>			</g>
			<g id="shape658-119" transform="translate(2.13576,-1.42109E-14)">
				<title>Sheet.658</title>
				<desc>radio</desc>
				<rect x="0" y="73.1965" width="30.2343" height="7.73878" class="st8"/>
				<text x="6.22" y="80.67" class="st10">radio</text>			</g>
		</g>
		<g id="group659-122" transform="translate(414.653,-45.5774)">
			<title>Sheet.659</title>
			<g id="shape660-123" transform="translate(3.19744E-14,-0.272734)">
				<title>Sheet.660</title>
				<desc>t</desc>
				<rect x="0" y="71.6845" width="12.5489" height="9.25077" class="st8"/>
				<text x="4.61" y="79.91" class="st9">t</text>			</g>
			<g id="shape661-126" transform="translate(2.13576,-1.42109E-14)">
				<title>Sheet.661</title>
				<desc>radio</desc>
				<rect x="0" y="73.1965" width="30.2343" height="7.73878" class="st8"/>
				<text x="6.22" y="80.67" class="st10">radio</text>			</g>
		</g>
		<g id="shape662-129" transform="translate(380.006,-50.3391)">
			<title>Sheet.662</title>
			<path d="M0 80.94 L18.72 80.94" class="st11"/>
		</g>
		<g id="shape663-132" transform="translate(442.092,-50.3391)">
			<title>Sheet.663</title>
			<path d="M0 80.94 L12.77 80.94" class="st11"/>
		</g>
		<g id="shape664-135" transform="translate(402.963,-50.3391)">
			<title>Sheet.664</title>
			<path d="M0 80.94 L13.83 80.94" class="st11"/>
		</g>
		<g id="shape665-138" transform="translate(460.793,-50.3391)">
			<title>Sheet.665</title>
			<path d="M0 80.94 L18.72 80.94" class="st11"/>
		</g>
	</g>
</svg>
