<?xml version="1.0" encoding="UTF-8" standalone="no"?>
<!DOCTYPE svg PUBLIC "-//W3C//DTD SVG 1.1//EN" "http://www.w3.org/Graphics/SVG/1.1/DTD/svg11.dtd">
<!-- Generated by Microsoft Visio, SVG Export cx_3w_example_legacy_scannable_adv.svg Page-1 -->
<svg xmlns="http://www.w3.org/2000/svg" xmlns:xlink="http://www.w3.org/1999/xlink" xmlns:ev="http://www.w3.org/2001/xml-events"
		width="7.01365in" height="1.24624in" viewBox="0 0 504.983 89.7294" xml:space="preserve" color-interpolation-filters="sRGB"
		class="st15">
	<style type="text/css">
	<![CDATA[
		.st1 {fill:none;stroke:none;stroke-linecap:butt;stroke-width:1}
		.st2 {fill:#333f48;font-family:Arial;font-size:0.833336em}
		.st3 {fill:#000000}
		.st4 {stroke:#333f48;stroke-width:1}
		.st5 {fill:#00a9ce;stroke:none;stroke-width:1}
		.st6 {fill:#feffff;font-family:Arial;font-size:0.833336em}
		.st7 {stroke:#768692;stroke-dasharray:7,5;stroke-width:1}
		.st8 {fill:none}
		.st9 {marker-start:url(#mrkr4-123);stroke:#333f48;stroke-width:1}
		.st10 {fill:#333f48;fill-opacity:1;stroke:#333f48;stroke-opacity:1;stroke-width:0.35714285714286}
		.st11 {marker-end:url(#mrkr4-129);stroke:#333f48;stroke-width:1}
		.st12 {fill:none;stroke:none;stroke-width:1}
		.st13 {fill:#333f48;font-family:Arial;font-size:1.00001em}
		.st14 {fill:#333f48;font-family:Arial;font-size:0.666664em}
		.st15 {fill:none;fill-rule:evenodd;font-size:12px;overflow:visible;stroke-linecap:square;stroke-miterlimit:3}
	]]>
	</style>

	<defs id="Markers">
		<g id="lend4">
			<path d="M 2 1 L 0 0 L 2 -1 L 2 1 " style="stroke:none"/>
		</g>
		<marker id="mrkr4-123" class="st10" refX="5.24" orient="auto" markerUnits="strokeWidth" overflow="visible">
			<use xlink:href="#lend4" transform="scale(2.8) "/>
		</marker>
		<marker id="mrkr4-129" class="st10" refX="-5.6" orient="auto" markerUnits="strokeWidth" overflow="visible">
			<use xlink:href="#lend4" transform="scale(-2.8,-2.8) "/>
		</marker>
	</defs>
	<g>
		<title>Page-1</title>
		<g id="shape714-1" transform="translate(1,-32.4488)">
			<title>Sheet.714</title>
			<desc>BLE_REQUEST</desc>
			<rect x="0" y="79.1518" width="83.5172" height="10.5776" class="st1"/>
			<text x="6.72" y="87.44" class="st2">BLE_REQUEST</text>		</g>
		<g id="shape715-4" transform="translate(1,-14.0007)">
			<title>Sheet.715</title>
			<desc>BLE_PRIORITY</desc>
			<rect x="0" y="79.1518" width="83.5172" height="10.5776" class="st1"/>
			<text x="7.83" y="87.44" class="st2">BLE_PRIORITY</text>		</g>
		<g id="shape716-7" transform="translate(1,-1)">
			<title>Sheet.716</title>
			<desc>BLE_GRANT</desc>
			<rect x="0" y="79.1518" width="83.5172" height="10.5776" class="st1"/>
			<text x="20.06" y="87.44" class="st2">BLE_GRANT</text>		</g>
		<g id="shape717-10" transform="translate(482.835,-35.1888)">
			<title>Sheet.717</title>
			<path d="M0 89.73 L21.14 89.73 L0 89.73 Z" class="st3"/>
			<path d="M0 89.73 L21.14 89.73" class="st4"/>
		</g>
		<g id="shape718-13" transform="translate(85.1244,-16.9416)">
			<title>Sheet.718</title>
			<path d="M0 89.73 L78.3 89.73 L0 89.73 Z" class="st3"/>
			<path d="M0 89.73 L78.3 89.73" class="st4"/>
		</g>
		<g id="shape719-16" transform="translate(85.1244,-4.1164)">
			<title>Sheet.719</title>
			<path d="M0 89.73 L418.86 89.73 L0 89.73 Z" class="st3"/>
			<path d="M0 89.73 L418.86 89.73" class="st4"/>
		</g>
		<g id="shape720-19" transform="translate(100.101,-44.759) rotate(0.0400842)">
			<title>Sheet.720</title>
			<path d="M0 89.73 L72.08 89.73 L0 89.73 Z" class="st3"/>
			<path d="M0 89.73 L72.08 89.73" class="st4"/>
		</g>
		<g id="shape721-22" transform="translate(349.613,-26.4615)">
			<title>Sheet.721</title>
			<path d="M0 89.73 L68.36 89.73 L0 89.73 Z" class="st3"/>
			<path d="M0 89.73 L68.36 89.73" class="st4"/>
		</g>
		<g id="shape722-25" transform="translate(196.746,54.5387) rotate(-90)">
			<title>Sheet.722</title>
			<path d="M0 89.73 L9.52 89.73 L0 89.73 Z" class="st3"/>
			<path d="M0 89.73 L9.52 89.73" class="st4"/>
		</g>
		<g id="shape723-28" transform="translate(572.579,45.0188) rotate(90)">
			<title>Sheet.723</title>
			<path d="M0 89.73 L9.52 89.73 L0 89.73 Z" class="st3"/>
			<path d="M0 89.73 L9.52 89.73" class="st4"/>
		</g>
		<g id="shape724-31" transform="translate(439.341,63.2661) rotate(90)">
			<title>Sheet.724</title>
			<path d="M0 89.73 L9.52 89.73 L0 89.73 Z" class="st3"/>
			<path d="M0 89.73 L9.52 89.73" class="st4"/>
		</g>
		<g id="shape725-34" transform="translate(507.7,63.2661) rotate(90)">
			<title>Sheet.725</title>
			<path d="M0 89.73 L9.52 89.73 L0 89.73 Z" class="st3"/>
			<path d="M0 89.73 L9.52 89.73" class="st4"/>
		</g>
		<g id="shape726-37" transform="translate(417.973,-16.9416)">
			<title>Sheet.726</title>
			<path d="M0 89.73 L86.01 89.73 L0 89.73 Z" class="st3"/>
			<path d="M0 89.73 L86.01 89.73" class="st4"/>
		</g>
		<g id="shape727-40" transform="translate(261.838,45.0188) rotate(90)">
			<title>Sheet.727</title>
			<path d="M0 89.73 L9.52 89.73 L0 89.73 Z" class="st3"/>
			<path d="M0 89.73 L9.52 89.73" class="st4"/>
		</g>
		<g id="shape728-43" transform="translate(282.984,45.0188) rotate(90)">
			<title>Sheet.728</title>
			<path d="M0 89.73 L9.52 89.73 L0 89.73 Z" class="st3"/>
			<path d="M0 89.73 L9.52 89.73" class="st4"/>
		</g>
		<g id="shape729-46" transform="translate(355.055,45.0188) rotate(90)">
			<title>Sheet.729</title>
			<path d="M0 89.73 L9.52 89.73 L0 89.73 Z" class="st3"/>
			<path d="M0 89.73 L9.52 89.73" class="st4"/>
		</g>
		<g id="shape730-49" transform="translate(172.11,-35.1888)">
			<title>Sheet.730</title>
			<path d="M0 89.73 L21.14 89.73 L0 89.73 Z" class="st3"/>
			<path d="M0 89.73 L21.14 89.73" class="st4"/>
		</g>
		<g id="shape731-52" transform="translate(193.256,-44.7087)">
			<title>Sheet.731</title>
			<path d="M0 89.73 L72.08 89.73 L0 89.73 Z" class="st3"/>
			<path d="M0 89.73 L72.08 89.73" class="st4"/>
		</g>
		<g id="shape732-55" transform="translate(265.327,-35.1888)">
			<title>Sheet.732</title>
			<path d="M0 89.73 L21.14 89.73 L0 89.73 Z" class="st3"/>
			<path d="M0 89.73 L21.14 89.73" class="st4"/>
		</g>
		<g id="shape733-58" transform="translate(286.474,-44.7087)">
			<title>Sheet.733</title>
			<path d="M0 89.73 L196.36 89.73 L0 89.73 Z" class="st3"/>
			<path d="M0 89.73 L196.36 89.73" class="st4"/>
		</g>
		<g id="shape734-61" transform="translate(10.3114,54.4882) rotate(-90)">
			<title>Sheet.734</title>
			<path d="M0 89.73 L9.52 89.73 L0 89.73 Z" class="st3"/>
			<path d="M0 89.73 L9.52 89.73" class="st4"/>
		</g>
		<g id="shape735-64" transform="translate(85.6014,-35.2392)">
			<title>Sheet.735</title>
			<path d="M0 89.73 L14.43 89.73 L0 89.73 Z" class="st3"/>
			<path d="M0 89.73 L14.43 89.73" class="st4"/>
		</g>
		<g id="shape737-67" transform="translate(109.85,-65.7856)">
			<title>Sheet.737</title>
			<desc>ADV_IND</desc>
			<rect x="0" y="66.9401" width="49.8316" height="22.7893" class="st5"/>
			<text x="3.24" y="81.33" class="st6">ADV_IND</text>		</g>
		<g id="shape739-70" transform="translate(203.182,-65.9401)">
			<title>Sheet.739</title>
			<desc>ADV_IND</desc>
			<rect x="0" y="66.9401" width="49.8316" height="22.7893" class="st5"/>
			<text x="3.24" y="81.33" class="st6">ADV_IND</text>		</g>
		<g id="shape741-73" transform="translate(296.4,-65.9401)">
			<title>Sheet.741</title>
			<desc>ADV_IND</desc>
			<rect x="0" y="66.9401" width="49.8316" height="22.7893" class="st5"/>
			<text x="3.24" y="81.33" class="st6">ADV_IND</text>		</g>
		<g id="shape743-76" transform="translate(352.757,-65.3836)">
			<title>Sheet.743</title>
			<desc>SCAN_REQ</desc>
			<rect x="0" y="66.9401" width="61.7184" height="22.7893" class="st5"/>
			<text x="3.35" y="81.33" class="st6">SCAN_REQ</text>		</g>
		<g id="shape745-79" transform="translate(421.204,-65.3836)">
			<title>Sheet.745</title>
			<desc>SCAN_RSP</desc>
			<rect x="0" y="66.9401" width="61.9484" height="22.7893" class="st5"/>
			<text x="4.02" y="81.33" class="st6">SCAN_RSP</text>		</g>
		<g id="shape746-82" transform="translate(253.154,63.2661) rotate(90)">
			<title>Sheet.746</title>
			<path d="M0 89.73 L9.52 89.73 L0 89.73 Z" class="st3"/>
			<path d="M0 89.73 L9.52 89.73" class="st4"/>
		</g>
		<g id="shape747-85" transform="translate(262.103,63.2661) rotate(90)">
			<title>Sheet.747</title>
			<path d="M0 89.73 L9.52 89.73 L0 89.73 Z" class="st3"/>
			<path d="M0 89.73 L9.52 89.73" class="st4"/>
		</g>
		<g id="shape748-88" transform="translate(346.372,63.0876) rotate(90)">
			<title>Sheet.748</title>
			<path d="M0 89.73 L9.52 89.73 L0 89.73 Z" class="st3"/>
			<path d="M0 89.73 L9.52 89.73" class="st4"/>
		</g>
		<g id="shape749-91" transform="translate(354.823,63.0876) rotate(90)">
			<title>Sheet.749</title>
			<path d="M0 89.73 L9.52 89.73 L0 89.73 Z" class="st3"/>
			<path d="M0 89.73 L9.52 89.73" class="st4"/>
		</g>
		<g id="shape750-94" transform="translate(163.427,-26.4615)">
			<title>Sheet.750</title>
			<path d="M0 89.73 L8.94 89.73 L0 89.73 Z" class="st3"/>
			<path d="M0 89.73 L8.94 89.73" class="st4"/>
		</g>
		<g id="shape751-97" transform="translate(256.644,-26.6398)">
			<title>Sheet.751</title>
			<path d="M0 89.73 L8.45 89.73 L0 89.73 Z" class="st3"/>
			<path d="M0 89.73 L8.45 89.73" class="st4"/>
		</g>
		<g id="shape752-100" transform="translate(265.285,-17.1198) rotate(0.120942)">
			<title>Sheet.752</title>
			<path d="M0 89.73 L84.52 89.73 L0 89.73 Z" class="st3"/>
			<path d="M0 89.73 L84.52 89.73" class="st4"/>
		</g>
		<g id="shape753-103" transform="translate(172.186,-16.9413) rotate(-0.121298)">
			<title>Sheet.753</title>
			<path d="M0 89.73 L84.26 89.73 L0 89.73 Z" class="st3"/>
			<path d="M0 89.73 L84.26 89.73" class="st4"/>
		</g>
		<g id="shape756-106" transform="translate(262.601,61.8817) rotate(-90)">
			<title>Sheet.756</title>
			<path d="M0 89.73 L36.25 89.73 L0 89.73 Z" class="st3"/>
			<path d="M0 89.73 L36.25 89.73" class="st7"/>
		</g>
		<g id="shape759-109" transform="translate(259.884,62.1303) rotate(-90)">
			<title>Sheet.759</title>
			<path d="M0 89.73 L60.57 89.73 L0 89.73 Z" class="st3"/>
			<path d="M0 89.73 L60.57 89.73" class="st7"/>
		</g>
		<g id="shape763-112" transform="translate(331.091,71.7748) rotate(-90)">
			<title>Sheet.763</title>
			<path d="M0 89.73 L47.43 89.73 L0 89.73 Z" class="st8"/>
			<path d="M0 89.73 L47.43 89.73" class="st7"/>
		</g>
		<g id="shape766-115" transform="translate(328.241,62.1303) rotate(-90)">
			<title>Sheet.766</title>
			<path d="M0 89.73 L60.57 89.73 L0 89.73 Z" class="st8"/>
			<path d="M0 89.73 L60.57 89.73" class="st7"/>
		</g>
		<g id="shape767-118" transform="translate(353.457,-55.4578)">
			<title>Sheet.767</title>
			<path d="M5.24 89.73 L5.6 89.73 L12.55 89.73" class="st9"/>
		</g>
		<g id="shape768-124" transform="translate(335.999,-55.4578)">
			<title>Sheet.768</title>
			<path d="M0 89.73 L6.95 89.73" class="st11"/>
		</g>
		<g id="shape769-130" transform="translate(421.875,-55.4578)">
			<title>Sheet.769</title>
			<path d="M5.24 89.73 L5.6 89.73 L12.55 89.73" class="st9"/>
		</g>
		<g id="shape770-135" transform="translate(404.549,-55.4578)">
			<title>Sheet.770</title>
			<path d="M0 89.73 L6.95 89.73" class="st11"/>
		</g>
		<g id="group776-140" transform="translate(307.654,-50.5654)">
			<title>Sheet.776</title>
			<g id="shape772-141" transform="translate(3.19744E-14,-0.272734)">
				<title>Sheet.772</title>
				<desc>t</desc>
				<rect x="0" y="80.4786" width="12.5489" height="9.25077" class="st12"/>
				<text x="4.61" y="88.7" class="st13">t</text>			</g>
			<g id="shape774-144" transform="translate(2.13576,-2.84217E-14)">
				<title>Sheet.774</title>
				<desc>radio</desc>
				<rect x="0" y="81.9906" width="30.2343" height="7.73878" class="st12"/>
				<text x="6.22" y="89.46" class="st14">radio</text>			</g>
		</g>
		<g id="group777-147" transform="translate(376.819,-50.6961)">
			<title>Sheet.777</title>
			<g id="shape778-148" transform="translate(3.19744E-14,-0.272734)">
				<title>Sheet.778</title>
				<desc>t</desc>
				<rect x="0" y="80.4786" width="12.5489" height="9.25077" class="st12"/>
				<text x="4.61" y="88.7" class="st13">t</text>			</g>
			<g id="shape779-151" transform="translate(2.13576,-2.84217E-14)">
				<title>Sheet.779</title>
				<desc>radio</desc>
				<rect x="0" y="81.9906" width="30.2343" height="7.73878" class="st12"/>
				<text x="6.22" y="89.46" class="st14">radio</text>			</g>
		</g>
	</g>
</svg>
