<?xml version="1.0" encoding="UTF-8" standalone="no"?>
<!DOCTYPE svg PUBLIC "-//W3C//DTD SVG 1.1//EN" "http://www.w3.org/Graphics/SVG/1.1/DTD/svg11.dtd">
<!-- Generated by Microsoft Visio, SVG Export cx_3w_example_connection.svg Page-1 -->
<svg xmlns="http://www.w3.org/2000/svg" xmlns:xlink="http://www.w3.org/1999/xlink" xmlns:ev="http://www.w3.org/2001/xml-events"
		width="7.30088in" height="1.55727in" viewBox="0 0 525.664 112.123" xml:space="preserve" color-interpolation-filters="sRGB"
		class="st13">
	<style type="text/css">
	<![CDATA[
		.st1 {fill:none;stroke:none;stroke-linecap:butt;stroke-width:1}
		.st2 {fill:#333f48;font-family:Arial;font-size:0.833336em}
		.st3 {fill:#000000}
		.st4 {stroke:#333f48;stroke-width:1}
		.st5 {fill:#00a9ce;stroke:none;stroke-width:1}
		.st6 {fill:#ffffff;font-family:Arial;font-size:1.00001em}
		.st7 {stroke:#768692;stroke-dasharray:7,5;stroke-width:1}
		.st8 {fill:none;stroke:none;stroke-width:1}
		.st9 {fill:#000000;font-family:Arial;font-size:1.00001em}
		.st10 {baseline-shift:-32.4941%;font-size:0.649882em}
		.st11 {marker-end:url(#mrkr4-107);marker-start:url(#mrkr4-105);stroke:#333f48;stroke-width:1}
		.st12 {fill:#333f48;fill-opacity:1;stroke:#333f48;stroke-opacity:1;stroke-width:0.40983606557377}
		.st13 {fill:none;fill-rule:evenodd;font-size:12px;overflow:visible;stroke-linecap:square;stroke-miterlimit:3}
	]]>
	</style>

	<defs id="Markers">
		<g id="lend4">
			<path d="M 2 1 L 0 0 L 2 -1 L 2 1 " style="stroke:none"/>
		</g>
		<marker id="mrkr4-105" class="st12" refX="4.52" orient="auto" markerUnits="strokeWidth" overflow="visible">
			<use xlink:href="#lend4" transform="scale(2.44) "/>
		</marker>
		<marker id="mrkr4-107" class="st12" refX="-4.88" orient="auto" markerUnits="strokeWidth" overflow="visible">
			<use xlink:href="#lend4" transform="scale(-2.44,-2.44) "/>
		</marker>
	</defs>
	<g>
		<title>Page-1</title>
		<g id="shape294-1" transform="translate(1,-47.4867)">
			<title>Sheet.294</title>
			<desc>BLE_REQUEST</desc>
			<rect x="0" y="98.4153" width="81.5045" height="13.7081" class="st1"/>
			<text x="4.7" y="108.27" class="st2">BLE_REQUEST</text>		</g>
		<g id="shape295-4" transform="translate(1,-20.6185)">
			<title>Sheet.295</title>
			<desc>BLE_PRIORITY</desc>
			<rect x="0" y="98.4153" width="81.5045" height="13.7081" class="st1"/>
			<text x="5.82" y="108.27" class="st2">BLE_PRIORITY</text>		</g>
		<g id="shape296-7" transform="translate(1,-1)">
			<title>Sheet.296</title>
			<desc>BLE_GRANT</desc>
			<rect x="0" y="98.4153" width="81.5045" height="13.7081" class="st1"/>
			<text x="18.04" y="108.27" class="st2">BLE_GRANT</text>		</g>
		<g id="shape297-10" transform="translate(484.269,-52.5289)">
			<title>Sheet.297</title>
			<path d="M0 112.12 L40.39 112.12 L0 112.12 Z" class="st3"/>
			<path d="M0 112.12 L40.39 112.12" class="st4"/>
		</g>
		<g id="shape298-13" transform="translate(80.5202,-25.5389) rotate(9.1479E-08)">
			<title>Sheet.298</title>
			<path d="M0 112.12 L134.45 112.12 L0 112.12 Z" class="st3"/>
			<path d="M0 112.12 L134.45 112.12" class="st4"/>
		</g>
		<g id="shape299-16" transform="translate(80.5202,-5.40301)">
			<title>Sheet.299</title>
			<path d="M0 112.12 L444.14 112.12 L0 112.12 Z" class="st3"/>
			<path d="M0 112.12 L444.14 112.12" class="st4"/>
		</g>
		<g id="shape300-19" transform="translate(107.262,-65.9934) rotate(2.34427E-06)">
			<title>Sheet.300</title>
			<path d="M0 112.12 L175.04 112.12 L0 112.12 Z" class="st3"/>
			<path d="M0 112.12 L175.04 112.12" class="st4"/>
		</g>
		<g id="shape301-22" transform="translate(302.592,-65.9934)">
			<title>Sheet.301</title>
			<path d="M0 112.12 L181.68 112.12 L0 112.12 Z" class="st3"/>
			<path d="M0 112.12 L181.68 112.12" class="st4"/>
		</g>
		<g id="shape302-25" transform="translate(214.978,-39.0035) rotate(1.08514E-06)">
			<title>Sheet.302</title>
			<path d="M0 112.12 L66.95 112.12 L0 112.12 Z" class="st3"/>
			<path d="M0 112.12 L66.95 112.12" class="st4"/>
		</g>
		<g id="shape303-28" transform="translate(219.38,46.1253) rotate(90)">
			<title>Sheet.303</title>
			<path d="M0 112.12 L13.46 112.12 L0 112.12 Z" class="st3"/>
			<path d="M0 112.12 L13.46 112.12" class="st4"/>
		</g>
		<g id="shape304-31" transform="translate(107.262,171.709) rotate(180)">
			<title>Sheet.304</title>
			<path d="M0 112.12 L26.74 112.12 L0 112.12 Z" class="st3"/>
			<path d="M0 112.12 L26.74 112.12" class="st4"/>
		</g>
		<g id="shape305-34" transform="translate(394.419,46.1253) rotate(90)">
			<title>Sheet.305</title>
			<path d="M0 112.12 L13.46 112.12 L0 112.12 Z" class="st3"/>
			<path d="M0 112.12 L13.46 112.12" class="st4"/>
		</g>
		<g id="shape306-37" transform="translate(282.301,-52.5289)">
			<title>Sheet.306</title>
			<path d="M0 112.12 L20.29 112.12 L0 112.12 Z" class="st3"/>
			<path d="M0 112.12 L20.29 112.12" class="st4"/>
		</g>
		<g id="shape307-40" transform="translate(190.473,59.5899) rotate(-90)">
			<title>Sheet.307</title>
			<path d="M0 112.12 L13.46 112.12 L0 112.12 Z" class="st3"/>
			<path d="M0 112.12 L13.46 112.12" class="st4"/>
		</g>
		<g id="shape308-43" transform="translate(596.388,46.1253) rotate(90)">
			<title>Sheet.308</title>
			<path d="M0 112.12 L13.46 112.12 L0 112.12 Z" class="st3"/>
			<path d="M0 112.12 L13.46 112.12" class="st4"/>
		</g>
		<g id="shape309-46" transform="translate(327.097,73.1153) rotate(90)">
			<title>Sheet.309</title>
			<path d="M0 112.12 L13.46 112.12 L0 112.12 Z" class="st3"/>
			<path d="M0 112.12 L13.46 112.12" class="st4"/>
		</g>
		<g id="shape310-49" transform="translate(394.047,73.1153) rotate(90)">
			<title>Sheet.310</title>
			<path d="M0 112.12 L13.46 112.12 L0 112.12 Z" class="st3"/>
			<path d="M0 112.12 L13.46 112.12" class="st4"/>
		</g>
		<g id="shape311-52" transform="translate(281.928,-25.5389)">
			<title>Sheet.311</title>
			<path d="M0 112.12 L135.01 112.12 L0 112.12 Z" class="st3"/>
			<path d="M0 112.12 L135.01 112.12" class="st4"/>
		</g>
		<g id="shape312-55" transform="translate(416.946,-39.0035)">
			<title>Sheet.312</title>
			<path d="M0 112.12 L66.95 112.12 L0 112.12 Z" class="st3"/>
			<path d="M0 112.12 L66.95 112.12" class="st4"/>
		</g>
		<g id="shape313-58" transform="translate(529.065,73.1153) rotate(90)">
			<title>Sheet.313</title>
			<path d="M0 112.12 L13.46 112.12 L0 112.12 Z" class="st3"/>
			<path d="M0 112.12 L13.46 112.12" class="st4"/>
		</g>
		<g id="shape314-61" transform="translate(596.016,73.1153) rotate(90)">
			<title>Sheet.314</title>
			<path d="M0 112.12 L13.46 112.12 L0 112.12 Z" class="st3"/>
			<path d="M0 112.12 L13.46 112.12" class="st4"/>
		</g>
		<g id="shape315-64" transform="translate(483.897,-25.5389)">
			<title>Sheet.315</title>
			<path d="M0 112.12 L40.76 112.12 L0 112.12 Z" class="st3"/>
			<path d="M0 112.12 L40.76 112.12" class="st4"/>
		</g>
		<g id="shape317-67" transform="translate(134.066,-86.195)">
			<title>Sheet.317</title>
			<desc>RX</desc>
			<rect x="0" y="87.4353" width="52.2649" height="24.6881" class="st5"/>
			<text x="17.8" y="103.38" class="st6">RX</text>		</g>
		<g id="shape319-70" transform="translate(228.568,-85.814)">
			<title>Sheet.319</title>
			<desc>TX</desc>
			<rect x="0" y="87.4353" width="53.9835" height="24.6881" class="st5"/>
			<text x="19.32" y="103.38" class="st6">TX</text>		</g>
		<g id="shape321-73" transform="translate(329.426,-85.814)">
			<title>Sheet.321</title>
			<desc>RX</desc>
			<rect x="0" y="87.4353" width="53.9835" height="24.6881" class="st5"/>
			<text x="18.66" y="103.38" class="st6">RX</text>		</g>
		<g id="shape323-76" transform="translate(430.286,-85.814)">
			<title>Sheet.323</title>
			<desc>TX</desc>
			<rect x="0" y="87.4353" width="53.9835" height="24.6881" class="st5"/>
			<text x="19.32" y="103.38" class="st6">TX</text>		</g>
		<g id="shape327-79" transform="translate(116.515,72.1124) rotate(-90)">
			<title>Sheet.327</title>
			<path d="M0 112.12 L46.45 112.12 L0 112.12 Z" class="st3"/>
			<path d="M0 112.12 L46.45 112.12" class="st7"/>
		</g>
		<g id="shape330-82" transform="translate(102.855,72.1124) rotate(-90)">
			<title>Sheet.330</title>
			<path d="M0 112.12 L71.11 112.12 L0 112.12 Z" class="st3"/>
			<path d="M0 112.12 L71.11 112.12" class="st7"/>
		</g>
		<g id="shape331-85" transform="translate(192.088,-50.4073)">
			<title>Sheet.331</title>
			<desc>tradio</desc>
			<rect x="0" y="103.265" width="26.9291" height="8.85823" class="st8"/>
			<text x="-0" y="110.93" class="st9">t<tspan dy="-0.287em" class="st10">radio</tspan></text>		</g>
		<g id="shape336-89" transform="translate(318.292,72.1123) rotate(-90)">
			<title>Sheet.336</title>
			<path d="M0 112.12 L46.51 112.12 L0 112.12 Z" class="st3"/>
			<path d="M0 112.12 L46.51 112.12" class="st7"/>
		</g>
		<g id="shape339-92" transform="translate(304.819,72.1123) rotate(-90)">
			<title>Sheet.339</title>
			<path d="M0 112.12 L71.11 112.12 L0 112.12 Z" class="st3"/>
			<path d="M0 112.12 L71.11 112.12" class="st7"/>
		</g>
		<g id="shape340-95" transform="translate(394.057,-50.4682)">
			<title>Sheet.340</title>
			<desc>tradio</desc>
			<rect x="0" y="103.265" width="26.9291" height="8.85823" class="st8"/>
			<text x="-0" y="110.93" class="st9">t<tspan dy="-0.287em" class="st10">radio</tspan></text>		</g>
		<g id="shape333-99" transform="translate(417.485,-52.5898)">
			<title>Sheet.333</title>
			<path d="M4.52 112.12 L4.88 112.12 L7.51 112.12" class="st11"/>
		</g>
		<g id="shape324-108" transform="translate(215.517,-52.5289)">
			<title>Sheet.324</title>
			<path d="M4.52 112.12 L4.88 112.12 L7.51 112.12" class="st11"/>
		</g>
	</g>
</svg>
