<?xml version="1.0" encoding="UTF-8" standalone="no"?>
<!DOCTYPE svg PUBLIC "-//W3C//DTD SVG 1.1//EN" "http://www.w3.org/Graphics/SVG/1.1/DTD/svg11.dtd">
<!-- Generated by Microsoft Visio, SVG Export cx_3w_example_ext_active_scan_on_aa.svg Page-1 -->
<svg xmlns="http://www.w3.org/2000/svg" xmlns:xlink="http://www.w3.org/1999/xlink" xmlns:ev="http://www.w3.org/2001/xml-events"
		width="7.09311in" height="1.31528in" viewBox="0 0 510.704 94.7003" xml:space="preserve" color-interpolation-filters="sRGB"
		class="st9">
	<style type="text/css">
	<![CDATA[
		.st1 {fill:none;stroke:none;stroke-linecap:butt;stroke-width:0.75}
		.st2 {fill:#333f48;font-family:Arial;font-size:0.833336em}
		.st3 {fill:#00a9ce}
		.st4 {fill:#ffffff;font-family:Arial;font-size:0.833336em}
		.st5 {fill:none}
		.st6 {stroke:#333f48;stroke-linecap:round;stroke-linejoin:round;stroke-width:1}
		.st7 {stroke:#768692;stroke-dasharray:7,5;stroke-linecap:round;stroke-linejoin:round;stroke-width:1}
		.st8 {font-size:0.799995em}
		.st9 {fill:none;fill-rule:evenodd;font-size:12px;overflow:visible;stroke-linecap:square;stroke-miterlimit:3}
	]]>
	</style>

	<g>
		<title>Page-1</title>
		<g id="shape444-1" transform="translate(0.75,-33.5513)">
			<title>text5</title>
			<desc>BLE_REQUEST</desc>
			<rect x="0" y="81.7279" width="74.8099" height="12.9724" class="st1"/>
			<text x="2.01" y="91.21" class="st2">BLE_REQUEST</text>		</g>
		<g id="shape446-4" transform="translate(0.75,-13.9247)">
			<title>text13</title>
			<desc>BLE_PRIORITY</desc>
			<rect x="0" y="81.7279" width="74.8099" height="12.9724" class="st1"/>
			<text x="3.12" y="91.21" class="st2">BLE_PRIORITY</text>		</g>
		<g id="shape448-7" transform="translate(0.75,-0.75)">
			<title>text21</title>
			<desc>BLE_GRANT</desc>
			<rect x="0" y="81.7279" width="74.8099" height="12.9724" class="st1"/>
			<text x="15.35" y="91.21" class="st2">BLE_GRANT</text>		</g>
		<g id="shape451-10" transform="translate(97.8493,95.3968) scale(1,-1)">
			<title>path35</title>
			<desc>ADV_EXT_IND</desc>
			<path d="M0 71.02 L73.14 71.02 L73.14 94.7 L0 94.7 L0 71.02 Z" class="st3"/>
			<text x="2.39" y="-79.86" transform="scale(1,-1)" class="st4">ADV_EXT_IND</text>		</g>
		<g id="shape455-14" transform="translate(209.993,95.3968) scale(1,-1)">
			<title>path53</title>
			<desc>AUX_ADV_IND</desc>
			<path d="M0 71.02 L78.01 71.02 L78.01 94.7 L0 94.7 L0 71.02 Z" class="st3"/>
			<text x="4.27" y="-79.86" transform="scale(1,-1)" class="st4">AUX_ADV_IND</text>		</g>
		<g id="shape459-18" transform="translate(400.846,94.7003) scale(1,-1)">
			<title>path71</title>
			<desc>AUX_SCAN_RSP</desc>
			<path d="M0 71.02 L84.28 71.02 L84.28 94.7 L0 94.7 L0 71.02 Z" class="st3"/>
			<text x="2.13" y="-79.86" transform="scale(1,-1)" class="st4">AUX_SCAN_RSP</text>		</g>
		<g id="shape463-22" transform="translate(303.33,94.7003) scale(1,-1)">
			<title>path89</title>
			<desc>AUX_SCAN_REQ</desc>
			<path d="M0 71.02 L84.28 71.02 L84.28 94.7 L0 94.7 L0 71.02 Z" class="st3"/>
			<text x="1.57" y="-79.86" transform="scale(1,-1)" class="st4">AUX_SCAN_REQ</text>		</g>
		<g id="shape466-26" transform="translate(211.386,-56.3903)">
			<title>path101</title>
			<path d="M0 94.7 L13.93 94.7 L0 94.7 Z" class="st5"/>
			<path d="M0 94.7 L13.93 94.7" class="st6"/>
		</g>
		<g id="shape468-29" transform="translate(321.759,47.017) rotate(90) scale(-1,1)">
			<title>path107</title>
			<path d="M0 94.7 L22.29 94.7 L0 94.7 Z" class="st5"/>
			<path d="M0 94.7 L22.29 94.7" class="st7"/>
		</g>
		<g id="shape470-32" transform="translate(305.39,56.42) rotate(90) scale(-1,1)">
			<title>path113</title>
			<path d="M0 94.7 L31.34 94.7 L0 94.7 Z" class="st5"/>
			<path d="M0 94.7 L31.34 94.7" class="st7"/>
		</g>
		<g id="shape474-35" transform="translate(187.007,-59.5806)">
			<title>text125</title>
			<desc>taa</desc>
			<rect x="0" y="81.7279" width="13.9309" height="12.9724" class="st1"/>
			<text x="0" y="91.21" class="st2">t<tspan class="st8">aa</tspan></text>		</g>
		<g id="shape477-39" transform="translate(398.03,66.1718) rotate(90) scale(-1,1)">
			<title>path137</title>
			<path d="M0 94.7 L42.49 94.7 L0 94.7 Z" class="st5"/>
			<path d="M0 94.7 L42.49 94.7" class="st7"/>
		</g>
		<g id="shape479-42" transform="translate(391.413,66.5201) rotate(90) scale(-1,1)">
			<title>path143</title>
			<path d="M0 94.7 L65.48 94.7 L0 94.7 Z" class="st5"/>
			<path d="M0 94.7 L65.48 94.7" class="st7"/>
		</g>
		<g id="shape483-45" transform="translate(258.4,-35.4569)">
			<title>text155</title>
			<desc>tradio</desc>
			<rect x="0" y="81.7279" width="22.641" height="12.9724" class="st1"/>
			<text x="0" y="91.21" class="st2">t<tspan class="st8">radio</tspan></text>		</g>
		<g id="shape486-49" transform="translate(304.723,-37.5837)">
			<title>path167</title>
			<path d="M0 94.7 L13.93 94.7 L0 94.7 Z" class="st5"/>
			<path d="M0 94.7 L13.93 94.7" class="st6"/>
		</g>
		<g id="shape488-52" transform="translate(281.041,-37.5837)">
			<title>path173</title>
			<path d="M0 94.7 L13.93 94.7 L0 94.7 Z" class="st5"/>
			<path d="M0 94.7 L13.93 94.7" class="st6"/>
		</g>
		<g id="shape490-55" transform="translate(495.546,75.9234) rotate(90) scale(-1,1)">
			<title>path179</title>
			<path d="M0 94.7 L52.24 94.7 L0 94.7 Z" class="st5"/>
			<path d="M0 94.7 L52.24 94.7" class="st7"/>
		</g>
		<g id="shape492-58" transform="translate(488.929,63.6936) rotate(90) scale(-1,1)">
			<title>path185</title>
			<path d="M0 94.7 L62.65 94.7 L0 94.7 Z" class="st5"/>
			<path d="M0 94.7 L62.65 94.7" class="st7"/>
		</g>
		<g id="shape499-61" transform="translate(401.543,-37.5837)">
			<title>path209</title>
			<path d="M0 94.7 L13.93 94.7 L0 94.7 Z" class="st5"/>
			<path d="M0 94.7 L13.93 94.7" class="st6"/>
		</g>
		<g id="shape501-64" transform="translate(377.86,-37.5837)">
			<title>path215</title>
			<path d="M0 94.7 L13.93 94.7 L0 94.7 Z" class="st5"/>
			<path d="M0 94.7 L13.93 94.7" class="st6"/>
		</g>
		<g id="shape503-67" transform="translate(99.2424,-57.0869)">
			<title>path221</title>
			<path d="M0 94.7 L13.93 94.7 L0 94.7 Z" class="st5"/>
			<path d="M0 94.7 L13.93 94.7" class="st6"/>
		</g>
		<g id="shape505-70" transform="translate(208.918,46.6685) rotate(90) scale(-1,1)">
			<title>path227</title>
			<path d="M0 94.7 L21.94 94.7 L0 94.7 Z" class="st5"/>
			<path d="M0 94.7 L21.94 94.7" class="st7"/>
		</g>
		<g id="shape507-73" transform="translate(192.898,56.0719) rotate(90) scale(-1,1)">
			<title>path233</title>
			<path d="M0 94.7 L30.65 94.7 L0 94.7 Z" class="st5"/>
			<path d="M0 94.7 L30.65 94.7" class="st7"/>
		</g>
		<g id="shape511-76" transform="translate(75.5599,-60.2771)">
			<title>text245</title>
			<desc>taa</desc>
			<rect x="0" y="81.7279" width="13.9309" height="12.9724" class="st1"/>
			<text x="0" y="91.21" class="st2">t<tspan class="st8">aa</tspan></text>		</g>
		<g id="shape514-80" transform="translate(485.825,-37.5837)">
			<title>path257</title>
			<path d="M0 94.7 L22.99 94.7 L0 94.7 Z" class="st5"/>
			<path d="M0 94.7 L22.99 94.7" class="st6"/>
		</g>
		<g id="shape516-83" transform="translate(79.7392,-18.0805)">
			<title>path263</title>
			<path d="M0 94.7 L216.63 94.7 L0 94.7 Z" class="st5"/>
			<path d="M0 94.7 L216.63 94.7" class="st6"/>
		</g>
		<g id="shape518-86" transform="translate(79.0426,-4.84611)">
			<title>path269</title>
			<path d="M0 94.7 L431.16 94.7 L0 94.7 Z" class="st5"/>
			<path d="M0 94.7 L431.16 94.7" class="st6"/>
		</g>
		<g id="shape520-89" transform="translate(108.994,-48.0318)">
			<title>path275</title>
			<path d="M0 94.7 L62.69 94.7 L0 94.7 Z" class="st5"/>
			<path d="M0 94.7 L62.69 94.7" class="st6"/>
		</g>
		<g id="shape522-92" transform="translate(296.364,-28.5286)">
			<title>path281</title>
			<path d="M0 94.7 L97.52 94.7 L0 94.7 Z" class="st5"/>
			<path d="M0 94.7 L97.52 94.7" class="st6"/>
		</g>
		<g id="shape524-95" transform="translate(485.128,142.065) scale(1,-1)">
			<title>path287</title>
			<path d="M0 94.7 L0 84.95 L0 94.7 Z" class="st5"/>
			<path d="M0 94.7 L0 84.95" class="st6"/>
		</g>
		<g id="shape526-98" transform="translate(296.364,160.872) scale(1,-1)">
			<title>path293</title>
			<path d="M0 94.7 L0 84.25 L0 94.7 Z" class="st5"/>
			<path d="M0 94.7 L0 84.25" class="st6"/>
		</g>
		<g id="shape528-101" transform="translate(393.881,160.872) scale(1,-1)">
			<title>path299</title>
			<path d="M0 94.7 L0 84.25 L0 94.7 Z" class="st5"/>
			<path d="M0 94.7 L0 84.25" class="st6"/>
		</g>
		<g id="shape530-104" transform="translate(393.881,170.624) scale(1,-1)">
			<title>path305</title>
			<path d="M0 94 L114.93 94.7 L0 94 Z" class="st5"/>
			<path d="M0 94 L114.93 94.7" class="st6"/>
		</g>
		<g id="shape532-107" transform="translate(171.683,141.369) scale(1,-1)">
			<title>path311</title>
			<path d="M0 94.7 L0 84.25 L0 94.7 Z" class="st5"/>
			<path d="M0 94.7 L0 84.25" class="st6"/>
		</g>
		<g id="shape534-110" transform="translate(171.683,-37.5837)">
			<title>path317</title>
			<path d="M0 94.7 L55.03 94.7 L0 94.7 Z" class="st5"/>
			<path d="M0 94.7 L55.03 94.7" class="st6"/>
		</g>
		<g id="shape536-113" transform="translate(226.71,-47.3352)">
			<title>path323</title>
			<path d="M0 94.7 L258.42 94.7 L0 94.7 Z" class="st5"/>
			<path d="M0 94.7 L258.42 94.7" class="st6"/>
		</g>
		<g id="shape538-116" transform="translate(108.994,141.369) scale(1,-1)">
			<title>path329</title>
			<path d="M0 84.25 L0 94.7 L0 84.25 Z" class="st5"/>
			<path d="M0 84.25 L0 94.7" class="st6"/>
		</g>
		<g id="shape540-119" transform="translate(79.7392,-37.5837)">
			<title>path335</title>
			<path d="M0 94.7 L29.25 94.7 L0 94.7 Z" class="st5"/>
			<path d="M0 94.7 L29.25 94.7" class="st6"/>
		</g>
		<g id="shape542-122" transform="translate(226.71,142.065) scale(1,-1)">
			<title>path341</title>
			<path d="M0 94.7 L0 84.95 L0 94.7 Z" class="st5"/>
			<path d="M0 94.7 L0 84.95" class="st6"/>
		</g>
		<g id="shape551-125" transform="translate(355.219,-34.7602)">
			<title>text155.551</title>
			<desc>tradio</desc>
			<rect x="0" y="81.7279" width="22.641" height="12.9724" class="st1"/>
			<text x="0" y="91.21" class="st2">t<tspan class="st8">radio</tspan></text>		</g>
	</g>
</svg>
