<?xml version="1.0" encoding="UTF-8" standalone="no"?>
<!DOCTYPE svg PUBLIC "-//W3C//DTD SVG 1.1//EN" "http://www.w3.org/Graphics/SVG/1.1/DTD/svg11.dtd">
<!-- Generated by Microsoft Visio, SVG Export cx_3w_example_deny_connection.svg Page-1 -->
<svg xmlns="http://www.w3.org/2000/svg" xmlns:xlink="http://www.w3.org/1999/xlink" xmlns:ev="http://www.w3.org/2001/xml-events"
		width="7.27187in" height="1.88139in" viewBox="0 0 523.575 135.46" xml:space="preserve" color-interpolation-filters="sRGB"
		class="st15">
	<style type="text/css">
	<![CDATA[
		.st1 {fill:none;stroke:none;stroke-linecap:butt;stroke-width:1}
		.st2 {fill:#333f48;font-family:Arial;font-size:0.833336em}
		.st3 {fill:#000000}
		.st4 {stroke:#333f48;stroke-width:1}
		.st5 {fill:#00a9ce;stroke:none;stroke-width:1}
		.st6 {fill:#ffffff;font-family:Arial;font-size:0.833336em}
		.st7 {fill:#768692;stroke:none;stroke-width:1}
		.st8 {stroke:#768692;stroke-dasharray:7,5;stroke-width:1}
		.st9 {marker-start:url(#mrkr4-75);stroke:#333f48;stroke-width:1}
		.st10 {fill:#333f48;fill-opacity:1;stroke:#333f48;stroke-opacity:1;stroke-width:0.28409090909091}
		.st11 {marker-end:url(#mrkr4-81);stroke:#333f48;stroke-width:1}
		.st12 {fill:none;stroke:none;stroke-width:1}
		.st13 {fill:#333f48;font-family:Arial;font-size:1.00001em}
		.st14 {fill:#333f48;font-family:Arial;font-size:0.666664em}
		.st15 {fill:none;fill-rule:evenodd;font-size:12px;overflow:visible;stroke-linecap:square;stroke-miterlimit:3}
	]]>
	</style>

	<defs id="Markers">
		<g id="lend4">
			<path d="M 2 1 L 0 0 L 2 -1 L 2 1 " style="stroke:none"/>
		</g>
		<marker id="mrkr4-75" class="st10" refX="6.68" orient="auto" markerUnits="strokeWidth" overflow="visible">
			<use xlink:href="#lend4" transform="scale(3.52) "/>
		</marker>
		<marker id="mrkr4-81" class="st10" refX="-7.04" orient="auto" markerUnits="strokeWidth" overflow="visible">
			<use xlink:href="#lend4" transform="scale(-3.52,-3.52) "/>
		</marker>
	</defs>
	<g>
		<title>Page-1</title>
		<g id="shape394-1" transform="translate(1,-59.6652)">
			<title>Sheet.394</title>
			<desc>BLE_REQUEST</desc>
			<rect x="0" y="121.205" width="85.295" height="14.2551" class="st1"/>
			<text x="8.49" y="131.33" class="st2">BLE_REQUEST</text>		</g>
		<g id="shape395-4" transform="translate(1,-31.5003)">
			<title>Sheet.395</title>
			<desc>BLE_PRIORITY</desc>
			<rect x="0" y="121.205" width="85.295" height="14.2551" class="st1"/>
			<text x="9.61" y="131.33" class="st2">BLE_PRIORITY</text>		</g>
		<g id="shape396-7" transform="translate(1,-10.9946)">
			<title>Sheet.396</title>
			<desc>BLE_GRANT</desc>
			<rect x="0" y="121.205" width="85.295" height="14.2551" class="st1"/>
			<text x="21.83" y="131.33" class="st2">BLE_GRANT</text>		</g>
		<g id="shape397-10" transform="translate(269.032,-64.1192)">
			<title>Sheet.397</title>
			<path d="M0 135.46 L253.54 135.46 L0 135.46 Z" class="st3"/>
			<path d="M0 135.46 L253.54 135.46" class="st4"/>
		</g>
		<g id="shape398-13" transform="translate(86.295,-36.0522) rotate(9.1479E-08)">
			<title>Sheet.398</title>
			<path d="M0 135.46 L139.82 135.46 L0 135.46 Z" class="st3"/>
			<path d="M0 135.46 L139.82 135.46" class="st4"/>
		</g>
		<g id="shape399-16" transform="translate(291.54,-15.0991)">
			<title>Sheet.399</title>
			<path d="M0 135.46 L231.03 135.46 L0 135.46 Z" class="st3"/>
			<path d="M0 135.46 L231.03 135.46" class="st4"/>
		</g>
		<g id="shape400-19" transform="translate(114.104,-78.121) rotate(2.37881E-06)">
			<title>Sheet.400</title>
			<path d="M0 135.46 L154.92 135.46 L0 135.46 Z" class="st3"/>
			<path d="M0 135.46 L154.92 135.46" class="st4"/>
		</g>
		<g id="shape401-22" transform="translate(226.119,-50.0541) rotate(1.5104E-06)">
			<title>Sheet.401</title>
			<path d="M0 135.46 L50.02 135.46 L0 135.46 Z" class="st3"/>
			<path d="M0 135.46 L50.02 135.46" class="st4"/>
		</g>
		<g id="shape402-25" transform="translate(249.566,57.3416) rotate(90)">
			<title>Sheet.402</title>
			<path d="M0 135.46 L14 135.46 L0 135.46 Z" class="st3"/>
			<path d="M0 135.46 L14 135.46" class="st4"/>
		</g>
		<g id="shape403-28" transform="translate(114.104,206.806) rotate(180)">
			<title>Sheet.403</title>
			<path d="M0 135.46 L27.81 135.46 L0 135.46 Z" class="st3"/>
			<path d="M0 135.46 L27.81 135.46" class="st4"/>
		</g>
		<g id="shape404-31" transform="translate(404.493,57.3416) rotate(90)">
			<title>Sheet.404</title>
			<path d="M0 135.46 L14 135.46 L0 135.46 Z" class="st3"/>
			<path d="M0 135.46 L14 135.46" class="st4"/>
		</g>
		<g id="shape406-34" transform="translate(361.581,85.4088) rotate(90)">
			<title>Sheet.406</title>
			<path d="M0 135.46 L14 135.46 L0 135.46 Z" class="st3"/>
			<path d="M0 135.46 L14 135.46" class="st4"/>
		</g>
		<g id="shape407-37" transform="translate(411.601,85.4088) rotate(90)">
			<title>Sheet.407</title>
			<path d="M0 135.46 L14 135.46 L0 135.46 Z" class="st3"/>
			<path d="M0 135.46 L14 135.46" class="st4"/>
		</g>
		<g id="shape408-40" transform="translate(276.138,-36.0522)">
			<title>Sheet.408</title>
			<path d="M0 135.46 L160.01 135.46 L0 135.46 Z" class="st3"/>
			<path d="M0 135.46 L160.01 135.46" class="st4"/>
		</g>
		<g id="shape409-43" transform="translate(431.559,-36.0522)">
			<title>Sheet.409</title>
			<path d="M0 135.46 L91.02 135.46 L0 135.46 Z" class="st3"/>
			<path d="M0 135.46 L91.02 135.46" class="st4"/>
		</g>
		<g id="shape411-46" transform="translate(141.977,-108.787)">
			<title>Sheet.411</title>
			<desc>RX</desc>
			<rect x="0" y="109.787" width="54.3504" height="25.6733" class="st5"/>
			<text x="20.23" y="125.62" class="st6">RX</text>		</g>
		<g id="shape413-49" transform="translate(345.134,-108.761)">
			<title>Sheet.413</title>
			<desc>RX</desc>
			<rect x="0" y="109.787" width="56.1377" height="25.6733" class="st7"/>
			<text x="21.12" y="125.62" class="st6">RX</text>		</g>
		<g id="shape415-52" transform="translate(450.018,-108.761)">
			<title>Sheet.415</title>
			<desc>TX</desc>
			<rect x="0" y="109.787" width="56.1377" height="25.6733" class="st7"/>
			<text x="21.68" y="125.62" class="st6">TX</text>		</g>
		<g id="shape416-55" transform="translate(398.27,120.363) rotate(90)">
			<title>Sheet.416</title>
			<path d="M0 135.46 L14.1 135.46 L0 135.46 Z" class="st3"/>
			<path d="M0 135.46 L14.1 135.46" class="st4"/>
		</g>
		<g id="shape417-58" transform="translate(262.807,-1.00395) rotate(9.96435E-07)">
			<title>Sheet.417</title>
			<path d="M0 135.46 L28.73 135.46 L0 135.46 Z" class="st3"/>
			<path d="M0 135.46 L28.73 135.46" class="st4"/>
		</g>
		<g id="shape418-61" transform="translate(427.003,120.363) rotate(90)">
			<title>Sheet.418</title>
			<path d="M0 135.46 L14.1 135.46 L0 135.46 Z" class="st3"/>
			<path d="M0 135.46 L14.1 135.46" class="st4"/>
		</g>
		<g id="shape421-64" transform="translate(133.567,56.0749) rotate(-90)">
			<title>Sheet.421</title>
			<path d="M0 135.46 L29.36 135.46 L0 135.46 Z" class="st3"/>
			<path d="M0 135.46 L29.36 135.46" class="st8"/>
		</g>
		<g id="shape424-67" transform="translate(127.349,119.057) rotate(-90)">
			<title>Sheet.424</title>
			<path d="M0 135.46 L92.34 135.46 L0 135.46 Z" class="st3"/>
			<path d="M0 135.46 L92.34 135.46" class="st8"/>
		</g>
		<g id="shape425-70" transform="translate(271.312,-91.9418)">
			<title>Sheet.425</title>
			<path d="M6.68 135.46 L7.04 135.46 L14.14 135.46" class="st9"/>
		</g>
		<g id="shape426-76" transform="translate(246.777,-91.9418)">
			<title>Sheet.426</title>
			<path d="M0 135.46 L7.1 135.46" class="st11"/>
		</g>
		<g id="shape428-82" transform="translate(85.9173,-15.3659) rotate(0.0863452)">
			<title>Sheet.428</title>
			<path d="M0 135.46 L177.09 135.46 L0 135.46 Z" class="st3"/>
			<path d="M0 135.46 L177.09 135.46" class="st4"/>
		</g>
		<g id="shape430-85" transform="translate(240.228,-108.742)">
			<title>Sheet.430</title>
			<rect x="0" y="109.787" width="28.9089" height="25.6733" class="st5"/>
		</g>
		<g id="shape432-87" transform="translate(268.857,-108.742)">
			<title>Sheet.432</title>
			<rect x="0" y="109.787" width="27.5088" height="25.6733" class="st7"/>
		</g>
		<g id="shape434-89" transform="translate(240.228,-108.742)">
			<title>Sheet.434</title>
			<desc>TX</desc>
			<rect x="0" y="109.787" width="56.1377" height="25.6733" class="st12"/>
			<text x="21.68" y="125.62" class="st6">TX</text>		</g>
		<g id="shape437-92" transform="translate(156.079,119.366) rotate(-90)">
			<title>Sheet.437</title>
			<path d="M0 135.46 L16.64 135.46 L0 135.46 Z" class="st3"/>
			<path d="M0 135.46 L16.64 135.46" class="st8"/>
		</g>
		<g id="shape438-95" transform="translate(294.491,-25.236)">
			<title>Sheet.438</title>
			<path d="M6.68 135.46 L7.04 135.46 L14.14 135.46" class="st9"/>
		</g>
		<g id="shape439-100" transform="translate(245.871,-25.236)">
			<title>Sheet.439</title>
			<path d="M0 135.46 L7.1 135.46" class="st11"/>
		</g>
		<g id="group443-105" transform="translate(96.3574,-21.0977)">
			<title>Sheet.443</title>
			<g id="shape441-106">
				<title>Sheet.441</title>
				<desc>t</desc>
				<rect x="0" y="127.277" width="10.7762" height="8.18387" class="st12"/>
				<text x="4" y="134.97" class="st13">t</text>			</g>
			<g id="shape442-109" transform="translate(3.55747,-0.861485)">
				<title>Sheet.442</title>
				<desc>max_BLE_GRANT_reactivation_delay</desc>
				<rect x="0" y="131.431" width="145.956" height="4.02919" class="st12"/>
				<text x="4.94" y="135.85" class="st14">max_BLE_GRANT_reactivation_delay</text>			</g>
		</g>
		<g id="group447-112" transform="translate(178.773,-86.2033)">
			<title>Sheet.447</title>
			<g id="shape445-113" transform="translate(-7.99361E-15,-3.29319)">
				<title>Sheet.445</title>
				<desc>t</desc>
				<rect x="0" y="127.277" width="10.7762" height="8.18387" class="st12"/>
				<text x="4" y="134.97" class="st13">t</text>			</g>
			<g id="shape446-116" transform="translate(3.55747,-5.68434E-14)">
				<title>Sheet.446</title>
				<desc>radio_off_delay</desc>
				<rect x="0" y="127.277" width="64.4461" height="8.18387" class="st12"/>
				<text x="4.87" y="133.77" class="st14">radio_off_delay</text>			</g>
		</g>
	</g>
</svg>
