<?xml version="1.0" encoding="UTF-8" standalone="no"?>
<!DOCTYPE svg PUBLIC "-//W3C//DTD SVG 1.1//EN" "http://www.w3.org/Graphics/SVG/1.1/DTD/svg11.dtd">
<!-- Generated by Microsoft Visio, SVG Export cx_3w_example_deny_adv.svg Page-1 -->
<svg xmlns="http://www.w3.org/2000/svg" xmlns:xlink="http://www.w3.org/1999/xlink" xmlns:ev="http://www.w3.org/2001/xml-events"
		width="7.25168in" height="1.8388in" viewBox="0 0 522.121 132.394" xml:space="preserve" color-interpolation-filters="sRGB"
		class="st14">
	<style type="text/css">
	<![CDATA[
		.st1 {fill:none;stroke:none;stroke-linecap:butt;stroke-width:1}
		.st2 {fill:#000000;font-family:Arial;font-size:1.00001em}
		.st3 {fill:#000000}
		.st4 {stroke:#333f48;stroke-width:1}
		.st5 {fill:#00a9ce;stroke:none;stroke-width:1}
		.st6 {fill:#ffffff;font-family:Arial;font-size:1.00001em}
		.st7 {fill:#768692;stroke:none;stroke-width:1}
		.st8 {fill:none;stroke:none;stroke-width:1}
		.st9 {stroke:#768692;stroke-dasharray:7,5;stroke-width:1}
		.st10 {marker-start:url(#mrkr4-97);stroke:#333f48;stroke-width:1}
		.st11 {fill:#333f48;fill-opacity:1;stroke:#333f48;stroke-opacity:1;stroke-width:0.28409090909091}
		.st12 {marker-end:url(#mrkr4-103);stroke:#333f48;stroke-width:1}
		.st13 {baseline-shift:-32.4941%;font-size:0.649882em}
		.st14 {fill:none;fill-rule:evenodd;font-size:12px;overflow:visible;stroke-linecap:square;stroke-miterlimit:3}
	]]>
	</style>

	<defs id="Markers">
		<g id="lend4">
			<path d="M 2 1 L 0 0 L 2 -1 L 2 1 " style="stroke:none"/>
		</g>
		<marker id="mrkr4-97" class="st11" refX="6.68" orient="auto" markerUnits="strokeWidth" overflow="visible">
			<use xlink:href="#lend4" transform="scale(3.52) "/>
		</marker>
		<marker id="mrkr4-103" class="st11" refX="-7.04" orient="auto" markerUnits="strokeWidth" overflow="visible">
			<use xlink:href="#lend4" transform="scale(-3.52,-3.52) "/>
		</marker>
	</defs>
	<g>
		<title>Page-1</title>
		<g id="shape343-1" transform="translate(1,-56.7049)">
			<title>Sheet.343</title>
			<desc>BLE_REQUEST</desc>
			<rect x="0" y="118.37" width="98.8184" height="14.0239" class="st1"/>
			<text x="7.46" y="128.98" class="st2">BLE_REQUEST</text>		</g>
		<g id="shape344-4" transform="translate(1,-33.0959)">
			<title>Sheet.344</title>
			<desc>BLE_PRIORITY</desc>
			<rect x="0" y="118.37" width="98.8184" height="14.0239" class="st1"/>
			<text x="8.79" y="128.98" class="st2">BLE_PRIORITY</text>		</g>
		<g id="shape345-7" transform="translate(1,-10.2425)">
			<title>Sheet.345</title>
			<desc>BLE_GRANT</desc>
			<rect x="0" y="118.37" width="98.8184" height="14.0239" class="st1"/>
			<text x="23.46" y="128.98" class="st2">BLE_GRANT</text>		</g>
		<g id="shape346-10" transform="translate(493.085,-60.4158)">
			<title>Sheet.346</title>
			<path d="M0 132.39 L28.03 132.39 L0 132.39 Z" class="st3"/>
			<path d="M0 132.39 L28.03 132.39" class="st4"/>
		</g>
		<g id="shape347-13" transform="translate(174.674,-14.1889) rotate(5.1065E-07)">
			<title>Sheet.347</title>
			<path d="M0 132.39 L346.45 132.39 L0 132.39 Z" class="st3"/>
			<path d="M0 132.39 L346.45 132.39" class="st4"/>
		</g>
		<g id="shape348-16" transform="translate(117.668,-73.1039) rotate(0.117634)">
			<title>Sheet.348</title>
			<path d="M0 132.39 L32.57 132.39 L0 132.39 Z" class="st3"/>
			<path d="M0 132.39 L32.57 132.39" class="st4"/>
		</g>
		<g id="shape349-19" transform="translate(316.059,-48.8449)">
			<title>Sheet.349</title>
			<path d="M0 132.39 L90.63 132.39 L0 132.39 Z" class="st3"/>
			<path d="M0 132.39 L90.63 132.39" class="st4"/>
		</g>
		<g id="shape350-22" transform="translate(100.348,71.9819) rotate(-90)">
			<title>Sheet.350</title>
			<path d="M0 132.39 L12.63 132.39 L0 132.39 Z" class="st3"/>
			<path d="M0 132.39 L12.63 132.39" class="st4"/>
		</g>
		<g id="shape351-25" transform="translate(625.504,59.3603) rotate(90)">
			<title>Sheet.351</title>
			<path d="M0 132.39 L12.63 132.39 L0 132.39 Z" class="st3"/>
			<path d="M0 132.39 L12.63 132.39" class="st4"/>
		</g>
		<g id="shape352-28" transform="translate(448.458,83.5528) rotate(90)">
			<title>Sheet.352</title>
			<path d="M0 132.39 L12.63 132.39 L0 132.39 Z" class="st3"/>
			<path d="M0 132.39 L12.63 132.39" class="st4"/>
		</g>
		<g id="shape353-31" transform="translate(539.09,83.5528) rotate(90)">
			<title>Sheet.353</title>
			<path d="M0 132.39 L12.63 132.39 L0 132.39 Z" class="st3"/>
			<path d="M0 132.39 L12.63 132.39" class="st4"/>
		</g>
		<g id="shape354-34" transform="translate(406.692,-36.2232)">
			<title>Sheet.354</title>
			<path d="M0 132.39 L114.43 132.39 L0 132.39 Z" class="st3"/>
			<path d="M0 132.39 L114.43 132.39" class="st4"/>
		</g>
		<g id="shape355-37" transform="translate(282.354,59.3603) rotate(90)">
			<title>Sheet.355</title>
			<path d="M0 132.39 L12.63 132.39 L0 132.39 Z" class="st3"/>
			<path d="M0 132.39 L12.63 132.39" class="st4"/>
		</g>
		<g id="shape356-40" transform="translate(149.956,-60.4158)">
			<title>Sheet.356</title>
			<path d="M0 132.39 L82.79 132.39 L0 132.39 Z" class="st3"/>
			<path d="M0 132.39 L82.79 132.39" class="st4"/>
		</g>
		<g id="shape357-43" transform="translate(232.746,-73.0373)">
			<title>Sheet.357</title>
			<path d="M0 132.39 L260.34 132.39 L0 132.39 Z" class="st3"/>
			<path d="M0 132.39 L260.34 132.39" class="st4"/>
		</g>
		<g id="shape358-46" transform="translate(-15.0016,71.9151) rotate(-90)">
			<title>Sheet.358</title>
			<path d="M0 132.39 L12.63 132.39 L0 132.39 Z" class="st3"/>
			<path d="M0 132.39 L12.63 132.39" class="st4"/>
		</g>
		<g id="shape359-49" transform="translate(98.2552,-60.4827)">
			<title>Sheet.359</title>
			<path d="M0 132.39 L19.14 132.39 L0 132.39 Z" class="st3"/>
			<path d="M0 132.39 L19.14 132.39" class="st4"/>
		</g>
		<g id="shape361-52" transform="translate(245.906,-101.179)">
			<title>Sheet.361</title>
			<desc>ADV_IND</desc>
			<rect x="0" y="102.179" width="66.0674" height="30.2144" class="st5"/>
			<text x="7.03" y="120.89" class="st6">ADV_IND</text>		</g>
		<g id="shape363-55" transform="translate(320.625,-100.441)">
			<title>Sheet.363</title>
			<desc>SCAN_REQ</desc>
			<rect x="0" y="102.179" width="81.8272" height="30.2144" class="st5"/>
			<text x="7.9" y="120.89" class="st6">SCAN_REQ</text>		</g>
		<g id="shape365-58" transform="translate(410.975,-100.441)">
			<title>Sheet.365</title>
			<desc>SCAN_RSP</desc>
			<rect x="0" y="102.179" width="82.132" height="30.2144" class="st5"/>
			<text x="8.72" y="120.89" class="st6">SCAN_RSP</text>		</g>
		<g id="shape366-61" transform="translate(97.6843,-36.9853) rotate(0.199717)">
			<title>Sheet.366</title>
			<path d="M0 132.39 L218.83 132.39 L0 132.39 Z" class="st3"/>
			<path d="M0 132.39 L218.83 132.39" class="st4"/>
		</g>
		<g id="shape367-64" transform="translate(274.115,118.209) rotate(90)">
			<title>Sheet.367</title>
			<path d="M0 132.39 L12.63 132.39 L0 132.39 Z" class="st3"/>
			<path d="M0 132.39 L12.63 132.39" class="st4"/>
		</g>
		<g id="shape368-67" transform="translate(307.071,118.209) rotate(90)">
			<title>Sheet.368</title>
			<path d="M0 132.39 L13.18 132.39 L0 132.39 Z" class="st3"/>
			<path d="M0 132.39 L13.18 132.39" class="st4"/>
		</g>
		<g id="shape369-70" transform="translate(141.717,-1.00605)">
			<title>Sheet.369</title>
			<path d="M0 132.39 L32.96 132.39 L0 132.39 Z" class="st3"/>
			<path d="M0 132.39 L32.96 132.39" class="st4"/>
		</g>
		<g id="shape370-73" transform="translate(97.2251,-14.1889)">
			<title>Sheet.370</title>
			<path d="M0 132.39 L44.49 132.39 L0 132.39 Z" class="st3"/>
			<path d="M0 132.39 L44.49 132.39" class="st4"/>
		</g>
		<g id="shape372-76" transform="translate(133.324,-100.949)">
			<title>Sheet.372</title>
			<rect x="0" y="102.179" width="16.6318" height="30.2144" class="st5"/>
		</g>
		<g id="shape374-78" transform="translate(149.957,-100.949)">
			<title>Sheet.374</title>
			<rect x="0" y="102.179" width="49.4356" height="30.2144" class="st7"/>
		</g>
		<g id="shape376-80" transform="translate(133.324,-100.949)">
			<title>Sheet.376</title>
			<desc>ADV_IND</desc>
			<rect x="0" y="102.179" width="66.0674" height="30.2144" class="st8"/>
			<text x="7.03" y="120.89" class="st6">ADV_IND</text>		</g>
		<g id="shape379-83" transform="translate(17.5682,58.3122) rotate(-90)">
			<title>Sheet.379</title>
			<path d="M0 132.39 L26.23 132.39 L0 132.39 Z" class="st3"/>
			<path d="M0 132.39 L26.23 132.39" class="st9"/>
		</g>
		<g id="shape382-86" transform="translate(42.2802,117.155) rotate(-90)">
			<title>Sheet.382</title>
			<path d="M0 132.39 L18.72 132.39 L0 132.39 Z" class="st3"/>
			<path d="M0 132.39 L18.72 132.39" class="st9"/>
		</g>
		<g id="shape385-89" transform="translate(9.32721,117.343) rotate(-90)">
			<title>Sheet.385</title>
			<path d="M0 132.39 L85.9 132.39 L0 132.39 Z" class="st3"/>
			<path d="M0 132.39 L85.9 132.39" class="st9"/>
		</g>
		<g id="shape386-92" transform="translate(178.146,-25.3338)">
			<title>Sheet.386</title>
			<path d="M6.68 132.39 L7.04 132.39 L16.64 132.39" class="st10"/>
		</g>
		<g id="shape387-98" transform="translate(120.927,-25.3338)">
			<title>Sheet.387</title>
			<path d="M0 132.39 L9.6 132.39" class="st12"/>
		</g>
		<g id="shape388-104" transform="translate(201.94,-15.2392)">
			<title>Sheet.388</title>
			<desc>tradio</desc>
			<rect x="0" y="112.617" width="159.688" height="19.7767" class="st8"/>
			<text x="-0.01" y="125.74" class="st2">t<tspan dy="-0.287em" class="st13">max_BLE_GRANT_reactivation_delay</tspan></text>		</g>
		<g id="shape389-108" transform="translate(153.252,-86.6944)">
			<title>Sheet.389</title>
			<path d="M6.68 132.39 L7.04 132.39 L16.64 132.39" class="st10"/>
		</g>
		<g id="shape390-113" transform="translate(121.79,-86.6944)">
			<title>Sheet.390</title>
			<path d="M0 132.39 L9.6 132.39" class="st12"/>
		</g>
		<g id="shape391-118" transform="translate(176.321,-78.0871)">
			<title>Sheet.391</title>
			<desc>tradio</desc>
			<rect x="0" y="118.37" width="88.984" height="14.0239" class="st8"/>
			<text x="-0.01" y="128.62" class="st2">t<tspan dy="-0.287em" class="st13">radio_off_delay</tspan></text>		</g>
	</g>
</svg>
