<?xml version="1.0" encoding="UTF-8" standalone="no"?>
<!DOCTYPE svg PUBLIC "-//W3C//DTD SVG 1.1//EN" "http://www.w3.org/Graphics/SVG/1.1/DTD/svg11.dtd">
<!-- Generated by Microsoft Visio, SVG Export Architecture_Without_RTOS.svg WithoutRTOS -->
<svg xmlns="http://www.w3.org/2000/svg" xmlns:xlink="http://www.w3.org/1999/xlink" xmlns:ev="http://www.w3.org/2001/xml-events"
		width="12.4094in" height="7.80906in" viewBox="0 0 893.48 562.252" xml:space="preserve" color-interpolation-filters="sRGB"
		class="st15">
	<style type="text/css">
	<![CDATA[
		.st1 {fill:#4472c4;stroke:none;stroke-linecap:round;stroke-linejoin:round;stroke-width:0.75}
		.st2 {stroke:none;stroke-linecap:round;stroke-linejoin:round;stroke-width:0.75}
		.st3 {fill:#ffffff;font-family:Calibri;font-size:1.51112em}
		.st4 {marker-end:url(#mrkr4-17);marker-start:url(#mrkr4-15);stroke:#000000;stroke-linecap:round;stroke-linejoin:round;stroke-width:2.25}
		.st5 {fill:#000000;fill-opacity:1;stroke:#000000;stroke-opacity:1;stroke-width:0.47169811320755}
		.st6 {fill:#ffffff;stroke:none;stroke-linecap:butt;stroke-width:7.2}
		.st7 {fill:#000000;font-family:Calibri;font-size:1.00001em}
		.st8 {fill:none;stroke:none;stroke-width:0.25}
		.st9 {fill:#ffffff;font-family:Calibri;font-size:1.1963em}
		.st10 {fill:#000000;font-family:Calibri;font-size:1.16666em}
		.st11 {fill:none;stroke:#000000;stroke-dasharray:5.25,5.25;stroke-width:1.75}
		.st12 {fill:#feffff;font-family:Calibri;font-size:1.16666em}
		.st13 {font-size:1em}
		.st14 {fill:#ffffff;font-family:Calibri;font-size:1.16666em}
		.st15 {fill:none;fill-rule:evenodd;font-size:12px;overflow:visible;stroke-linecap:square;stroke-miterlimit:3}
	]]>
	</style>

	<defs id="Markers">
		<g id="lend4">
			<path d="M 2 1 L 0 0 L 2 -1 L 2 1 " style="stroke:none"/>
		</g>
		<marker id="mrkr4-15" class="st5" refX="4.08" orient="auto" markerUnits="strokeWidth" overflow="visible">
			<use xlink:href="#lend4" transform="scale(2.12) "/>
		</marker>
		<marker id="mrkr4-17" class="st5" refX="-4.24" orient="auto" markerUnits="strokeWidth" overflow="visible">
			<use xlink:href="#lend4" transform="scale(-2.12,-2.12) "/>
		</marker>
	</defs>
	<g>
		<title>WithoutRTOS</title>
		<g id="shape28-1" transform="translate(110.698,-413.858)">
			<title>Sheet.28</title>
			<path d="M465.7 431.86 L465.7 472.39 L310.08 472.39 L310.08 562.25 L0 562.25 L0 431.86 L465.7 431.86 Z" class="st1"/>
		</g>
		<g id="shape30-3" transform="translate(17.9682,-172.518)">
			<title>Sheet.30</title>
			<path d="M0 190.52 L0 562.25 L114.28 562.25 L114.28 190.52 L0 190.52 L0 190.52 Z" class="st1"/>
		</g>
		<g id="shape37-5" transform="translate(162.336,-440.444)">
			<title>Sheet.37</title>
			<desc>Application</desc>
			<path d="M96.9 540.49 L0 540.49 L0 562.25 L96.9 562.25 L96.9 540.49" class="st2"/>
			<text x="6.67" y="556.81" class="st3">Application</text>		</g>
		<g id="shape38-9" transform="translate(219.686,-413.833)">
			<title>Dynamic connector</title>
			<path d="M-7.05 571.43 L-7.05 571.79 L-7.12 583.89" class="st4"/>
		</g>
		<g id="shape39-18" transform="translate(494.442,-413.858)">
			<title>Dynamic connector.39</title>
			<desc>HCI</desc>
			<path d="M7.06 571.43 L7.06 571.79 L7.11 583.89" class="st4"/>
			<rect x="12.8128" y="571.154" width="16.8986" height="14.4001" class="st6"/>
			<text x="12.81" y="581.95" class="st7">HCI</text>		</g>
		<g id="shape42-27" transform="translate(290.016,-99.2126)">
			<title>Dynamic connector.42</title>
			<path d="M7.09 571.43 L7.09 571.79 L7.09 586.16" class="st4"/>
		</g>
		<g id="shape43-34" transform="translate(17.9682,-99.2126)">
			<title>Sheet.43</title>
			<path d="M0 521.55 L0 562.25 L558.43 562.25 L558.43 521.55 L0 521.55 L0 521.55 Z" class="st1"/>
		</g>
		<g id="shape44-36" transform="translate(17.9682,-127.559)">
			<title>Sheet.44</title>
			<path d="M0 505.59 L0 562.25 L114.28 562.25 L114.28 505.59 L0 505.59 L0 505.59 Z" class="st1"/>
		</g>
		<g id="shape47-38" transform="translate(679.008,-349.787)">
			<title>Sheet.47</title>
			<rect x="0" y="542.252" width="152" height="20" class="st8"/>
		</g>
		<g id="group49-40" transform="translate(430.982,-413.858)">
			<title>Sheet.49</title>
			<g id="shape10-41">
				<title>Sheet.10</title>
				<path d="M0 482.88 L0 562.25 L144.87 562.25 L144.87 482.88 L0 482.88 L0 482.88 Z" class="st1"/>
			</g>
			<g id="shape12-43" transform="translate(40.448,-34.9826)">
				<title>Sheet.12</title>
				<desc>BLE Host</desc>
				<path d="M60.5 545.02 L0 545.02 L0 562.25 L60.5 562.25 L60.5 545.02" class="st2"/>
				<text x="4.73" y="557.94" class="st9">BLE Host</text>			</g>
		</g>
		<g id="group51-47" transform="translate(634.535,-237.143)">
			<title>Sheet.51</title>
			<g id="shape17-48" transform="translate(65.0026,-28.7187)">
				<title>Sheet.17</title>
				<desc>Radio scheduler</desc>
				<path d="M110.94 545.02 L0 545.02 L0 562.25 L110.94 562.25 L110.94 545.02" class="st2"/>
				<text x="8.86" y="557.94" class="st9">Radio scheduler</text>			</g>
		</g>
		<g id="shape45-52" transform="translate(230.303,-348.661)">
			<title>Sheet.45</title>
			<desc>BLE Controller Library</desc>
			<rect x="0" y="542.409" width="256.742" height="19.8425" class="st8"/>
			<text x="66.69" y="556.53" class="st10">BLE Controller Library</text>		</g>
		<g id="shape48-55" transform="translate(143.148,-170.079)">
			<title>Rectangle</title>
			<path d="M0 562.25 L430.53 562.25 L430.53 349.65 L0 349.65 L0 562.25 Z" class="st11"/>
		</g>
		<g id="group50-57" transform="translate(152.332,-184.252)">
			<title>Sheet.50</title>
		</g>
		<g id="group53-58" transform="translate(298.033,-269.291)">
			<title>Sheet.53</title>
		</g>
		<g id="group55-59" transform="translate(17.804,-18)">
			<title>Sheet.55</title>
			<g id="shape3-60">
				<title>Sheet.3</title>
				<path d="M0 514.49 L0 562.25 L558.43 562.25 L558.43 514.49 L0 514.49 L0 514.49 Z" class="st1"/>
			</g>
			<g id="shape5-62" transform="translate(207.278,-15.9213)">
				<title>Sheet.5</title>
				<desc>Hardware peripherals</desc>
				<path d="M143.88 542.9 L0 542.9 L0 562.25 L143.88 562.25 L143.88 542.9" class="st2"/>
				<text x="8.49" y="556.88" class="st9">Hardware peripherals</text>			</g>
		</g>
		<g id="shape56-66" transform="translate(351.325,-170.079)">
			<title>Dynamic connector.56</title>
			<path d="M7.09 571.43 L7.09 571.79 L7.09 582.87" class="st4"/>
		</g>
		<g id="shape18-73" transform="translate(292.535,-269.291)">
			<title>Sheet.18</title>
			<desc>Multiprotocol API</desc>
			<path d="M0 494.22 L0 562.25 L131.13 562.25 L131.13 494.22 L0 494.22 L0 494.22 Z" class="st1"/>
			<text x="26.24" y="510.82" class="st12">Multiprotocol <tspan x="56.14" dy="1.2em" class="st13">API</tspan></text>		</g>
		<g id="shape23-77" transform="translate(152.332,-184.252)">
			<title>Sheet.23</title>
			<desc>SoC API</desc>
			<path d="M131.13 409.18 L131.13 477.35 L83.23 477.35 L83.23 562.25 L0 562.25 L0 409.18 L131.13 409.18 Z" class="st1"/>
			<text x="43.91" y="425.78" class="st12">SoC API</text>		</g>
		<g id="group66-80" transform="translate(248.155,-184.252)">
			<title>Sheet.66</title>
			<desc>Radio Scheduler</desc>
			<g id="shape15-81">
				<title>Sheet.15</title>
				<path d="M0 487.58 L0 562.25 L223.14 562.25 L223.14 487.58 L0 487.58 L0 487.58 Z" class="st1"/>
			</g>
			<g id="shape66-83">
				<text x="65.64" y="529.12" class="st14">Radio Scheduler</text>			</g>
		</g>
		<g id="shape21-85" transform="translate(429.68,-184.252)">
			<title>Sheet.21</title>
			<desc>BLE Link Layer</desc>
			<path d="M131.13 562.25 L53.31 562.25 L53.31 478.22 L0 478.22 L0 409.18 L131.13 409.18 L131.13 562.25 Z" class="st1"/>
			<text x="4" y="425.78" class="st12">BLE Link Layer</text>		</g>
	</g>
</svg>
