<?xml version="1.0" encoding="UTF-8" standalone="no"?>
<!DOCTYPE svg PUBLIC "-//W3C//DTD SVG 1.1//EN" "http://www.w3.org/Graphics/SVG/1.1/DTD/svg11.dtd">
<!-- Generated by Microsoft Visio, SVG Export Architecture_With_RTOS.svg WithRTOS -->
<svg xmlns="http://www.w3.org/2000/svg" xmlns:xlink="http://www.w3.org/1999/xlink" xmlns:ev="http://www.w3.org/2001/xml-events"
		width="8.21432in" height="8.32087in" viewBox="0 0 591.431 599.102" xml:space="preserve" color-interpolation-filters="sRGB"
		class="st17">
	<style type="text/css">
	<![CDATA[
		.st1 {fill:#4472c4;stroke:none;stroke-linecap:round;stroke-linejoin:round;stroke-width:0.75}
		.st2 {fill:#ffffff;font-family:Calibri;font-size:1.02047em}
		.st3 {fill:#ffffff;font-family:Calibri;font-size:1.00001em}
		.st4 {fill:#ffffff;font-family:Calibri;font-size:0.833336em}
		.st5 {font-size:1em}
		.st6 {fill:#feffff;font-family:Calibri;font-size:0.833336em}
		.st7 {stroke:none;stroke-linecap:round;stroke-linejoin:round;stroke-width:0.75}
		.st8 {fill:#feffff;font-family:Calibri;font-size:1.00001em}
		.st9 {marker-end:url(#mrkr4-35);marker-start:url(#mrkr4-33);stroke:#000000;stroke-linecap:round;stroke-linejoin:round;stroke-width:2.25}
		.st10 {fill:#000000;fill-opacity:1;stroke:#000000;stroke-opacity:1;stroke-width:0.47169811320755}
		.st11 {fill:#ffffff;stroke:none;stroke-linecap:butt}
		.st12 {fill:#000000;font-family:Calibri;font-size:1.00001em}
		.st13 {fill:none;stroke:#000000;stroke-dasharray:6.75,6.75;stroke-width:2.25}
		.st14 {fill:#000000;font-family:Calibri;font-size:1.16666em}
		.st15 {fill:none;stroke:none;stroke-width:0.25}
		.st16 {fill:#000000;font-family:Calibri;font-size:0.833336em}
		.st17 {fill:none;fill-rule:evenodd;font-size:12px;overflow:visible;stroke-linecap:square;stroke-miterlimit:3}
	]]>
	</style>

	<defs id="Markers">
		<g id="lend4">
			<path d="M 2 1 L 0 0 L 2 -1 L 2 1 " style="stroke:none"/>
		</g>
		<marker id="mrkr4-33" class="st10" refX="4.08" orient="auto" markerUnits="strokeWidth" overflow="visible">
			<use xlink:href="#lend4" transform="scale(2.12) "/>
		</marker>
		<marker id="mrkr4-35" class="st10" refX="-4.24" orient="auto" markerUnits="strokeWidth" overflow="visible">
			<use xlink:href="#lend4" transform="scale(-2.12,-2.12) "/>
		</marker>
	</defs>
	<g>
		<title>WithRTOS</title>
		<g id="shape49-1" transform="translate(161.183,-114.85)">
			<title>Sheet.49</title>
			<desc>&#60;RTOS&#62; Drivers</desc>
			<path d="M229.49 305.72 L229.49 369.42 L114.45 369.42 L114.45 599.1 L0 599.1 L0 305.72 L229.49 305.72 Z" class="st1"/>
			<text x="4" y="456.08" class="st2">&#60;RTOS&#62; Drivers</text>		</g>
		<g id="shape9-4" transform="translate(445.004,-438.894)">
			<title>Sheet.9</title>
			<desc>BLE Host</desc>
			<path d="M0 542.47 L0 599.1 L126.69 599.1 L126.69 542.47 L0 542.47 L0 542.47 Z" class="st1"/>
			<text x="42.01" y="574.38" class="st3">BLE Host</text>		</g>
		<g id="shape17-7" transform="translate(380.835,-186.464)">
			<title>Sheet.17</title>
			<desc>Multiprotocol API</desc>
			<path d="M0 554.97 L0 599.1 L86.88 599.1 L86.88 554.97 L0 554.97 L0 554.97 Z" class="st1"/>
			<text x="15.35" y="567.97" class="st4">Multiprotocol <tspan x="36.71" dy="1.2em" class="st5">API</tspan></text>		</g>
		<g id="shape23-11" transform="translate(297.216,-127.559)">
			<title>Sheet.23</title>
			<desc>SoC API</desc>
			<path d="M78.37 496.06 L78.37 540.54 L49.75 540.54 L49.75 599.1 L0 599.1 L0 496.06 L78.37 496.06 Z" class="st1"/>
			<text x="23.72" y="509.06" class="st6">SoC API</text>		</g>
		<g id="shape28-14" transform="translate(18,-439.37)">
			<title>Sheet.28</title>
			<path d="M554.26 457.37 L554.26 518.93 L365.13 518.93 L365.13 599.1 L0 599.1 L0 457.37 L554.26 457.37 Z" class="st1"/>
		</g>
		<g id="shape33-16" transform="translate(176.359,-478.367)">
			<title>Sheet.33</title>
			<desc>Application</desc>
			<path d="M63.38 584.4 L0 584.4 L0 599.1 L63.38 599.1 L63.38 584.4" class="st7"/>
			<text x="3.48" y="595.43" class="st2">Application</text>		</g>
		<g id="shape34-20" transform="translate(44.3932,-114.378)">
			<title>Sheet.34</title>
			<desc>&#60;RTOS&#62; Kernel</desc>
			<path d="M0 305.72 L0 599.1 L110.32 599.1 L110.32 305.72 L0 305.72 L0 305.72 Z" class="st1"/>
			<text x="4" y="456.08" class="st2">&#60;RTOS&#62; Kernel</text>		</g>
		<g id="shape38-23" transform="translate(445.57,-294.378)">
			<title>Sheet.38</title>
			<desc>BLE adaption layer</desc>
			<path d="M0 485.72 L0 599.1 L126.69 599.1 L126.69 485.72 L0 485.72 L0 485.72 Z" class="st1"/>
			<text x="31.52" y="538.81" class="st8">BLE adaption<tspan x="51.3" dy="1.2em" class="st5">layer</tspan></text>		</g>
		<g id="shape59-27" transform="translate(287.621,-67.0677)">
			<title>Dynamic connector.41</title>
			<path d="M7.06 608.28 L7.07 608.64 L7.11 614.11" class="st9"/>
		</g>
		<g id="shape61-36" transform="translate(268.841,-439.37)">
			<title>Dynamic connector.61</title>
			<path d="M7.09 608.28 L7.09 608.64 L7.09 620.7" class="st9"/>
		</g>
		<g id="shape62-43" transform="translate(92.4683,-439.37)">
			<title>Dynamic connector.62</title>
			<path d="M7.09 608.28 L7.09 608.64 L7.09 621.17" class="st9"/>
		</g>
		<g id="shape65-50" transform="translate(429.496,-515.404)">
			<title>Dynamic connector.65</title>
			<path d="M-7.04 608.28 L-7.04 608.64 L-7.13 849.42" class="st9"/>
		</g>
		<g id="shape68-57" transform="translate(503.677,-294.378)">
			<title>Dynamic connector.68</title>
			<path d="M7.07 608.28 L7.07 608.64 L7.11 628.4" class="st9"/>
		</g>
		<g id="shape70-64" transform="translate(519.414,-438.894)">
			<title>Dynamic connector.39</title>
			<desc>HCI</desc>
			<path d="M-7.09 608.28 L-7.09 608.64 L-7.09 620.69" class="st9"/>
			<rect x="-1.22877" y="607.121" width="16.8986" height="14.4001" class="st11"/>
			<text x="-1.23" y="617.92" class="st12">HCI</text>		</g>
		<g id="shape71-73" transform="translate(92.4683,-114.378)">
			<title>Dynamic connector.71</title>
			<path d="M7.09 608.28 L7.09 608.64 L7.09 615.07" class="st9"/>
		</g>
		<g id="shape43-80" transform="translate(281.932,-280.205)">
			<title>Sheet.43</title>
			<desc>Driver adaption layer</desc>
			<path d="M0 557.53 L0 599.1 L110.32 599.1 L110.32 557.53 L0 557.53 L0 557.53 Z" class="st1"/>
			<text x="23.45" y="575.32" class="st6">Driver adaption <tspan x="45.13" dy="1.2em" class="st5">layer</tspan></text>		</g>
		<g id="shape75-84" transform="translate(327.764,-280.205)">
			<title>Dynamic connector.75</title>
			<path d="M7.05 608.28 L7.06 608.64 L7.12 614.22" class="st9"/>
		</g>
		<g id="shape76-91" transform="translate(327.632,-344.535)">
			<title>Dynamic connector.76</title>
			<path d="M7.09 608.28 L7.09 608.64 L7.09 612.32" class="st9"/>
		</g>
		<g id="shape77-98" transform="translate(501.827,-518.857)">
			<title>Dynamic connector.77</title>
			<path d="M7.09 608.28 L7.09 608.64 L7.09 612.89" class="st9"/>
		</g>
		<g id="shape78-105" transform="translate(18,-67.0677)">
			<title>Sheet.78</title>
			<path d="M0 577.3 L0 599.1 L384.52 599.1 L384.52 577.3 L0 577.3 L0 577.3 Z" class="st1"/>
		</g>
		<g id="shape79-107" transform="translate(213.776,-114.85)">
			<title>Dynamic connector.79</title>
			<path d="M7.02 608.28 L7.02 608.64 L7.15 615.55" class="st9"/>
		</g>
		<g id="shape81-114" transform="translate(18,-81.7795)">
			<title>Sheet.81</title>
			<path d="M0 237.69 L0 599.1 L14.93 599.1 L14.93 237.69 L0 237.69 L0 237.69 Z" class="st1"/>
		</g>
		<g id="group82-116" transform="translate(474.803,-127.559)">
			<title>Sheet.82</title>
			<desc>BLE Link Layer</desc>
			<g id="shape21-117">
				<title>Sheet.21</title>
				<path d="M86.88 599.1 L35.32 599.1 L35.32 541.42 L0 541.42 L0 496.06 L86.88 496.06 L86.88 599.1 Z" class="st1"/>
			</g>
			<g id="shape82-119">
				<text x="4" y="509.06" class="st4">BLE Link Layer</text>			</g>
		</g>
		<g id="group83-121" transform="translate(357.944,-126.734)">
			<title>Sheet.83</title>
			<g id="shape14-122">
				<title>Sheet.14</title>
				<path d="M0 551.99 L0 599.1 L126.69 599.1 L126.69 551.99 L0 551.99 L0 551.99 Z" class="st1"/>
			</g>
			<g id="shape16-124" transform="translate(26.6928,-17.4438)">
				<title>Sheet.16</title>
				<desc>Radio scheduler</desc>
				<path d="M73.3 586.87 L0 586.87 L0 599.1 L73.3 599.1 L73.3 586.87" class="st7"/>
				<text x="4.18" y="595.99" class="st4">Radio scheduler</text>			</g>
		</g>
		<g id="shape97-128" transform="translate(281.932,-116.22)">
			<title>Rectangle</title>
			<desc>BLE Controller Libray</desc>
			<path d="M0 599.1 L289.25 599.1 L289.25 459.78 L0 459.78 L0 599.1 Z" class="st13"/>
			<text x="85.39" y="476.38" class="st14">BLE Controller Libray</text>		</g>
		<g id="group98-131" transform="translate(18,-21.8268)">
			<title>Sheet.98</title>
			<g id="shape3-132" transform="translate(6.39488E-14,3.82677)">
				<title>Sheet.3</title>
				<path d="M0 574.58 L0 599.1 L554.26 599.1 L554.26 574.58 L0 574.58 L0 574.58 Z" class="st1"/>
			</g>
			<g id="shape5-134" transform="translate(221.594,-2.99728)">
				<title>Sheet.5</title>
				<desc>Hardware peripherals</desc>
				<path d="M118.88 584.4 L0 584.4 L0 599.1 L118.88 599.1 L118.88 584.4" class="st7"/>
				<text x="5.31" y="595.43" class="st2">Hardware peripherals</text>			</g>
		</g>
		<g id="shape100-138" transform="translate(463.181,-116.22)">
			<title>Dynamic connector.100</title>
			<path d="M6.87 608.28 L6.88 608.64 L7.3 663.26" class="st9"/>
		</g>
		<g id="shape99-145" transform="translate(368.646,-113.386)">
			<title>Dynamic connector.99</title>
			<path d="M-7.05 608.28 L-7.06 608.64 L-7.12 614.08" class="st9"/>
		</g>
		<g id="shape101-152" transform="translate(268.157,-94.5354)">
			<title>Sheet.101</title>
			<desc>IRQ Forwarding</desc>
			<rect x="0" y="584.343" width="72.2835" height="14.7594" class="st15"/>
			<text x="4.53" y="594.72" class="st16">IRQ Forwarding</text>		</g>
	</g>
</svg>
