<?xml version="1.0" encoding="UTF-8" standalone="no"?>
<!DOCTYPE svg PUBLIC "-//W3C//DTD SVG 1.1//EN" "http://www.w3.org/Graphics/SVG/1.1/DTD/svg11.dtd">
<!-- Generated by Microsoft Visio, SVG Export Architecture_Without_RTOS.svg WithoutRTOS -->
<svg xmlns="http://www.w3.org/2000/svg" xmlns:xlink="http://www.w3.org/1999/xlink" xmlns:ev="http://www.w3.org/2001/xml-events"
		width="8.04314in" height="6.14477in" viewBox="0 0 579.106 442.423" xml:space="preserve" color-interpolation-filters="sRGB"
		class="st16">
	<style type="text/css">
	<![CDATA[
		.st1 {fill:#4472c4;stroke:none;stroke-linecap:round;stroke-linejoin:round;stroke-width:0.75}
		.st2 {stroke:none;stroke-linecap:round;stroke-linejoin:round;stroke-width:0.75}
		.st3 {fill:#ffffff;font-family:Calibri;font-size:1.51112em}
		.st4 {marker-end:url(#mrkr4-17);marker-start:url(#mrkr4-15);stroke:#000000;stroke-linecap:round;stroke-linejoin:round;stroke-width:2.25}
		.st5 {fill:#000000;fill-opacity:1;stroke:#000000;stroke-opacity:1;stroke-width:0.47169811320755}
		.st6 {fill:#ffffff;stroke:none;stroke-linecap:butt;stroke-width:7.2}
		.st7 {fill:#000000;font-family:Calibri;font-size:1.00001em}
		.st8 {fill:#ffffff;font-family:Calibri;font-size:1.1963em}
		.st9 {fill:none;stroke:none;stroke-width:0.25}
		.st10 {fill:#000000;font-family:Calibri;font-size:1.16666em}
		.st11 {fill:none;stroke:#000000;stroke-dasharray:5.25,5.25;stroke-width:1.75}
		.st12 {fill:#feffff;font-family:Calibri;font-size:1.16666em}
		.st13 {font-size:1em}
		.st14 {fill:#ffffff;font-family:Calibri;font-size:1.16666em}
		.st15 {fill:#000000;font-family:Calibri;font-size:0.833336em}
		.st16 {fill:none;fill-rule:evenodd;font-size:12px;overflow:visible;stroke-linecap:square;stroke-miterlimit:3}
	]]>
	</style>

	<defs id="Markers">
		<g id="lend4">
			<path d="M 2 1 L 0 0 L 2 -1 L 2 1 " style="stroke:none"/>
		</g>
		<marker id="mrkr4-15" class="st5" refX="4.08" orient="auto" markerUnits="strokeWidth" overflow="visible">
			<use xlink:href="#lend4" transform="scale(2.12) "/>
		</marker>
		<marker id="mrkr4-17" class="st5" refX="-4.24" orient="auto" markerUnits="strokeWidth" overflow="visible">
			<use xlink:href="#lend4" transform="scale(-2.12,-2.12) "/>
		</marker>
	</defs>
	<g>
		<title>WithoutRTOS</title>
		<g id="shape28-1" transform="translate(108.318,-325.202)">
			<title>Sheet.28</title>
			<path d="M452.79 343.2 L452.79 374.04 L301.48 374.04 L301.48 442.42 L0 442.42 L0 343.2 L452.79 343.2 Z" class="st1"/>
		</g>
		<g id="shape30-3" transform="translate(18.1596,-141.559)">
			<title>Sheet.30</title>
			<path d="M0 159.56 L0 442.42 L111.11 442.42 L111.11 159.56 L0 159.56 L0 159.56 Z" class="st1"/>
		</g>
		<g id="shape37-5" transform="translate(158.524,-345.433)">
			<title>Sheet.37</title>
			<desc>Application</desc>
			<path d="M127.5 425.86 L0 425.86 L0 442.42 L127.5 442.42 L127.5 425.86" class="st2"/>
			<text x="21.97" y="439.58" class="st3">Application</text>		</g>
		<g id="shape38-9" transform="translate(342.076,-325.202)">
			<title>Dynamic connector</title>
			<path d="M7.09 451.6 L7.09 451.96 L7.09 456.61" class="st4"/>
		</g>
		<g id="shape39-18" transform="translate(490.874,-325.202)">
			<title>Dynamic connector.39</title>
			<desc>HCI</desc>
			<path d="M-7.07 451.6 L-7.07 451.96 L-7.1 456.11" class="st4"/>
			<rect x="-1.36544" y="447.344" width="16.8986" height="14.4001" class="st6"/>
			<text x="-1.37" y="458.14" class="st7">HCI</text>		</g>
		<g id="shape42-27" transform="translate(146.73,-79.7974)">
			<title>Dynamic connector.42</title>
			<path d="M7.09 451.6 L7.09 451.96 L7.09 458.34" class="st4"/>
		</g>
		<g id="shape43-34" transform="translate(18.1596,-79.7974)">
			<title>Sheet.43</title>
			<path d="M0 411.45 L0 442.42 L271.31 442.42 L271.31 411.45 L0 411.45 L0 411.45 Z" class="st1"/>
		</g>
		<g id="shape44-36" transform="translate(18.1596,-107.348)">
			<title>Sheet.44</title>
			<path d="M0 399.3 L0 442.42 L111.11 442.42 L111.11 399.3 L0 399.3 L0 399.3 Z" class="st1"/>
		</g>
		<g id="shape10-38" transform="translate(419.72,-325.202)">
			<title>Sheet.10</title>
			<path d="M0 382.03 L0 442.42 L140.86 442.42 L140.86 382.03 L0 382.03 L0 382.03 Z" class="st1"/>
		</g>
		<g id="shape12-40" transform="translate(459.046,-351.822)">
			<title>Sheet.12</title>
			<desc>BLE Host</desc>
			<path d="M58.82 429.31 L0 429.31 L0 442.42 L58.82 442.42 L58.82 429.31" class="st2"/>
			<text x="3.89" y="440.17" class="st8">BLE Host</text>		</g>
		<g id="shape45-44" transform="translate(224.607,-275.592)">
			<title>Sheet.45</title>
			<desc>BLE Controller Library</desc>
			<rect x="0" y="427.325" width="249.622" height="15.0988" class="st9"/>
			<text x="63.13" y="439.07" class="st10">BLE Controller Library</text>		</g>
		<g id="shape48-47" transform="translate(139.868,-139.703)">
			<title>Rectangle</title>
			<path d="M0 442.42 L418.59 442.42 L418.59 280.65 L0 280.65 L0 442.42 Z" class="st11"/>
		</g>
		<g id="group50-49" transform="translate(148.798,-150.487)">
			<title>Sheet.50</title>
		</g>
		<g id="group53-50" transform="translate(290.458,-215.197)">
			<title>Sheet.53</title>
		</g>
		<g id="group55-51" transform="translate(18,-18)">
			<title>Sheet.55</title>
			<g id="shape3-52">
				<title>Sheet.3</title>
				<path d="M0 406.08 L0 442.42 L542.95 442.42 L542.95 406.08 L0 406.08 L0 406.08 Z" class="st1"/>
			</g>
			<g id="shape5-54" transform="translate(201.53,-12.115)">
				<title>Sheet.5</title>
				<desc>Hardware peripherals</desc>
				<path d="M139.89 427.7 L0 427.7 L0 442.42 L139.89 442.42 L139.89 427.7" class="st2"/>
				<text x="6.49" y="439.37" class="st8">Hardware peripherals</text>			</g>
		</g>
		<g id="shape18-58" transform="translate(285.113,-215.197)">
			<title>Sheet.18</title>
			<desc>Multiprotocol API</desc>
			<path d="M0 390.66 L0 442.42 L127.5 442.42 L127.5 390.66 L0 390.66 L0 390.66 Z" class="st1"/>
			<text x="24.42" y="407.26" class="st12">Multiprotocol <tspan x="54.32" dy="1.2em" class="st13">API</tspan></text>		</g>
		<g id="shape23-62" transform="translate(148.798,-150.487)">
			<title>Sheet.23</title>
			<desc>SoC API</desc>
			<path d="M127.5 325.95 L127.5 377.82 L80.93 377.82 L80.93 442.42 L0 442.42 L0 325.95 L127.5 325.95 Z" class="st1"/>
			<text x="42.1" y="342.55" class="st12">SoC API</text>		</g>
		<g id="group66-65" transform="translate(241.963,-150.487)">
			<title>Sheet.66</title>
			<desc>Radio Scheduler</desc>
			<g id="shape15-66">
				<title>Sheet.15</title>
				<path d="M0 385.61 L0 442.42 L216.95 442.42 L216.95 385.61 L0 385.61 L0 385.61 Z" class="st1"/>
			</g>
			<g id="shape66-68">
				<text x="62.54" y="418.22" class="st14">Radio Scheduler</text>			</g>
		</g>
		<g id="shape21-70" transform="translate(418.455,-150.487)">
			<title>Sheet.21</title>
			<desc>BLE Link Layer</desc>
			<path d="M127.5 442.42 L51.84 442.42 L51.84 378.48 L0 378.48 L0 325.95 L127.5 325.95 L127.5 442.42 Z" class="st1"/>
			<text x="4" y="342.55" class="st12">BLE Link Layer</text>		</g>
		<g id="shape69-73" transform="translate(342.076,-139.703)">
			<title>Dynamic connector.69</title>
			<path d="M7.09 451.6 L7.09 451.96 L7.09 518.24" class="st4"/>
		</g>
		<g id="group73-80" transform="translate(170.079,-110.77)">
			<title>Sheet.73</title>
			<g id="shape56-81" transform="translate(99.5212,-28.9327)">
				<title>Dynamic connector.56</title>
				<path d="M-7.09 451.6 L-7.09 451.96 L-7.09 461.82" class="st4"/>
			</g>
			<g id="shape70-88" transform="translate(-2.69291,-8.28525)">
				<title>Sheet.70</title>
				<desc>IRQ Forwarding</desc>
				<rect x="0" y="427.664" width="76.252" height="14.7594" class="st9"/>
				<text x="6.51" y="438.04" class="st15">IRQ Forwarding</text>			</g>
		</g>
	</g>
</svg>
