<?xml version="1.0" encoding="UTF-8" standalone="no"?>
<!DOCTYPE svg PUBLIC "-//W3C//DTD SVG 1.1//EN" "http://www.w3.org/Graphics/SVG/1.1/DTD/svg11.dtd">
<!-- Generated by Microsoft Visio, SVG Export Architecture_With_RTOS.svg WithRTOS -->
<svg xmlns="http://www.w3.org/2000/svg" xmlns:xlink="http://www.w3.org/1999/xlink" xmlns:ev="http://www.w3.org/2001/xml-events"
		width="11.6929in" height="8.26772in" viewBox="0 0 841.89 595.276" xml:space="preserve" color-interpolation-filters="sRGB"
		class="st15">
	<style type="text/css">
	<![CDATA[
		.st1 {fill:#4472c4;stroke:none;stroke-linecap:round;stroke-linejoin:round;stroke-width:0.75}
		.st2 {fill:#ffffff;font-family:Calibri;font-size:1.02047em}
		.st3 {stroke:none;stroke-linecap:round;stroke-linejoin:round;stroke-width:0.75}
		.st4 {fill:#ffffff;font-family:Calibri;font-size:1.00001em}
		.st5 {fill:#ffffff;font-family:Calibri;font-size:0.833336em}
		.st6 {font-size:1em}
		.st7 {fill:#feffff;font-family:Calibri;font-size:0.833336em}
		.st8 {fill:#feffff;font-family:Calibri;font-size:1.00001em}
		.st9 {marker-end:url(#mrkr4-41);marker-start:url(#mrkr4-39);stroke:#000000;stroke-linecap:round;stroke-linejoin:round;stroke-width:2.25}
		.st10 {fill:#000000;fill-opacity:1;stroke:#000000;stroke-opacity:1;stroke-width:0.47169811320755}
		.st11 {fill:#ffffff;stroke:none;stroke-linecap:butt;stroke-width:7.2}
		.st12 {fill:#000000;font-family:Calibri;font-size:1.00001em}
		.st13 {fill:none;stroke:#000000;stroke-dasharray:6.75,6.75;stroke-width:2.25}
		.st14 {fill:#000000;font-family:Calibri;font-size:1.16666em}
		.st15 {fill:none;fill-rule:evenodd;font-size:12px;overflow:visible;stroke-linecap:square;stroke-miterlimit:3}
	]]>
	</style>

	<defs id="Markers">
		<g id="lend4">
			<path d="M 2 1 L 0 0 L 2 -1 L 2 1 " style="stroke:none"/>
		</g>
		<marker id="mrkr4-39" class="st10" refX="4.08" orient="auto" markerUnits="strokeWidth" overflow="visible">
			<use xlink:href="#lend4" transform="scale(2.12) "/>
		</marker>
		<marker id="mrkr4-41" class="st10" refX="-4.24" orient="auto" markerUnits="strokeWidth" overflow="visible">
			<use xlink:href="#lend4" transform="scale(-2.12,-2.12) "/>
		</marker>
	</defs>
	<g>
		<title>WithRTOS</title>
		<g id="shape49-1" transform="translate(171.53,-111.024)">
			<title>Sheet.49</title>
			<desc>&#60;RTOS&#62; Drivers</desc>
			<path d="M229.49 301.89 L229.49 365.59 L114.45 365.59 L114.45 595.28 L0 595.28 L0 301.89 L229.49 301.89 Z" class="st1"/>
			<text x="4" y="452.26" class="st2">&#60;RTOS&#62; Drivers</text>		</g>
		<g id="shape3-4" transform="translate(28.3465,-18)">
			<title>Sheet.3</title>
			<path d="M0 570.76 L0 595.28 L554.26 595.28 L554.26 570.76 L0 570.76 L0 570.76 Z" class="st1"/>
		</g>
		<g id="shape5-6" transform="translate(249.94,-22.6772)">
			<title>Sheet.5</title>
			<desc>Hardware peripherals</desc>
			<path d="M118.88 580.58 L0 580.58 L0 595.28 L118.88 595.28 L118.88 580.58" class="st3"/>
			<text x="5.31" y="591.6" class="st2">Hardware peripherals</text>		</g>
		<g id="shape9-10" transform="translate(455.351,-435.067)">
			<title>Sheet.9</title>
			<desc>BLE Host</desc>
			<path d="M0 538.64 L0 595.28 L126.69 595.28 L126.69 538.64 L0 538.64 L0 538.64 Z" class="st1"/>
			<text x="42.01" y="570.56" class="st4">BLE Host</text>		</g>
		<g id="shape17-13" transform="translate(391.181,-177.165)">
			<title>Sheet.17</title>
			<desc>Multiprotocol API</desc>
			<path d="M0 545.67 L0 595.28 L97.65 595.28 L97.65 545.67 L0 545.67 L0 545.67 Z" class="st1"/>
			<text x="20.74" y="558.67" class="st5">Multiprotocol <tspan x="42.09" dy="1.2em" class="st6">API</tspan></text>		</g>
		<g id="shape23-17" transform="translate(297,-113.386)">
			<title>Sheet.23</title>
			<desc>SoC API</desc>
			<path d="M86.24 481.89 L86.24 530.84 L54.74 530.84 L54.74 595.28 L0 595.28 L0 481.89 L86.24 481.89 Z" class="st1"/>
			<text x="27.66" y="494.89" class="st7">SoC API</text>		</g>
		<g id="shape28-20" transform="translate(28.3465,-435.543)">
			<title>Sheet.28</title>
			<path d="M554.26 453.54 L554.26 515.1 L365.13 515.1 L365.13 595.28 L0 595.28 L0 453.54 L554.26 453.54 Z" class="st1"/>
		</g>
		<g id="shape33-22" transform="translate(186.706,-474.541)">
			<title>Sheet.33</title>
			<desc>Application</desc>
			<path d="M63.38 580.58 L0 580.58 L0 595.28 L63.38 595.28 L63.38 580.58" class="st3"/>
			<text x="3.48" y="591.6" class="st2">Application</text>		</g>
		<g id="shape34-26" transform="translate(54.7396,-110.551)">
			<title>Sheet.34</title>
			<desc>&#60;RTOS&#62; Kernel</desc>
			<path d="M0 301.89 L0 595.28 L110.32 595.28 L110.32 301.89 L0 301.89 L0 301.89 Z" class="st1"/>
			<text x="4" y="452.26" class="st2">&#60;RTOS&#62; Kernel</text>		</g>
		<g id="shape38-29" transform="translate(455.916,-290.551)">
			<title>Sheet.38</title>
			<desc>BLE adaption layer</desc>
			<path d="M0 481.89 L0 595.28 L126.69 595.28 L126.69 481.89 L0 481.89 L0 481.89 Z" class="st1"/>
			<text x="31.52" y="534.98" class="st8">BLE adaption<tspan x="51.3" dy="1.2em" class="st6">layer</tspan></text>		</g>
		<g id="shape59-33" transform="translate(298.13,-63.2409)">
			<title>Dynamic connector.41</title>
			<path d="M7.06 604.45 L7.07 604.81 L7.11 606.46" class="st9"/>
		</g>
		<g id="shape61-42" transform="translate(279.187,-435.543)">
			<title>Dynamic connector.61</title>
			<path d="M7.09 604.46 L7.09 604.82 L7.09 616.87" class="st9"/>
		</g>
		<g id="shape62-49" transform="translate(102.815,-435.543)">
			<title>Dynamic connector.62</title>
			<path d="M7.09 604.46 L7.09 604.82 L7.09 617.34" class="st9"/>
		</g>
		<g id="shape65-56" transform="translate(426.055,-511.577)">
			<title>Dynamic connector.65</title>
			<path d="M6.77 604.46 L6.77 604.82 L7.4 845.6" class="st9"/>
		</g>
		<g id="shape68-63" transform="translate(514.134,-290.551)">
			<title>Dynamic connector.68</title>
			<path d="M7.01 604.46 L7.01 604.82 L7.16 624.57" class="st9"/>
		</g>
		<g id="shape70-70" transform="translate(529.76,-435.067)">
			<title>Dynamic connector.39</title>
			<desc>HCI</desc>
			<path d="M-7.09 604.46 L-7.09 604.82 L-7.09 616.87" class="st9"/>
			<rect x="-1.22877" y="603.294" width="16.8986" height="14.4001" class="st11"/>
			<text x="-1.23" y="614.09" class="st12">HCI</text>		</g>
		<g id="shape71-79" transform="translate(102.815,-110.551)">
			<title>Dynamic connector.71</title>
			<path d="M7.09 604.46 L7.09 604.82 L7.09 611.25" class="st9"/>
		</g>
		<g id="shape43-86" transform="translate(292.278,-276.378)">
			<title>Sheet.43</title>
			<desc>Driver adaption layer</desc>
			<path d="M0 553.71 L0 595.28 L110.32 595.28 L110.32 553.71 L0 553.71 L0 553.71 Z" class="st1"/>
			<text x="23.45" y="571.49" class="st7">Driver adaption <tspan x="45.13" dy="1.2em" class="st6">layer</tspan></text>		</g>
		<g id="shape75-90" transform="translate(338.11,-276.378)">
			<title>Dynamic connector.75</title>
			<path d="M7.05 604.46 L7.06 604.82 L7.12 610.4" class="st9"/>
		</g>
		<g id="shape76-97" transform="translate(337.978,-340.708)">
			<title>Dynamic connector.76</title>
			<path d="M7.09 604.46 L7.09 604.82 L7.09 608.5" class="st9"/>
		</g>
		<g id="shape77-104" transform="translate(512.173,-515.03)">
			<title>Dynamic connector.77</title>
			<path d="M7.09 604.46 L7.09 604.82 L7.09 609.06" class="st9"/>
		</g>
		<g id="shape78-111" transform="translate(28.3465,-63.2409)">
			<title>Sheet.78</title>
			<path d="M0 573.48 L0 595.28 L554.26 595.28 L554.26 573.48 L0 573.48 L0 573.48 Z" class="st1"/>
		</g>
		<g id="shape79-113" transform="translate(238.056,-111.024)">
			<title>Dynamic connector.79</title>
			<path d="M-7.09 604.46 L-7.09 604.82 L-7.09 611.72" class="st9"/>
		</g>
		<g id="shape81-120" transform="translate(28.3465,-77.9528)">
			<title>Sheet.81</title>
			<path d="M0 233.86 L0 595.28 L14.93 595.28 L14.93 233.86 L0 233.86 L0 233.86 Z" class="st1"/>
		</g>
		<g id="group82-122" transform="translate(496.096,-113.386)">
			<title>Sheet.82</title>
			<desc>BLE Link Layer</desc>
			<g id="shape21-123">
				<title>Sheet.21</title>
				<path d="M86.24 595.28 L35.06 595.28 L35.06 531.8 L0 531.8 L0 481.89 L86.24 481.89 L86.24 595.28 Z" class="st1"/>
			</g>
			<g id="shape82-125">
				<text x="4" y="494.89" class="st5">BLE Link Layer</text>			</g>
		</g>
		<g id="group83-127" transform="translate(368.291,-113.386)">
			<title>Sheet.83</title>
			<g id="shape14-128">
				<title>Sheet.14</title>
				<path d="M0 538.64 L0 595.28 L152.29 595.28 L152.29 538.64 L0 538.64 L0 538.64 Z" class="st1"/>
			</g>
			<g id="shape16-130" transform="translate(32.087,-20.9689)">
				<title>Sheet.16</title>
				<desc>Radio scheduler</desc>
				<path d="M88.11 580.58 L0 580.58 L0 595.28 L88.11 595.28 L88.11 580.58" class="st3"/>
				<text x="11.59" y="590.93" class="st5">Radio scheduler</text>			</g>
		</g>
		<g id="shape97-134" transform="translate(292.278,-103.642)">
			<title>Rectangle</title>
			<desc>BLE Controller Libray</desc>
			<path d="M0 595.28 L299.6 595.28 L299.6 447.2 L0 447.2 L0 595.28 Z" class="st13"/>
			<text x="90.56" y="463.8" class="st14">BLE Controller Libray</text>		</g>
	</g>
</svg>
