<?xml version="1.0" encoding="UTF-8" standalone="no"?>
<!DOCTYPE svg PUBLIC "-//W3C//DTD SVG 1.1//EN" "http://www.w3.org/Graphics/SVG/1.1/DTD/svg11.dtd">
<!-- Generated by Microsoft Visio, SVG Export delta_dfu_update.svg Page-1 -->
<svg xmlns="http://www.w3.org/2000/svg" xmlns:xlink="http://www.w3.org/1999/xlink" xmlns:ev="http://www.w3.org/2001/xml-events"
		width="7.89301in" height="2.75655in" viewBox="0 0 568.297 198.471" xml:space="preserve" color-interpolation-filters="sRGB"
		class="st9">
	<style type="text/css">
	<![CDATA[
		.st1 {fill:#00a9ce;stroke:none;stroke-width:1}
		.st2 {fill:#feffff;font-family:Arial;font-size:0.666664em}
		.st3 {fill:#ffffff;font-family:Arial;font-size:0.666664em}
		.st4 {font-size:1em}
		.st5 {marker-end:url(#mrkr4-16);stroke:#00a9ce;stroke-linecap:butt;stroke-width:1}
		.st6 {fill:#00a9ce;fill-opacity:1;stroke:#00a9ce;stroke-opacity:1;stroke-width:0.28409090909091}
		.st7 {fill:none;stroke:none;stroke-width:1}
		.st8 {fill:#00a9ce;font-family:Arial;font-size:0.666664em}
		.st9 {fill:none;fill-rule:evenodd;font-size:12px;overflow:visible;stroke-linecap:square;stroke-miterlimit:3}
	]]>
	</style>

	<defs id="Markers">
		<g id="lend4">
			<path d="M 2 1 L 0 0 L 2 -1 L 2 1 " style="stroke:none"/>
		</g>
		<marker id="mrkr4-16" class="st6" refX="-7.04" orient="auto" markerUnits="strokeWidth" overflow="visible">
			<use xlink:href="#lend4" transform="scale(-3.52,-3.52) "/>
		</marker>
	</defs>
	<g>
		<title>Page-1</title>
		<g id="shape5-1" transform="translate(1,-88.252)">
			<title>Process.1</title>
			<desc>nrf_modem_delta_dfu_rollback()</desc>
			<rect x="0" y="178.535" width="124.724" height="19.9368" class="st1"/>
			<text x="4.78" y="190.9" class="st2">nrf_modem_delta_dfu_rollback()</text>		</g>
		<g id="shape6-4" transform="translate(149.379,-80.8714)">
			<title>Decision.2</title>
			<desc>Success</desc>
			<path d="M0 181.12 L28.46 163.77 L56.92 181.12 L28.46 198.47 L0 181.12 Z" class="st1"/>
			<text x="13.34" y="183.52" class="st3">Success</text>		</g>
		<g id="shape7-7" transform="translate(124.868,-167.945)">
			<title>Start/End.41</title>
			<desc>Rollback failed Modem operates as normal</desc>
			<path d="M14.76 198.47 L91.17 198.47 A14.7632 14.7632 -180 0 0 91.17 168.95 L14.76 168.95 A14.7632 14.7632 -180 1 0 14.76
						 198.47 Z" class="st1"/>
			<text x="26.95" y="181.31" class="st3">Rollback failed <tspan x="4.28" dy="1.2em" class="st4">Modem operates as normal</tspan></text>		</g>
		<g id="shape8-11" transform="translate(170.75,-115.569)">
			<title>Dynamic connector.7</title>
			<path d="M7.09 198.47 L7.09 153.14" class="st5"/>
		</g>
		<g id="shape9-17" transform="translate(125.724,-91.1337)">
			<title>Dynamic connector.8</title>
			<path d="M0 191.38 L16.61 191.38" class="st5"/>
		</g>
		<g id="shape10-22" transform="translate(131.165,-12.972)">
			<title>Process.9</title>
			<desc>nrf_modem_shutdown()</desc>
			<rect x="0" y="178.535" width="93.342" height="19.9368" class="st1"/>
			<text x="4.43" y="190.9" class="st2">nrf_modem_shutdown()</text>		</g>
		<g id="shape11-25" transform="translate(222.442,-15.8538)">
			<title>Dynamic connector.12</title>
			<path d="M2.07 191.38 L5.07 191.38" class="st5"/>
		</g>
		<g id="shape12-30" transform="translate(234.55,-12.972)">
			<title>Process.11</title>
			<desc>nrf_modem_init()</desc>
			<rect x="0" y="178.535" width="80.7479" height="19.9368" class="st1"/>
			<text x="10.14" y="190.9" class="st2">nrf_modem_init()</text>		</g>
		<g id="shape13-33" transform="translate(324.53,-1)">
			<title>Decision.13</title>
			<desc>NRF_MODEM_DFU_RESULT_OK?</desc>
			<path d="M0 176.53 L80.28 154.59 L160.56 176.53 L80.28 198.47 L0 176.53 Z" class="st1"/>
			<text x="15.82" y="178.93" class="st3">NRF_MODEM_DFU_RESULT_OK?</text>		</g>
		<g id="shape14-36" transform="translate(397.724,-44.8808)">
			<title>Dynamic connector.16</title>
			<path d="M7.09 198.47 L7.09 169.52" class="st5"/>
		</g>
		<g id="shape15-41" transform="translate(358.481,-80.8714)">
			<title>Process.15</title>
			<desc>nrf_modem_shutdown()</desc>
			<rect x="0" y="178.535" width="92.6602" height="19.9368" class="st1"/>
			<text x="4.09" y="190.9" class="st2">nrf_modem_shutdown()</text>		</g>
		<g id="shape16-44" transform="translate(16.6912,-167.53)">
			<title>Start/End.21</title>
			<desc>Modem firmware delta rollback process</desc>
			<path d="M14.76 198.47 L78.58 198.47 A14.7632 14.7632 -180 0 0 78.58 168.95 L14.76 168.95 A14.7632 14.7632 -180 1 0 14.76
						 198.47 Z" class="st1"/>
			<text x="7.1" y="181.31" class="st3">Modem firmware delta <tspan x="17.77" dy="1.2em" class="st4">rollback process</tspan></text>		</g>
		<g id="shape17-48" transform="translate(461.361,-160.429)">
			<title>Start/End.27</title>
			<desc>Rollback successful Modem runs previous firmware</desc>
			<path d="M18.52 198.47 L87.41 198.47 A18.5213 18.5213 -180 0 0 87.41 161.43 L18.52 161.43 A18.5213 18.5213 -180 1 0 18.52
						 198.47 Z" class="st1"/>
			<text x="17.84" y="172.75" class="st3">Rollback successful <tspan x="14.51" dy="1.2em" class="st4">Modem runs previous </tspan><tspan
						x="37.63" dy="1.2em" class="st4">firmware</tspan></text>		</g>
		<g id="shape18-53" transform="translate(351.843,-159.903)">
			<title>Start/End.29</title>
			<desc>Rollback failed Modem runs unmodified firmware</desc>
			<path d="M18.52 198.47 L87.41 198.47 A18.5213 18.5213 -180 0 0 87.41 161.43 L18.52 161.43 A18.5213 18.5213 -180 1 0 18.52
						 198.47 Z" class="st1"/>
			<text x="26.95" y="172.75" class="st3">Rollback failed <tspan x="10.06" dy="1.2em" class="st4">Modem runs unmodified </tspan><tspan
						x="37.63" dy="1.2em" class="st4">firmware</tspan></text>		</g>
		<g id="shape19-58" transform="translate(358.481,-112.656)">
			<title>Process.33</title>
			<desc>nrf_modem_init()</desc>
			<rect x="0" y="178.535" width="92.6602" height="19.9368" class="st1"/>
			<text x="16.1" y="190.9" class="st2">nrf_modem_init()</text>		</g>
		<g id="shape20-61" transform="translate(467.999,-80.8714)">
			<title>Process.35</title>
			<desc>nrf_modem_shutdown()</desc>
			<rect x="0" y="178.535" width="92.6602" height="19.9368" class="st1"/>
			<text x="4.09" y="190.9" class="st2">nrf_modem_shutdown()</text>		</g>
		<g id="shape21-64" transform="translate(467.999,-112.656)">
			<title>Process.36</title>
			<desc>nrf_modem_init()</desc>
			<rect x="0" y="178.535" width="92.6602" height="19.9368" class="st1"/>
			<text x="16.1" y="190.9" class="st2">nrf_modem_init()</text>		</g>
		<g id="shape22-67" transform="translate(485.092,-22.9404)">
			<title>Dynamic connector.49</title>
			<path d="M0 198.47 L29.24 198.47 L29.24 147.58" class="st5"/>
		</g>
		<g id="shape23-72" transform="translate(507.242,-99.6454)">
			<title>Dynamic connector.50</title>
			<path d="M7.09 197.31 L7.09 192.5" class="st5"/>
		</g>
		<g id="shape24-77" transform="translate(507.242,-132.593)">
			<title>Dynamic connector.51</title>
			<path d="M7.09 198.47 L7.09 177.68" class="st5"/>
		</g>
		<g id="shape25-82" transform="translate(397.724,-99.6454)">
			<title>Dynamic connector.52</title>
			<path d="M7.09 197.31 L7.09 192.5" class="st5"/>
		</g>
		<g id="shape26-87" transform="translate(397.724,-132.593)">
			<title>Dynamic connector.53</title>
			<path d="M7.09 198.47 L7.09 178.2" class="st5"/>
		</g>
		<g id="shape27-92" transform="translate(312.827,-15.8538)">
			<title>Dynamic connector.54</title>
			<path d="M2.47 191.38 L4.66 191.38" class="st5"/>
		</g>
		<g id="shape28-97" transform="translate(56.2756,-167.53)">
			<title>Dynamic connector</title>
			<path d="M7.09 198.47 L7.09 250.77" class="st5"/>
		</g>
		<g id="shape29-102" transform="translate(170.75,-80.8714)">
			<title>Dynamic connector.59</title>
			<path d="M7.09 198.47 L7.09 239.39" class="st5"/>
		</g>
		<g id="shape30-107" transform="translate(177.836,-127.807)">
			<title>Sheet.30</title>
			<desc>No</desc>
			<rect x="0" y="189.537" width="28.4578" height="8.93488" class="st7"/>
			<text x="9.12" y="196.4" class="st8">No</text>		</g>
		<g id="shape32-110" transform="translate(177.836,-54.1687)">
			<title>Sheet.32</title>
			<desc>Yes</desc>
			<rect x="0" y="189.537" width="28.4578" height="8.93488" class="st7"/>
			<text x="7.34" y="196.4" class="st8">Yes</text>		</g>
		<g id="shape33-113" transform="translate(404.811,-59.7605)">
			<title>Sheet.33</title>
			<desc>No</desc>
			<rect x="0" y="189.537" width="28.4578" height="8.93488" class="st7"/>
			<text x="9.12" y="196.4" class="st8">No</text>		</g>
		<g id="shape34-116" transform="translate(514.329,-45.6025)">
			<title>Sheet.34</title>
			<desc>Yes</desc>
			<rect x="0" y="189.537" width="28.4578" height="8.93488" class="st7"/>
			<text x="7.34" y="196.4" class="st8">Yes</text>		</g>
		<g id="shape35-119" transform="translate(403.76,-138.423)">
			<title>Sheet.35</title>
			<desc>Success</desc>
			<rect x="0" y="189.537" width="39.9645" height="8.93488" class="st7"/>
			<text x="4.87" y="196.4" class="st8">Success</text>		</g>
		<g id="shape36-122" transform="translate(514.329,-138.423)">
			<title>Sheet.36</title>
			<desc>Success</desc>
			<rect x="0" y="189.537" width="39.9645" height="8.93488" class="st7"/>
			<text x="4.87" y="196.4" class="st8">Success</text>		</g>
	</g>
</svg>
