<?xml version="1.0" encoding="UTF-8" standalone="no"?>
<!DOCTYPE svg PUBLIC "-//W3C//DTD SVG 1.1//EN" "http://www.w3.org/Graphics/SVG/1.1/DTD/svg11.dtd">
<!-- Generated by Microsoft Visio, SVG Export delta_dfu_rollback.svg Page-1 -->
<svg xmlns="http://www.w3.org/2000/svg" xmlns:xlink="http://www.w3.org/1999/xlink" xmlns:ev="http://www.w3.org/2001/xml-events"
		width="7.89011in" height="2.65067in" viewBox="0 0 568.088 190.848" xml:space="preserve" color-interpolation-filters="sRGB"
		class="st8">
	<style type="text/css">
	<![CDATA[
		.st1 {fill:#00a9ce;stroke:none;stroke-width:1}
		.st2 {fill:#feffff;font-family:Arial;font-size:0.666664em}
		.st3 {font-size:1em}
		.st4 {marker-end:url(#mrkr4-16);stroke:#00a9ce;stroke-linecap:butt;stroke-width:1}
		.st5 {fill:#00a9ce;fill-opacity:1;stroke:#00a9ce;stroke-opacity:1;stroke-width:0.28409090909091}
		.st6 {fill:none;stroke:none;stroke-width:1}
		.st7 {fill:#00a9ce;font-family:Arial;font-size:0.666664em}
		.st8 {fill:none;fill-rule:evenodd;font-size:12px;overflow:visible;stroke-linecap:square;stroke-miterlimit:3}
	]]>
	</style>

	<defs id="Markers">
		<g id="lend4">
			<path d="M 2 1 L 0 0 L 2 -1 L 2 1 " style="stroke:none"/>
		</g>
		<marker id="mrkr4-16" class="st5" refX="-7.04" orient="auto" markerUnits="strokeWidth" overflow="visible">
			<use xlink:href="#lend4" transform="scale(-3.52,-3.52) "/>
		</marker>
	</defs>
	<g>
		<title>Page-1</title>
		<g id="shape37-1" transform="translate(1,-88.252)">
			<title>Process.37</title>
			<desc>nrf_modem_delta_dfu_rollback()</desc>
			<rect x="0" y="170.912" width="124.724" height="19.9368" class="st1"/>
			<text x="4.78" y="183.28" class="st2">nrf_modem_delta_dfu_rollback()</text>		</g>
		<g id="shape38-4" transform="translate(148.354,-80.8714)">
			<title>Decision.38</title>
			<desc>Success</desc>
			<path d="M0 173.5 L28.46 156.15 L56.92 173.5 L28.46 190.85 L0 173.5 Z" class="st1"/>
			<text x="13.34" y="175.9" class="st2">Success</text>		</g>
		<g id="shape39-7" transform="translate(123.843,-160.322)">
			<title>Start/End.39</title>
			<desc>Rollback failed Modem operates as normal</desc>
			<path d="M14.76 190.85 L91.17 190.85 A14.7632 14.7632 -180 0 0 91.17 161.32 L14.76 161.32 A14.7632 14.7632 -180 1 0 14.76
						 190.85 Z" class="st1"/>
			<text x="26.95" y="173.69" class="st2">Rollback failed <tspan x="4.28" dy="1.2em" class="st3">Modem operates as normal</tspan></text>		</g>
		<g id="shape40-11" transform="translate(169.725,-115.569)">
			<title>Dynamic connector.40</title>
			<path d="M7.09 190.85 L7.09 153.14" class="st4"/>
		</g>
		<g id="shape41-17" transform="translate(125.724,-91.1337)">
			<title>Dynamic connector.41</title>
			<path d="M0 183.76 L15.59 183.76" class="st4"/>
		</g>
		<g id="shape42-22" transform="translate(130.14,-12.972)">
			<title>Process.42</title>
			<desc>nrf_modem_shutdown()</desc>
			<rect x="0" y="170.912" width="93.342" height="19.9368" class="st1"/>
			<text x="4.43" y="183.28" class="st2">nrf_modem_shutdown()</text>		</g>
		<g id="shape43-25" transform="translate(223.482,-15.8538)">
			<title>Dynamic connector.43</title>
			<path d="M0 183.76 L13.43 183.76" class="st4"/>
		</g>
		<g id="shape44-30" transform="translate(243.953,-12.972)">
			<title>Process.44</title>
			<desc>nrf_modem_init()</desc>
			<rect x="0" y="170.912" width="80.7479" height="19.9368" class="st1"/>
			<text x="10.14" y="183.28" class="st2">nrf_modem_init()</text>		</g>
		<g id="shape45-33" transform="translate(336.503,-1)">
			<title>Decision.45</title>
			<desc>NRF_MODEM_DFU_RESULT_OK?</desc>
			<path d="M0 168.91 L82.83 146.97 L165.66 168.91 L82.83 190.85 L0 168.91 Z" class="st1"/>
			<text x="18.37" y="171.31" class="st2">NRF_MODEM_DFU_RESULT_OK?</text>		</g>
		<g id="shape46-36" transform="translate(419.334,-44.8808)">
			<title>Dynamic connector.46</title>
			<path d="M0 190.85 L0 180.81 L-36.16 180.81 L-36.16 161.9" class="st4"/>
		</g>
		<g id="shape47-41" transform="translate(336.503,-80.8714)">
			<title>Process.47</title>
			<desc>nrf_modem_shutdown()</desc>
			<rect x="0" y="170.912" width="93.342" height="19.9368" class="st1"/>
			<text x="4.43" y="183.28" class="st2">nrf_modem_shutdown()</text>		</g>
		<g id="shape48-44" transform="translate(16.6912,-159.907)">
			<title>Start/End.48</title>
			<desc>Modem firmware delta rollback process</desc>
			<path d="M14.76 190.85 L78.58 190.85 A14.7632 14.7632 -180 0 0 78.58 161.32 L14.76 161.32 A14.7632 14.7632 -180 1 0 14.76
						 190.85 Z" class="st1"/>
			<text x="7.1" y="173.69" class="st2">Modem firmware delta <tspan x="17.77" dy="1.2em" class="st3">rollback process</tspan></text>		</g>
		<g id="shape49-48" transform="translate(452.648,-160.322)">
			<title>Start/End.49</title>
			<desc>Rollback successful Modem runs previous firmware</desc>
			<path d="M14.76 190.85 L99.68 190.85 A14.7632 14.7632 -180 0 0 99.68 161.32 L14.76 161.32 A14.7632 14.7632 -180 1 0 14.76
						 190.85 Z" class="st1"/>
			<text x="22.09" y="173.69" class="st2">Rollback successful <tspan x="2.31" dy="1.2em" class="st3">Modem runs </tspan>previous firmware</text>		</g>
		<g id="shape50-52" transform="translate(320.812,-159.903)">
			<title>Start/End.50</title>
			<desc>Rollback failed Modem runs unmodified firmware</desc>
			<path d="M14.76 190.85 L109.96 190.85 A14.7632 14.7632 -180 0 0 109.96 161.32 L14.76 161.32 A14.7632 14.7632 -180 1 0
						 14.76 190.85 Z" class="st1"/>
			<text x="36.35" y="173.69" class="st2">Rollback failed <tspan x="3.01" dy="1.2em" class="st3">Modem runs unmodified firmware</tspan></text>		</g>
		<g id="shape51-56" transform="translate(336.503,-112.656)">
			<title>Process.51</title>
			<desc>nrf_modem_init()</desc>
			<rect x="0" y="170.912" width="93.342" height="19.9368" class="st1"/>
			<text x="16.44" y="183.28" class="st2">nrf_modem_init()</text>		</g>
		<g id="shape52-59" transform="translate(463.197,-80.8714)">
			<title>Process.52</title>
			<desc>nrf_modem_shutdown()</desc>
			<rect x="0" y="170.912" width="93.342" height="19.9368" class="st1"/>
			<text x="4.43" y="183.28" class="st2">nrf_modem_shutdown()</text>		</g>
		<g id="shape53-62" transform="translate(463.197,-112.656)">
			<title>Process.53</title>
			<desc>nrf_modem_init()</desc>
			<rect x="0" y="170.912" width="93.342" height="19.9368" class="st1"/>
			<text x="16.44" y="183.28" class="st2">nrf_modem_init()</text>		</g>
		<g id="shape54-65" transform="translate(498.93,-22.9404)">
			<title>Dynamic connector.54</title>
			<path d="M3.24 190.85 L10.94 190.85 L10.94 139.96" class="st4"/>
		</g>
		<g id="shape55-70" transform="translate(502.781,-99.6454)">
			<title>Dynamic connector.55</title>
			<path d="M7.09 189.69 L7.09 184.88" class="st4"/>
		</g>
		<g id="shape56-75" transform="translate(502.781,-132.593)">
			<title>Dynamic connector.56</title>
			<path d="M7.09 190.85 L7.09 170.16" class="st4"/>
		</g>
		<g id="shape57-80" transform="translate(376.087,-99.6454)">
			<title>Dynamic connector.57</title>
			<path d="M7.09 189.69 L7.09 184.88" class="st4"/>
		</g>
		<g id="shape58-85" transform="translate(376.087,-132.593)">
			<title>Dynamic connector.58</title>
			<path d="M7.09 190.85 L7.09 170.58" class="st4"/>
		</g>
		<g id="shape59-90" transform="translate(323.515,-15.8538)">
			<title>Dynamic connector.59</title>
			<path d="M1.19 183.76 L5.95 183.76" class="st4"/>
		</g>
		<g id="shape60-95" transform="translate(56.2756,-159.907)">
			<title>Dynamic connector.60</title>
			<path d="M7.09 190.85 L7.09 235.53" class="st4"/>
		</g>
		<g id="shape61-100" transform="translate(169.725,-80.8714)">
			<title>Dynamic connector.61</title>
			<path d="M7.09 190.85 L7.09 231.77" class="st4"/>
		</g>
		<g id="shape62-105" transform="translate(177.393,-132.593)">
			<title>Sheet.62</title>
			<desc>No</desc>
			<rect x="0" y="182.004" width="28.4578" height="8.84434" class="st6"/>
			<text x="9.12" y="188.83" class="st7">No</text>		</g>
		<g id="shape63-108" transform="translate(177.393,-54.1687)">
			<title>Sheet.63</title>
			<desc>Yes</desc>
			<rect x="0" y="182.004" width="28.4578" height="8.84434" class="st6"/>
			<text x="7.34" y="188.83" class="st7">Yes</text>		</g>
		<g id="shape64-111" transform="translate(513.269,-60.3031)">
			<title>Sheet.64</title>
			<desc>Yes</desc>
			<rect x="0" y="182.004" width="28.4578" height="8.84434" class="st6"/>
			<text x="7.34" y="188.83" class="st7">Yes</text>		</g>
		<g id="shape65-114" transform="translate(385.969,-60.3031)">
			<title>Sheet.65</title>
			<desc>No</desc>
			<rect x="0" y="182.004" width="28.4578" height="8.84434" class="st6"/>
			<text x="9.12" y="188.83" class="st7">No</text>		</g>
		<g id="shape66-117" transform="translate(385.969,-141.826)">
			<title>Sheet.66</title>
			<desc>Success</desc>
			<rect x="0" y="182.004" width="41.4415" height="8.84434" class="st6"/>
			<text x="5.6" y="188.83" class="st7">Success</text>		</g>
		<g id="shape67-120" transform="translate(513.269,-142.035)">
			<title>Sheet.67</title>
			<desc>Success</desc>
			<rect x="0" y="182.004" width="41.4415" height="8.84434" class="st6"/>
			<text x="5.6" y="188.83" class="st7">Success</text>		</g>
	</g>
</svg>
