<?xml version="1.0" encoding="UTF-8" standalone="no"?>
<!DOCTYPE svg PUBLIC "-//W3C//DTD SVG 1.1//EN" "http://www.w3.org/Graphics/SVG/1.1/DTD/svg11.dtd">
<!-- Generated by Microsoft Visio, SVG Export msc_event.svg Page-1 -->
<svg xmlns="http://www.w3.org/2000/svg" xmlns:xlink="http://www.w3.org/1999/xlink" xmlns:ev="http://www.w3.org/2001/xml-events"
		width="7.96135in" height="4.54011in" viewBox="0 0 573.217 326.888" xml:space="preserve" color-interpolation-filters="sRGB"
		class="st22">
	<style type="text/css">
	<![CDATA[
		.st1 {fill:none;stroke:#333f48;stroke-dasharray:8,4;stroke-linecap:butt;stroke-width:1}
		.st2 {fill:none}
		.st3 {stroke:#333f48;stroke-dasharray:1,2;stroke-linecap:butt;stroke-width:1}
		.st4 {fill:none;stroke:none;stroke-width:1}
		.st5 {fill:#333f48;font-family:Arial;font-size:1.16666em}
		.st6 {fill:#00a9ce;stroke:none;stroke-width:1}
		.st7 {fill:#feffff;font-family:Arial;font-size:0.833336em}
		.st8 {fill:#768692;font-family:Arial;font-size:0.666664em}
		.st9 {stroke:#768692;stroke-dasharray:8,4;stroke-linecap:butt;stroke-width:1}
		.st10 {fill:#333f48;font-family:Arial;font-size:0.916672em}
		.st11 {marker-end:url(#mrkr4-38);stroke:#333f48;stroke-linecap:butt;stroke-width:1}
		.st12 {fill:#333f48;fill-opacity:1;stroke:#333f48;stroke-opacity:1;stroke-width:0.28409090909091}
		.st13 {marker-start:url(#mrkr4-52);stroke:#333f48;stroke-linecap:butt;stroke-width:1}
		.st14 {marker-end:url(#mrkr4-61);stroke:#333f48;stroke-linecap:butt;stroke-width:1}
		.st15 {fill:#333f48;font-family:Arial;font-size:0.75em}
		.st16 {fill:#333f48;font-family:Arial;font-size:0.833336em}
		.st17 {fill:#0033a0;stroke:none;stroke-width:1}
		.st18 {font-size:1em}
		.st19 {marker-end:url(#mrkr4-38);stroke:#333f48;stroke-dasharray:4,2;stroke-linecap:butt;stroke-width:1}
		.st20 {marker-start:url(#mrkr4-52);stroke:#333f48;stroke-dasharray:4,2;stroke-linecap:butt;stroke-width:1}
		.st21 {stroke:#333f48;stroke-dasharray:8,4;stroke-linecap:butt;stroke-width:1}
		.st22 {fill:none;fill-rule:evenodd;font-size:12px;overflow:visible;stroke-linecap:square;stroke-miterlimit:3}
	]]>
	</style>

	<defs id="Markers">
		<g id="lend4">
			<path d="M 2 1 L 0 0 L 2 -1 L 2 1 " style="stroke:none"/>
		</g>
		<marker id="mrkr4-38" class="st12" refX="-7.04" orient="auto" markerUnits="strokeWidth" overflow="visible">
			<use xlink:href="#lend4" transform="scale(-3.52,-3.52) "/>
		</marker>
		<marker id="mrkr4-52" class="st12" refX="6.68" orient="auto" markerUnits="strokeWidth" overflow="visible">
			<use xlink:href="#lend4" transform="scale(3.52) "/>
		</marker>
		<marker id="mrkr4-61" class="st12" refX="-0" orient="auto" markerUnits="strokeWidth" overflow="visible">
			<use xlink:href="#lend4" transform="scale(-3.52,-3.52) "/>
		</marker>
	</defs>
	<g>
		<title>Page-1</title>
		<g id="shape889-1" transform="translate(231.492,-46.234)">
			<title>path544.889</title>
			<path d="M0 229.09 L6.89 229.09 L6.89 326.89 L0 326.89 L0 229.09 Z" class="st1"/>
		</g>
		<g id="shape407-3" transform="translate(9.87985,-176.236)">
			<title>path978</title>
			<path d="M0 326.89 L1.06 326.89 L0 326.89 ZM2.12 326.89 L3.18 326.89 L2.12 326.89 ZM4.24 326.89 L5.3 326.89 L4.24 326.89
						 ZM6.36 326.89 L7.42 326.89 L6.36 326.89 ZM8.48 326.89 L9.54 326.89 L8.48 326.89 ZM10.6 326.89 L11.66 326.89
						 L10.6 326.89 ZM12.72 326.89 L13.78 326.89 L12.72 326.89 ZM14.84 326.89 L15.91 326.89 L14.84 326.89 ZM16.97
						 326.89 L18.03 326.89 L16.97 326.89 ZM19.09 326.89 L20.15 326.89 L19.09 326.89 ZM21.21 326.89 L22.27 326.89
						 L21.21 326.89 ZM23.33 326.89 L24.39 326.89 L23.33 326.89 ZM25.45 326.89 L26.51 326.89 L25.45 326.89 ZM27.57
						 326.89 L28.63 326.89 L27.57 326.89 ZM29.69 326.89 L30.75 326.89 L29.69 326.89 ZM31.81 326.89 L32.87 326.89
						 L31.81 326.89 ZM33.93 326.89 L34.99 326.89 L33.93 326.89 ZM36.05 326.89 L37.11 326.89 L36.05 326.89 ZM38.17
						 326.89 L39.23 326.89 L38.17 326.89 ZM40.29 326.89 L41.35 326.89 L40.29 326.89 ZM42.41 326.89 L43.47 326.89
						 L42.41 326.89 ZM44.53 326.89 L45.59 326.89 L44.53 326.89 ZM46.66 326.89 L47.72 326.89 L46.66 326.89 ZM48.78
						 326.89 L49.84 326.89 L48.78 326.89 ZM50.9 326.89 L51.96 326.89 L50.9 326.89 ZM53.02 326.89 L54.08 326.89
						 L53.02 326.89 ZM55.14 326.89 L56.2 326.89 L55.14 326.89 ZM57.26 326.89 L58.32 326.89 L57.26 326.89 ZM59.38
						 326.89 L60.44 326.89 L59.38 326.89 ZM61.5 326.89 L62.56 326.89 L61.5 326.89 ZM63.62 326.89 L64.68 326.89
						 L63.62 326.89 ZM65.74 326.89 L66.8 326.89 L65.74 326.89 ZM67.86 326.89 L68.92 326.89 L67.86 326.89 ZM69.98
						 326.89 L71.04 326.89 L69.98 326.89 ZM72.1 326.89 L73.16 326.89 L72.1 326.89 ZM74.22 326.89 L75.28 326.89
						 L74.22 326.89 ZM76.34 326.89 L77.41 326.89 L76.34 326.89 ZM78.47 326.89 L79.53 326.89 L78.47 326.89 ZM80.59
						 326.89 L81.65 326.89 L80.59 326.89 ZM82.71 326.89 L83.77 326.89 L82.71 326.89 ZM84.83 326.89 L85.89 326.89
						 L84.83 326.89 ZM86.95 326.89 L88.01 326.89 L86.95 326.89 ZM89.07 326.89 L90.13 326.89 L89.07 326.89 ZM91.19
						 326.89 L92.25 326.89 L91.19 326.89 ZM93.31 326.89 L94.37 326.89 L93.31 326.89 ZM95.43 326.89 L96.49 326.89
						 L95.43 326.89 ZM97.55 326.89 L98.61 326.89 L97.55 326.89 ZM99.67 326.89 L100.73 326.89 L99.67 326.89 ZM101.79
						 326.89 L102.85 326.89 L101.79 326.89 ZM103.91 326.89 L104.97 326.89 L103.91 326.89 ZM106.03 326.89 L107.09
						 326.89 L106.03 326.89 ZM108.16 326.89 L109.22 326.89 L108.16 326.89 ZM110.28 326.89 L111.34 326.89 L110.28
						 326.89 ZM112.4 326.89 L113.46 326.89 L112.4 326.89 ZM114.52 326.89 L115.58 326.89 L114.52 326.89 ZM116.64
						 326.89 L117.7 326.89 L116.64 326.89 ZM118.76 326.89 L119.82 326.89 L118.76 326.89 ZM120.88 326.89 L121.94
						 326.89 L120.88 326.89 ZM123 326.89 L124.06 326.89 L123 326.89 ZM125.12 326.89 L126.18 326.89 L125.12 326.89
						 ZM127.24 326.89 L128.3 326.89 L127.24 326.89 ZM129.36 326.89 L130.42 326.89 L129.36 326.89 ZM131.48 326.89
						 L132.54 326.89 L131.48 326.89 ZM133.6 326.89 L134.66 326.89 L133.6 326.89 ZM135.72 326.89 L136.78 326.89
						 L135.72 326.89 ZM137.85 326.89 L138.91 326.89 L137.85 326.89 ZM139.97 326.89 L141.03 326.89 L139.97 326.89
						 ZM142.09 326.89 L143.15 326.89 L142.09 326.89 ZM144.21 326.89 L145.27 326.89 L144.21 326.89 ZM146.33 326.89
						 L147.39 326.89 L146.33 326.89 ZM148.45 326.89 L149.51 326.89 L148.45 326.89 ZM150.57 326.89 L151.63 326.89
						 L150.57 326.89 ZM152.69 326.89 L153.75 326.89 L152.69 326.89 ZM154.81 326.89 L155.87 326.89 L154.81 326.89
						 ZM156.93 326.89 L157.99 326.89 L156.93 326.89 ZM159.05 326.89 L160.11 326.89 L159.05 326.89 ZM161.17 326.89
						 L162.23 326.89 L161.17 326.89 ZM163.29 326.89 L164.35 326.89 L163.29 326.89 ZM165.41 326.89 L166.47 326.89
						 L165.41 326.89 ZM167.53 326.89 L168.6 326.89 L167.53 326.89 ZM169.66 326.89 L170.72 326.89 L169.66 326.89
						 ZM171.78 326.89 L172.84 326.89 L171.78 326.89 ZM173.9 326.89 L174.96 326.89 L173.9 326.89 ZM176.02 326.89
						 L177.08 326.89 L176.02 326.89 ZM178.14 326.89 L179.2 326.89 L178.14 326.89 ZM180.26 326.89 L181.32 326.89
						 L180.26 326.89 ZM182.38 326.89 L183.44 326.89 L182.38 326.89 ZM184.5 326.89 L185.56 326.89 L184.5 326.89
						 ZM186.62 326.89 L187.68 326.89 L186.62 326.89 ZM188.74 326.89 L189.8 326.89 L188.74 326.89 ZM190.86 326.89
						 L191.92 326.89 L190.86 326.89 ZM192.98 326.89 L194.04 326.89 L192.98 326.89 ZM195.1 326.89 L196.16 326.89
						 L195.1 326.89 ZM197.22 326.89 L198.28 326.89 L197.22 326.89 ZM199.35 326.89 L200.41 326.89 L199.35 326.89
						 ZM201.47 326.89 L202.53 326.89 L201.47 326.89 ZM203.59 326.89 L204.65 326.89 L203.59 326.89 ZM205.71 326.89
						 L206.77 326.89 L205.71 326.89 ZM207.83 326.89 L208.89 326.89 L207.83 326.89 ZM209.95 326.89 L211.01 326.89
						 L209.95 326.89 ZM212.07 326.89 L213.13 326.89 L212.07 326.89 ZM214.19 326.89 L215.25 326.89 L214.19 326.89
						 ZM216.31 326.89 L217.37 326.89 L216.31 326.89 ZM218.43 326.89 L219.49 326.89 L218.43 326.89 ZM220.55 326.89
						 L221.61 326.89 L220.55 326.89 ZM222.67 326.89 L223.73 326.89 L222.67 326.89 ZM224.79 326.89 L225.85 326.89
						 L224.79 326.89 Z" class="st2"/>
			<path d="M0 326.89 L1.06 326.89M2.12 326.89 L3.18 326.89M4.24 326.89 L5.3 326.89M6.36 326.89 L7.42 326.89M8.48 326.89
						 L9.54 326.89M10.6 326.89 L11.66 326.89M12.72 326.89 L13.78 326.89M14.84 326.89 L15.91 326.89M16.97 326.89
						 L18.03 326.89M19.09 326.89 L20.15 326.89M21.21 326.89 L22.27 326.89M23.33 326.89 L24.39 326.89M25.45 326.89
						 L26.51 326.89M27.57 326.89 L28.63 326.89M29.69 326.89 L30.75 326.89M31.81 326.89 L32.87 326.89M33.93 326.89
						 L34.99 326.89M36.05 326.89 L37.11 326.89M38.17 326.89 L39.23 326.89M40.29 326.89 L41.35 326.89M42.41 326.89
						 L43.47 326.89M44.53 326.89 L45.59 326.89M46.66 326.89 L47.72 326.89M48.78 326.89 L49.84 326.89M50.9 326.89
						 L51.96 326.89M53.02 326.89 L54.08 326.89M55.14 326.89 L56.2 326.89M57.26 326.89 L58.32 326.89M59.38 326.89
						 L60.44 326.89M61.5 326.89 L62.56 326.89M63.62 326.89 L64.68 326.89M65.74 326.89 L66.8 326.89M67.86 326.89
						 L68.92 326.89M69.98 326.89 L71.04 326.89M72.1 326.89 L73.16 326.89M74.22 326.89 L75.28 326.89M76.34 326.89
						 L77.41 326.89M78.47 326.89 L79.53 326.89M80.59 326.89 L81.65 326.89M82.71 326.89 L83.77 326.89M84.83 326.89
						 L85.89 326.89M86.95 326.89 L88.01 326.89M89.07 326.89 L90.13 326.89M91.19 326.89 L92.25 326.89M93.31 326.89
						 L94.37 326.89M95.43 326.89 L96.49 326.89M97.55 326.89 L98.61 326.89M99.67 326.89 L100.73 326.89M101.79 326.89
						 L102.85 326.89M103.91 326.89 L104.97 326.89M106.03 326.89 L107.09 326.89M108.16 326.89 L109.22 326.89M110.28
						 326.89 L111.34 326.89M112.4 326.89 L113.46 326.89M114.52 326.89 L115.58 326.89M116.64 326.89 L117.7 326.89M118.76
						 326.89 L119.82 326.89M120.88 326.89 L121.94 326.89M123 326.89 L124.06 326.89M125.12 326.89 L126.18 326.89M127.24
						 326.89 L128.3 326.89M129.36 326.89 L130.42 326.89M131.48 326.89 L132.54 326.89M133.6 326.89 L134.66 326.89M135.72
						 326.89 L136.78 326.89M137.85 326.89 L138.91 326.89M139.97 326.89 L141.03 326.89M142.09 326.89 L143.15 326.89M144.21
						 326.89 L145.27 326.89M146.33 326.89 L147.39 326.89M148.45 326.89 L149.51 326.89M150.57 326.89 L151.63 326.89M152.69
						 326.89 L153.75 326.89M154.81 326.89 L155.87 326.89M156.93 326.89 L157.99 326.89M159.05 326.89 L160.11 326.89M161.17
						 326.89 L162.23 326.89M163.29 326.89 L164.35 326.89M165.41 326.89 L166.47 326.89M167.53 326.89 L168.6 326.89M169.66
						 326.89 L170.72 326.89M171.78 326.89 L172.84 326.89M173.9 326.89 L174.96 326.89M176.02 326.89 L177.08 326.89M178.14
						 326.89 L179.2 326.89M180.26 326.89 L181.32 326.89M182.38 326.89 L183.44 326.89M184.5 326.89 L185.56 326.89M186.62
						 326.89 L187.68 326.89M188.74 326.89 L189.8 326.89M190.86 326.89 L191.92 326.89M192.98 326.89 L194.04 326.89M195.1
						 326.89 L196.16 326.89M197.22 326.89 L198.28 326.89M199.35 326.89 L200.41 326.89M201.47 326.89 L202.53 326.89M203.59
						 326.89 L204.65 326.89M205.71 326.89 L206.77 326.89M207.83 326.89 L208.89 326.89M209.95 326.89 L211.01 326.89M212.07
						 326.89 L213.13 326.89M214.19 326.89 L215.25 326.89M216.31 326.89 L217.37 326.89M218.43 326.89 L219.49 326.89M220.55
						 326.89 L221.61 326.89M222.67 326.89 L223.73 326.89M224.79 326.89 L225.85 326.89" class="st3"/>
		</g>
		<g id="shape408-6" transform="translate(354.822,-176.236)">
			<title>path980</title>
			<path d="M0 326.89 L0.96 326.89 L0 326.89 ZM1.93 326.89 L2.89 326.89 L1.93 326.89 ZM3.86 326.89 L4.82 326.89 L3.86 326.89
						 ZM5.79 326.89 L6.75 326.89 L5.79 326.89 ZM7.72 326.89 L8.68 326.89 L7.72 326.89 ZM9.65 326.89 L10.61 326.89
						 L9.65 326.89 ZM11.58 326.89 L12.54 326.89 L11.58 326.89 ZM13.51 326.89 L14.47 326.89 L13.51 326.89 ZM15.44
						 326.89 L16.4 326.89 L15.44 326.89 ZM17.36 326.89 L18.33 326.89 L17.36 326.89 ZM19.29 326.89 L20.26 326.89
						 L19.29 326.89 ZM21.22 326.89 L22.19 326.89 L21.22 326.89 ZM23.15 326.89 L24.12 326.89 L23.15 326.89 ZM25.08
						 326.89 L26.05 326.89 L25.08 326.89 ZM27.01 326.89 L27.98 326.89 L27.01 326.89 ZM28.94 326.89 L29.91 326.89
						 L28.94 326.89 ZM30.87 326.89 L31.84 326.89 L30.87 326.89 ZM32.8 326.89 L33.76 326.89 L32.8 326.89 ZM34.73
						 326.89 L35.69 326.89 L34.73 326.89 ZM36.66 326.89 L37.62 326.89 L36.66 326.89 ZM38.59 326.89 L39.55 326.89
						 L38.59 326.89 ZM40.52 326.89 L41.48 326.89 L40.52 326.89 ZM42.45 326.89 L43.41 326.89 L42.45 326.89 ZM44.38
						 326.89 L45.34 326.89 L44.38 326.89 ZM46.31 326.89 L47.27 326.89 L46.31 326.89 ZM48.24 326.89 L49.2 326.89
						 L48.24 326.89 ZM50.16 326.89 L51.13 326.89 L50.16 326.89 ZM52.09 326.89 L53.06 326.89 L52.09 326.89 ZM54.02
						 326.89 L54.99 326.89 L54.02 326.89 ZM55.95 326.89 L56.92 326.89 L55.95 326.89 ZM57.88 326.89 L58.85 326.89
						 L57.88 326.89 ZM59.81 326.89 L60.78 326.89 L59.81 326.89 ZM61.74 326.89 L62.71 326.89 L61.74 326.89 ZM63.67
						 326.89 L64.64 326.89 L63.67 326.89 ZM65.6 326.89 L66.57 326.89 L65.6 326.89 ZM67.53 326.89 L68.49 326.89
						 L67.53 326.89 ZM69.46 326.89 L70.42 326.89 L69.46 326.89 ZM71.39 326.89 L72.35 326.89 L71.39 326.89 ZM73.32
						 326.89 L74.28 326.89 L73.32 326.89 ZM75.25 326.89 L76.21 326.89 L75.25 326.89 ZM77.18 326.89 L78.14 326.89
						 L77.18 326.89 ZM79.11 326.89 L80.07 326.89 L79.11 326.89 ZM81.04 326.89 L82 326.89 L81.04 326.89 ZM82.97
						 326.89 L83.93 326.89 L82.97 326.89 ZM84.89 326.89 L85.86 326.89 L84.89 326.89 ZM86.82 326.89 L87.79 326.89
						 L86.82 326.89 ZM88.75 326.89 L89.72 326.89 L88.75 326.89 ZM90.68 326.89 L91.65 326.89 L90.68 326.89 ZM92.61
						 326.89 L93.58 326.89 L92.61 326.89 ZM94.54 326.89 L95.51 326.89 L94.54 326.89 ZM96.47 326.89 L97.44 326.89
						 L96.47 326.89 ZM98.4 326.89 L99.37 326.89 L98.4 326.89 ZM100.33 326.89 L101.29 326.89 L100.33 326.89 ZM102.26
						 326.89 L103.22 326.89 L102.26 326.89 ZM104.19 326.89 L105.15 326.89 L104.19 326.89 ZM106.12 326.89 L107.08
						 326.89 L106.12 326.89 ZM108.05 326.89 L109.01 326.89 L108.05 326.89 ZM109.98 326.89 L110.94 326.89 L109.98
						 326.89 ZM111.91 326.89 L112.87 326.89 L111.91 326.89 ZM113.84 326.89 L114.8 326.89 L113.84 326.89 ZM115.77
						 326.89 L116.73 326.89 L115.77 326.89 ZM117.69 326.89 L118.66 326.89 L117.69 326.89 ZM119.62 326.89 L120.59
						 326.89 L119.62 326.89 ZM121.55 326.89 L122.52 326.89 L121.55 326.89 ZM123.48 326.89 L124.45 326.89 L123.48
						 326.89 ZM125.41 326.89 L126.38 326.89 L125.41 326.89 ZM127.34 326.89 L128.31 326.89 L127.34 326.89 ZM129.27
						 326.89 L130.24 326.89 L129.27 326.89 ZM131.2 326.89 L132.17 326.89 L131.2 326.89 ZM133.13 326.89 L134.09
						 326.89 L133.13 326.89 ZM135.06 326.89 L136.02 326.89 L135.06 326.89 ZM136.99 326.89 L137.95 326.89 L136.99
						 326.89 ZM138.92 326.89 L139.88 326.89 L138.92 326.89 ZM140.85 326.89 L141.81 326.89 L140.85 326.89 ZM142.78
						 326.89 L143.74 326.89 L142.78 326.89 ZM144.71 326.89 L145.67 326.89 L144.71 326.89 ZM146.64 326.89 L147.6
						 326.89 L146.64 326.89 ZM148.57 326.89 L149.53 326.89 L148.57 326.89 ZM150.49 326.89 L151.46 326.89 L150.49
						 326.89 ZM152.42 326.89 L153.39 326.89 L152.42 326.89 ZM154.35 326.89 L155.32 326.89 L154.35 326.89 ZM156.28
						 326.89 L157.25 326.89 L156.28 326.89 ZM158.21 326.89 L159.18 326.89 L158.21 326.89 ZM160.14 326.89 L161.11
						 326.89 L160.14 326.89 ZM162.07 326.89 L163.04 326.89 L162.07 326.89 ZM164 326.89 L164.97 326.89 L164 326.89
						 ZM165.93 326.89 L166.9 326.89 L165.93 326.89 ZM167.86 326.89 L168.82 326.89 L167.86 326.89 ZM169.79 326.89
						 L170.75 326.89 L169.79 326.89 ZM171.72 326.89 L172.68 326.89 L171.72 326.89 ZM173.65 326.89 L174.61 326.89
						 L173.65 326.89 ZM175.58 326.89 L176.54 326.89 L175.58 326.89 ZM177.51 326.89 L178.47 326.89 L177.51 326.89
						 ZM179.44 326.89 L180.4 326.89 L179.44 326.89 ZM181.37 326.89 L182.33 326.89 L181.37 326.89 ZM183.3 326.89
						 L184.26 326.89 L183.3 326.89 ZM185.22 326.89 L186.19 326.89 L185.22 326.89 ZM187.15 326.89 L188.12 326.89
						 L187.15 326.89 ZM189.08 326.89 L190.05 326.89 L189.08 326.89 ZM191.01 326.89 L191.98 326.89 L191.01 326.89
						 ZM192.94 326.89 L193.91 326.89 L192.94 326.89 ZM194.87 326.89 L195.84 326.89 L194.87 326.89 ZM196.8 326.89
						 L197.77 326.89 L196.8 326.89 ZM198.73 326.89 L199.7 326.89 L198.73 326.89 ZM200.66 326.89 L201.62 326.89
						 L200.66 326.89 ZM202.59 326.89 L203.55 326.89 L202.59 326.89 ZM204.52 326.89 L205.48 326.89 L204.52 326.89
						 Z" class="st2"/>
			<path d="M0 326.89 L0.96 326.89M1.93 326.89 L2.89 326.89M3.86 326.89 L4.82 326.89M5.79 326.89 L6.75 326.89M7.72 326.89
						 L8.68 326.89M9.65 326.89 L10.61 326.89M11.58 326.89 L12.54 326.89M13.51 326.89 L14.47 326.89M15.44 326.89
						 L16.4 326.89M17.36 326.89 L18.33 326.89M19.29 326.89 L20.26 326.89M21.22 326.89 L22.19 326.89M23.15 326.89
						 L24.12 326.89M25.08 326.89 L26.05 326.89M27.01 326.89 L27.98 326.89M28.94 326.89 L29.91 326.89M30.87 326.89
						 L31.84 326.89M32.8 326.89 L33.76 326.89M34.73 326.89 L35.69 326.89M36.66 326.89 L37.62 326.89M38.59 326.89
						 L39.55 326.89M40.52 326.89 L41.48 326.89M42.45 326.89 L43.41 326.89M44.38 326.89 L45.34 326.89M46.31 326.89
						 L47.27 326.89M48.24 326.89 L49.2 326.89M50.16 326.89 L51.13 326.89M52.09 326.89 L53.06 326.89M54.02 326.89
						 L54.99 326.89M55.95 326.89 L56.92 326.89M57.88 326.89 L58.85 326.89M59.81 326.89 L60.78 326.89M61.74 326.89
						 L62.71 326.89M63.67 326.89 L64.64 326.89M65.6 326.89 L66.57 326.89M67.53 326.89 L68.49 326.89M69.46 326.89
						 L70.42 326.89M71.39 326.89 L72.35 326.89M73.32 326.89 L74.28 326.89M75.25 326.89 L76.21 326.89M77.18 326.89
						 L78.14 326.89M79.11 326.89 L80.07 326.89M81.04 326.89 L82 326.89M82.97 326.89 L83.93 326.89M84.89 326.89
						 L85.86 326.89M86.82 326.89 L87.79 326.89M88.75 326.89 L89.72 326.89M90.68 326.89 L91.65 326.89M92.61 326.89
						 L93.58 326.89M94.54 326.89 L95.51 326.89M96.47 326.89 L97.44 326.89M98.4 326.89 L99.37 326.89M100.33 326.89
						 L101.29 326.89M102.26 326.89 L103.22 326.89M104.19 326.89 L105.15 326.89M106.12 326.89 L107.08 326.89M108.05
						 326.89 L109.01 326.89M109.98 326.89 L110.94 326.89M111.91 326.89 L112.87 326.89M113.84 326.89 L114.8 326.89M115.77
						 326.89 L116.73 326.89M117.69 326.89 L118.66 326.89M119.62 326.89 L120.59 326.89M121.55 326.89 L122.52 326.89M123.48
						 326.89 L124.45 326.89M125.41 326.89 L126.38 326.89M127.34 326.89 L128.31 326.89M129.27 326.89 L130.24 326.89M131.2
						 326.89 L132.17 326.89M133.13 326.89 L134.09 326.89M135.06 326.89 L136.02 326.89M136.99 326.89 L137.95 326.89M138.92
						 326.89 L139.88 326.89M140.85 326.89 L141.81 326.89M142.78 326.89 L143.74 326.89M144.71 326.89 L145.67 326.89M146.64
						 326.89 L147.6 326.89M148.57 326.89 L149.53 326.89M150.49 326.89 L151.46 326.89M152.42 326.89 L153.39 326.89M154.35
						 326.89 L155.32 326.89M156.28 326.89 L157.25 326.89M158.21 326.89 L159.18 326.89M160.14 326.89 L161.11 326.89M162.07
						 326.89 L163.04 326.89M164 326.89 L164.97 326.89M165.93 326.89 L166.9 326.89M167.86 326.89 L168.82 326.89M169.79
						 326.89 L170.75 326.89M171.72 326.89 L172.68 326.89M173.65 326.89 L174.61 326.89M175.58 326.89 L176.54 326.89M177.51
						 326.89 L178.47 326.89M179.44 326.89 L180.4 326.89M181.37 326.89 L182.33 326.89M183.3 326.89 L184.26 326.89M185.22
						 326.89 L186.19 326.89M187.15 326.89 L188.12 326.89M189.08 326.89 L190.05 326.89M191.01 326.89 L191.98 326.89M192.94
						 326.89 L193.91 326.89M194.87 326.89 L195.84 326.89M196.8 326.89 L197.77 326.89M198.73 326.89 L199.7 326.89M200.66
						 326.89 L201.62 326.89M202.59 326.89 L203.55 326.89M204.52 326.89 L205.48 326.89" class="st3"/>
		</g>
		<g id="shape865-9" transform="translate(169.698,-306.888)">
			<title>Sheet.865</title>
			<desc>Event handling, lowering priority</desc>
			<rect x="0" y="307.888" width="208.358" height="19" class="st4"/>
			<text x="4.96" y="321.59" class="st5">Event handling, lowering priority</text>		</g>
		<g id="shape867-12" transform="translate(10.9924,-264.316)">
			<title>Rectangle</title>
			<desc>App</desc>
			<rect x="0" y="301.518" width="33.8268" height="25.3701" class="st6"/>
			<text x="8.02" y="317.2" class="st7">App</text>		</g>
		<g id="shape868-15" transform="translate(203.403,-264.316)">
			<title>Rectangle.868</title>
			<desc>nrf_modem</desc>
			<rect x="0" y="301.518" width="62.5397" height="25.3701" class="st6"/>
			<text x="5.98" y="317.2" class="st7">nrf_modem</text>		</g>
		<g id="shape869-18" transform="translate(395.581,-264.316)">
			<title>Rectangle.869</title>
			<desc>nrf_modem_os.c</desc>
			<rect x="0" y="301.518" width="92.7803" height="25.3701" class="st6"/>
			<text x="9.15" y="317.2" class="st7">nrf_modem_os.c</text>		</g>
		<g id="shape870-21" transform="translate(36.4694,-206.229)">
			<title>Sheet.870</title>
			<desc>AT, IP, GNSS events etc.</desc>
			<rect x="0" y="313.97" width="102.965" height="12.9184" class="st4"/>
			<text x="6.36" y="322.83" class="st8">AT, IP, GNSS events etc.</text>		</g>
		<g id="shape871-24" transform="translate(38.898,-236.475)">
			<title>Dynamic connector</title>
			<path d="M0 326.89 L0 337.88 L47.61 337.88 L47.61 344.22" class="st9"/>
		</g>
		<g id="shape872-27" transform="translate(46.6712,-236.475)">
			<title>Sheet.872</title>
			<desc>IPC_IRQHandler (Priority 0)</desc>
			<rect x="0" y="307.888" width="145.068" height="19" class="st4"/>
			<text x="4.38" y="320.69" class="st10">IPC_IRQHandler (Priority 0)</text>		</g>
		<g id="shape873-30" transform="translate(243.399,-219.946)">
			<title>Sheet.873</title>
			<desc>nrf_modem_os_application_irq_set()</desc>
			<rect x="0" y="307.888" width="189.738" height="19" class="st4"/>
			<text x="5.6" y="320.69" class="st10">nrf_modem_os_application_irq_set()</text>		</g>
		<g id="shape874-33" transform="translate(7.87096,-229.388)">
			<title>Dynamic connector.874</title>
			<path d="M0 319.8 L17.67 319.8 A2.3622 2.3622 0 1 1 22.4 319.8 L219.04 319.8" class="st11"/>
		</g>
		<g id="shape875-39" transform="translate(277.591,-199.42)">
			<title>Sheet.875</title>
			<desc>NVIC_SetPendingIRQ(EGU1)</desc>
			<rect x="0" y="313.97" width="158.387" height="12.9184" class="st4"/>
			<text x="6.14" y="323.73" class="st10">NVIC_SetPendingIRQ(EGU1)</text>		</g>
		<g id="shape877-42" transform="translate(235.203,-210.841)">
			<title>Dynamic connector.877</title>
			<path d="M0 319.8 L199.33 319.8" class="st11"/>
		</g>
		<g id="shape878-47" transform="translate(235.203,-183.998)">
			<title>Dynamic connector.878</title>
			<path d="M6.68 319.8 L7.04 319.8 L206.11 319.8" class="st13"/>
		</g>
		<g id="shape879-53" transform="translate(235.69,-167.325)">
			<title>Sheet.879</title>
			<desc>Waiting for EGU1 to hit</desc>
			<rect x="0" y="307.888" width="121.094" height="19" class="st4"/>
			<text x="4.3" y="320.69" class="st10">Waiting for EGU1 to hit</text>		</g>
		<g id="shape880-56" transform="translate(448.91,-217.927)">
			<title>Dynamic connector.880</title>
			<path d="M-7.09 326.89 C61.4 328.5 61.68 345.51 -7.09 345.51" class="st14"/>
		</g>
		<g id="shape881-62" transform="translate(441.441,-156.737)">
			<title>Sheet.881</title>
			<desc>EGU1_IRQHandler (Priority 6)</desc>
			<rect x="0" y="313.97" width="130.777" height="12.9184" class="st4"/>
			<text x="4.87" y="323.13" class="st15">EGU1_IRQHandler (Priority 6)</text>		</g>
		<g id="shape882-65" transform="translate(442.501,-148.512)">
			<title>Dynamic connector.882</title>
			<path d="M6.68 319.85 L7.04 319.85 L117.81 319.75" class="st13"/>
		</g>
		<g id="shape883-70" transform="translate(243.399,-141.004)">
			<title>Sheet.883</title>
			<desc>nrf_modem_os_application_irq_handler()</desc>
			<rect x="0" y="307.888" width="194.979" height="19" class="st4"/>
			<text x="6.32" y="320.39" class="st16">nrf_modem_os_application_irq_handler()</text>		</g>
		<g id="shape885-73" transform="translate(243.399,-118.691)">
			<title>Sheet.885</title>
			<desc>nrf_modem_os_application_irq_clear()</desc>
			<rect x="0" y="307.888" width="194.979" height="19" class="st4"/>
			<text x="12.17" y="320.39" class="st16">nrf_modem_os_application_irq_clear()</text>		</g>
		<g id="shape886-76" transform="translate(283.474,-95.567)">
			<title>Sheet.886</title>
			<desc>NVIC_ClearPendingIRQ(EGU1)</desc>
			<rect x="0" y="307.888" width="152.504" height="19" class="st4"/>
			<text x="5.39" y="320.39" class="st16">NVIC_ClearPendingIRQ(EGU1)</text>		</g>
		<g id="shape887-79" transform="translate(438.183,-114.776)">
			<title>Dynamic connector.887</title>
			<path d="M7.09 326.89 C81.45 328.25 81.45 347.24 7.09 347.24" class="st14"/>
		</g>
		<g id="shape888-84" transform="translate(239.349,-130.982)">
			<title>Dynamic connector.888</title>
			<path d="M6.68 319.8 L7.04 319.8 L203.15 319.8" class="st13"/>
		</g>
		<g id="shape890-89" transform="translate(238.337,-111.604)">
			<title>Dynamic connector.890</title>
			<path d="M0 319.8 L192.5 319.8" class="st11"/>
		</g>
		<g id="shape891-94" transform="translate(167.214,-54.8797)">
			<title>Rectangle.891</title>
			<desc>Data ready for consumption by the application</desc>
			<rect x="0" y="298.702" width="135.449" height="28.1856" class="st17"/>
			<text x="6.3" y="309.8" class="st7">Data ready for consumption <tspan x="28.81" dy="1.2em" class="st18">by the application</tspan></text>		</g>
		<g id="shape892-98" transform="translate(27.9057,-30.6434)">
			<title>Sheet.892</title>
			<desc>recv(handle,buffer)</desc>
			<rect x="0" y="307.888" width="139.308" height="19" class="st4"/>
			<text x="23.49" y="320.69" class="st10">recv(handle,buffer)</text>		</g>
		<g id="shape893-101" transform="translate(27.9025,-22.3498)">
			<title>Dynamic connector.893</title>
			<path d="M0 319.8 L199.73 319.8" class="st11"/>
		</g>
		<g id="shape894-106" transform="translate(241.253,-39.1474)">
			<title>Dynamic connector.894</title>
			<path d="M0 319.8 L193.15 319.8" class="st19"/>
		</g>
		<g id="shape896-111" transform="translate(239.56,-83.4185)">
			<title>Dynamic connector.896</title>
			<path d="M6.68 319.8 L7.04 319.8 L198.82 319.8" class="st20"/>
		</g>
		<g id="shape897-116" transform="translate(20.8191,-264.316)">
			<title>Dynamic connector.897</title>
			<path d="M7.09 326.89 L7.09 342.72" class="st3"/>
		</g>
		<g id="shape898-119" transform="translate(20.8191,-248.48)">
			<title>Dynamic connector.898</title>
			<path d="M7.09 326.89 L7.09 541.89" class="st21"/>
		</g>
		<g id="shape899-122" transform="translate(20.8191,-37.7301)">
			<title>Dynamic connector.899</title>
			<path d="M7.09 326.89 L7.09 351.07" class="st3"/>
		</g>
		<g id="shape900-125" transform="translate(20.8191,-15.8866)">
			<title>Dynamic connector.900</title>
			<path d="M7.09 329.22 L7.09 338.73" class="st21"/>
		</g>
		<g id="shape901-128" transform="translate(226.863,-264.316)">
			<title>Dynamic connector.901</title>
			<path d="M7.09 326.89 L7.09 342.72" class="st3"/>
		</g>
		<g id="shape902-131" transform="translate(227.357,-248.48)">
			<title>Dynamic connector.902</title>
			<path d="M6.59 326.89 L7.58 431.34" class="st21"/>
		</g>
		<g id="shape903-134" transform="translate(227.852,-46.234)">
			<title>Dynamic connector.903</title>
			<path d="M7.09 326.89 L7.09 344.48" class="st21"/>
		</g>
		<g id="shape904-137" transform="translate(228.117,-15.9164)">
			<title>Dynamic connector.904</title>
			<path d="M7.09 329.22 L7.09 338.73" class="st21"/>
		</g>
		<g id="shape905-140" transform="translate(227.984,-28.9904)">
			<title>Dynamic connector.905</title>
			<path d="M6.95 326.89 L7.22 342.3" class="st3"/>
		</g>
		<g id="shape906-143" transform="translate(434.737,-264.316)">
			<title>Dynamic connector.906</title>
			<path d="M7.09 326.89 L7.09 342.72" class="st3"/>
		</g>
		<g id="shape907-146" transform="translate(448.91,-248.48)">
			<title>Dynamic connector.907</title>
			<path d="M-7.09 326.89 L-7.09 455.43" class="st21"/>
		</g>
		<g id="shape908-149" transform="translate(434.737,-90.5051)">
			<title>Dynamic connector.908</title>
			<path d="M7.09 326.89 L7.09 382.5" class="st21"/>
		</g>
		<g id="shape909-152" transform="translate(434.638,-21.8214)">
			<title>Dynamic connector.909</title>
			<path d="M7.09 329.22 L7.09 338.73" class="st21"/>
		</g>
		<g id="shape910-155" transform="translate(448.91,-34.8954)">
			<title>Dynamic connector.910</title>
			<path d="M-6.99 326.89 L-7.19 342.3" class="st3"/>
		</g>
		<g id="shape913-158" transform="translate(438.378,-90.5051)">
			<title>path544.913</title>
			<path d="M0 297.46 L6.89 297.46 L6.89 326.89 L0 326.89 L0 297.46 Z" class="st1"/>
		</g>
	</g>
</svg>
