<?xml version="1.0" encoding="UTF-8" standalone="no"?>
<!DOCTYPE svg PUBLIC "-//W3C//DTD SVG 1.1//EN" "http://www.w3.org/Graphics/SVG/1.1/DTD/svg11.dtd">
<!-- Generated by Microsoft Visio, SVG Export msc_trace.svg Page-1 -->
<svg xmlns="http://www.w3.org/2000/svg" xmlns:xlink="http://www.w3.org/1999/xlink" xmlns:ev="http://www.w3.org/2001/xml-events"
		width="8.00032in" height="6.12742in" viewBox="0 0 576.023 441.174" xml:space="preserve" color-interpolation-filters="sRGB"
		class="st22">
	<style type="text/css">
	<![CDATA[
		.st1 {fill:none;stroke:#333f48;stroke-dasharray:8,4;stroke-linecap:butt;stroke-width:1}
		.st2 {stroke:#333f48;stroke-dasharray:8,4;stroke-linecap:butt;stroke-width:1}
		.st3 {fill:none;stroke:none;stroke-width:1}
		.st4 {fill:#333f48;font-family:Arial;font-size:1.16666em}
		.st5 {fill:#00a9ce;stroke:none;stroke-width:1}
		.st6 {fill:#feffff;font-family:Arial;font-size:0.833336em}
		.st7 {fill:#333f48;font-family:Arial;font-size:0.833336em}
		.st8 {marker-end:url(#mrkr4-31);stroke:#333f48;stroke-linecap:butt;stroke-width:1}
		.st9 {fill:#333f48;fill-opacity:1;stroke:#333f48;stroke-opacity:1;stroke-width:0.28409090909091}
		.st10 {stroke:#333f48;stroke-dasharray:1,2;stroke-linecap:butt;stroke-width:1}
		.st11 {fill:#0033a0;stroke:none;stroke-width:1}
		.st12 {font-size:1em}
		.st13 {stroke:#333f48;stroke-dasharray:1,4;stroke-linecap:butt;stroke-width:1}
		.st14 {marker-start:url(#mrkr4-96);stroke:#333f48;stroke-linecap:butt;stroke-width:1}
		.st15 {marker-end:url(#mrkr4-31);stroke:#333f48;stroke-dasharray:4,2;stroke-linecap:butt;stroke-width:1}
		.st16 {marker-start:url(#mrkr4-96);stroke:#333f48;stroke-dasharray:4,2;stroke-linecap:butt;stroke-width:1}
		.st17 {fill:#333f48;font-family:Arial;font-size:0.916672em}
		.st18 {marker-end:url(#mrkr4-119);stroke:#333f48;stroke-linecap:butt;stroke-width:1}
		.st19 {fill:#333f48;font-family:Arial;font-size:0.75em}
		.st20 {fill:#768692;font-family:Arial;font-size:0.833336em}
		.st21 {stroke:#768692;stroke-dasharray:8,4;stroke-linecap:butt;stroke-width:1}
		.st22 {fill:none;fill-rule:evenodd;font-size:12px;overflow:visible;stroke-linecap:square;stroke-miterlimit:3}
	]]>
	</style>

	<defs id="Markers">
		<g id="lend4">
			<path d="M 2 1 L 0 0 L 2 -1 L 2 1 " style="stroke:none"/>
		</g>
		<marker id="mrkr4-31" class="st9" refX="-7.04" orient="auto" markerUnits="strokeWidth" overflow="visible">
			<use xlink:href="#lend4" transform="scale(-3.52,-3.52) "/>
		</marker>
		<marker id="mrkr4-96" class="st9" refX="6.68" orient="auto" markerUnits="strokeWidth" overflow="visible">
			<use xlink:href="#lend4" transform="scale(3.52) "/>
		</marker>
		<marker id="mrkr4-119" class="st9" refX="-0" orient="auto" markerUnits="strokeWidth" overflow="visible">
			<use xlink:href="#lend4" transform="scale(-3.52,-3.52) "/>
		</marker>
	</defs>
	<g>
		<title>Page-1</title>
		<g id="shape2088-1" transform="translate(439.481,-80.7436)">
			<title>path544.2088</title>
			<path d="M0 401.7 L6.89 401.7 L6.89 441.17 L0 441.17 L0 401.7 Z" class="st1"/>
		</g>
		<g id="shape2073-3" transform="translate(227.967,-67.4155)">
			<title>Dynamic connector.2073</title>
			<path d="M7.09 441.17 L7.09 473.87" class="st2"/>
		</g>
		<g id="shape2062-6" transform="translate(439.481,-147.188)">
			<title>path544.2062</title>
			<path d="M0 404.98 L6.89 404.98 L6.89 441.17 L0 441.17 L0 404.98 Z" class="st1"/>
		</g>
		<g id="shape2071-8" transform="translate(435.841,-147.188)">
			<title>Dynamic connector.2071</title>
			<path d="M7.09 441.17 L7.09 468.15" class="st2"/>
		</g>
		<g id="shape865-11" transform="translate(188.277,-421.174)">
			<title>Sheet.865</title>
			<desc>Trace handling, lowering priority</desc>
			<rect x="0" y="422.174" width="208.358" height="19" class="st3"/>
			<text x="4.97" y="435.87" class="st4">Trace handling, lowering priority</text>		</g>
		<g id="shape867-14" transform="translate(7.99831,-378.469)">
			<title>Rectangle</title>
			<desc>App</desc>
			<rect x="0" y="415.804" width="33.8268" height="25.3701" class="st5"/>
			<text x="8.02" y="431.49" class="st6">App</text>		</g>
		<g id="shape868-17" transform="translate(204.507,-378.469)">
			<title>Rectangle.868</title>
			<desc>nrf_modem</desc>
			<rect x="0" y="415.804" width="62.5397" height="25.3701" class="st5"/>
			<text x="5.98" y="431.49" class="st6">nrf_modem</text>		</g>
		<g id="shape869-20" transform="translate(396.635,-378.469)">
			<title>Rectangle.869</title>
			<desc>nrf_modem_os.c</desc>
			<rect x="0" y="415.804" width="92.7803" height="25.3701" class="st5"/>
			<text x="9.15" y="431.49" class="st6">nrf_modem_os.c</text>		</g>
		<g id="shape872-23" transform="translate(29.0095,-351.513)">
			<title>Sheet.872</title>
			<desc>IPC_IRQHandler (Priority 0)</desc>
			<rect x="0" y="422.174" width="206.044" height="19" class="st3"/>
			<text x="41.06" y="434.67" class="st7">IPC_IRQHandler (Priority 0)</text>		</g>
		<g id="shape874-26" transform="translate(7.87096,-343.541)">
			<title>Dynamic connector.874</title>
			<path d="M0 434.09 L14.68 434.09 A2.3622 2.3622 0 1 1 19.4 434.09 L220.14 434.09" class="st8"/>
		</g>
		<g id="shape897-32" transform="translate(17.8251,-378.469)">
			<title>Dynamic connector.897</title>
			<path d="M7.09 441.17 L7.09 457.01" class="st10"/>
		</g>
		<g id="shape899-35" transform="translate(17.939,-38.4971)">
			<title>Dynamic connector.899</title>
			<path d="M6.88 441.17 L7.3 462.37" class="st10"/>
		</g>
		<g id="shape900-38" transform="translate(18.1475,-19.6335)">
			<title>Dynamic connector.900</title>
			<path d="M7.09 443.51 L7.09 453.01" class="st2"/>
		</g>
		<g id="shape901-41" transform="translate(227.967,-378.469)">
			<title>Dynamic connector.901</title>
			<path d="M7.09 441.17 L7.09 457.01" class="st10"/>
		</g>
		<g id="shape902-44" transform="translate(242.14,-362.633)">
			<title>Dynamic connector.902</title>
			<path d="M-7.09 441.17 L-7.09 594.07" class="st2"/>
		</g>
		<g id="shape904-47" transform="translate(227.967,-20.0441)">
			<title>Dynamic connector.904</title>
			<path d="M7.09 443.51 L7.09 453.01" class="st2"/>
		</g>
		<g id="shape905-50" transform="translate(227.967,-37.7187)">
			<title>Dynamic connector.905</title>
			<path d="M7.09 441.17 L7.09 461.18" class="st10"/>
		</g>
		<g id="shape906-53" transform="translate(435.792,-378.469)">
			<title>Dynamic connector.906</title>
			<path d="M7.09 441.17 L7.09 457.01" class="st10"/>
		</g>
		<g id="shape907-56" transform="translate(435.816,-362.633)">
			<title>Dynamic connector.907</title>
			<path d="M7.06 441.17 L7.11 620.42" class="st2"/>
		</g>
		<g id="shape909-59" transform="translate(435.841,-15.8866)">
			<title>Dynamic connector.909</title>
			<path d="M7.09 443.51 L7.09 453.01" class="st2"/>
		</g>
		<g id="shape910-62" transform="translate(435.841,-35.6624)">
			<title>Dynamic connector.910</title>
			<path d="M7.09 441.17 L7.09 463.28" class="st10"/>
		</g>
		<g id="shape2034-65" transform="translate(236.675,-313.672)">
			<title>Dynamic connector.2034</title>
			<path d="M0 434.09 L198.33 434.09" class="st8"/>
		</g>
		<g id="shape2035-70" transform="translate(234.569,-320.271)">
			<title>Sheet.2035</title>
			<desc>nrf_modem_os_trace_irq_set()</desc>
			<rect x="0" y="419.641" width="208.358" height="21.5332" class="st3"/>
			<text x="35.81" y="433.41" class="st7">nrf_modem_os_trace_irq_set()</text>		</g>
		<g id="shape2038-73" transform="translate(360.156,-86.6728)">
			<title>Rectangle.2038</title>
			<desc>Store the buffer to desired medium (UART, SD card etc.)</desc>
			<rect x="0" y="414.232" width="142.709" height="26.9424" class="st11"/>
			<text x="13.54" y="424.7" class="st6">Store the buffer to desired <tspan x="4.95" dy="1.2em" class="st12">medium (UART, SD card etc.)</tspan></text>		</g>
		<g id="shape2056-77" transform="translate(567.449,-244.7)">
			<title>Dynamic connector.2056</title>
			<path d="M0 434.09 L-122.18 434.09 A2.3622 2.3622 -180 0 0 -126.9 434.09 L-330.03 434.09 A2.3622 2.3622 -180 0 0 -334.76
						 434.09 L-540.21 434.09 A2.3622 2.3622 -180 0 0 -544.93 434.09 L-560.1 434.09" class="st13"/>
		</g>
		<g id="shape2057-80" transform="translate(235.813,-253.305)">
			<title>Sheet.2057</title>
			<desc>Waiting for EGU2 to hit...</desc>
			<rect x="0" y="427.53" width="119.875" height="13.6441" class="st3"/>
			<text x="4.64" y="437.35" class="st7">Waiting for EGU2 to hit...</text>		</g>
		<g id="shape2058-83" transform="translate(442.973,-216.823)">
			<title>Dynamic connector.2058</title>
			<path d="M0 448.26 L-196.39 448.26" class="st8"/>
		</g>
		<g id="shape2059-88" transform="translate(244.502,-209.99)">
			<title>Sheet.2059</title>
			<desc>nrf_modem_os_trace_irq_handler()</desc>
			<rect x="0" y="422.174" width="198.425" height="19" class="st3"/>
			<text x="20.84" y="434.67" class="st7">nrf_modem_os_trace_irq_handler()</text>		</g>
		<g id="shape2060-91" transform="translate(439.481,-190.47)">
			<title>Dynamic connector.2060</title>
			<path d="M-6.68 448.26 L-7.04 448.26 L-200.65 448.26" class="st14"/>
		</g>
		<g id="shape2061-97" transform="translate(244.046,-183.865)">
			<title>Sheet.2061</title>
			<desc>nrf_modem_os_trace_irq_clear()</desc>
			<rect x="0" y="422.174" width="198.425" height="19" class="st3"/>
			<text x="26.68" y="434.67" class="st7">nrf_modem_os_trace_irq_clear()</text>		</g>
		<g id="shape2063-100" transform="translate(439.426,-140.102)">
			<title>Dynamic connector.2063</title>
			<path d="M0 434.09 L-193.97 434.09" class="st15"/>
		</g>
		<g id="shape2064-105" transform="translate(442.421,-60.3289)">
			<title>Dynamic connector.2064</title>
			<path d="M-6.68 434.09 L-7.04 434.09 L-203.92 434.09" class="st16"/>
		</g>
		<g id="group2070-110" transform="translate(265.528,-156.831)">
			<title>Sheet.2070</title>
			<g id="shape2044-111">
				<title>Sheet.2044</title>
				<desc>NVIC_ClearPendingIRQ(EGU2)</desc>
				<rect x="0" y="422.174" width="174.052" height="19" class="st3"/>
				<text x="14.16" y="434.97" class="st17">NVIC_ClearPendingIRQ(EGU2)</text>			</g>
			<g id="shape2048-114" transform="translate(174.109,-16.5866)">
				<title>Dynamic connector.2048</title>
				<path d="M7.09 444.72 C114.8 443.3 116.22 454.64 7.09 451.8" class="st18"/>
			</g>
		</g>
		<g id="shape2072-120" transform="translate(231.607,-67.4155)">
			<title>path544.2072</title>
			<path d="M0 298.85 L6.89 298.85 L6.89 441.17 L0 441.17 L0 298.85 Z" class="st1"/>
		</g>
		<g id="shape2075-122" transform="translate(568.152,-219.55)">
			<title>Dynamic connector.2075</title>
			<path d="M0 434.09 L-118.23 434.09" class="st8"/>
		</g>
		<g id="shape2076-127" transform="translate(442.927,-226.892)">
			<title>Sheet.2076</title>
			<desc>EGU2_IRQHandler (Priority 6)</desc>
			<rect x="0" y="422.174" width="130.394" height="19" class="st3"/>
			<text x="4.68" y="434.37" class="st19">EGU2_IRQHandler (Priority 6)</text>		</g>
		<g id="shape2080-130" transform="translate(59.7629,-316.609)">
			<title>Sheet.2080</title>
			<desc>Trace events</desc>
			<rect x="0" y="427.53" width="74.6755" height="13.6441" class="st3"/>
			<text x="8.44" y="437.35" class="st20">Trace events</text>		</g>
		<g id="shape2081-133" transform="translate(46.0771,-350.627)">
			<title>Dynamic connector</title>
			<path d="M0 441.17 L0 453.68 L51.02 453.68 L51.02 461.55" class="st21"/>
		</g>
		<g id="shape2082-136" transform="translate(31.9511,-362.633)">
			<title>Dynamic connector.2082</title>
			<path d="M-7.04 441.17 L-7.13 765.31" class="st2"/>
		</g>
		<g id="shape2083-139" transform="translate(442.927,-272.077)">
			<title>Dynamic connector.2083</title>
			<path d="M0 434.09 L-200.24 434.09" class="st8"/>
		</g>
		<g id="group2084-144" transform="translate(265.528,-290.778)">
			<title>Sheet.2084</title>
			<g id="shape880-145" transform="translate(174.109,-16.5866)">
				<title>Dynamic connector.880</title>
				<path d="M7.09 444.72 C114.8 443.3 116.22 454.64 7.09 451.8" class="st18"/>
			</g>
			<g id="shape2042-150">
				<title>Sheet.2042</title>
				<desc>NVIC_SetPendingIRQ(EGU2)</desc>
				<rect x="0" y="422.174" width="174.052" height="19" class="st3"/>
				<text x="23.94" y="434.97" class="st17">NVIC_SetPendingIRQ(EGU2)</text>			</g>
		</g>
		<g id="shape2085-153" transform="translate(442.927,-68.5966)">
			<title>Dynamic connector.2085</title>
			<path d="M0 434.09 L-197.39 434.09" class="st15"/>
		</g>
		<g id="shape2086-158" transform="translate(439.176,-113.131)">
			<title>Dynamic connector.2086</title>
			<path d="M-6.68 434.09 L-7.04 434.09 L-199.89 434.09" class="st14"/>
		</g>
		<g id="shape2087-163" transform="translate(238.5,-120.699)">
			<title>Sheet.2087</title>
			<desc>nrf_modem_os_trace_put(buffer)</desc>
			<rect x="0" y="422.174" width="198.425" height="19" class="st3"/>
			<text x="26.12" y="434.67" class="st7">nrf_modem_os_trace_put(buffer)</text>		</g>
		<g id="shape2089-166" transform="translate(449.964,-80.7436)">
			<title>Dynamic connector.2089</title>
			<path d="M-7.04 441.17 L-7.14 488.52" class="st2"/>
		</g>
	</g>
</svg>
