<?xml version="1.0" encoding="UTF-8" standalone="no"?>
<!DOCTYPE svg PUBLIC "-//W3C//DTD SVG 1.1//EN" "http://www.w3.org/Graphics/SVG/1.1/DTD/svg11.dtd">
<!-- Generated by Microsoft Visio, SVG Export msc_init.svg Page-1 -->
<svg xmlns="http://www.w3.org/2000/svg" xmlns:xlink="http://www.w3.org/1999/xlink" xmlns:ev="http://www.w3.org/2001/xml-events"
		width="7.83818in" height="7.01226in" viewBox="0 0 564.349 504.883" xml:space="preserve" color-interpolation-filters="sRGB"
		class="st17">
	<style type="text/css">
	<![CDATA[
		.st1 {fill:none;stroke:none;stroke-width:1}
		.st2 {fill:#333f48;font-family:Arial;font-size:1.16666em}
		.st3 {fill:#00a9ce;stroke:none;stroke-width:1}
		.st4 {fill:#feffff;font-family:Arial;font-size:0.833336em}
		.st5 {fill:#333f48;font-family:Arial;font-size:0.916672em}
		.st6 {marker-end:url(#mrkr4-21);stroke:#333f48;stroke-linecap:butt;stroke-width:1}
		.st7 {fill:#333f48;fill-opacity:1;stroke:#333f48;stroke-opacity:1;stroke-width:0.28409090909091}
		.st8 {marker-end:url(#mrkr4-27);stroke:#333f48;stroke-linecap:butt;stroke-width:1}
		.st9 {fill:none;stroke:#00a9ce;stroke-width:1}
		.st10 {marker-end:url(#mrkr4-21);stroke:#333f48;stroke-dasharray:4,2;stroke-linecap:butt;stroke-width:1}
		.st11 {stroke:#333f48;stroke-dasharray:1,2;stroke-linecap:butt;stroke-width:1}
		.st12 {stroke:#333f48;stroke-dasharray:8,4;stroke-linecap:butt;stroke-width:1}
		.st13 {fill:#0033a0;stroke:none;stroke-width:1}
		.st14 {fill:#00a9ce;font-family:Arial;font-size:0.916672em}
		.st15 {font-size:1em}
		.st16 {stroke:#00a9ce;stroke-dasharray:4,2;stroke-linecap:butt;stroke-width:1}
		.st17 {fill:none;fill-rule:evenodd;font-size:12px;overflow:visible;stroke-linecap:square;stroke-miterlimit:3}
	]]>
	</style>

	<defs id="Markers">
		<g id="lend4">
			<path d="M 2 1 L 0 0 L 2 -1 L 2 1 " style="stroke:none"/>
		</g>
		<marker id="mrkr4-21" class="st7" refX="-7.04" orient="auto" markerUnits="strokeWidth" overflow="visible">
			<use xlink:href="#lend4" transform="scale(-3.52,-3.52) "/>
		</marker>
		<marker id="mrkr4-27" class="st7" refX="-0" orient="auto" markerUnits="strokeWidth" overflow="visible">
			<use xlink:href="#lend4" transform="scale(-3.52,-3.52) "/>
		</marker>
	</defs>
	<g>
		<title>Page-1</title>
		<g id="shape865-1" transform="translate(203.403,-484.883)">
			<title>Sheet.865</title>
			<desc>Initialization (main thread)</desc>
			<rect x="0" y="485.883" width="208.358" height="19" class="st1"/>
			<text x="24.03" y="499.58" class="st2">Initialization (main thread)</text>		</g>
		<g id="shape867-4" transform="translate(10.9924,-442.178)">
			<title>Rectangle</title>
			<desc>App</desc>
			<rect x="0" y="479.513" width="33.8268" height="25.3701" class="st3"/>
			<text x="8.02" y="495.2" class="st4">App</text>		</g>
		<g id="shape868-7" transform="translate(203.403,-442.178)">
			<title>Rectangle.868</title>
			<desc>nrf_modem</desc>
			<rect x="0" y="479.513" width="62.5397" height="25.3701" class="st3"/>
			<text x="5.98" y="495.2" class="st4">nrf_modem</text>		</g>
		<g id="shape869-10" transform="translate(395.581,-442.178)">
			<title>Rectangle.869</title>
			<desc>nrf_modem_os.c</desc>
			<rect x="0" y="479.513" width="92.7803" height="25.3701" class="st3"/>
			<text x="9.15" y="495.2" class="st4">nrf_modem_os.c</text>		</g>
		<g id="shape872-13" transform="translate(46.6712,-414.336)">
			<title>Sheet.872</title>
			<desc>nrf_modem_init()</desc>
			<rect x="0" y="485.883" width="145.068" height="19" class="st1"/>
			<text x="30.96" y="498.68" class="st5">nrf_modem_init()</text>		</g>
		<g id="shape874-16" transform="translate(7.87096,-407.25)">
			<title>Dynamic connector.874</title>
			<path d="M0 497.8 L17.67 497.8 A2.3622 2.3622 0 0 1 22.4 497.8 L219.04 497.8" class="st6"/>
		</g>
		<g id="shape880-22" transform="translate(438.534,-248.899)">
			<title>Dynamic connector.880</title>
			<path d="M7.09 508.43 C114.8 507.01 116.22 518.35 7.09 515.51" class="st8"/>
		</g>
		<g id="shape891-28" transform="translate(262.877,-127.151)">
			<title>Rectangle.891</title>
			<rect x="0" y="319.482" width="300.472" height="185.401" class="st9"/>
		</g>
		<g id="shape894-30" transform="translate(441.233,-46.9302)">
			<title>Dynamic connector.894</title>
			<path d="M0 497.8 L-199.87 497.8" class="st10"/>
		</g>
		<g id="shape897-35" transform="translate(20.8191,-442.178)">
			<title>Dynamic connector.897</title>
			<path d="M7.09 504.88 L7.09 520.72" class="st11"/>
		</g>
		<g id="shape898-38" transform="translate(20.8191,-426.341)">
			<title>Dynamic connector.898</title>
			<path d="M7.09 504.88 L7.09 891.38" class="st12"/>
		</g>
		<g id="shape899-41" transform="translate(20.8191,-39.8436)">
			<title>Dynamic connector.899</title>
			<path d="M7.09 504.88 L7.09 529.06" class="st11"/>
		</g>
		<g id="shape900-44" transform="translate(20.8191,-18.0002)">
			<title>Dynamic connector.900</title>
			<path d="M7.09 507.22 L7.09 516.72" class="st12"/>
		</g>
		<g id="shape901-47" transform="translate(226.863,-442.178)">
			<title>Dynamic connector.901</title>
			<path d="M7.09 504.88 L7.09 520.72" class="st11"/>
		</g>
		<g id="shape902-50" transform="translate(227.357,-426.341)">
			<title>Dynamic connector.902</title>
			<path d="M6.59 504.88 L7.58 900.12" class="st12"/>
		</g>
		<g id="shape904-53" transform="translate(228.117,-18.03)">
			<title>Dynamic connector.904</title>
			<path d="M7.09 507.22 L7.09 516.72" class="st12"/>
		</g>
		<g id="shape905-56" transform="translate(227.984,-31.104)">
			<title>Dynamic connector.905</title>
			<path d="M6.95 504.88 L7.22 520.29" class="st11"/>
		</g>
		<g id="shape906-59" transform="translate(434.737,-442.178)">
			<title>Dynamic connector.906</title>
			<path d="M7.09 504.88 L7.09 520.72" class="st11"/>
		</g>
		<g id="shape907-62" transform="translate(434.787,-426.341)">
			<title>Dynamic connector.907</title>
			<path d="M7.04 504.88 L7.14 902.26" class="st12"/>
		</g>
		<g id="shape909-65" transform="translate(434.638,-15.8866)">
			<title>Dynamic connector.909</title>
			<path d="M7.09 507.22 L7.09 516.72" class="st12"/>
		</g>
		<g id="shape910-68" transform="translate(448.91,-28.9606)">
			<title>Dynamic connector.910</title>
			<path d="M-6.99 504.88 L-7.19 520.29" class="st11"/>
		</g>
		<g id="shape2032-71" transform="translate(184.251,-384.53)">
			<title>Rectangle.2032</title>
			<desc>Set up subsystems</desc>
			<rect x="0" y="485.883" width="102.965" height="19" class="st13"/>
			<text x="9.24" y="498.38" class="st4">Set up subsystems</text>		</g>
		<g id="shape2033-74" transform="translate(163.2,-361.736)">
			<title>Rectangle.2033</title>
			<desc>Configure IPC_IRQ priority 0</desc>
			<rect x="0" y="485.883" width="145.068" height="19" class="st13"/>
			<text x="8.9" y="498.38" class="st4">Configure IPC_IRQ priority 0</text>		</g>
		<g id="shape2034-77" transform="translate(235.572,-326.426)">
			<title>Dynamic connector.2034</title>
			<path d="M0 497.8 L198.33 497.8" class="st6"/>
		</g>
		<g id="shape2035-82" transform="translate(268.409,-333.789)">
			<title>Sheet.2035</title>
			<desc>nrf_modem_os_init()</desc>
			<rect x="0" y="485.883" width="145.068" height="19" class="st1"/>
			<text x="22.1" y="498.68" class="st5">nrf_modem_os_init()</text>		</g>
		<g id="shape2036-85" transform="translate(234.919,-32.2954)">
			<title>Dynamic connector.2036</title>
			<path d="M0 498.26 L-199.97 497.37" class="st10"/>
		</g>
		<g id="shape2037-90" transform="translate(375.084,-97.3791)">
			<title>Rectangle.2037</title>
			<desc>Configure timers/threads</desc>
			<rect x="0" y="485.883" width="122.14" height="19" class="st13"/>
			<text x="6.32" y="498.38" class="st4">Configure timers/threads</text>		</g>
		<g id="shape2038-93" transform="translate(353.824,-73.3532)">
			<title>Rectangle.2038</title>
			<desc>Optional: Configure Trace medium</desc>
			<rect x="0" y="485.883" width="164.66" height="19" class="st13"/>
			<text x="5.91" y="498.38" class="st4">Optional: Configure Trace medium</text>		</g>
		<g id="shape2039-96" transform="translate(267.772,-274.992)">
			<title>Sheet.2039</title>
			<desc>Configure low priority scheduling IRQ and Trace IRQ</desc>
			<rect x="0" y="467.324" width="174.052" height="37.5593" class="st1"/>
			<text x="4" y="482.8" class="st14">Configure low priority scheduling <tspan x="4" dy="1.2em" class="st15">IRQ and Trace IRQ</tspan></text>		</g>
		<g id="shape2041-100" transform="translate(329.322,-253.603)">
			<title>Rectangle.2041</title>
			<desc>Configure NRF_MODEM_APPLICATION_IRQ</desc>
			<rect x="0" y="485.883" width="225.003" height="19" class="st13"/>
			<text x="9.7" y="498.38" class="st4">Configure NRF_MODEM_APPLICATION_IRQ</text>		</g>
		<g id="shape2042-103" transform="translate(264.425,-206.803)">
			<title>Sheet.2042</title>
			<desc>NVIC_SetPriority(EGU1,6) NVIC_ClearPendingIRQ(EGU1) NVIC_Enab...</desc>
			<rect x="0" y="467.324" width="174.052" height="37.5593" class="st1"/>
			<text x="40.46" y="476.2" class="st5">NVIC_SetPriority(EGU1,6) <tspan x="14.16" dy="1.2em" class="st15">NVIC_ClearPendingIRQ(EGU1) </tspan><tspan
						x="46.56" dy="1.2em" class="st15">NVIC_EnableIRQ(EGU1)</tspan></text>		</g>
		<g id="shape2043-108" transform="translate(333.193,-178.562)">
			<title>Rectangle.2043</title>
			<desc>Configure NRF_MODEM_TRACE_IRQ</desc>
			<rect x="0" y="485.883" width="184.758" height="19" class="st13"/>
			<text x="5.69" y="498.38" class="st4">Configure NRF_MODEM_TRACE_IRQ</text>		</g>
		<g id="shape2044-111" transform="translate(264.425,-131.761)">
			<title>Sheet.2044</title>
			<desc>NVIC_SetPriority(EGU2,6) NVIC_ClearPendingIRQ(EGU2) NVIC_Enab...</desc>
			<rect x="0" y="467.324" width="174.052" height="37.5593" class="st1"/>
			<text x="40.46" y="476.2" class="st5">NVIC_SetPriority(EGU2,6) <tspan x="14.16" dy="1.2em" class="st15">NVIC_ClearPendingIRQ(EGU2) </tspan><tspan
						x="46.56" dy="1.2em" class="st15">NVIC_EnableIRQ(EGU2)</tspan></text>		</g>
		<g id="shape2046-116" transform="translate(438.534,-234.726)">
			<title>Dynamic connector.2046</title>
			<path d="M7.09 508.43 C114.8 507.01 116.22 518.35 7.09 515.51" class="st8"/>
		</g>
		<g id="shape2047-121" transform="translate(438.534,-220.552)">
			<title>Dynamic connector.2047</title>
			<path d="M7.09 508.43 C114.8 507.01 116.22 518.35 7.09 515.51" class="st8"/>
		</g>
		<g id="shape2048-126" transform="translate(438.534,-173.072)">
			<title>Dynamic connector.2048</title>
			<path d="M7.09 508.43 C114.8 507.01 116.22 518.35 7.09 515.51" class="st8"/>
		</g>
		<g id="shape2049-131" transform="translate(438.534,-158.899)">
			<title>Dynamic connector.2049</title>
			<path d="M7.09 508.43 C114.8 507.01 116.22 518.35 7.09 515.51" class="st8"/>
		</g>
		<g id="shape2050-136" transform="translate(438.534,-144.726)">
			<title>Dynamic connector.2050</title>
			<path d="M7.09 508.43 C114.8 507.01 116.22 518.35 7.09 515.51" class="st8"/>
		</g>
		<g id="shape2051-141" transform="translate(97.3855,-205.206)">
			<title>Sheet.2051</title>
			<desc>Sample shows EDU1 and EDU2 to be used</desc>
			<rect x="0" y="475.962" width="117.667" height="28.9213" class="st1"/>
			<text x="6.87" y="487.12" class="st14">Sample shows EDU1 <tspan x="6.24" dy="1.2em" class="st15">and EDU2 to be used</tspan></text>		</g>
		<g id="shape2052-145" transform="translate(215.052,-212.672)">
			<title>Dynamic connector</title>
			<path d="M0 497.89 L17.05 497.82 A2.3622 2.3622 0 1 1 21.78 497.8 L47.82 497.7" class="st16"/>
		</g>
	</g>
</svg>
