<?xml version="1.0" encoding="UTF-8" standalone="no"?>
<!DOCTYPE svg PUBLIC "-//W3C//DTD SVG 1.1//EN" "http://www.w3.org/Graphics/SVG/1.1/DTD/svg11.dtd">
<!-- Generated by Microsoft Visio, SVG Export msc_timers.svg Page-1 -->
<svg xmlns="http://www.w3.org/2000/svg" xmlns:xlink="http://www.w3.org/1999/xlink" xmlns:ev="http://www.w3.org/2001/xml-events"
		width="7.9321in" height="7.01226in" viewBox="0 0 571.111 504.883" xml:space="preserve" color-interpolation-filters="sRGB"
		class="st21">
	<style type="text/css">
	<![CDATA[
		.st1 {stroke:#333f48;stroke-dasharray:8,4;stroke-linecap:butt;stroke-width:1}
		.st2 {fill:none;stroke:#333f48;stroke-dasharray:8,4;stroke-linecap:butt;stroke-width:1}
		.st3 {fill:none;stroke:none;stroke-width:1}
		.st4 {fill:#333f48;font-family:Arial;font-size:1.16666em}
		.st5 {fill:#00a9ce;stroke:none;stroke-width:1}
		.st6 {fill:#feffff;font-family:Arial;font-size:0.833336em}
		.st7 {fill:#333f48;font-family:Arial;font-size:0.666664em}
		.st8 {marker-end:url(#mrkr4-29);stroke:#333f48;stroke-linecap:butt;stroke-width:1}
		.st9 {fill:#333f48;fill-opacity:1;stroke:#333f48;stroke-opacity:1;stroke-width:0.28409090909091}
		.st10 {stroke:#333f48;stroke-dasharray:1,2;stroke-linecap:butt;stroke-width:1}
		.st11 {fill:#333f48;font-family:Arial;font-size:0.833336em}
		.st12 {font-size:1em}
		.st13 {fill:#0033a0;stroke:none;stroke-width:1}
		.st14 {stroke:#333f48;stroke-dasharray:1,4;stroke-linecap:butt;stroke-width:1}
		.st15 {marker-start:url(#mrkr4-117);stroke:#333f48;stroke-linecap:butt;stroke-width:1}
		.st16 {marker-end:url(#mrkr4-29);stroke:#333f48;stroke-dasharray:4,2;stroke-linecap:butt;stroke-width:1}
		.st17 {marker-start:url(#mrkr4-117);stroke:#333f48;stroke-dasharray:4,2;stroke-linecap:butt;stroke-width:1}
		.st18 {fill:#333f48;font-family:Arial;font-size:0.916672em}
		.st19 {marker-end:url(#mrkr4-148);stroke:#333f48;stroke-linecap:butt;stroke-width:1}
		.st20 {fill:#333f48;font-family:Arial;font-size:0.75em}
		.st21 {fill:none;fill-rule:evenodd;font-size:12px;overflow:visible;stroke-linecap:square;stroke-miterlimit:3}
	]]>
	</style>

	<defs id="Markers">
		<g id="lend4">
			<path d="M 2 1 L 0 0 L 2 -1 L 2 1 " style="stroke:none"/>
		</g>
		<marker id="mrkr4-29" class="st9" refX="-7.04" orient="auto" markerUnits="strokeWidth" overflow="visible">
			<use xlink:href="#lend4" transform="scale(-3.52,-3.52) "/>
		</marker>
		<marker id="mrkr4-117" class="st9" refX="6.68" orient="auto" markerUnits="strokeWidth" overflow="visible">
			<use xlink:href="#lend4" transform="scale(3.52) "/>
		</marker>
		<marker id="mrkr4-148" class="st9" refX="-0" orient="auto" markerUnits="strokeWidth" overflow="visible">
			<use xlink:href="#lend4" transform="scale(-3.52,-3.52) "/>
		</marker>
	</defs>
	<g>
		<title>Page-1</title>
		<g id="shape2073-1" transform="translate(237.221,-130.552)">
			<title>Dynamic connector.2073</title>
			<path d="M-7.08 504.88 L-7.09 604.33" class="st1"/>
		</g>
		<g id="shape2062-4" transform="translate(434.57,-180.748)">
			<title>path544.2062</title>
			<path d="M0 475.96 L6.89 475.96 L6.89 504.88 L0 504.88 L0 475.96 Z" class="st2"/>
		</g>
		<g id="shape2071-6" transform="translate(430.979,-180.748)">
			<title>Dynamic connector.2071</title>
			<path d="M7.04 504.88 L7.14 656.67" class="st1"/>
		</g>
		<g id="shape865-9" transform="translate(199.595,-484.883)">
			<title>Sheet.865</title>
			<desc>Timers</desc>
			<rect x="0" y="485.883" width="208.358" height="19" class="st3"/>
			<text x="82.79" y="499.58" class="st4">Timers</text>		</g>
		<g id="shape867-12" transform="translate(3.08661,-442.178)">
			<title>Rectangle</title>
			<desc>App</desc>
			<rect x="0" y="479.513" width="33.8268" height="25.3701" class="st5"/>
			<text x="8.02" y="495.2" class="st6">App</text>		</g>
		<g id="shape868-15" transform="translate(199.595,-442.178)">
			<title>Rectangle.868</title>
			<desc>nrf_modem</desc>
			<rect x="0" y="479.513" width="62.5397" height="25.3701" class="st5"/>
			<text x="5.98" y="495.2" class="st6">nrf_modem</text>		</g>
		<g id="shape869-18" transform="translate(391.724,-442.178)">
			<title>Rectangle.869</title>
			<desc>nrf_modem_os.c</desc>
			<rect x="0" y="479.513" width="92.7803" height="25.3701" class="st5"/>
			<text x="9.15" y="495.2" class="st6">nrf_modem_os.c</text>		</g>
		<g id="shape872-21" transform="translate(24.0978,-415.222)">
			<title>Sheet.872</title>
			<desc>setsockopt(…, NRF_SO_RCVTIMEO,30 seconds)</desc>
			<rect x="0" y="485.883" width="206.044" height="19" class="st3"/>
			<text x="13.88" y="497.78" class="st7">setsockopt(…, NRF_SO_RCVTIMEO,30 seconds)</text>		</g>
		<g id="shape874-24" transform="translate(23.7441,-407.25)">
			<title>Dynamic connector.874</title>
			<path d="M0 497.8 L199.36 497.8" class="st8"/>
		</g>
		<g id="shape894-30" transform="translate(437.425,-89.4499)">
			<title>Dynamic connector.894</title>
			<path d="M0 497.8 L-199.8 497.8" class="st8"/>
		</g>
		<g id="shape897-35" transform="translate(12.9134,-442.178)">
			<title>Dynamic connector.897</title>
			<path d="M7.09 504.88 L7.09 520.72" class="st10"/>
		</g>
		<g id="shape898-38" transform="translate(12.9972,-426.341)">
			<title>Dynamic connector.898</title>
			<path d="M7 504.88 L7.17 538.47" class="st1"/>
		</g>
		<g id="shape899-41" transform="translate(13.2358,-39.8436)">
			<title>Dynamic connector.899</title>
			<path d="M7.09 504.88 L7.09 529.06" class="st10"/>
		</g>
		<g id="shape900-44" transform="translate(13.2358,-18.0002)">
			<title>Dynamic connector.900</title>
			<path d="M7.09 507.22 L7.09 516.72" class="st1"/>
		</g>
		<g id="shape901-47" transform="translate(223.055,-442.178)">
			<title>Dynamic connector.901</title>
			<path d="M7.09 504.88 L7.09 520.72" class="st10"/>
		</g>
		<g id="shape902-50" transform="translate(237.228,-426.341)">
			<title>Dynamic connector.902</title>
			<path d="M-7.09 504.88 L-7.09 695.2" class="st1"/>
		</g>
		<g id="shape904-53" transform="translate(223.305,-18.03)">
			<title>Dynamic connector.904</title>
			<path d="M7.09 507.22 L7.09 516.72" class="st1"/>
		</g>
		<g id="shape905-56" transform="translate(223.173,-31.104)">
			<title>Dynamic connector.905</title>
			<path d="M6.95 504.88 L7.22 520.29" class="st10"/>
		</g>
		<g id="shape906-59" transform="translate(430.88,-442.178)">
			<title>Dynamic connector.906</title>
			<path d="M7.09 504.88 L7.09 520.72" class="st10"/>
		</g>
		<g id="shape907-62" transform="translate(430.904,-426.341)">
			<title>Dynamic connector.907</title>
			<path d="M7.06 504.88 L7.11 721.56" class="st1"/>
		</g>
		<g id="shape909-65" transform="translate(430.83,-15.8866)">
			<title>Dynamic connector.909</title>
			<path d="M7.09 507.22 L7.09 516.72" class="st1"/>
		</g>
		<g id="shape910-68" transform="translate(445.102,-28.9606)">
			<title>Dynamic connector.910</title>
			<path d="M-6.99 504.88 L-7.19 520.29" class="st10"/>
		</g>
		<g id="shape2034-71" transform="translate(231.764,-339.959)">
			<title>Dynamic connector.2034</title>
			<path d="M0 497.8 L198.33 497.8" class="st8"/>
		</g>
		<g id="shape2035-76" transform="translate(229.658,-349.964)">
			<title>Sheet.2035</title>
			<desc>nrf_modem_os_timedwait(context, *remaining_timeout_in_out)</desc>
			<rect x="0" y="483.35" width="208.358" height="21.5332" class="st3"/>
			<text x="27.76" y="491.12" class="st11">nrf_modem_os_timedwait(context, <tspan x="43.03" dy="1.2em" class="st12">*remaining_timeout_in_out)</tspan></text>		</g>
		<g id="shape2036-80" transform="translate(223.646,-32.757)">
			<title>Dynamic connector.2036</title>
			<path d="M0 497.8 L-192.51 497.8" class="st8"/>
		</g>
		<g id="shape2038-85" transform="translate(378.078,-142.312)">
			<title>Rectangle.2038</title>
			<desc>Wake up timers/threads</desc>
			<rect x="0" y="485.883" width="119.875" height="19" class="st13"/>
			<text x="7.14" y="498.38" class="st6">Wake up timers/threads</text>		</g>
		<g id="shape2053-88" transform="translate(24.0978,-399.844)">
			<title>Dynamic connector.2053</title>
			<path d="M0 511.97 L198.41 511.97" class="st8"/>
		</g>
		<g id="shape2054-93" transform="translate(24.0978,-393.581)">
			<title>Sheet.2054</title>
			<desc>recv(buffer)</desc>
			<rect x="0" y="491.239" width="206.044" height="13.6441" class="st3"/>
			<text x="77.46" y="501.06" class="st11">recv(buffer)</text>		</g>
		<g id="shape2055-96" transform="translate(16.7215,-39.8436)">
			<title>path544.889</title>
			<path d="M0 151.97 L6.89 151.97 L6.89 504.88 L0 504.88 L0 151.97 Z" class="st2"/>
		</g>
		<g id="shape2056-98" transform="translate(519.006,-270.764)">
			<title>Dynamic connector.2056</title>
			<path d="M0 497.8 L-78.64 497.8 A2.3622 2.3622 -180 0 0 -83.37 497.8 L-286.5 497.8 A2.3622 2.3622 -180 0 0 -291.23 497.8
						 L-511.52 497.8" class="st14"/>
		</g>
		<g id="shape2057-101" transform="translate(230.901,-278.073)">
			<title>Sheet.2057</title>
			<desc>Waiting for EGU1 to hit...</desc>
			<rect x="0" y="491.239" width="119.875" height="13.6441" class="st3"/>
			<text x="4.64" y="501.06" class="st11">Waiting for EGU1 to hit...</text>		</g>
		<g id="shape2058-104" transform="translate(438.061,-243.109)">
			<title>Dynamic connector.2058</title>
			<path d="M0 511.97 L-196.39 511.97" class="st8"/>
		</g>
		<g id="shape2059-109" transform="translate(239.591,-236.277)">
			<title>Sheet.2059</title>
			<desc>nrf_modem_os_application_irq_handler()</desc>
			<rect x="0" y="485.883" width="198.425" height="19" class="st3"/>
			<text x="12.1" y="498.38" class="st11">nrf_modem_os_application_irq_handler()</text>		</g>
		<g id="shape2060-112" transform="translate(434.57,-202.583)">
			<title>Dynamic connector.2060</title>
			<path d="M-6.68 497.8 L-7.04 497.8 L-200.65 497.8" class="st15"/>
		</g>
		<g id="shape2061-118" transform="translate(239.134,-210.151)">
			<title>Sheet.2061</title>
			<desc>nrf_modem_os_application_irq_clear()</desc>
			<rect x="0" y="485.883" width="198.425" height="19" class="st3"/>
			<text x="23.78" y="498.38" class="st11">nrf_modem_os_application_irq_clear()</text>		</g>
		<g id="shape2063-121" transform="translate(434.514,-166.388)">
			<title>Dynamic connector.2063</title>
			<path d="M0 497.8 L-193.97 497.8" class="st16"/>
		</g>
		<g id="shape2064-126" transform="translate(437.51,-123.466)">
			<title>Dynamic connector.2064</title>
			<path d="M-6.68 497.8 L-7.04 497.8 L-203.92 497.8" class="st17"/>
		</g>
		<g id="shape2067-131" transform="translate(154.551,-52.5917)">
			<title>Rectangle.2067</title>
			<desc>If no timeout, data is ready for consumption by the application</desc>
			<rect x="0" y="475.962" width="153.071" height="28.9213" class="st13"/>
			<text x="10.39" y="487.42" class="st6">If no timeout, data is ready for <tspan x="7.88" dy="1.2em" class="st12">consumption by the application</tspan></text>		</g>
		<g id="shape2068-135" transform="translate(30.9606,-28.0066)">
			<title>Sheet.2068</title>
			<desc>Bytes received or -1, errno NRF_ETIMEDOUT</desc>
			<rect x="0" y="480.963" width="123.591" height="23.9205" class="st3"/>
			<text x="15.94" y="489.92" class="st11">Bytes received or -1, <tspan x="6.23" dy="1.2em" class="st12">errno NRF_ETIMEDOUT</tspan></text>		</g>
		<g id="group2070-139" transform="translate(260.617,-183.117)">
			<title>Sheet.2070</title>
			<g id="shape2044-140">
				<title>Sheet.2044</title>
				<desc>NVIC_ClearPendingIRQ(EGU2)</desc>
				<rect x="0" y="485.883" width="174.052" height="19" class="st3"/>
				<text x="14.16" y="498.68" class="st18">NVIC_ClearPendingIRQ(EGU2)</text>			</g>
			<g id="shape2048-143" transform="translate(174.109,-16.5866)">
				<title>Dynamic connector.2048</title>
				<path d="M7.09 508.43 C114.8 507.01 116.22 518.35 7.09 515.51" class="st19"/>
			</g>
		</g>
		<g id="shape2072-149" transform="translate(226.696,-130.552)">
			<title>path544.2072</title>
			<path d="M0 399.41 L6.89 399.41 L6.89 504.88 L0 504.88 L0 399.41 Z" class="st2"/>
		</g>
		<g id="group2074-151" transform="translate(260.617,-300.731)">
			<title>Sheet.2074</title>
			<g id="shape880-152" transform="translate(174.109,-28.9213)">
				<title>Dynamic connector.880</title>
				<path d="M7.09 508.43 C114.8 507.01 116.22 518.35 7.09 515.51" class="st19"/>
			</g>
			<g id="shape2042-157">
				<title>Sheet.2042</title>
				<desc>Start timer/thread Sleep</desc>
				<rect x="0" y="475.962" width="174.052" height="28.9213" class="st3"/>
				<text x="85.08" y="487.12" class="st18">Start timer/thread <tspan x="141.92" dy="1.2em" class="st12">Sleep</tspan></text>			</g>
			<g id="shape2046-161" transform="translate(174.109,-14.748)">
				<title>Dynamic connector.2046</title>
				<path d="M7.09 508.43 C114.8 507.01 116.22 518.35 7.09 515.51" class="st19"/>
			</g>
		</g>
		<g id="shape2075-166" transform="translate(563.24,-245.836)">
			<title>Dynamic connector.2075</title>
			<path d="M0 497.8 L-118.23 497.8" class="st8"/>
		</g>
		<g id="shape2076-171" transform="translate(438.016,-253.178)">
			<title>Sheet.2076</title>
			<desc>EGU1_IRQHandler (Priority 6)</desc>
			<rect x="0" y="485.883" width="130.394" height="19" class="st3"/>
			<text x="4.68" y="498.08" class="st20">EGU1_IRQHandler (Priority 6)</text>		</g>
		<g id="group2078-174" transform="translate(239.591,-104.466)">
			<title>Sheet.2078</title>
			<g id="shape2065-175">
				<title>Sheet.2065</title>
				<desc>return NRF_ETIMEDOUT/remaining</desc>
				<rect x="0" y="485.883" width="198.425" height="19" class="st3"/>
				<text x="17.77" y="498.68" class="st18">return NRF_ETIMEDOUT/remaining</text>			</g>
			<g id="shape2066-178" transform="translate(191.904,-16.5866)">
				<title>Dynamic connector.2066</title>
				<path d="M7.09 508.43 C114.8 507.01 116.22 518.35 7.09 515.51" class="st19"/>
			</g>
		</g>
	</g>
</svg>
