<?xml version="1.0" encoding="UTF-8" standalone="no"?>
<!DOCTYPE svg PUBLIC "-//W3C//DTD SVG 1.1//EN" "http://www.w3.org/Graphics/SVG/1.1/DTD/svg11.dtd">
<!-- Generated by Microsoft Visio, SVG Export security_tags.svg Page-1 -->
<svg xmlns="http://www.w3.org/2000/svg" xmlns:xlink="http://www.w3.org/1999/xlink" xmlns:ev="http://www.w3.org/2001/xml-events"
		width="6.64195in" height="4.27975in" viewBox="0 0 478.22 308.142" xml:space="preserve" color-interpolation-filters="sRGB"
		class="st13">
	<style type="text/css">
	<![CDATA[
		.st1 {fill:#6ad1e3;stroke:none;stroke-width:1}
		.st2 {fill:#00a9ce;stroke:#feffff;stroke-width:1}
		.st3 {fill:#ffcd00;stroke:#feffff;stroke-width:1}
		.st4 {fill:#333f48;font-family:Calibri;font-size:1.00001em}
		.st5 {fill:#ff585d;stroke:#feffff;stroke-width:1}
		.st6 {fill:#d0df00;stroke:#feffff;stroke-width:1}
		.st7 {fill:none;stroke:none;stroke-width:1}
		.st8 {fill:#002b8c;stroke:none;stroke-width:0.5}
		.st9 {fill:#feffff;font-family:Calibri;font-size:1.00001em}
		.st10 {fill:#feffff;font-size:1em}
		.st11 {marker-end:url(#mrkr13-59);stroke:#333f48;stroke-linecap:butt;stroke-width:1}
		.st12 {fill:#333f48;fill-opacity:1;stroke:#333f48;stroke-opacity:1;stroke-width:0.28409090909091}
		.st13 {fill:none;fill-rule:evenodd;font-size:12px;overflow:visible;stroke-linecap:square;stroke-miterlimit:3}
	]]>
	</style>

	<defs id="Markers">
		<g id="lend13">
			<path d="M 3 1 L 0 0 L 3 -1 L 3 1 " style="stroke:none"/>
		</g>
		<marker id="mrkr13-59" class="st12" refX="-10.56" orient="auto" markerUnits="strokeWidth" overflow="visible">
			<use xlink:href="#lend13" transform="scale(-3.52,-3.52) "/>
		</marker>
	</defs>
	<g>
		<title>Page-1</title>
		<g id="shape6-1" transform="translate(250.449,-1)">
			<title>Rectangle.209</title>
			<rect x="0" y="1.99999" width="226.772" height="306.142" class="st1"/>
		</g>
		<g id="shape8-3" transform="translate(292.969,-20.1339)">
			<title>Rectangle.8</title>
			<rect x="0" y="287.591" width="164.409" height="20.5512" class="st2"/>
		</g>
		<g id="shape9-5" transform="translate(292.969,-40.685)">
			<title>Rectangle.9</title>
			<rect x="0" y="287.591" width="164.409" height="20.5512" class="st2"/>
		</g>
		<g id="shape10-7" transform="translate(292.969,-61.2362)">
			<title>Rectangle.10</title>
			<rect x="0" y="287.591" width="164.409" height="20.5512" class="st2"/>
		</g>
		<g id="shape11-9" transform="translate(292.969,-81.7874)">
			<title>Rectangle.11</title>
			<desc>Private key</desc>
			<rect x="0" y="287.591" width="164.409" height="20.5512" class="st3"/>
			<text x="55.27" y="301.47" class="st4">Private key</text>		</g>
		<g id="shape12-12" transform="translate(292.969,-102.339)">
			<title>Rectangle.12</title>
			<rect x="0" y="287.591" width="164.409" height="20.5512" class="st2"/>
		</g>
		<g id="shape13-14" transform="translate(292.969,-122.89)">
			<title>Rectangle.13</title>
			<rect x="0" y="287.591" width="164.409" height="20.5512" class="st2"/>
		</g>
		<g id="shape14-16" transform="translate(292.969,-143.795)">
			<title>Rectangle.14</title>
			<rect x="0" y="287.591" width="164.409" height="20.5512" class="st2"/>
		</g>
		<g id="shape15-18" transform="translate(292.969,-164.346)">
			<title>Rectangle.15</title>
			<desc>Public certificate</desc>
			<rect x="0" y="287.591" width="164.409" height="20.5512" class="st5"/>
			<text x="41.54" y="301.47" class="st4">Public certificate</text>		</g>
		<g id="shape16-21" transform="translate(292.969,-184.898)">
			<title>Rectangle.16</title>
			<desc>Root CA</desc>
			<rect x="0" y="287.591" width="164.409" height="20.5512" class="st6"/>
			<text x="62.58" y="301.47" class="st4">Root CA</text>		</g>
		<g id="shape17-24" transform="translate(292.969,-205.449)">
			<title>Rectangle.17</title>
			<rect x="0" y="287.591" width="164.409" height="20.5512" class="st2"/>
		</g>
		<g id="shape18-26" transform="translate(292.969,-226)">
			<title>Rectangle.18</title>
			<rect x="0" y="287.591" width="164.409" height="20.5512" class="st2"/>
		</g>
		<g id="shape19-28" transform="translate(292.969,-246.551)">
			<title>Rectangle.19</title>
			<rect x="0" y="287.591" width="164.409" height="20.5512" class="st2"/>
		</g>
		<g id="shape21-30" transform="translate(202.26,-282.969)">
			<title>Sheet.21</title>
			<desc>Modem</desc>
			<rect x="0" y="288.142" width="152" height="20" class="st7"/>
			<text x="56.78" y="301.74" class="st4">Modem</text>		</g>
		<g id="shape26-33" transform="translate(270.134,-82.3386)">
			<title>Square.213</title>
			<desc>1</desc>
			<rect x="0" y="288.142" width="20" height="20" class="st8"/>
			<text x="6.96" y="301.74" class="st9">1</text>		</g>
		<g id="shape27-36" transform="translate(270.134,-164.346)">
			<title>Square.27</title>
			<desc>1</desc>
			<rect x="0" y="288.142" width="20" height="20" class="st8"/>
			<text x="6.96" y="301.74" class="st9">1</text>		</g>
		<g id="shape28-39" transform="translate(270.134,-185.252)">
			<title>Square.28</title>
			<desc>1</desc>
			<rect x="0" y="288.142" width="20" height="20" class="st8"/>
			<text x="6.96" y="301.74" class="st9">1</text>		</g>
		<g id="shape29-42" transform="translate(1,-184.898)">
			<title>Rectangle.29</title>
			<desc>AT%CMNG=1,1,0,&#60;Root CA&#62;</desc>
			<rect x="0" y="287.591" width="192.756" height="20.5512" class="st6"/>
			<text x="4" y="301.47" class="st4">AT%CMNG=1,<tspan class="st10">1</tspan>,0,&#60;Root CA&#62;</text>		</g>
		<g id="shape30-46" transform="translate(1,-164.048)">
			<title>Rectangle.30</title>
			<desc>AT%CMNG=1,1,1,&#60;Public certificate&#62;</desc>
			<rect x="0" y="287.591" width="192.756" height="20.5512" class="st5"/>
			<text x="4" y="301.47" class="st4">AT%CMNG=1,<tspan class="st10">1</tspan>,1,&#60;Public certificate&#62;</text>		</g>
		<g id="shape31-50" transform="translate(1,-141.984)">
			<title>Rectangle.31</title>
			<desc>AT%CMNG=1,1,2,&#60;Private key&#62;</desc>
			<rect x="0" y="287.591" width="192.756" height="20.5512" class="st3"/>
			<text x="4" y="301.47" class="st4">AT%CMNG=1,<tspan class="st10">1</tspan>,2,&#60;Private key&#62;</text>		</g>
		<g id="shape40-54" transform="translate(193.756,-188.126)">
			<title>Dynamic connector</title>
			<path d="M0 301.09 L65.82 301.03" class="st11"/>
		</g>
		<g id="shape42-60" transform="translate(193.756,-167.248)">
			<title>Dynamic connector.42</title>
			<path d="M0 301.07 L65.82 301.05" class="st11"/>
		</g>
		<g id="shape43-65" transform="translate(193.756,-152.26)">
			<title>Dynamic connector.43</title>
			<path d="M0 308.14 L10.63 308.14 L10.63 368.06 L65.82 368.06" class="st11"/>
		</g>
		<g id="shape44-70" transform="translate(1,-213.598)">
			<title>Sheet.44</title>
			<desc>Key provisioning</desc>
			<rect x="0" y="288.142" width="117.984" height="20" class="st7"/>
			<text x="4" y="301.74" class="st4">Key provisioning</text>		</g>
	</g>
</svg>
