<?xml version="1.0" encoding="UTF-8" standalone="no"?>
<!DOCTYPE svg PUBLIC "-//W3C//DTD SVG 1.1//EN" "http://www.w3.org/Graphics/SVG/1.1/DTD/svg11.dtd">
<!-- Generated by Microsoft Visio, SVG Export security_tags2.svg Page-1 -->
<svg xmlns="http://www.w3.org/2000/svg" xmlns:xlink="http://www.w3.org/1999/xlink" xmlns:ev="http://www.w3.org/2001/xml-events"
		width="6.64195in" height="4.27975in" viewBox="0 0 478.22 308.142" xml:space="preserve" color-interpolation-filters="sRGB"
		class="st12">
	<style type="text/css">
	<![CDATA[
		.st1 {fill:#6ad1e3;stroke:none;stroke-width:1}
		.st2 {fill:#00a9ce;stroke:#feffff;stroke-width:1}
		.st3 {fill:#ffcd00;stroke:#feffff;stroke-width:1}
		.st4 {fill:#333f48;font-family:Calibri;font-size:1.00001em}
		.st5 {fill:#ff585d;stroke:#feffff;stroke-width:1}
		.st6 {fill:none;stroke:none;stroke-width:1}
		.st7 {fill:#002b8c;stroke:none;stroke-width:0.5}
		.st8 {fill:#feffff;font-family:Calibri;font-size:1.00001em}
		.st9 {fill:#feffff;font-size:1em}
		.st10 {marker-end:url(#mrkr13-51);stroke:#333f48;stroke-linecap:butt;stroke-width:1}
		.st11 {fill:#333f48;fill-opacity:1;stroke:#333f48;stroke-opacity:1;stroke-width:0.28409090909091}
		.st12 {fill:none;fill-rule:evenodd;font-size:12px;overflow:visible;stroke-linecap:square;stroke-miterlimit:3}
	]]>
	</style>

	<defs id="Markers">
		<g id="lend13">
			<path d="M 3 1 L 0 0 L 3 -1 L 3 1 " style="stroke:none"/>
		</g>
		<marker id="mrkr13-51" class="st11" refX="-10.56" orient="auto" markerUnits="strokeWidth" overflow="visible">
			<use xlink:href="#lend13" transform="scale(-3.52,-3.52) "/>
		</marker>
	</defs>
	<g>
		<title>Page-1</title>
		<g id="shape1-1" transform="translate(250.449,-1)">
			<title>Rectangle.209</title>
			<rect x="0" y="1.99999" width="226.772" height="306.142" class="st1"/>
		</g>
		<g id="shape2-3" transform="translate(292.969,-20.1339)">
			<title>Rectangle.2</title>
			<rect x="0" y="287.591" width="164.409" height="20.5512" class="st2"/>
		</g>
		<g id="shape3-5" transform="translate(292.969,-40.685)">
			<title>Rectangle.3</title>
			<rect x="0" y="287.591" width="164.409" height="20.5512" class="st2"/>
		</g>
		<g id="shape4-7" transform="translate(292.969,-61.2362)">
			<title>Rectangle.4</title>
			<rect x="0" y="287.591" width="164.409" height="20.5512" class="st2"/>
		</g>
		<g id="shape5-9" transform="translate(292.969,-81.7874)">
			<title>Rectangle.5</title>
			<desc>Root CA 5</desc>
			<rect x="0" y="287.591" width="164.409" height="20.5512" class="st3"/>
			<text x="58.18" y="301.47" class="st4">Root CA 5</text>		</g>
		<g id="shape6-12" transform="translate(292.969,-102.339)">
			<title>Rectangle.6</title>
			<rect x="0" y="287.591" width="164.409" height="20.5512" class="st2"/>
		</g>
		<g id="shape7-14" transform="translate(292.969,-122.89)">
			<title>Rectangle.7</title>
			<rect x="0" y="287.591" width="164.409" height="20.5512" class="st2"/>
		</g>
		<g id="shape8-16" transform="translate(292.969,-143.795)">
			<title>Rectangle.14</title>
			<rect x="0" y="287.591" width="164.409" height="20.5512" class="st2"/>
		</g>
		<g id="shape9-18" transform="translate(292.969,-164.346)">
			<title>Rectangle.15</title>
			<desc>Root CA 4</desc>
			<rect x="0" y="287.591" width="164.409" height="20.5512" class="st5"/>
			<text x="58.18" y="301.47" class="st4">Root CA 4</text>		</g>
		<g id="shape10-21" transform="translate(292.969,-184.898)">
			<title>Rectangle.16</title>
			<rect x="0" y="287.591" width="164.409" height="20.5512" class="st2"/>
		</g>
		<g id="shape11-23" transform="translate(292.969,-205.449)">
			<title>Rectangle.17</title>
			<rect x="0" y="287.591" width="164.409" height="20.5512" class="st2"/>
		</g>
		<g id="shape12-25" transform="translate(292.969,-226)">
			<title>Rectangle.12</title>
			<rect x="0" y="287.591" width="164.409" height="20.5512" class="st2"/>
		</g>
		<g id="shape13-27" transform="translate(292.969,-246.551)">
			<title>Rectangle.13</title>
			<rect x="0" y="287.591" width="164.409" height="20.5512" class="st2"/>
		</g>
		<g id="shape14-29" transform="translate(202.26,-282.969)">
			<title>Sheet.14</title>
			<desc>Modem</desc>
			<rect x="0" y="288.142" width="152" height="20" class="st6"/>
			<text x="56.78" y="301.74" class="st4">Modem</text>		</g>
		<g id="shape15-32" transform="translate(270.134,-82.3386)">
			<title>Square.213</title>
			<desc>5</desc>
			<rect x="0" y="288.142" width="20" height="20" class="st7"/>
			<text x="6.96" y="301.74" class="st8">5</text>		</g>
		<g id="shape16-35" transform="translate(270.134,-164.346)">
			<title>Square.27</title>
			<desc>4</desc>
			<rect x="0" y="288.142" width="20" height="20" class="st7"/>
			<text x="6.96" y="301.74" class="st8">4</text>		</g>
		<g id="shape19-38" transform="translate(1,-164.048)">
			<title>Rectangle.30</title>
			<desc>AT%CMNG=1,4,0,&#60;Root CA 4&#62;</desc>
			<rect x="0" y="287.591" width="192.756" height="20.5512" class="st5"/>
			<text x="4" y="301.47" class="st4">AT%CMNG=1,<tspan class="st9">4</tspan>,0,&#60;Root CA 4&#62;</text>		</g>
		<g id="shape20-42" transform="translate(1,-141.984)">
			<title>Rectangle.31</title>
			<desc>AT%CMNG=1,5,0,&#60;Root CA 5&#62;</desc>
			<rect x="0" y="287.591" width="192.756" height="20.5512" class="st3"/>
			<text x="4" y="301.47" class="st4">AT%CMNG=1,<tspan class="st9">5</tspan>,0,&#60;Root CA 5&#62;</text>		</g>
		<g id="shape22-46" transform="translate(193.756,-167.248)">
			<title>Dynamic connector.42</title>
			<path d="M0 301.07 L65.82 301.05" class="st10"/>
		</g>
		<g id="shape23-52" transform="translate(193.756,-152.26)">
			<title>Dynamic connector.43</title>
			<path d="M0 308.14 L10.63 308.14 L10.63 368.06 L65.82 368.06" class="st10"/>
		</g>
		<g id="shape24-57" transform="translate(1,-193.598)">
			<title>Sheet.24</title>
			<desc>Key provisioning</desc>
			<rect x="0" y="288.142" width="117.984" height="20" class="st6"/>
			<text x="4" y="301.74" class="st4">Key provisioning</text>		</g>
	</g>
</svg>
